G04 Layer: BottomAssemblyLayer*
G04 EasyEDA Pro v3.2.186, 2026-09-09 10:29:57*
G04 Gerber Generator version 0.3*
G04 Scale: 100 percent, Rotated: No, Reflected: No*
G04 Dimensions in millimeters*
G04 Leading zeros omitted, absolute positions, 4 integers and 5 decimals*
G04 Generated by one-click*
G04 Object Configs: Pad,Via,Track,Text,Image,Dimension,BoardOutline,BoardCutout,CopperFilled,SolidRegion,FPCStiffener,Line,PlaneZone,ComponentProperty,ComponentSilkscreen,TearDrop*
G04 Layer Configs: 1,2,3,4,5,6,7,8,9,10,11,13,14,71,72,56*
G04 Copper Areas: 0*
%FSLAX45Y45*%
%MOMM*%
%ADD10C,0.1524*%
%ADD11C,0.254*%
%ADD12C,0.0762*%
%ADD13C,0.0485*%
G75*


G04 PolygonModel Start*
G54D10*
G01X104965Y1045527D02*
G01X106969Y1309166D01*
G01X106969Y1309166D02*
G01X-428717Y1309166D01*
G01X-428717Y1309166D02*
G01X-568163Y1169720D01*
G01X-568163Y1169720D02*
G01X-566827Y1040180D01*
G01X106352Y900831D02*
G01X107020Y633983D01*
G01X107020Y633983D02*
G01X-428600Y633983D01*
G01X-428600Y633983D02*
G01X-568213Y773597D01*
G01X-568213Y773597D02*
G01X-568213Y903020D01*
G36*
G01X-511097Y1057401D02*
G01X-511097Y1189400D01*
G01X-491297Y1189400D01*
G01X-491297Y1057401D01*
G01X-511097Y1057401D01*
G37*
G36*
G01X-540797Y1113500D02*
G01X-540797Y1133299D01*
G01X-461597Y1133299D01*
G01X-461597Y1113500D01*
G01X-540797Y1113500D01*
G37*
G36*
G01X79603Y1113500D02*
G01X404Y1113500D01*
G01X404Y1133299D01*
G01X79603Y1133299D01*
G01X79603Y1113500D01*
G37*
G54D11*
G01X391268Y942471D02*
G01X311271Y942471D01*
G01X447313Y942517D02*
G01X527311Y942517D01*
G01X391268Y800503D02*
G01X311271Y800503D01*
G01X447313Y800551D02*
G01X527311Y800551D01*
G01X280296Y911488D02*
G01X280296Y831483D01*
G01X558288Y831537D02*
G01X558288Y911539D01*
G01X527306Y800551D02*
G03X558288Y831537I0J30983D01*
G01X558288Y911534D02*
G03X527306Y942517I-30983J0D01*
G01X311276Y942471D02*
G03X280296Y911488I3J-30983D01*
G01X280296Y831491D02*
G03X311276Y800503I30983J-5D01*
G54D10*
G01X-319043Y278879D02*
G01X-319043Y564121D01*
G01X-490270Y278879D02*
G01X28967Y278879D01*
G01X28678Y539061D02*
G01X29346Y562983D01*
G01X28967Y278879D02*
G01X29635Y302801D01*
G01X-490270Y564121D02*
G01X28967Y564121D01*
G36*
G01X-482652Y271259D02*
G01X-528372Y271259D01*
G01X-528738Y311467D01*
G01X-482784Y311919D01*
G01X-482652Y271259D01*
G37*
G36*
G01X-481829Y531096D02*
G01X-527549Y531096D01*
G01X-527915Y571304D01*
G01X-481961Y571756D01*
G01X-481829Y531096D01*
G37*
G01X-323270Y12239D02*
G01X-442281Y12239D01*
G01X-138030Y12239D02*
G01X-19021Y12239D01*
G01X-457521Y27479D02*
G01X-457521Y215521D01*
G01X-3781Y27479D02*
G01X-3781Y215521D01*
G01X-442281Y230761D02*
G01X-323270Y230761D01*
G01X-19021Y230761D02*
G01X-138030Y230761D01*
G54D12*
G01X-230651Y121500D02*
G03X-230651Y37005I73175J-42247D01*
G01X-230651Y121500D02*
G03X-230651Y205995I-73175J42247D01*
G54D10*
G01X1162021Y887540D02*
G01X1257779Y887540D01*
G01X1257779Y887540D02*
G01X1257779Y755460D01*
G01X1257779Y755460D02*
G01X1162021Y755460D01*
G01X1076677Y887540D02*
G01X980919Y887540D01*
G01X980919Y887540D02*
G01X980919Y755460D01*
G01X980919Y755460D02*
G01X1076677Y755460D01*
G01X312021Y237540D02*
G01X407779Y237540D01*
G01X407779Y237540D02*
G01X407779Y105460D01*
G01X407779Y105460D02*
G01X312021Y105460D01*
G01X226677Y237540D02*
G01X130919Y237540D01*
G01X130919Y237540D02*
G01X130919Y105460D01*
G01X130919Y105460D02*
G01X226677Y105460D01*
G01X612021Y237540D02*
G01X707779Y237540D01*
G01X707779Y237540D02*
G01X707779Y105460D01*
G01X707779Y105460D02*
G01X612021Y105460D01*
G01X526677Y237540D02*
G01X430919Y237540D01*
G01X430919Y237540D02*
G01X430919Y105460D01*
G01X430919Y105460D02*
G01X526677Y105460D01*
G01X1212021Y237540D02*
G01X1307779Y237540D01*
G01X1307779Y237540D02*
G01X1307779Y105460D01*
G01X1307779Y105460D02*
G01X1212021Y105460D01*
G01X1126677Y237540D02*
G01X1030919Y237540D01*
G01X1030919Y237540D02*
G01X1030919Y105460D01*
G01X1030919Y105460D02*
G01X1126677Y105460D01*
G01X1512021Y237540D02*
G01X1607779Y237540D01*
G01X1607779Y237540D02*
G01X1607779Y105460D01*
G01X1607779Y105460D02*
G01X1512021Y105460D01*
G01X1426677Y237540D02*
G01X1330919Y237540D01*
G01X1330919Y237540D02*
G01X1330919Y105460D01*
G01X1330919Y105460D02*
G01X1426677Y105460D01*
G54D11*
G01X-1838749Y-63665D02*
G01X-1838749Y836333D01*
G01X-630652Y160546D02*
G01X-630652Y-63665D01*
G01X-749409Y836333D02*
G01X-630652Y836333D01*
G01X-630652Y836333D02*
G01X-630652Y612122D01*
G01X-630652Y-63665D02*
G01X-2030649Y-63665D01*
G01X-2030649Y-63665D02*
G01X-2030649Y836333D01*
G01X-2030649Y836333D02*
G01X-1191944Y836333D01*
G01X-438651Y-1108502D02*
G01X577349Y-1108499D01*
G01X577349Y-1108499D02*
G01X577349Y-524500D01*
G01X-438651Y-1108499D02*
G01X-438651Y-524500D01*
G01X-438651Y-969000D02*
G01X577349Y-969000D01*
G01X577349Y-524500D02*
G01X17574Y-524500D01*
G01X-132876Y-524500D02*
G01X-438651Y-524500D01*
G01X861349Y-1108502D02*
G01X1877349Y-1108499D01*
G01X1877349Y-1108499D02*
G01X1877349Y-524500D01*
G01X861349Y-1108499D02*
G01X861349Y-524500D01*
G01X861349Y-969000D02*
G01X1877349Y-969000D01*
G01X1877349Y-524500D02*
G01X1317574Y-524500D01*
G01X1167124Y-524500D02*
G01X861349Y-524500D01*
G54D10*
G01X841970Y668879D02*
G01X696728Y668879D01*
G01X696728Y668879D02*
G01X696728Y772041D01*
G01X841970Y974121D02*
G01X696728Y974121D01*
G01X696728Y974121D02*
G01X696728Y870959D01*
G01X841970Y775960D02*
G01X841970Y867040D01*
G01X611970Y1237560D02*
G01X707858Y1237560D01*
G01X707858Y1237560D02*
G01X707858Y1105440D01*
G01X707858Y1105440D02*
G01X611970Y1105440D01*
G01X526728Y1237560D02*
G01X430840Y1237560D01*
G01X430840Y1237560D02*
G01X430840Y1105440D01*
G01X430840Y1105440D02*
G01X526728Y1105440D01*

M02*

