G04 Layer: TopSilkscreenLayer*
G04 EasyEDA Pro v3.2.186, 2026-09-09 10:29:57*
G04 Gerber Generator version 0.3*
G04 Scale: 100 percent, Rotated: No, Reflected: No*
G04 Dimensions in millimeters*
G04 Leading zeros omitted, absolute positions, 4 integers and 5 decimals*
G04 Generated by one-click*
G04 Object Configs: Pad,Via,Track,Text,Image,Dimension,BoardOutline,BoardCutout,CopperFilled,SolidRegion,FPCStiffener,Line,PlaneZone,ComponentProperty,ComponentSilkscreen,TearDrop*
G04 Layer Configs: 1,2,3,4,5,6,7,8,9,10,11,13,14,71,72,56*
G04 Copper Areas: 0*
%FSLAX45Y45*%
%MOMM*%
%ADD10C,0.1524*%
%ADD11C,0.254*%
%ADD12C,0.3040*%
G75*


G04 Text Start*
G54D10*
G01X263906Y615696D02*
G01X261366Y621284D01*
G01X256032Y626618D01*
G01X250444Y629158D01*
G01X239776Y629158D01*
G01X234442Y626618D01*
G01X228854Y621284D01*
G01X226314Y615696D01*
G01X223520Y607568D01*
G01X223520Y594106D01*
G01X226314Y585978D01*
G01X228854Y580644D01*
G01X234442Y575310D01*
G01X239776Y572516D01*
G01X250444Y572516D01*
G01X256032Y575310D01*
G01X261366Y580644D01*
G01X263906Y585978D01*
G01X263906Y594106D01*
G01X250444Y594106D02*
G01X263906Y594106D01*
G01X292100Y629158D02*
G01X292100Y572516D01*
G01X292100Y629158D02*
G01X316484Y629158D01*
G01X324612Y626618D01*
G01X327152Y623824D01*
G01X329946Y618490D01*
G01X329946Y613156D01*
G01X327152Y607568D01*
G01X324612Y605028D01*
G01X316484Y602234D01*
G01X292100Y602234D02*
G01X316484Y602234D01*
G01X324612Y599694D01*
G01X327152Y596900D01*
G01X329946Y591566D01*
G01X329946Y583438D01*
G01X327152Y578104D01*
G01X324612Y575310D01*
G01X316484Y572516D01*
G01X292100Y572516D01*
G01X358140Y618490D02*
G01X363474Y621284D01*
G01X371602Y629158D01*
G01X371602Y572516D01*
G01X416052Y629158D02*
G01X407924Y626618D01*
G01X402590Y618490D01*
G01X399796Y605028D01*
G01X399796Y596900D01*
G01X402590Y583438D01*
G01X407924Y575310D01*
G01X416052Y572516D01*
G01X421386Y572516D01*
G01X429514Y575310D01*
G01X434848Y583438D01*
G01X437642Y596900D01*
G01X437642Y605028D01*
G01X434848Y618490D01*
G01X429514Y626618D01*
G01X421386Y629158D01*
G01X416052Y629158D01*
G01X526288Y629158D02*
G01X526288Y572516D01*
G01X526288Y629158D02*
G01X561340Y629158D01*
G01X526288Y602234D02*
G01X547878Y602234D01*
G01X611124Y629158D02*
G01X589534Y572516D01*
G01X611124Y629158D02*
G01X632714Y572516D01*
G01X597662Y591566D02*
G01X624586Y591566D01*
G01X660908Y629158D02*
G01X660908Y572516D01*
G01X660908Y629158D02*
G01X698754Y572516D01*
G01X698754Y629158D02*
G01X698754Y572516D01*
G01X787400Y629158D02*
G01X787400Y572516D01*
G01X787400Y629158D02*
G01X811784Y629158D01*
G01X819912Y626618D01*
G01X822452Y623824D01*
G01X825246Y618490D01*
G01X825246Y613156D01*
G01X822452Y607568D01*
G01X819912Y605028D01*
G01X811784Y602234D01*
G01X787400Y602234D02*
G01X811784Y602234D01*
G01X819912Y599694D01*
G01X822452Y596900D01*
G01X825246Y591566D01*
G01X825246Y583438D01*
G01X822452Y578104D01*
G01X819912Y575310D01*
G01X811784Y572516D01*
G01X787400Y572516D01*
G01X-1823031Y-856110D02*
G01X-1817697Y-853316D01*
G01X-1809569Y-845442D01*
G01X-1809569Y-902084D01*
G01X-1778581Y-858904D02*
G01X-1778581Y-856110D01*
G01X-1776041Y-850776D01*
G01X-1773247Y-847982D01*
G01X-1767913Y-845442D01*
G01X-1756991Y-845442D01*
G01X-1751657Y-847982D01*
G01X-1748863Y-850776D01*
G01X-1746323Y-856110D01*
G01X-1746323Y-861444D01*
G01X-1748863Y-867032D01*
G01X-1754451Y-874906D01*
G01X-1781375Y-902084D01*
G01X-1743529Y-902084D01*
G01X-1715335Y-845442D02*
G01X-1693745Y-902084D01*
G01X-1672155Y-845442D02*
G01X-1693745Y-902084D01*
G01X-1543123Y-858904D02*
G01X-1545663Y-853316D01*
G01X-1550997Y-847982D01*
G01X-1556585Y-845442D01*
G01X-1567253Y-845442D01*
G01X-1572587Y-847982D01*
G01X-1578175Y-853316D01*
G01X-1580715Y-858904D01*
G01X-1583509Y-867032D01*
G01X-1583509Y-880494D01*
G01X-1580715Y-888622D01*
G01X-1578175Y-893956D01*
G01X-1572587Y-899290D01*
G01X-1567253Y-902084D01*
G01X-1556585Y-902084D01*
G01X-1550997Y-899290D01*
G01X-1545663Y-893956D01*
G01X-1543123Y-888622D01*
G01X-1514929Y-845442D02*
G01X-1514929Y-902084D01*
G01X-1514929Y-845442D02*
G01X-1479877Y-845442D01*
G01X-1514929Y-872366D02*
G01X-1493339Y-872366D01*
G01X-1514929Y-902084D02*
G01X-1479877Y-902084D01*
G01X-1451683Y-845442D02*
G01X-1451683Y-902084D01*
G01X-1451683Y-845442D02*
G01X-1413837Y-902084D01*
G01X-1413837Y-845442D02*
G01X-1413837Y-902084D01*
G01X-1366847Y-845442D02*
G01X-1366847Y-902084D01*
G01X-1385643Y-845442D02*
G01X-1347797Y-845442D01*
G01X-1319603Y-845442D02*
G01X-1319603Y-902084D01*
G01X-1319603Y-845442D02*
G01X-1284551Y-845442D01*
G01X-1319603Y-872366D02*
G01X-1298013Y-872366D01*
G01X-1319603Y-902084D02*
G01X-1284551Y-902084D01*
G01X-1256357Y-845442D02*
G01X-1256357Y-902084D01*
G01X-1256357Y-845442D02*
G01X-1231973Y-845442D01*
G01X-1223845Y-847982D01*
G01X-1221305Y-850776D01*
G01X-1218511Y-856110D01*
G01X-1218511Y-861444D01*
G01X-1221305Y-867032D01*
G01X-1223845Y-869572D01*
G01X-1231973Y-872366D01*
G01X-1256357Y-872366D01*
G01X-1237561Y-872366D02*
G01X-1218511Y-902084D01*
G01X-1165933Y-853316D02*
G01X-1165933Y-902084D01*
G01X-1190317Y-877700D02*
G01X-1141803Y-877700D01*
G01X-223031Y-945442D02*
G01X-223031Y-1002084D01*
G01X-223031Y-945442D02*
G01X-187979Y-945442D01*
G01X-223031Y-972366D02*
G01X-201441Y-972366D01*
G01X-138195Y-945442D02*
G01X-159785Y-1002084D01*
G01X-138195Y-945442D02*
G01X-116605Y-1002084D01*
G01X-151657Y-983034D02*
G01X-124733Y-983034D01*
G01X-88411Y-945442D02*
G01X-88411Y-1002084D01*
G01X-88411Y-945442D02*
G01X-50565Y-1002084D01*
G01X-50565Y-945442D02*
G01X-50565Y-1002084D01*
G01X-22371Y-956110D02*
G01X-17037Y-953316D01*
G01X-8909Y-945442D01*
G01X-8909Y-1002084D01*
G01X1076969Y-945442D02*
G01X1076969Y-1002084D01*
G01X1076969Y-945442D02*
G01X1112021Y-945442D01*
G01X1076969Y-972366D02*
G01X1098559Y-972366D01*
G01X1161805Y-945442D02*
G01X1140215Y-1002084D01*
G01X1161805Y-945442D02*
G01X1183395Y-1002084D01*
G01X1148343Y-983034D02*
G01X1175267Y-983034D01*
G01X1211589Y-945442D02*
G01X1211589Y-1002084D01*
G01X1211589Y-945442D02*
G01X1249435Y-1002084D01*
G01X1249435Y-945442D02*
G01X1249435Y-1002084D01*
G01X1280423Y-958904D02*
G01X1280423Y-956110D01*
G01X1282963Y-950776D01*
G01X1285757Y-947982D01*
G01X1291091Y-945442D01*
G01X1302013Y-945442D01*
G01X1307347Y-947982D01*
G01X1310141Y-950776D01*
G01X1312681Y-956110D01*
G01X1312681Y-961444D01*
G01X1310141Y-967032D01*
G01X1304553Y-974906D01*
G01X1277629Y-1002084D01*
G01X1315475Y-1002084D01*
G01X-273031Y-425194D02*
G01X-269221Y-423416D01*
G01X-263379Y-417574D01*
G01X-263379Y-457706D01*
G01X-236963Y-434846D02*
G01X-238995Y-436624D01*
G01X-236963Y-438656D01*
G01X-235185Y-436624D01*
G01X-236963Y-434846D01*
G01X-236963Y-448054D02*
G01X-238995Y-450086D01*
G01X-236963Y-451864D01*
G01X-235185Y-450086D01*
G01X-236963Y-448054D01*
G01X-182099Y-427226D02*
G01X-184131Y-423416D01*
G01X-187941Y-419606D01*
G01X-191751Y-417574D01*
G01X-199371Y-417574D01*
G01X-203181Y-419606D01*
G01X-206991Y-423416D01*
G01X-208769Y-427226D01*
G01X-210801Y-432814D01*
G01X-210801Y-442466D01*
G01X-208769Y-448054D01*
G01X-206991Y-451864D01*
G01X-203181Y-455674D01*
G01X-199371Y-457706D01*
G01X-191751Y-457706D01*
G01X-187941Y-455674D01*
G01X-184131Y-451864D01*
G01X-182099Y-448054D01*
G01X-182099Y-442466D01*
G01X-191751Y-442466D02*
G01X-182099Y-442466D01*
G01X-113011Y-427226D02*
G01X-113011Y-425194D01*
G01X-111233Y-421384D01*
G01X-109201Y-419606D01*
G01X-105391Y-417574D01*
G01X-97771Y-417574D01*
G01X-93961Y-419606D01*
G01X-92183Y-421384D01*
G01X-90151Y-425194D01*
G01X-90151Y-429004D01*
G01X-92183Y-432814D01*
G01X-95993Y-438656D01*
G01X-115043Y-457706D01*
G01X-88373Y-457706D01*
G01X-61957Y-434846D02*
G01X-63989Y-436624D01*
G01X-61957Y-438656D01*
G01X-60179Y-436624D01*
G01X-61957Y-434846D01*
G01X-61957Y-448054D02*
G01X-63989Y-450086D01*
G01X-61957Y-451864D01*
G01X-60179Y-450086D01*
G01X-61957Y-448054D01*
G01X-18523Y-423416D02*
G01X-18523Y-457706D01*
G01X-35795Y-440434D02*
G01X-1505Y-440434D01*
G01X69361Y-417574D02*
G01X90443Y-417574D01*
G01X79013Y-432814D01*
G01X84601Y-432814D01*
G01X88411Y-434846D01*
G01X90443Y-436624D01*
G01X92221Y-442466D01*
G01X92221Y-446276D01*
G01X90443Y-451864D01*
G01X86633Y-455674D01*
G01X80791Y-457706D01*
G01X75203Y-457706D01*
G01X69361Y-455674D01*
G01X67583Y-453896D01*
G01X65551Y-450086D01*
G01X118637Y-434846D02*
G01X116605Y-436624D01*
G01X118637Y-438656D01*
G01X120415Y-436624D01*
G01X118637Y-434846D01*
G01X118637Y-448054D02*
G01X116605Y-450086D01*
G01X118637Y-451864D01*
G01X120415Y-450086D01*
G01X118637Y-448054D01*
G01X158261Y-417574D02*
G01X158261Y-457706D01*
G01X144799Y-417574D02*
G01X171469Y-417574D01*
G01X257575Y-417574D02*
G01X238525Y-444244D01*
G01X267227Y-444244D01*
G01X257575Y-417574D02*
G01X257575Y-457706D01*
G01X293643Y-434846D02*
G01X291611Y-436624D01*
G01X293643Y-438656D01*
G01X295421Y-436624D01*
G01X293643Y-434846D01*
G01X293643Y-448054D02*
G01X291611Y-450086D01*
G01X293643Y-451864D01*
G01X295421Y-450086D01*
G01X293643Y-448054D01*
G01X319805Y-417574D02*
G01X319805Y-457706D01*
G01X319805Y-417574D02*
G01X337077Y-417574D01*
G01X342665Y-419606D01*
G01X344697Y-421384D01*
G01X346475Y-425194D01*
G01X346475Y-431036D01*
G01X344697Y-434846D01*
G01X342665Y-436624D01*
G01X337077Y-438656D01*
G01X319805Y-438656D01*
G01X-1823031Y993636D02*
G01X-1823031Y959092D01*
G01X-1820745Y952234D01*
G01X-1816173Y947408D01*
G01X-1809315Y945122D01*
G01X-1804489Y945122D01*
G01X-1797631Y947408D01*
G01X-1793059Y952234D01*
G01X-1790773Y959092D01*
G01X-1790773Y993636D01*
G01X-1732353Y986778D02*
G01X-1736925Y991350D01*
G01X-1743783Y993636D01*
G01X-1752927Y993636D01*
G01X-1759785Y991350D01*
G01X-1764357Y986778D01*
G01X-1764357Y981952D01*
G01X-1762071Y977380D01*
G01X-1759785Y975094D01*
G01X-1755213Y972808D01*
G01X-1741497Y968236D01*
G01X-1736925Y965950D01*
G01X-1734639Y963664D01*
G01X-1732353Y959092D01*
G01X-1732353Y952234D01*
G01X-1736925Y947408D01*
G01X-1743783Y945122D01*
G01X-1752927Y945122D01*
G01X-1759785Y947408D01*
G01X-1764357Y952234D01*
G01X-1705937Y993636D02*
G01X-1705937Y945122D01*
G01X-1705937Y993636D02*
G01X-1685363Y993636D01*
G01X-1678505Y991350D01*
G01X-1676219Y989064D01*
G01X-1673933Y984238D01*
G01X-1673933Y979666D01*
G01X-1676219Y975094D01*
G01X-1678505Y972808D01*
G01X-1685363Y970522D01*
G01X-1705937Y970522D02*
G01X-1685363Y970522D01*
G01X-1678505Y968236D01*
G01X-1676219Y965950D01*
G01X-1673933Y961378D01*
G01X-1673933Y954520D01*
G01X-1676219Y949948D01*
G01X-1678505Y947408D01*
G01X-1685363Y945122D01*
G01X-1705937Y945122D01*
G01X-1559125Y986778D02*
G01X-1595955Y965950D01*
G01X-1559125Y945122D01*
G01X76969Y364238D02*
G01X81541Y366778D01*
G01X88399Y373636D01*
G01X88399Y325122D01*
G01X117101Y336806D02*
G01X114815Y334520D01*
G01X117101Y332234D01*
G01X119387Y334520D01*
G01X117101Y336806D01*
G01X168663Y373636D02*
G01X145803Y341378D01*
G01X180093Y341378D01*
G01X168663Y373636D02*
G01X168663Y325122D01*
G01X238513Y373636D02*
G01X215653Y325122D01*
G01X206509Y373636D02*
G01X238513Y373636D01*
G01X264929Y345950D02*
G01X306331Y345950D01*
G01X332747Y373636D02*
G01X332747Y325122D01*
G01X332747Y373636D02*
G01X351035Y325122D01*
G01X369577Y373636D02*
G01X351035Y325122D01*
G01X369577Y373636D02*
G01X369577Y325122D01*
G01X447555Y373636D02*
G01X447555Y339092D01*
G01X449841Y332234D01*
G01X454413Y327408D01*
G01X461271Y325122D01*
G01X465843Y325122D01*
G01X472701Y327408D01*
G01X477273Y332234D01*
G01X479559Y339092D01*
G01X479559Y373636D01*
G01X537979Y366778D02*
G01X533407Y371350D01*
G01X526549Y373636D01*
G01X517405Y373636D01*
G01X510547Y371350D01*
G01X505975Y366778D01*
G01X505975Y361952D01*
G01X508261Y357380D01*
G01X510547Y355094D01*
G01X515119Y352808D01*
G01X528835Y348236D01*
G01X533407Y345950D01*
G01X535693Y343664D01*
G01X537979Y339092D01*
G01X537979Y332234D01*
G01X533407Y327408D01*
G01X526549Y325122D01*
G01X517405Y325122D01*
G01X510547Y327408D01*
G01X505975Y332234D01*
G01X564395Y373636D02*
G01X564395Y325122D01*
G01X564395Y373636D02*
G01X584969Y373636D01*
G01X591827Y371350D01*
G01X594113Y369064D01*
G01X596399Y364238D01*
G01X596399Y359666D01*
G01X594113Y355094D01*
G01X591827Y352808D01*
G01X584969Y350522D01*
G01X564395Y350522D02*
G01X584969Y350522D01*
G01X591827Y348236D01*
G01X594113Y345950D01*
G01X596399Y341378D01*
G01X596399Y334520D01*
G01X594113Y329948D01*
G01X591827Y327408D01*
G01X584969Y325122D01*
G01X564395Y325122D01*
G01X711207Y366778D02*
G01X674377Y345950D01*
G01X711207Y325122D01*
G01X530083Y16636D02*
G01X530083Y-20194D01*
G01X527797Y-27052D01*
G01X525511Y-29592D01*
G01X520685Y-31878D01*
G01X516113Y-31878D01*
G01X511541Y-29592D01*
G01X509255Y-27052D01*
G01X506969Y-20194D01*
G01X506969Y-15622D01*
G01X556499Y16636D02*
G01X556499Y-31878D01*
G01X556499Y16636D02*
G01X572501Y16636D01*
G01X579359Y14350D01*
G01X583931Y9778D01*
G01X586217Y4952D01*
G01X588503Y-1906D01*
G01X588503Y-13336D01*
G01X586217Y-20194D01*
G01X583931Y-24766D01*
G01X579359Y-29592D01*
G01X572501Y-31878D01*
G01X556499Y-31878D01*
G01X614919Y16636D02*
G01X614919Y-31878D01*
G01X673339Y9778D02*
G01X668767Y14350D01*
G01X661909Y16636D01*
G01X652765Y16636D01*
G01X645907Y14350D01*
G01X641335Y9778D01*
G01X641335Y4952D01*
G01X643621Y380D01*
G01X645907Y-1906D01*
G01X650479Y-4192D01*
G01X664195Y-8764D01*
G01X668767Y-11050D01*
G01X671053Y-13336D01*
G01X673339Y-17908D01*
G01X673339Y-24766D01*
G01X668767Y-29592D01*
G01X661909Y-31878D01*
G01X652765Y-31878D01*
G01X645907Y-29592D01*
G01X641335Y-24766D01*
G01X699755Y16636D02*
G01X699755Y-31878D01*
G01X699755Y16636D02*
G01X720329Y16636D01*
G01X727187Y14350D01*
G01X729473Y12064D01*
G01X731759Y7238D01*
G01X731759Y380D01*
G01X729473Y-4192D01*
G01X727187Y-6478D01*
G01X720329Y-8764D01*
G01X699755Y-8764D01*
G01X760461Y4952D02*
G01X760461Y7238D01*
G01X762747Y12064D01*
G01X765033Y14350D01*
G01X769605Y16636D01*
G01X778749Y16636D01*
G01X783321Y14350D01*
G01X785607Y12064D01*
G01X787893Y7238D01*
G01X787893Y2666D01*
G01X785607Y-1906D01*
G01X781035Y-8764D01*
G01X758175Y-31878D01*
G01X790179Y-31878D01*
G01X530083Y1716636D02*
G01X530083Y1679806D01*
G01X527797Y1672948D01*
G01X525511Y1670408D01*
G01X520685Y1668122D01*
G01X516113Y1668122D01*
G01X511541Y1670408D01*
G01X509255Y1672948D01*
G01X506969Y1679806D01*
G01X506969Y1684378D01*
G01X556499Y1716636D02*
G01X556499Y1668122D01*
G01X556499Y1716636D02*
G01X572501Y1716636D01*
G01X579359Y1714350D01*
G01X583931Y1709778D01*
G01X586217Y1704952D01*
G01X588503Y1698094D01*
G01X588503Y1686664D01*
G01X586217Y1679806D01*
G01X583931Y1675234D01*
G01X579359Y1670408D01*
G01X572501Y1668122D01*
G01X556499Y1668122D01*
G01X614919Y1716636D02*
G01X614919Y1668122D01*
G01X673339Y1709778D02*
G01X668767Y1714350D01*
G01X661909Y1716636D01*
G01X652765Y1716636D01*
G01X645907Y1714350D01*
G01X641335Y1709778D01*
G01X641335Y1704952D01*
G01X643621Y1700380D01*
G01X645907Y1698094D01*
G01X650479Y1695808D01*
G01X664195Y1691236D01*
G01X668767Y1688950D01*
G01X671053Y1686664D01*
G01X673339Y1682092D01*
G01X673339Y1675234D01*
G01X668767Y1670408D01*
G01X661909Y1668122D01*
G01X652765Y1668122D01*
G01X645907Y1670408D01*
G01X641335Y1675234D01*
G01X699755Y1716636D02*
G01X699755Y1668122D01*
G01X699755Y1716636D02*
G01X720329Y1716636D01*
G01X727187Y1714350D01*
G01X729473Y1712064D01*
G01X731759Y1707238D01*
G01X731759Y1700380D01*
G01X729473Y1695808D01*
G01X727187Y1693522D01*
G01X720329Y1691236D01*
G01X699755Y1691236D01*
G01X758175Y1707238D02*
G01X762747Y1709778D01*
G01X769605Y1716636D01*
G01X769605Y1668122D01*
G04 Text End*

G04 PolygonModel Start*
G54D11*
G01X1896349Y-382500D02*
G01X-897651Y-382500D01*
G01X-897651Y-128500D02*
G01X1896349Y-128500D01*
G01X1894447Y-133456D02*
G01X1894447Y-377547D01*
G01X-897651Y-382500D02*
G01X-897654Y-138508D01*
G01X1896349Y1317500D02*
G01X-897651Y1317500D01*
G01X-897651Y1571500D02*
G01X1896349Y1571500D01*
G01X1894447Y1566544D02*
G01X1894447Y1322453D01*
G01X-897651Y1317500D02*
G01X-897654Y1561492D01*

M02*

