G04 Layer: TopLayer*
G04 EasyEDA Pro v3.2.186, 2026-09-09 10:29:57*
G04 Gerber Generator version 0.3*
G04 Scale: 100 percent, Rotated: No, Reflected: No*
G04 Dimensions in millimeters*
G04 Leading zeros omitted, absolute positions, 4 integers and 5 decimals*
G04 Generated by one-click*
G04 Object Configs: Pad,Via,Track,Text,Image,Dimension,BoardOutline,BoardCutout,CopperFilled,SolidRegion,FPCStiffener,Line,PlaneZone,ComponentProperty,ComponentSilkscreen,TearDrop*
G04 Layer Configs: 1,2,3,4,5,6,7,8,9,10,11,13,14,71,72,56*
G04 Copper Areas: 24*
%FSLAX45Y45*%
%MOMM*%
%ADD10C,0.2032*%
%ADD11C,0.254*%
%ADD12R,1.6X1.6*%
%ADD13C,1.6*%
%ADD14O,1.8X4.19999*%
%ADD15O,1.8X3.99999*%
%ADD16O,3.99999X1.8*%
%ADD17C,1.7*%
%ADD18C,0.6116*%
%ADD19C,0.61*%
G75*


G04 Copper Start*
G36*
G01X-1525237Y-295000D02*
G01X-1527228Y-264775D01*
G01X-1533167Y-235072D01*
G01X-1542950Y-206406D01*
G01X-1556410Y-179270D01*
G01X-1558944Y-175500D01*
G01X-886465Y-175500D01*
G01X-886465Y-335500D01*
G01X-884712Y-346567D01*
G01X-879625Y-356551D01*
G01X-871702Y-364474D01*
G01X-861718Y-369561D01*
G01X-850651Y-371314D01*
G01X-690651Y-371314D01*
G01X-690651Y-371314D01*
G01X-679584Y-369561D01*
G01X-669600Y-364474D01*
G01X-661677Y-356551D01*
G01X-656590Y-346567D01*
G01X-654837Y-335500D01*
G01X-654837Y-255500D01*
G01X-632465Y-255500D01*
G01X-630493Y-276781D01*
G01X-624644Y-297337D01*
G01X-615118Y-316468D01*
G01X-602238Y-333523D01*
G01X-586444Y-347922D01*
G01X-568274Y-359172D01*
G01X-548345Y-366893D01*
G01X-527337Y-370820D01*
G01X-505965Y-370820D01*
G01X-484957Y-366893D01*
G01X-465028Y-359172D01*
G01X-446858Y-347922D01*
G01X-431064Y-333523D01*
G01X-418184Y-316468D01*
G01X-408658Y-297337D01*
G01X-402809Y-276781D01*
G01X-400837Y-255500D01*
G01X-400837Y-255500D01*
G01X-378465Y-255500D01*
G01X-376493Y-276781D01*
G01X-370644Y-297337D01*
G01X-361118Y-316468D01*
G01X-348238Y-333523D01*
G01X-332444Y-347922D01*
G01X-314274Y-359172D01*
G01X-294345Y-366893D01*
G01X-273337Y-370820D01*
G01X-251965Y-370820D01*
G01X-230957Y-366893D01*
G01X-211028Y-359172D01*
G01X-192858Y-347922D01*
G01X-177064Y-333523D01*
G01X-164184Y-316468D01*
G01X-154658Y-297337D01*
G01X-148809Y-276781D01*
G01X-147511Y-262774D01*
G01X-124236Y-262774D01*
G01X-121049Y-283420D01*
G01X-114205Y-303157D01*
G01X-103926Y-321344D01*
G01X-90548Y-337389D01*
G01X-74505Y-350769D01*
G01X-56319Y-361049D01*
G01X-36582Y-367895D01*
G01X-15937Y-371085D01*
G01X4946Y-370513D01*
G01X25386Y-366199D01*
G01X44718Y-358284D01*
G01X62315Y-347025D01*
G01X77602Y-332787D01*
G01X90083Y-316035D01*
G01X99351Y-297313D01*
G01X105106Y-277231D01*
G01X107159Y-256442D01*
G01X107081Y-255500D01*
G01X129535Y-255500D01*
G01X131507Y-276781D01*
G01X137356Y-297337D01*
G01X146882Y-316468D01*
G01X159762Y-333523D01*
G01X175556Y-347922D01*
G01X193726Y-359172D01*
G01X213655Y-366893D01*
G01X234663Y-370820D01*
G01X256035Y-370820D01*
G01X277043Y-366893D01*
G01X296972Y-359172D01*
G01X315142Y-347922D01*
G01X330936Y-333523D01*
G01X343816Y-316468D01*
G01X353342Y-297337D01*
G01X359191Y-276781D01*
G01X361163Y-255500D01*
G01X361163Y-255500D01*
G01X383535Y-255500D01*
G01X385507Y-276781D01*
G01X391356Y-297337D01*
G01X400882Y-316468D01*
G01X413762Y-333523D01*
G01X429556Y-347922D01*
G01X447726Y-359172D01*
G01X467655Y-366893D01*
G01X488663Y-370820D01*
G01X510035Y-370820D01*
G01X531043Y-366893D01*
G01X550972Y-359172D01*
G01X569142Y-347922D01*
G01X584936Y-333523D01*
G01X597816Y-316468D01*
G01X607342Y-297337D01*
G01X613191Y-276781D01*
G01X615163Y-255500D01*
G01X615163Y-255500D01*
G01X637535Y-255500D01*
G01X639507Y-276781D01*
G01X645356Y-297337D01*
G01X654882Y-316468D01*
G01X667762Y-333523D01*
G01X683556Y-347922D01*
G01X701726Y-359172D01*
G01X721655Y-366893D01*
G01X742663Y-370820D01*
G01X764035Y-370820D01*
G01X785043Y-366893D01*
G01X804972Y-359172D01*
G01X823142Y-347922D01*
G01X838936Y-333523D01*
G01X851816Y-316468D01*
G01X861342Y-297337D01*
G01X867191Y-276781D01*
G01X869163Y-255500D01*
G01X869163Y-255500D01*
G01X891535Y-255500D01*
G01X893507Y-276781D01*
G01X899356Y-297337D01*
G01X908882Y-316468D01*
G01X921762Y-333523D01*
G01X937556Y-347922D01*
G01X955726Y-359172D01*
G01X975655Y-366893D01*
G01X996663Y-370820D01*
G01X1018035Y-370820D01*
G01X1039043Y-366893D01*
G01X1058972Y-359172D01*
G01X1077142Y-347922D01*
G01X1092936Y-333523D01*
G01X1105816Y-316468D01*
G01X1115342Y-297337D01*
G01X1121191Y-276781D01*
G01X1123163Y-255500D01*
G01X1123163Y-255500D01*
G01X1145535Y-255500D01*
G01X1147507Y-276781D01*
G01X1153356Y-297337D01*
G01X1162882Y-316468D01*
G01X1175762Y-333523D01*
G01X1191556Y-347922D01*
G01X1209726Y-359172D01*
G01X1229655Y-366893D01*
G01X1250663Y-370820D01*
G01X1272035Y-370820D01*
G01X1293043Y-366893D01*
G01X1312972Y-359172D01*
G01X1331142Y-347922D01*
G01X1346936Y-333523D01*
G01X1359816Y-316468D01*
G01X1369342Y-297337D01*
G01X1375191Y-276781D01*
G01X1377163Y-255500D01*
G01X1377163Y-255500D01*
G01X1399535Y-255500D01*
G01X1401507Y-276781D01*
G01X1407356Y-297337D01*
G01X1416882Y-316468D01*
G01X1429762Y-333523D01*
G01X1445556Y-347922D01*
G01X1463726Y-359172D01*
G01X1483655Y-366893D01*
G01X1504663Y-370820D01*
G01X1526035Y-370820D01*
G01X1547043Y-366893D01*
G01X1566972Y-359172D01*
G01X1585142Y-347922D01*
G01X1600936Y-333523D01*
G01X1613816Y-316468D01*
G01X1623342Y-297337D01*
G01X1629191Y-276781D01*
G01X1631163Y-255500D01*
G01X1631163Y-255500D01*
G01X1653535Y-255500D01*
G01X1655507Y-276781D01*
G01X1661356Y-297337D01*
G01X1670882Y-316468D01*
G01X1683762Y-333523D01*
G01X1699556Y-347922D01*
G01X1717726Y-359172D01*
G01X1737655Y-366893D01*
G01X1758663Y-370820D01*
G01X1780035Y-370820D01*
G01X1801043Y-366893D01*
G01X1820972Y-359172D01*
G01X1839142Y-347922D01*
G01X1854936Y-333523D01*
G01X1867816Y-316468D01*
G01X1877342Y-297337D01*
G01X1883191Y-276781D01*
G01X1885163Y-255500D01*
G01X1883191Y-234219D01*
G01X1877342Y-213663D01*
G01X1867816Y-194532D01*
G01X1854936Y-177477D01*
G01X1839142Y-163079D01*
G01X1820972Y-151828D01*
G01X1801043Y-144107D01*
G01X1780035Y-140180D01*
G01X1758663Y-140180D01*
G01X1737655Y-144107D01*
G01X1717726Y-151828D01*
G01X1699556Y-163079D01*
G01X1683762Y-177477D01*
G01X1670882Y-194532D01*
G01X1661356Y-213663D01*
G01X1655507Y-234219D01*
G01X1653535Y-255500D01*
G01X1653535Y-255500D01*
G01X1631163Y-255500D01*
G01X1629191Y-234219D01*
G01X1623342Y-213663D01*
G01X1613816Y-194532D01*
G01X1600936Y-177477D01*
G01X1585142Y-163079D01*
G01X1566972Y-151828D01*
G01X1547043Y-144107D01*
G01X1526035Y-140180D01*
G01X1504663Y-140180D01*
G01X1483655Y-144107D01*
G01X1463726Y-151828D01*
G01X1445556Y-163079D01*
G01X1429762Y-177477D01*
G01X1416882Y-194532D01*
G01X1407356Y-213663D01*
G01X1401507Y-234219D01*
G01X1399535Y-255500D01*
G01X1399535Y-255500D01*
G01X1377163Y-255500D01*
G01X1375191Y-234219D01*
G01X1369342Y-213663D01*
G01X1359816Y-194532D01*
G01X1346936Y-177477D01*
G01X1331142Y-163079D01*
G01X1312972Y-151828D01*
G01X1293043Y-144107D01*
G01X1272035Y-140180D01*
G01X1250663Y-140180D01*
G01X1229655Y-144107D01*
G01X1209726Y-151828D01*
G01X1191556Y-163079D01*
G01X1175762Y-177477D01*
G01X1162882Y-194532D01*
G01X1153356Y-213663D01*
G01X1147507Y-234219D01*
G01X1145535Y-255500D01*
G01X1145535Y-255500D01*
G01X1123163Y-255500D01*
G01X1121191Y-234219D01*
G01X1115342Y-213663D01*
G01X1105816Y-194532D01*
G01X1092936Y-177477D01*
G01X1077142Y-163079D01*
G01X1058972Y-151828D01*
G01X1039043Y-144107D01*
G01X1018035Y-140180D01*
G01X996663Y-140180D01*
G01X975655Y-144107D01*
G01X955726Y-151828D01*
G01X937556Y-163079D01*
G01X921762Y-177477D01*
G01X908882Y-194532D01*
G01X899356Y-213663D01*
G01X893507Y-234219D01*
G01X891535Y-255500D01*
G01X891535Y-255500D01*
G01X869163Y-255500D01*
G01X867191Y-234219D01*
G01X861342Y-213663D01*
G01X851816Y-194532D01*
G01X838936Y-177477D01*
G01X823142Y-163079D01*
G01X804972Y-151828D01*
G01X785043Y-144107D01*
G01X764035Y-140180D01*
G01X742663Y-140180D01*
G01X721655Y-144107D01*
G01X701726Y-151828D01*
G01X683556Y-163079D01*
G01X667762Y-177477D01*
G01X654882Y-194532D01*
G01X645356Y-213663D01*
G01X639507Y-234219D01*
G01X637535Y-255500D01*
G01X637535Y-255500D01*
G01X615163Y-255500D01*
G01X613191Y-234219D01*
G01X607342Y-213663D01*
G01X597816Y-194532D01*
G01X584936Y-177477D01*
G01X569142Y-163079D01*
G01X550972Y-151828D01*
G01X531043Y-144107D01*
G01X510035Y-140180D01*
G01X488663Y-140180D01*
G01X467655Y-144107D01*
G01X447726Y-151828D01*
G01X429556Y-163079D01*
G01X413762Y-177477D01*
G01X400882Y-194532D01*
G01X391356Y-213663D01*
G01X385507Y-234219D01*
G01X383535Y-255500D01*
G01X383535Y-255500D01*
G01X361163Y-255500D01*
G01X359191Y-234219D01*
G01X353342Y-213663D01*
G01X343816Y-194532D01*
G01X330936Y-177477D01*
G01X315142Y-163079D01*
G01X296972Y-151828D01*
G01X277043Y-144107D01*
G01X256035Y-140180D01*
G01X234663Y-140180D01*
G01X213655Y-144107D01*
G01X193726Y-151828D01*
G01X175556Y-163079D01*
G01X159762Y-177477D01*
G01X146882Y-194532D01*
G01X137356Y-213663D01*
G01X131507Y-234219D01*
G01X129535Y-255500D01*
G01X129535Y-255500D01*
G01X107081Y-255500D01*
G01X105444Y-235622D01*
G01X100017Y-215449D01*
G01X534969Y219503D01*
G01X534969Y219503D01*
G01X1423382Y219503D01*
G01X1435753Y210405D01*
G01X1449886Y204396D01*
G01X1465021Y201799D01*
G01X1480348Y202753D01*
G01X1495045Y207208D01*
G01X1508323Y214923D01*
G01X1519470Y225485D01*
G01X1527889Y238328D01*
G01X1533128Y252764D01*
G01X1534906Y268017D01*
G01X1533128Y283270D01*
G01X1527889Y297706D01*
G01X1519470Y310549D01*
G01X1508323Y321111D01*
G01X1495045Y328826D01*
G01X1480348Y333281D01*
G01X1465021Y334235D01*
G01X1449886Y331638D01*
G01X1435753Y325629D01*
G01X1423382Y316531D01*
G01X514874Y316531D01*
G01X502318Y314878D01*
G01X490617Y310031D01*
G01X480569Y302322D01*
G01X31411Y-146836D01*
G01X11239Y-141407D01*
G01X-9581Y-139690D01*
G01X-30370Y-141741D01*
G01X-50453Y-147493D01*
G01X-69176Y-156760D01*
G01X-85929Y-169239D01*
G01X-100168Y-184525D01*
G01X-111429Y-202120D01*
G01X-119347Y-221452D01*
G01X-123663Y-241892D01*
G01X-124236Y-262774D01*
G01X-147511Y-262774D01*
G01X-146837Y-255500D01*
G01X-148809Y-234219D01*
G01X-154658Y-213663D01*
G01X-164184Y-194532D01*
G01X-177064Y-177477D01*
G01X-192858Y-163079D01*
G01X-211028Y-151828D01*
G01X-230957Y-144107D01*
G01X-251965Y-140180D01*
G01X-273337Y-140180D01*
G01X-294345Y-144107D01*
G01X-314274Y-151828D01*
G01X-332444Y-163079D01*
G01X-348238Y-177477D01*
G01X-361118Y-194532D01*
G01X-370644Y-213663D01*
G01X-376493Y-234219D01*
G01X-378465Y-255500D01*
G01X-378465Y-255500D01*
G01X-400837Y-255500D01*
G01X-402809Y-234219D01*
G01X-408658Y-213663D01*
G01X-418184Y-194532D01*
G01X-431064Y-177477D01*
G01X-446858Y-163079D01*
G01X-465028Y-151828D01*
G01X-484957Y-144107D01*
G01X-505965Y-140180D01*
G01X-527337Y-140180D01*
G01X-548345Y-144107D01*
G01X-568274Y-151828D01*
G01X-586444Y-163079D01*
G01X-602238Y-177477D01*
G01X-615118Y-194532D01*
G01X-624644Y-213663D01*
G01X-630493Y-234219D01*
G01X-632465Y-255500D01*
G01X-632465Y-255500D01*
G01X-654837Y-255500D01*
G01X-654837Y-175500D01*
G01X-656590Y-164433D01*
G01X-661677Y-154449D01*
G01X-669600Y-146526D01*
G01X-679584Y-141439D01*
G01X-690651Y-139686D01*
G01X-850651Y-139686D01*
G01X-861718Y-141439D01*
G01X-871702Y-146526D01*
G01X-879625Y-154449D01*
G01X-884712Y-164433D01*
G01X-886465Y-175500D01*
G01X-1558944Y-175500D01*
G01X-1573313Y-154134D01*
G01X-1593366Y-131432D01*
G01X-1616225Y-111558D01*
G01X-1641493Y-94854D01*
G01X-1668734Y-81608D01*
G01X-1697477Y-72051D01*
G01X-1727226Y-66346D01*
G01X-1757465Y-64593D01*
G01X-1787674Y-66822D01*
G01X-1817329Y-72995D01*
G01X-1845918Y-83004D01*
G01X-1872947Y-96676D01*
G01X-1897949Y-113777D01*
G01X-1920491Y-134009D01*
G01X-1920491Y496334D01*
G01X-1396464Y496334D01*
G01X-1396464Y276334D01*
G01X-1394553Y254487D01*
G01X-1388877Y233303D01*
G01X-1379608Y213427D01*
G01X-1367029Y195463D01*
G01X-1351522Y179955D01*
G01X-1333557Y167376D01*
G01X-1313681Y158108D01*
G01X-1292498Y152432D01*
G01X-1270650Y150520D01*
G01X-1248803Y152432D01*
G01X-1227620Y158108D01*
G01X-1207744Y167376D01*
G01X-1189779Y179955D01*
G01X-1174272Y195463D01*
G01X-1161693Y213427D01*
G01X-1152424Y233303D01*
G01X-1146748Y254487D01*
G01X-1144837Y276334D01*
G01X-1144837Y496334D01*
G01X-1145712Y506334D01*
G01X-796466Y506334D01*
G01X-796466Y266334D01*
G01X-794554Y244487D01*
G01X-788878Y223303D01*
G01X-779610Y203427D01*
G01X-767031Y185463D01*
G01X-751523Y169955D01*
G01X-733559Y157376D01*
G01X-713683Y148108D01*
G01X-692499Y142432D01*
G01X-670652Y140520D01*
G01X-648804Y142432D01*
G01X-627621Y148108D01*
G01X-607745Y157376D01*
G01X-589780Y169955D01*
G01X-574273Y185463D01*
G01X-561694Y203427D01*
G01X-552425Y223303D01*
G01X-546749Y244487D01*
G01X-544838Y266334D01*
G01X-544838Y266334D01*
G01X-544838Y506334D01*
G01X-546749Y528181D01*
G01X-552425Y549365D01*
G01X-561694Y569241D01*
G01X-574273Y587205D01*
G01X-589780Y602713D01*
G01X-607745Y615292D01*
G01X-627621Y624560D01*
G01X-648804Y630236D01*
G01X-670652Y632148D01*
G01X-692499Y630236D01*
G01X-713683Y624560D01*
G01X-733559Y615292D01*
G01X-751523Y602713D01*
G01X-767031Y587205D01*
G01X-779610Y569241D01*
G01X-788878Y549365D01*
G01X-794554Y528181D01*
G01X-796466Y506334D01*
G01X-1145712Y506334D01*
G01X-1146748Y518181D01*
G01X-1152424Y539365D01*
G01X-1161693Y559241D01*
G01X-1174272Y577205D01*
G01X-1189779Y592713D01*
G01X-1207744Y605292D01*
G01X-1227620Y614560D01*
G01X-1248803Y620236D01*
G01X-1270650Y622148D01*
G01X-1292498Y620236D01*
G01X-1313681Y614560D01*
G01X-1333557Y605292D01*
G01X-1351522Y592713D01*
G01X-1367029Y577205D01*
G01X-1379608Y559241D01*
G01X-1388877Y539365D01*
G01X-1394553Y518181D01*
G01X-1396464Y496334D01*
G01X-1396464Y496334D01*
G01X-1920491Y496334D01*
G01X-1920491Y856666D01*
G01X-1206490Y856666D01*
G01X-1204579Y834818D01*
G01X-1198903Y813635D01*
G01X-1189634Y793759D01*
G01X-1177055Y775794D01*
G01X-1161548Y760287D01*
G01X-1143583Y747708D01*
G01X-1123707Y738439D01*
G01X-1102524Y732763D01*
G01X-1080676Y730852D01*
G01X-860677Y730852D01*
G01X-838829Y732763D01*
G01X-817646Y738439D01*
G01X-797770Y747708D01*
G01X-790491Y752804D01*
G01X433303Y752804D01*
G01X436432Y737770D01*
G01X442935Y723858D01*
G01X452463Y711815D01*
G01X452463Y711815D01*
G01X464506Y702287D01*
G01X478418Y695784D01*
G01X493453Y692655D01*
G01X508804Y693069D01*
G01X523648Y697002D01*
G01X537189Y704245D01*
G01X548702Y714408D01*
G01X557568Y726947D01*
G01X563312Y741189D01*
G01X565627Y756370D01*
G01X787658Y978401D01*
G01X795368Y988449D01*
G01X800214Y1000149D01*
G01X801867Y1012706D01*
G01X801867Y1339339D01*
G01X819970Y1349766D01*
G01X835904Y1363275D01*
G01X849153Y1379427D01*
G01X859284Y1397696D01*
G01X865969Y1417488D01*
G01X868989Y1438159D01*
G01X868764Y1444500D01*
G01X891535Y1444500D01*
G01X893507Y1423219D01*
G01X899356Y1402663D01*
G01X908882Y1383532D01*
G01X921762Y1366477D01*
G01X937556Y1352079D01*
G01X955726Y1340828D01*
G01X975655Y1333107D01*
G01X996663Y1329180D01*
G01X1018035Y1329180D01*
G01X1039043Y1333107D01*
G01X1058972Y1340828D01*
G01X1077142Y1352079D01*
G01X1092936Y1366477D01*
G01X1105816Y1383532D01*
G01X1115342Y1402663D01*
G01X1121191Y1423219D01*
G01X1123163Y1444500D01*
G01X1123163Y1444500D01*
G01X1145535Y1444500D01*
G01X1147507Y1423219D01*
G01X1153356Y1402663D01*
G01X1162882Y1383532D01*
G01X1175762Y1366477D01*
G01X1191556Y1352079D01*
G01X1209726Y1340828D01*
G01X1229655Y1333107D01*
G01X1250663Y1329180D01*
G01X1272035Y1329180D01*
G01X1293043Y1333107D01*
G01X1312972Y1340828D01*
G01X1331142Y1352079D01*
G01X1346936Y1366477D01*
G01X1359816Y1383532D01*
G01X1369342Y1402663D01*
G01X1375191Y1423219D01*
G01X1377163Y1444500D01*
G01X1377163Y1444500D01*
G01X1399535Y1444500D01*
G01X1401507Y1423219D01*
G01X1407356Y1402663D01*
G01X1416882Y1383532D01*
G01X1429762Y1366477D01*
G01X1445556Y1352079D01*
G01X1463726Y1340828D01*
G01X1483655Y1333107D01*
G01X1504663Y1329180D01*
G01X1526035Y1329180D01*
G01X1547043Y1333107D01*
G01X1566972Y1340828D01*
G01X1585142Y1352079D01*
G01X1600936Y1366477D01*
G01X1613816Y1383532D01*
G01X1623342Y1402663D01*
G01X1629191Y1423219D01*
G01X1631163Y1444500D01*
G01X1631163Y1444500D01*
G01X1653535Y1444500D01*
G01X1655507Y1423219D01*
G01X1661356Y1402663D01*
G01X1670882Y1383532D01*
G01X1683762Y1366477D01*
G01X1699556Y1352079D01*
G01X1717726Y1340828D01*
G01X1737655Y1333107D01*
G01X1758663Y1329180D01*
G01X1780035Y1329180D01*
G01X1801043Y1333107D01*
G01X1820972Y1340828D01*
G01X1839142Y1352079D01*
G01X1854936Y1366477D01*
G01X1867816Y1383532D01*
G01X1877342Y1402663D01*
G01X1883191Y1423219D01*
G01X1885163Y1444500D01*
G01X1883191Y1465781D01*
G01X1877342Y1486337D01*
G01X1867816Y1505468D01*
G01X1854936Y1522523D01*
G01X1839142Y1536921D01*
G01X1820972Y1548172D01*
G01X1801043Y1555893D01*
G01X1780035Y1559820D01*
G01X1758663Y1559820D01*
G01X1737655Y1555893D01*
G01X1717726Y1548172D01*
G01X1699556Y1536921D01*
G01X1683762Y1522523D01*
G01X1670882Y1505468D01*
G01X1661356Y1486337D01*
G01X1655507Y1465781D01*
G01X1653535Y1444500D01*
G01X1653535Y1444500D01*
G01X1631163Y1444500D01*
G01X1629191Y1465781D01*
G01X1623342Y1486337D01*
G01X1613816Y1505468D01*
G01X1600936Y1522523D01*
G01X1585142Y1536921D01*
G01X1566972Y1548172D01*
G01X1547043Y1555893D01*
G01X1526035Y1559820D01*
G01X1504663Y1559820D01*
G01X1483655Y1555893D01*
G01X1463726Y1548172D01*
G01X1445556Y1536921D01*
G01X1429762Y1522523D01*
G01X1416882Y1505468D01*
G01X1407356Y1486337D01*
G01X1401507Y1465781D01*
G01X1399535Y1444500D01*
G01X1399535Y1444500D01*
G01X1377163Y1444500D01*
G01X1375191Y1465781D01*
G01X1369342Y1486337D01*
G01X1359816Y1505468D01*
G01X1346936Y1522523D01*
G01X1331142Y1536921D01*
G01X1312972Y1548172D01*
G01X1293043Y1555893D01*
G01X1272035Y1559820D01*
G01X1250663Y1559820D01*
G01X1229655Y1555893D01*
G01X1209726Y1548172D01*
G01X1191556Y1536921D01*
G01X1175762Y1522523D01*
G01X1162882Y1505468D01*
G01X1153356Y1486337D01*
G01X1147507Y1465781D01*
G01X1145535Y1444500D01*
G01X1145535Y1444500D01*
G01X1123163Y1444500D01*
G01X1121191Y1465781D01*
G01X1115342Y1486337D01*
G01X1105816Y1505468D01*
G01X1092936Y1522523D01*
G01X1077142Y1536921D01*
G01X1058972Y1548172D01*
G01X1039043Y1555893D01*
G01X1018035Y1559820D01*
G01X996663Y1559820D01*
G01X975655Y1555893D01*
G01X955726Y1548172D01*
G01X937556Y1536921D01*
G01X921762Y1522523D01*
G01X908882Y1505468D01*
G01X899356Y1486337D01*
G01X893507Y1465781D01*
G01X891535Y1444500D01*
G01X891535Y1444500D01*
G01X868764Y1444500D01*
G01X868247Y1459036D01*
G01X863767Y1479440D01*
G01X855693Y1498708D01*
G01X844290Y1516211D01*
G01X829928Y1531382D01*
G01X813075Y1543725D01*
G01X794278Y1552841D01*
G01X774150Y1558431D01*
G01X753344Y1560314D01*
G01X732539Y1558429D01*
G01X712411Y1552837D01*
G01X693615Y1543720D01*
G01X676762Y1531375D01*
G01X662402Y1516204D01*
G01X651000Y1498699D01*
G01X642929Y1479431D01*
G01X638450Y1459027D01*
G01X637709Y1438149D01*
G01X640732Y1417479D01*
G01X647418Y1397687D01*
G01X657551Y1379419D01*
G01X670801Y1363268D01*
G01X686736Y1349760D01*
G01X704839Y1339335D01*
G01X704839Y1032801D01*
G01X497017Y824979D01*
G01X481836Y822664D01*
G01X467594Y816920D01*
G01X455056Y808054D01*
G01X444893Y796541D01*
G01X437650Y783000D01*
G01X433717Y768155D01*
G01X433303Y752804D01*
G01X-790491Y752804D01*
G01X-779805Y760287D01*
G01X-764298Y775794D01*
G01X-751719Y793759D01*
G01X-742450Y813635D01*
G01X-736774Y834818D01*
G01X-734863Y856666D01*
G01X-736774Y878513D01*
G01X-742450Y899697D01*
G01X-751719Y919573D01*
G01X-764298Y937537D01*
G01X-779805Y953045D01*
G01X-797770Y965624D01*
G01X-817646Y974892D01*
G01X-838829Y980568D01*
G01X-860677Y982480D01*
G01X-860677Y982480D01*
G01X-1080676Y982480D01*
G01X-1102524Y980568D01*
G01X-1123707Y974892D01*
G01X-1143583Y965624D01*
G01X-1161548Y953045D01*
G01X-1177055Y937537D01*
G01X-1189634Y919573D01*
G01X-1198903Y899697D01*
G01X-1204579Y878513D01*
G01X-1206490Y856666D01*
G01X-1920491Y856666D01*
G01X-1920491Y1322009D01*
G01X-1898806Y1302453D01*
G01X-1874821Y1285797D01*
G01X-1848922Y1272308D01*
G01X-1821525Y1262203D01*
G01X-1793070Y1255645D01*
G01X-1764014Y1252738D01*
G01X-1734824Y1253529D01*
G01X-1705968Y1258006D01*
G01X-1677910Y1266097D01*
G01X-1651101Y1277671D01*
G01X-1625971Y1292544D01*
G01X-1602923Y1310475D01*
G01X-1582329Y1331177D01*
G01X-1564519Y1354318D01*
G01X-1549778Y1379525D01*
G01X-1538344Y1406395D01*
G01X-1530400Y1434494D01*
G01X-1526074Y1463373D01*
G01X-1525436Y1492567D01*
G01X-1528495Y1521608D01*
G01X-1529177Y1524500D01*
G01X-886465Y1524500D01*
G01X-886465Y1364500D01*
G01X-884712Y1353433D01*
G01X-879625Y1343449D01*
G01X-871702Y1335526D01*
G01X-861718Y1330439D01*
G01X-850651Y1328686D01*
G01X-690651Y1328686D01*
G01X-690651Y1328686D01*
G01X-679584Y1330439D01*
G01X-669600Y1335526D01*
G01X-661677Y1343449D01*
G01X-656590Y1353433D01*
G01X-654837Y1364500D01*
G01X-654837Y1444500D01*
G01X-632465Y1444500D01*
G01X-630493Y1423219D01*
G01X-624644Y1402663D01*
G01X-615118Y1383532D01*
G01X-602238Y1366477D01*
G01X-586444Y1352079D01*
G01X-568274Y1340828D01*
G01X-548345Y1333107D01*
G01X-527337Y1329180D01*
G01X-505965Y1329180D01*
G01X-484957Y1333107D01*
G01X-465028Y1340828D01*
G01X-446858Y1352079D01*
G01X-431064Y1366477D01*
G01X-418184Y1383532D01*
G01X-408658Y1402663D01*
G01X-402809Y1423219D01*
G01X-400837Y1444500D01*
G01X-400837Y1444500D01*
G01X-378465Y1444500D01*
G01X-376493Y1423219D01*
G01X-370644Y1402663D01*
G01X-361118Y1383532D01*
G01X-348238Y1366477D01*
G01X-332444Y1352079D01*
G01X-314274Y1340828D01*
G01X-294345Y1333107D01*
G01X-273337Y1329180D01*
G01X-251965Y1329180D01*
G01X-230957Y1333107D01*
G01X-211028Y1340828D01*
G01X-192858Y1352079D01*
G01X-177064Y1366477D01*
G01X-164184Y1383532D01*
G01X-154658Y1402663D01*
G01X-148809Y1423219D01*
G01X-146837Y1444500D01*
G01X-146837Y1444500D01*
G01X-124465Y1444500D01*
G01X-122493Y1423219D01*
G01X-116644Y1402663D01*
G01X-107118Y1383532D01*
G01X-94238Y1366477D01*
G01X-78444Y1352079D01*
G01X-60274Y1340828D01*
G01X-40345Y1333107D01*
G01X-19337Y1329180D01*
G01X2035Y1329180D01*
G01X23043Y1333107D01*
G01X42972Y1340828D01*
G01X61142Y1352079D01*
G01X76936Y1366477D01*
G01X89816Y1383532D01*
G01X99342Y1402663D01*
G01X105191Y1423219D01*
G01X107163Y1444500D01*
G01X107163Y1444500D01*
G01X129535Y1444500D01*
G01X131507Y1423219D01*
G01X137356Y1402663D01*
G01X146882Y1383532D01*
G01X159762Y1366477D01*
G01X175556Y1352079D01*
G01X193726Y1340828D01*
G01X213655Y1333107D01*
G01X234663Y1329180D01*
G01X256035Y1329180D01*
G01X277043Y1333107D01*
G01X296972Y1340828D01*
G01X315142Y1352079D01*
G01X330936Y1366477D01*
G01X343816Y1383532D01*
G01X353342Y1402663D01*
G01X359191Y1423219D01*
G01X361163Y1444500D01*
G01X361163Y1444500D01*
G01X383535Y1444500D01*
G01X385507Y1423219D01*
G01X391356Y1402663D01*
G01X400882Y1383532D01*
G01X413762Y1366477D01*
G01X429556Y1352079D01*
G01X447726Y1340828D01*
G01X467655Y1333107D01*
G01X488663Y1329180D01*
G01X510035Y1329180D01*
G01X531043Y1333107D01*
G01X550972Y1340828D01*
G01X569142Y1352079D01*
G01X584936Y1366477D01*
G01X597816Y1383532D01*
G01X607342Y1402663D01*
G01X613191Y1423219D01*
G01X615163Y1444500D01*
G01X613191Y1465781D01*
G01X607342Y1486337D01*
G01X597816Y1505468D01*
G01X584936Y1522523D01*
G01X569142Y1536921D01*
G01X550972Y1548172D01*
G01X531043Y1555893D01*
G01X510035Y1559820D01*
G01X488663Y1559820D01*
G01X467655Y1555893D01*
G01X447726Y1548172D01*
G01X429556Y1536921D01*
G01X413762Y1522523D01*
G01X400882Y1505468D01*
G01X391356Y1486337D01*
G01X385507Y1465781D01*
G01X383535Y1444500D01*
G01X383535Y1444500D01*
G01X361163Y1444500D01*
G01X359191Y1465781D01*
G01X353342Y1486337D01*
G01X343816Y1505468D01*
G01X330936Y1522523D01*
G01X315142Y1536921D01*
G01X296972Y1548172D01*
G01X277043Y1555893D01*
G01X256035Y1559820D01*
G01X234663Y1559820D01*
G01X213655Y1555893D01*
G01X193726Y1548172D01*
G01X175556Y1536921D01*
G01X159762Y1522523D01*
G01X146882Y1505468D01*
G01X137356Y1486337D01*
G01X131507Y1465781D01*
G01X129535Y1444500D01*
G01X129535Y1444500D01*
G01X107163Y1444500D01*
G01X105191Y1465781D01*
G01X99342Y1486337D01*
G01X89816Y1505468D01*
G01X76936Y1522523D01*
G01X61142Y1536921D01*
G01X42972Y1548172D01*
G01X23043Y1555893D01*
G01X2035Y1559820D01*
G01X-19337Y1559820D01*
G01X-40345Y1555893D01*
G01X-60274Y1548172D01*
G01X-78444Y1536921D01*
G01X-94238Y1522523D01*
G01X-107118Y1505468D01*
G01X-116644Y1486337D01*
G01X-122493Y1465781D01*
G01X-124465Y1444500D01*
G01X-124465Y1444500D01*
G01X-146837Y1444500D01*
G01X-148809Y1465781D01*
G01X-154658Y1486337D01*
G01X-164184Y1505468D01*
G01X-177064Y1522523D01*
G01X-192858Y1536921D01*
G01X-211028Y1548172D01*
G01X-230957Y1555893D01*
G01X-251965Y1559820D01*
G01X-273337Y1559820D01*
G01X-294345Y1555893D01*
G01X-314274Y1548172D01*
G01X-332444Y1536921D01*
G01X-348238Y1522523D01*
G01X-361118Y1505468D01*
G01X-370644Y1486337D01*
G01X-376493Y1465781D01*
G01X-378465Y1444500D01*
G01X-378465Y1444500D01*
G01X-400837Y1444500D01*
G01X-402809Y1465781D01*
G01X-408658Y1486337D01*
G01X-418184Y1505468D01*
G01X-431064Y1522523D01*
G01X-446858Y1536921D01*
G01X-465028Y1548172D01*
G01X-484957Y1555893D01*
G01X-505965Y1559820D01*
G01X-527337Y1559820D01*
G01X-548345Y1555893D01*
G01X-568274Y1548172D01*
G01X-586444Y1536921D01*
G01X-602238Y1522523D01*
G01X-615118Y1505468D01*
G01X-624644Y1486337D01*
G01X-630493Y1465781D01*
G01X-632465Y1444500D01*
G01X-632465Y1444500D01*
G01X-654837Y1444500D01*
G01X-654837Y1524500D01*
G01X-656590Y1535567D01*
G01X-661677Y1545551D01*
G01X-669600Y1553474D01*
G01X-679584Y1558561D01*
G01X-690651Y1560314D01*
G01X-850651Y1560314D01*
G01X-861718Y1558561D01*
G01X-871702Y1553474D01*
G01X-879625Y1545551D01*
G01X-884712Y1535567D01*
G01X-886465Y1524500D01*
G01X-1529177Y1524500D01*
G01X-1535202Y1550028D01*
G01X-1545450Y1577372D01*
G01X-1559074Y1603200D01*
G01X-1575855Y1627097D01*
G01X-1595524Y1648680D01*
G01X-1617765Y1667602D01*
G01X-1642221Y1683560D01*
G01X-1668498Y1696295D01*
G01X-1696175Y1705605D01*
G01X-1724808Y1711340D01*
G01X1909188Y1711340D01*
G01X1909188Y-1068339D01*
G01X-1920491Y-1068339D01*
G01X-1920491Y-771514D01*
G01X-432263Y-771514D01*
G01X-431537Y-793446D01*
G01X-426855Y-814886D01*
G01X-418373Y-835125D01*
G01X-406369Y-853496D01*
G01X-391241Y-869392D01*
G01X-373486Y-882290D01*
G01X-353692Y-891763D01*
G01X-332510Y-897500D01*
G01X-310640Y-899310D01*
G01X-288803Y-897134D01*
G01X-267721Y-891044D01*
G01X-218959Y-939805D01*
G01X-208912Y-947515D01*
G01X-197211Y-952362D01*
G01X-184655Y-954015D01*
G01X861353Y-954015D01*
G01X873909Y-952362D01*
G01X885610Y-947515D01*
G01X895658Y-939805D01*
G01X944419Y-891044D01*
G01X965502Y-897134D01*
G01X987338Y-899310D01*
G01X1009208Y-897500D01*
G01X1030390Y-891763D01*
G01X1050185Y-882290D01*
G01X1067939Y-869392D01*
G01X1083068Y-853496D01*
G01X1095071Y-835125D01*
G01X1103553Y-814886D01*
G01X1108235Y-793446D01*
G01X1108663Y-780510D01*
G01X1121552Y-780510D01*
G01X1123694Y-801236D01*
G01X1129365Y-821286D01*
G01X1138397Y-840063D01*
G01X1150522Y-857010D01*
G01X1165378Y-871620D01*
G01X1182523Y-883461D01*
G01X1201448Y-892180D01*
G01X1221590Y-897517D01*
G01X1242349Y-899314D01*
G01X1242349Y-899314D01*
G01X1263108Y-897517D01*
G01X1283250Y-892180D01*
G01X1302175Y-883461D01*
G01X1319320Y-871620D01*
G01X1334176Y-857010D01*
G01X1346301Y-840063D01*
G01X1355333Y-821286D01*
G01X1361004Y-801236D01*
G01X1363146Y-780510D01*
G01X1363006Y-778500D01*
G01X1375535Y-778500D01*
G01X1377371Y-799479D01*
G01X1382821Y-819821D01*
G01X1391721Y-838907D01*
G01X1403800Y-856158D01*
G01X1418691Y-871049D01*
G01X1435942Y-883128D01*
G01X1455028Y-892028D01*
G01X1475370Y-897478D01*
G01X1496349Y-899314D01*
G01X1517328Y-897478D01*
G01X1537670Y-892028D01*
G01X1556756Y-883128D01*
G01X1574007Y-871049D01*
G01X1588898Y-856158D01*
G01X1600977Y-838907D01*
G01X1609877Y-819821D01*
G01X1615327Y-799479D01*
G01X1617163Y-778500D01*
G01X1617163Y-778500D01*
G01X1629535Y-778500D01*
G01X1631371Y-799479D01*
G01X1636821Y-819821D01*
G01X1645721Y-838907D01*
G01X1657800Y-856158D01*
G01X1672691Y-871049D01*
G01X1689942Y-883128D01*
G01X1709028Y-892028D01*
G01X1729370Y-897478D01*
G01X1750349Y-899314D01*
G01X1771328Y-897478D01*
G01X1791670Y-892028D01*
G01X1810756Y-883128D01*
G01X1828007Y-871049D01*
G01X1842898Y-856158D01*
G01X1854977Y-838907D01*
G01X1863877Y-819821D01*
G01X1869327Y-799479D01*
G01X1871163Y-778500D01*
G01X1871163Y-778500D01*
G01X1869327Y-757521D01*
G01X1863877Y-737179D01*
G01X1854977Y-718093D01*
G01X1842898Y-700842D01*
G01X1828007Y-685951D01*
G01X1810756Y-673872D01*
G01X1791670Y-664972D01*
G01X1771328Y-659522D01*
G01X1750349Y-657686D01*
G01X1729370Y-659522D01*
G01X1709028Y-664972D01*
G01X1689942Y-673872D01*
G01X1672691Y-685951D01*
G01X1657800Y-700842D01*
G01X1645721Y-718093D01*
G01X1636821Y-737179D01*
G01X1631371Y-757521D01*
G01X1629535Y-778500D01*
G01X1617163Y-778500D01*
G01X1615327Y-757521D01*
G01X1609877Y-737179D01*
G01X1600977Y-718093D01*
G01X1588898Y-700842D01*
G01X1574007Y-685951D01*
G01X1556756Y-673872D01*
G01X1537670Y-664972D01*
G01X1517328Y-659522D01*
G01X1496349Y-657686D01*
G01X1475370Y-659522D01*
G01X1455028Y-664972D01*
G01X1435942Y-673872D01*
G01X1418691Y-685951D01*
G01X1403800Y-700842D01*
G01X1391721Y-718093D01*
G01X1382821Y-737179D01*
G01X1377371Y-757521D01*
G01X1375535Y-778500D01*
G01X1363006Y-778500D01*
G01X1361695Y-759723D01*
G01X1356693Y-739496D01*
G01X1348291Y-720428D01*
G01X1336737Y-703088D01*
G01X1322375Y-687991D01*
G01X1305633Y-675587D01*
G01X1287008Y-666244D01*
G01X1267055Y-660239D01*
G01X1285338Y-653689D01*
G01X1302025Y-643754D01*
G01X1316497Y-630804D01*
G01X1328219Y-615320D01*
G01X1336753Y-597875D01*
G01X1341785Y-579118D01*
G01X1343127Y-559744D01*
G01X1340729Y-540472D01*
G01X1334680Y-522018D01*
G01X1325205Y-505065D01*
G01X1312655Y-490244D01*
G01X1297497Y-478104D01*
G01X1280292Y-469096D01*
G01X1261679Y-463554D01*
G01X1242349Y-461683D01*
G01X1223019Y-463554D01*
G01X1204406Y-469096D01*
G01X1187201Y-478104D01*
G01X1172043Y-490244D01*
G01X1159493Y-505065D01*
G01X1150018Y-522018D01*
G01X1143970Y-540472D01*
G01X1141572Y-559744D01*
G01X1142913Y-579118D01*
G01X1147945Y-597875D01*
G01X1156479Y-615320D01*
G01X1168201Y-630804D01*
G01X1182673Y-643754D01*
G01X1199360Y-653689D01*
G01X1217643Y-660239D01*
G01X1197690Y-666244D01*
G01X1179065Y-675587D01*
G01X1162323Y-687991D01*
G01X1147961Y-703088D01*
G01X1136407Y-720428D01*
G01X1128005Y-739496D01*
G01X1123003Y-759723D01*
G01X1121552Y-780510D01*
G01X1108663Y-780510D01*
G01X1108961Y-771514D01*
G01X1105707Y-749811D01*
G01X1098582Y-729056D01*
G01X1087819Y-709931D01*
G01X1073775Y-693069D01*
G01X1056912Y-679026D01*
G01X1037787Y-668265D01*
G01X1017031Y-661140D01*
G01X995329Y-657888D01*
G01X973396Y-658615D01*
G01X951957Y-663298D01*
G01X931718Y-671781D01*
G01X913348Y-683786D01*
G01X897452Y-698915D01*
G01X884556Y-716671D01*
G01X875083Y-736466D01*
G01X869348Y-757648D01*
G01X867540Y-779518D01*
G01X869717Y-801354D01*
G01X875808Y-822437D01*
G01X841258Y-856987D01*
G01X542196Y-856987D01*
G01X554472Y-839773D01*
G01X563559Y-820683D01*
G01X569180Y-800301D01*
G01X571161Y-779252D01*
G01X569442Y-758180D01*
G01X564076Y-737729D01*
G01X555227Y-718528D01*
G01X543166Y-701163D01*
G01X528262Y-686167D01*
G01X510973Y-673998D01*
G01X491827Y-665029D01*
G01X471410Y-659536D01*
G01X450349Y-657686D01*
G01X429288Y-659536D01*
G01X408871Y-665029D01*
G01X389725Y-673998D01*
G01X372436Y-686167D01*
G01X357532Y-701163D01*
G01X345472Y-718528D01*
G01X336623Y-737729D01*
G01X331256Y-758180D01*
G01X329538Y-779252D01*
G01X331519Y-800301D01*
G01X337139Y-820683D01*
G01X346226Y-839773D01*
G01X358502Y-856987D01*
G01X288196Y-856987D01*
G01X300472Y-839773D01*
G01X309559Y-820683D01*
G01X315180Y-800301D01*
G01X317161Y-779252D01*
G01X315442Y-758180D01*
G01X310076Y-737729D01*
G01X301227Y-718528D01*
G01X289166Y-701163D01*
G01X274262Y-686167D01*
G01X256973Y-673998D01*
G01X237827Y-665029D01*
G01X217410Y-659536D01*
G01X196349Y-657686D01*
G01X175288Y-659536D01*
G01X154871Y-665029D01*
G01X135725Y-673998D01*
G01X118436Y-686167D01*
G01X103532Y-701163D01*
G01X91472Y-718528D01*
G01X82623Y-737729D01*
G01X77256Y-758180D01*
G01X75538Y-779252D01*
G01X77519Y-800301D01*
G01X83139Y-820683D01*
G01X92226Y-839773D01*
G01X104502Y-856987D01*
G01X34196Y-856987D01*
G01X46315Y-840040D01*
G01X55342Y-821262D01*
G01X61009Y-801214D01*
G01X63147Y-780489D01*
G01X61692Y-759706D01*
G01X56689Y-739481D01*
G01X48285Y-720417D01*
G01X36730Y-703080D01*
G01X22369Y-687986D01*
G01X5629Y-675584D01*
G01X-12994Y-666243D01*
G01X-32945Y-660239D01*
G01X-14662Y-653689D01*
G01X2025Y-643754D01*
G01X16498Y-630804D01*
G01X28219Y-615320D01*
G01X36753Y-597875D01*
G01X41785Y-579118D01*
G01X43127Y-559744D01*
G01X40729Y-540472D01*
G01X34680Y-522018D01*
G01X25205Y-505065D01*
G01X12656Y-490244D01*
G01X-2503Y-478104D01*
G01X-19708Y-469096D01*
G01X-38321Y-463554D01*
G01X-57651Y-461683D01*
G01X-76981Y-463554D01*
G01X-95594Y-469096D01*
G01X-112799Y-478104D01*
G01X-127957Y-490244D01*
G01X-140507Y-505065D01*
G01X-149982Y-522018D01*
G01X-156030Y-540472D01*
G01X-158428Y-559744D01*
G01X-157087Y-579118D01*
G01X-152055Y-597875D01*
G01X-143520Y-615320D01*
G01X-131799Y-630804D01*
G01X-117327Y-643754D01*
G01X-100640Y-653689D01*
G01X-82357Y-660239D01*
G01X-102308Y-666243D01*
G01X-120930Y-675584D01*
G01X-137671Y-687986D01*
G01X-152032Y-703080D01*
G01X-163587Y-720417D01*
G01X-171990Y-739481D01*
G01X-176994Y-759706D01*
G01X-178448Y-780489D01*
G01X-176310Y-801214D01*
G01X-170644Y-821262D01*
G01X-161617Y-840040D01*
G01X-149498Y-856987D01*
G01X-164560Y-856987D01*
G01X-199110Y-822437D01*
G01X-193018Y-801354D01*
G01X-190841Y-779518D01*
G01X-192650Y-757648D01*
G01X-198385Y-736466D01*
G01X-207857Y-716670D01*
G01X-220754Y-698915D01*
G01X-236650Y-683786D01*
G01X-255020Y-671781D01*
G01X-275259Y-663298D01*
G01X-296698Y-658615D01*
G01X-318631Y-657888D01*
G01X-340333Y-661140D01*
G01X-361089Y-668265D01*
G01X-380214Y-679026D01*
G01X-397077Y-693069D01*
G01X-397077Y-693069D01*
G01X-411121Y-709931D01*
G01X-421884Y-729056D01*
G01X-429009Y-749812D01*
G01X-432263Y-771514D01*
G01X-1920491Y-771514D01*
G01X-1920491Y-455991D01*
G01X-1897949Y-476224D01*
G01X-1872947Y-493324D01*
G01X-1845918Y-506997D01*
G01X-1817329Y-517006D01*
G01X-1787674Y-523178D01*
G01X-1757465Y-525407D01*
G01X-1727226Y-523654D01*
G01X-1697477Y-517949D01*
G01X-1668734Y-508392D01*
G01X-1641493Y-495147D01*
G01X-1616225Y-478442D01*
G01X-1593366Y-458568D01*
G01X-1573313Y-435866D01*
G01X-1556410Y-410730D01*
G01X-1542950Y-383595D01*
G01X-1533167Y-354928D01*
G01X-1527228Y-325225D01*
G01X-1525237Y-295000D01*
G37*
G54D10*
G01X-1525237Y-295000D02*
G03X-1920491Y-134009I-230414J0D01*
G01X-1920491Y1322009D01*
G03X-1549778Y1379525I164840J160991D01*
G03X-1724808Y1711340I-205873J103475D01*
G01X1909188Y1711340D01*
G01X1909188Y-1068339D01*
G01X-1920491Y-1068339D01*
G01X-1920491Y-455991D01*
G03X-1525237Y-295000I164840J160991D01*
G01X-1396464Y496334D02*
G01X-1396464Y276334D01*
G03X-1144837Y276334I125814J0D01*
G01X-1144837Y496334D01*
G03X-1396464Y496334I-125814J0D01*
G01X-860677Y982480D02*
G01X-1080676Y982480D01*
G03X-1080676Y730852I0J-125814D01*
G01X-860677Y730852D01*
G03X-860677Y982480I0J125814D01*
G01X-690651Y1328686D02*
G03X-654837Y1364500I0J35814D01*
G01X-654837Y1524500D01*
G03X-690651Y1560314I-35814J0D01*
G01X-850651Y1560314D01*
G03X-886465Y1524500I0J-35814D01*
G01X-886465Y1364500D01*
G03X-850651Y1328686I35814J0D01*
G01X-690651Y1328686D01*
G01X-690651Y-371314D02*
G03X-654837Y-335500I0J35814D01*
G01X-654837Y-175500D01*
G03X-690651Y-139686I-35814J0D01*
G01X-850651Y-139686D01*
G03X-886465Y-175500I0J-35814D01*
G01X-886465Y-335500D01*
G03X-850651Y-371314I35814J0D01*
G01X-690651Y-371314D01*
G01X-544838Y266334D02*
G01X-544838Y506334D01*
G03X-796466Y506334I-125814J0D01*
G01X-796466Y266334D01*
G03X-544838Y266334I125814J0D01*
G01X-632465Y1444500D02*
G03X-400837Y1444500I115814J0D01*
G03X-632465Y1444500I-115814J0D01*
G01X-632465Y-255500D02*
G03X-400837Y-255500I115814J0D01*
G03X-632465Y-255500I-115814J0D01*
G01X-397077Y-693069D02*
G03X-267721Y-891044I85426J-85431D01*
G01X-218959Y-939805D01*
G03X-184655Y-954015I34305J34305D01*
G01X861353Y-954015D01*
G03X895658Y-939805I0J48514D01*
G01X944419Y-891044D01*
G03X1073775Y-693069I43930J112544D01*
G03X875808Y-822437I-85426J-85431D01*
G01X841258Y-856987D01*
G01X542196Y-856987D01*
G03X450349Y-657686I-91847J78487D01*
G03X358502Y-856987I0J-120814D01*
G01X288196Y-856987D01*
G03X196349Y-657686I-91847J78487D01*
G03X104502Y-856987I0J-120814D01*
G01X34196Y-856987D01*
G03X-32945Y-660239I-91847J78487D01*
G03X-57651Y-461683I-24706J97741D01*
G03X-82357Y-660239I0J-100815D01*
G03X-149498Y-856987I24706J-118261D01*
G01X-164560Y-856987D01*
G01X-199110Y-822437D01*
G03X-397077Y-693069I-112541J43937D01*
G01X-378465Y1444500D02*
G03X-146837Y1444500I115814J0D01*
G03X-378465Y1444500I-115814J0D01*
G01X-378465Y-255500D02*
G03X-146837Y-255500I115814J0D01*
G03X-378465Y-255500I-115814J0D01*
G01X-124465Y1444500D02*
G03X107163Y1444500I115814J0D01*
G03X-124465Y1444500I-115814J0D01*
G01X534969Y219503D02*
G01X1423382Y219503D01*
G03X1534906Y268017I45210J48514D01*
G03X1423382Y316531I-66314J0D01*
G01X514874Y316531D01*
G03X480569Y302322I0J-48514D01*
G01X31411Y-146836D01*
G03X-90548Y-337389I-40062J-108664D01*
G03X100017Y-215449I81897J81889D01*
G01X534969Y219503D01*
G01X129535Y1444500D02*
G03X361163Y1444500I115814J0D01*
G03X129535Y1444500I-115814J0D01*
G01X129535Y-255500D02*
G03X361163Y-255500I115814J0D01*
G03X129535Y-255500I-115814J0D01*
G01X383535Y1444500D02*
G03X615163Y1444500I115814J0D01*
G03X383535Y1444500I-115814J0D01*
G01X383535Y-255500D02*
G03X615163Y-255500I115814J0D01*
G03X383535Y-255500I-115814J0D01*
G01X452463Y711815D02*
G03X565627Y756370I46891J46891D01*
G01X787658Y978401D01*
G03X801867Y1012706I-34305J34305D01*
G01X801867Y1339339D01*
G03X753344Y1560314I-48518J105161D01*
G03X704839Y1339335I5J-115814D01*
G01X704839Y1032801D01*
G01X497017Y824979D01*
G03X452463Y711815I2337J-66273D01*
G01X637535Y-255500D02*
G03X869163Y-255500I115814J0D01*
G03X637535Y-255500I-115814J0D01*
G01X891535Y1444500D02*
G03X1123163Y1444500I115814J0D01*
G03X891535Y1444500I-115814J0D01*
G01X891535Y-255500D02*
G03X1123163Y-255500I115814J0D01*
G03X891535Y-255500I-115814J0D01*
G01X1242349Y-899314D02*
G03X1267055Y-660239I0J120814D01*
G03X1242349Y-461683I-24706J97741D01*
G03X1217643Y-660239I0J-100815D01*
G03X1242349Y-899314I24706J-118261D01*
G01X1145535Y1444500D02*
G03X1377163Y1444500I115814J0D01*
G03X1145535Y1444500I-115814J0D01*
G01X1145535Y-255500D02*
G03X1377163Y-255500I115814J0D01*
G03X1145535Y-255500I-115814J0D01*
G01X1617163Y-778500D02*
G03X1375535Y-778500I-120814J0D01*
G03X1617163Y-778500I120814J0D01*
G01X1399535Y1444500D02*
G03X1631163Y1444500I115814J0D01*
G03X1399535Y1444500I-115814J0D01*
G01X1399535Y-255500D02*
G03X1631163Y-255500I115814J0D01*
G03X1399535Y-255500I-115814J0D01*
G01X1871163Y-778500D02*
G03X1629535Y-778500I-120814J0D01*
G03X1871163Y-778500I120814J0D01*
G01X1653535Y1444500D02*
G03X1885163Y1444500I115814J0D01*
G03X1653535Y1444500I-115814J0D01*
G01X1653535Y-255500D02*
G03X1885163Y-255500I115814J0D01*
G03X1653535Y-255500I-115814J0D01*
G54D11*
G01X-1270650Y386334D02*
G01X-1270650Y160680D01*
G01X-1270650Y386334D02*
G01X-1270650Y611988D01*
G01X-1270650Y386334D02*
G01X-1386304Y386334D01*
G01X-1270650Y386334D02*
G01X-1154997Y386334D01*
G01X-516651Y-255500D02*
G01X-622305Y-255500D01*
G01X-516651Y-255500D02*
G01X-410997Y-255500D01*
G01X-516651Y-255500D02*
G01X-516651Y-149846D01*
G01X-516651Y-255500D02*
G01X-516651Y-361154D01*
G01X-516651Y1444500D02*
G01X-622305Y1444500D01*
G01X-516651Y1444500D02*
G01X-410997Y1444500D01*
G01X-516651Y1444500D02*
G01X-516651Y1550154D01*
G01X-516651Y1444500D02*
G01X-516651Y1338846D01*
G01X-262651Y-255500D02*
G01X-368305Y-255500D01*
G01X-262651Y-255500D02*
G01X-156997Y-255500D01*
G01X-262651Y-255500D02*
G01X-262651Y-149846D01*
G01X-262651Y-255500D02*
G01X-262651Y-361154D01*
G01X450349Y-778500D02*
G01X561003Y-778500D01*
G01X450349Y-778500D02*
G01X339695Y-778500D01*
G01X450349Y-778500D02*
G01X450349Y-667846D01*
G01X1750349Y-778500D02*
G01X1861003Y-778500D01*
G01X1750349Y-778500D02*
G01X1639695Y-778500D01*
G01X1750349Y-778500D02*
G01X1750349Y-889154D01*
G01X1750349Y-778500D02*
G01X1750349Y-667846D01*
G04 Copper End*

G04 Pad Start*
G54D12*
G01X-770651Y-255500D03*
G54D13*
G01X-516651Y-255500D03*
G01X-262651Y-255500D03*
G01X-8651Y-255500D03*
G01X245349Y-255500D03*
G01X499349Y-255500D03*
G01X753349Y-255500D03*
G01X1007349Y-255500D03*
G01X1261349Y-255500D03*
G01X1515349Y-255500D03*
G01X1769349Y-255500D03*
G54D12*
G01X-770651Y1444500D03*
G54D13*
G01X-516651Y1444500D03*
G01X-262651Y1444500D03*
G01X-8651Y1444500D03*
G01X245349Y1444500D03*
G01X499349Y1444500D03*
G01X753349Y1444500D03*
G01X1007349Y1444500D03*
G01X1261349Y1444500D03*
G01X1515349Y1444500D03*
G01X1769349Y1444500D03*
G54D14*
G01X-670652Y386334D03*
G54D15*
G01X-1270650Y386334D03*
G54D16*
G01X-970676Y856666D03*
G54D17*
G01X450349Y-778500D03*
G01X196349Y-778500D03*
G01X-57651Y-778500D03*
G01X-311651Y-778500D03*
G01X1750349Y-778500D03*
G01X1496349Y-778500D03*
G01X1242349Y-778500D03*
G01X988349Y-778500D03*
G04 Pad End*

G04 Via Start*
G54D19*
G01X499354Y758706D03*
G01X1468592Y268017D03*
G04 Via End*

G04 Track Start*
G54D11*
G01X753353Y1444505D02*
G01X753353Y1012706D01*
G01X499354Y758706D01*
G01X-8645Y-255502D02*
G01X514874Y268017D01*
G01X1468592Y268017D01*
G01X-1270653Y386327D02*
G01X-1158473Y386327D01*
G01X-516644Y-255502D01*
G01X-262645Y-255502D02*
G01X-84845Y-433302D01*
G01X105145Y-433302D01*
G01X450344Y-778501D01*
G01X577344Y-651501D01*
G01X1034543Y-651501D01*
G01X1110743Y-727701D01*
G01X1110743Y-829301D01*
G01X1186943Y-905501D01*
G01X1623352Y-905501D01*
G01X1750351Y-778501D01*
G01X988353Y-778501D02*
G01X861353Y-905501D01*
G01X-184655Y-905501D01*
G01X-311654Y-778501D01*
G04 Track End*

M02*

