;TYPE=PLATED
;Layer: PTH_Through
;EasyEDA Pro v3.2.186, 2026-09-09 08:03:28
;Gerber Generator version 0.3
M48
METRIC,LZ,0000.00000
;Hole size 1 = 0.30500 METRIC
T01C0.30500
;Hole size 2 = 1.00000 METRIC
T02C1.00000
;Hole size 3 = 1.20000 METRIC
T03C1.20000
%
G05
G90
T01
X4.99354Y7.58706
X14.68592Y2.47697
T02
X-7.70651Y-2.555
X-5.16651Y-2.555
X-2.62651Y-2.555
X-0.08651Y-2.555
X2.45349Y-2.555
X4.99349Y-2.555
X7.53349Y-2.555
X10.07349Y-2.555
X12.61349Y-2.555
X15.15349Y-2.555
X17.69349Y-2.555
X-7.70651Y14.445
X-5.16651Y14.445
X-2.62651Y14.445
X-0.08651Y14.445
X2.45349Y14.445
X4.99349Y14.445
X7.53349Y14.445
X10.07349Y14.445
X12.61349Y14.445
X15.15349Y14.445
X17.69349Y14.445
X-6.70657Y5.11334G85X-6.70657Y2.61334
X-12.7065Y2.71335G85X-12.7065Y5.01333
X-10.85675Y8.56666G85X-8.55678Y8.56666
T03
X4.50349Y-7.785
X1.96349Y-7.785
X-0.57651Y-7.785
X-3.11651Y-7.785
X17.50349Y-7.785
X14.96349Y-7.785
X12.42349Y-7.785
X9.88349Y-7.785
M30