G04 Layer: BottomSilkscreenLayer*
G04 EasyEDA Pro v3.2.186, 2026-09-09 08:03:28*
G04 Gerber Generator version 0.3*
G04 Scale: 100 percent, Rotated: No, Reflected: No*
G04 Dimensions in millimeters*
G04 Leading zeros omitted, absolute positions, 4 integers and 5 decimals*
G04 Generated by one-click*
G04 Object Configs: Pad,Via,Track,Text,Image,Dimension,BoardOutline,BoardCutout,CopperFilled,SolidRegion,FPCStiffener,Line,PlaneZone,ComponentProperty,ComponentSilkscreen,TearDrop*
G04 Layer Configs: 1,2,3,4,5,6,7,8,9,10,11,13,14,71,72,56*
G04 Copper Areas: 0*
%FSLAX45Y45*%
%MOMM*%
%ADD10C,0.1524*%
%ADD11C,0.254*%
%ADD12C,0.0762*%
%ADD13C,0.1292*%
G75*


G04 Text Start*
G54D10*
G01X-188430Y1232042D02*
G01X-190716Y1236868D01*
G01X-195288Y1241440D01*
G01X-199860Y1243726D01*
G01X-209258Y1243726D01*
G01X-213830Y1241440D01*
G01X-218402Y1236868D01*
G01X-220688Y1232042D01*
G01X-222974Y1225184D01*
G01X-222974Y1213754D01*
G01X-220688Y1206896D01*
G01X-218402Y1202324D01*
G01X-213830Y1197498D01*
G01X-209258Y1195212D01*
G01X-199860Y1195212D01*
G01X-195288Y1197498D01*
G01X-190716Y1202324D01*
G01X-188430Y1206896D01*
G01X-162014Y1234328D02*
G01X-157442Y1236868D01*
G01X-150584Y1243726D01*
G01X-150584Y1195212D01*
G01X461451Y1131966D02*
G01X459165Y1136792D01*
G01X454593Y1141364D01*
G01X450021Y1143650D01*
G01X440623Y1143650D01*
G01X436051Y1141364D01*
G01X431479Y1136792D01*
G01X429193Y1131966D01*
G01X426907Y1125108D01*
G01X426907Y1113678D01*
G01X429193Y1106820D01*
G01X431479Y1102248D01*
G01X436051Y1097422D01*
G01X440623Y1095136D01*
G01X450021Y1095136D01*
G01X454593Y1097422D01*
G01X459165Y1102248D01*
G01X461451Y1106820D01*
G01X490153Y1131966D02*
G01X490153Y1134252D01*
G01X492439Y1139078D01*
G01X494725Y1141364D01*
G01X499297Y1143650D01*
G01X508441Y1143650D01*
G01X513013Y1141364D01*
G01X515299Y1139078D01*
G01X517585Y1134252D01*
G01X517585Y1129680D01*
G01X515299Y1125108D01*
G01X510727Y1118250D01*
G01X487867Y1095136D01*
G01X519871Y1095136D01*
G01X-223031Y693636D02*
G01X-223031Y645122D01*
G01X-223031Y693636D02*
G01X-207029Y693636D01*
G01X-199917Y691350D01*
G01X-195345Y686778D01*
G01X-193059Y681952D01*
G01X-190773Y675094D01*
G01X-190773Y663664D01*
G01X-193059Y656806D01*
G01X-195345Y652234D01*
G01X-199917Y647408D01*
G01X-207029Y645122D01*
G01X-223031Y645122D01*
G01X-164357Y684238D02*
G01X-159785Y686778D01*
G01X-152927Y693636D01*
G01X-152927Y645122D01*
G01X-523031Y343636D02*
G01X-523031Y295122D01*
G01X-523031Y343636D02*
G01X-493059Y343636D01*
G01X-523031Y320522D02*
G01X-504489Y320522D01*
G01X-466643Y334238D02*
G01X-462071Y336778D01*
G01X-455213Y343636D01*
G01X-455213Y295122D01*
G01X1126969Y1093636D02*
G01X1126969Y1045122D01*
G01X1126969Y1093636D02*
G01X1147797Y1093636D01*
G01X1154655Y1091350D01*
G01X1156941Y1089064D01*
G01X1159227Y1084238D01*
G01X1159227Y1079666D01*
G01X1156941Y1075094D01*
G01X1154655Y1072808D01*
G01X1147797Y1070522D01*
G01X1126969Y1070522D01*
G01X1142971Y1070522D02*
G01X1159227Y1045122D01*
G01X1187929Y1081952D02*
G01X1187929Y1084238D01*
G01X1190215Y1089064D01*
G01X1192501Y1091350D01*
G01X1197073Y1093636D01*
G01X1206217Y1093636D01*
G01X1210789Y1091350D01*
G01X1213075Y1089064D01*
G01X1215361Y1084238D01*
G01X1215361Y1079666D01*
G01X1213075Y1075094D01*
G01X1208503Y1068236D01*
G01X1185643Y1045122D01*
G01X1217647Y1045122D01*
G01X276969Y443636D02*
G01X276969Y395122D01*
G01X276969Y443636D02*
G01X297797Y443636D01*
G01X304655Y441350D01*
G01X306941Y439064D01*
G01X309227Y434238D01*
G01X309227Y429666D01*
G01X306941Y425094D01*
G01X304655Y422808D01*
G01X297797Y420522D01*
G01X276969Y420522D01*
G01X292971Y420522D02*
G01X309227Y395122D01*
G01X340215Y443636D02*
G01X365361Y443636D01*
G01X351645Y425094D01*
G01X358503Y425094D01*
G01X363075Y422808D01*
G01X365361Y420522D01*
G01X367647Y413664D01*
G01X367647Y409092D01*
G01X365361Y402234D01*
G01X360789Y397408D01*
G01X353931Y395122D01*
G01X347073Y395122D01*
G01X340215Y397408D01*
G01X337929Y399948D01*
G01X335643Y404520D01*
G01X576969Y443636D02*
G01X576969Y395122D01*
G01X576969Y443636D02*
G01X597797Y443636D01*
G01X604655Y441350D01*
G01X606941Y439064D01*
G01X609227Y434238D01*
G01X609227Y429666D01*
G01X606941Y425094D01*
G01X604655Y422808D01*
G01X597797Y420522D01*
G01X576969Y420522D01*
G01X592971Y420522D02*
G01X609227Y395122D01*
G01X658503Y443636D02*
G01X635643Y411378D01*
G01X669933Y411378D01*
G01X658503Y443636D02*
G01X658503Y395122D01*
G01X1176969Y443636D02*
G01X1176969Y395122D01*
G01X1176969Y443636D02*
G01X1197797Y443636D01*
G01X1204655Y441350D01*
G01X1206941Y439064D01*
G01X1209227Y434238D01*
G01X1209227Y429666D01*
G01X1206941Y425094D01*
G01X1204655Y422808D01*
G01X1197797Y420522D01*
G01X1176969Y420522D01*
G01X1192971Y420522D02*
G01X1209227Y395122D01*
G01X1263075Y443636D02*
G01X1240215Y443636D01*
G01X1237929Y422808D01*
G01X1240215Y425094D01*
G01X1247073Y427380D01*
G01X1253931Y427380D01*
G01X1260789Y425094D01*
G01X1265361Y420522D01*
G01X1267647Y413664D01*
G01X1267647Y409092D01*
G01X1265361Y402234D01*
G01X1260789Y397408D01*
G01X1253931Y395122D01*
G01X1247073Y395122D01*
G01X1240215Y397408D01*
G01X1237929Y399948D01*
G01X1235643Y404520D01*
G01X1476969Y443636D02*
G01X1476969Y395122D01*
G01X1476969Y443636D02*
G01X1497797Y443636D01*
G01X1504655Y441350D01*
G01X1506941Y439064D01*
G01X1509227Y434238D01*
G01X1509227Y429666D01*
G01X1506941Y425094D01*
G01X1504655Y422808D01*
G01X1497797Y420522D01*
G01X1476969Y420522D01*
G01X1492971Y420522D02*
G01X1509227Y395122D01*
G01X1563075Y436778D02*
G01X1560789Y441350D01*
G01X1553931Y443636D01*
G01X1549359Y443636D01*
G01X1542501Y441350D01*
G01X1537929Y434238D01*
G01X1535643Y422808D01*
G01X1535643Y411378D01*
G01X1537929Y402234D01*
G01X1542501Y397408D01*
G01X1549359Y395122D01*
G01X1551645Y395122D01*
G01X1558503Y397408D01*
G01X1563075Y402234D01*
G01X1565361Y409092D01*
G01X1565361Y411378D01*
G01X1563075Y418236D01*
G01X1558503Y422808D01*
G01X1551645Y425094D01*
G01X1549359Y425094D01*
G01X1542501Y422808D01*
G01X1537929Y418236D01*
G01X1535643Y411378D01*
G01X-1009259Y915734D02*
G01X-1009259Y866204D01*
G01X-1006211Y857060D01*
G01X-1003163Y853758D01*
G01X-996813Y850710D01*
G01X-990717Y850710D01*
G01X-984367Y853758D01*
G01X-981319Y857060D01*
G01X-978271Y866204D01*
G01X-978271Y872554D01*
G01X-1039485Y903288D02*
G01X-1045581Y906590D01*
G01X-1054725Y915734D01*
G01X-1054725Y850710D01*
G01X30741Y-484266D02*
G01X30741Y-533796D01*
G01X33789Y-542940D01*
G01X36837Y-546242D01*
G01X43187Y-549290D01*
G01X49283Y-549290D01*
G01X55633Y-546242D01*
G01X58681Y-542940D01*
G01X61729Y-533796D01*
G01X61729Y-527446D01*
G01X-2533Y-499760D02*
G01X-2533Y-496712D01*
G01X-5581Y-490362D01*
G01X-8629Y-487314D01*
G01X-14725Y-484266D01*
G01X-27171Y-484266D01*
G01X-33521Y-487314D01*
G01X-36569Y-490362D01*
G01X-39617Y-496712D01*
G01X-39617Y-502808D01*
G01X-36569Y-508904D01*
G01X-30219Y-518302D01*
G01X515Y-549290D01*
G01X-42665Y-549290D01*
G01X1330741Y-484266D02*
G01X1330741Y-533796D01*
G01X1333789Y-542940D01*
G01X1336837Y-546242D01*
G01X1343187Y-549290D01*
G01X1349283Y-549290D01*
G01X1355633Y-546242D01*
G01X1358681Y-542940D01*
G01X1361729Y-533796D01*
G01X1361729Y-527446D01*
G01X1294419Y-484266D02*
G01X1260383Y-484266D01*
G01X1278925Y-508904D01*
G01X1269781Y-508904D01*
G01X1263431Y-511952D01*
G01X1260383Y-515254D01*
G01X1257335Y-524398D01*
G01X1257335Y-530748D01*
G01X1260383Y-539892D01*
G01X1266479Y-546242D01*
G01X1275877Y-549290D01*
G01X1285275Y-549290D01*
G01X1294419Y-546242D01*
G01X1297467Y-542940D01*
G01X1300515Y-536844D01*
G01X743187Y1115734D02*
G01X749283Y1112686D01*
G01X755633Y1106590D01*
G01X758681Y1100240D01*
G01X761729Y1091096D01*
G01X761729Y1075602D01*
G01X758681Y1066204D01*
G01X755633Y1060108D01*
G01X749283Y1053758D01*
G01X743187Y1050710D01*
G01X730741Y1050710D01*
G01X724645Y1053758D01*
G01X718295Y1060108D01*
G01X715247Y1066204D01*
G01X712199Y1075602D01*
G01X712199Y1091096D01*
G01X715247Y1100240D01*
G01X718295Y1106590D01*
G01X724645Y1112686D01*
G01X730741Y1115734D01*
G01X743187Y1115734D01*
G01X733789Y1063156D02*
G01X715247Y1044614D01*
G01X681973Y1103288D02*
G01X675877Y1106590D01*
G01X666733Y1115734D01*
G01X666733Y1050710D01*
G01X561729Y1465734D02*
G01X561729Y1400710D01*
G01X561729Y1465734D02*
G01X533789Y1465734D01*
G01X524645Y1462686D01*
G01X521597Y1459638D01*
G01X518295Y1453288D01*
G01X518295Y1447192D01*
G01X521597Y1441096D01*
G01X524645Y1438048D01*
G01X533789Y1434746D01*
G01X561729Y1434746D01*
G01X540139Y1434746D02*
G01X518295Y1400710D01*
G01X488069Y1453288D02*
G01X481973Y1456590D01*
G01X472829Y1465734D01*
G01X472829Y1400710D01*
G04 Text End*

G04 PolygonModel Start*
G01X104965Y1045527D02*
G01X106969Y1309166D01*
G01X106969Y1309166D02*
G01X-428717Y1309166D01*
G01X-428717Y1309166D02*
G01X-568163Y1169720D01*
G01X-568163Y1169720D02*
G01X-566827Y1040180D01*
G01X106352Y900831D02*
G01X107020Y633983D01*
G01X107020Y633983D02*
G01X-428600Y633983D01*
G01X-428600Y633983D02*
G01X-568213Y773597D01*
G01X-568213Y773597D02*
G01X-568213Y903020D01*
G36*
G01X-511097Y1057401D02*
G01X-511097Y1189400D01*
G01X-491297Y1189400D01*
G01X-491297Y1057401D01*
G01X-511097Y1057401D01*
G37*
G36*
G01X-540797Y1113500D02*
G01X-540797Y1133299D01*
G01X-461597Y1133299D01*
G01X-461597Y1113500D01*
G01X-540797Y1113500D01*
G37*
G36*
G01X79603Y1113500D02*
G01X404Y1113500D01*
G01X404Y1133299D01*
G01X79603Y1133299D01*
G01X79603Y1113500D01*
G37*
G54D11*
G01X391268Y942471D02*
G01X311271Y942471D01*
G01X447313Y942517D02*
G01X527311Y942517D01*
G01X391268Y800503D02*
G01X311271Y800503D01*
G01X447313Y800551D02*
G01X527311Y800551D01*
G01X280296Y911488D02*
G01X280296Y831483D01*
G01X558288Y831537D02*
G01X558288Y911539D01*
G01X527306Y800551D02*
G03X558288Y831537I0J30983D01*
G01X558288Y911534D02*
G03X527306Y942517I-30983J0D01*
G01X311276Y942471D02*
G03X280296Y911488I3J-30983D01*
G01X280296Y831491D02*
G03X311276Y800503I30983J-5D01*
G54D10*
G01X-319043Y278879D02*
G01X-319043Y564121D01*
G01X-490270Y278879D02*
G01X28967Y278879D01*
G01X28678Y539061D02*
G01X29346Y562983D01*
G01X28967Y278879D02*
G01X29635Y302801D01*
G01X-490270Y564121D02*
G01X28967Y564121D01*
G36*
G01X-482652Y271259D02*
G01X-528372Y271259D01*
G01X-528738Y311467D01*
G01X-482784Y311919D01*
G01X-482652Y271259D01*
G37*
G36*
G01X-481829Y531096D02*
G01X-527549Y531096D01*
G01X-527915Y571304D01*
G01X-481961Y571756D01*
G01X-481829Y531096D01*
G37*
G01X-623270Y-37761D02*
G01X-742281Y-37761D01*
G01X-438030Y-37761D02*
G01X-319021Y-37761D01*
G01X-757521Y-22521D02*
G01X-757521Y165521D01*
G01X-303781Y-22521D02*
G01X-303781Y165521D01*
G01X-742281Y180761D02*
G01X-623270Y180761D01*
G01X-319021Y180761D02*
G01X-438030Y180761D01*
G54D12*
G01X-530651Y71500D02*
G03X-530651Y-12995I73175J-42247D01*
G01X-530651Y71500D02*
G03X-530651Y155995I-73175J42247D01*
G54D10*
G01X1162021Y887540D02*
G01X1257779Y887540D01*
G01X1257779Y887540D02*
G01X1257779Y755460D01*
G01X1257779Y755460D02*
G01X1162021Y755460D01*
G01X1076677Y887540D02*
G01X980919Y887540D01*
G01X980919Y887540D02*
G01X980919Y755460D01*
G01X980919Y755460D02*
G01X1076677Y755460D01*
G01X312021Y237540D02*
G01X407779Y237540D01*
G01X407779Y237540D02*
G01X407779Y105460D01*
G01X407779Y105460D02*
G01X312021Y105460D01*
G01X226677Y237540D02*
G01X130919Y237540D01*
G01X130919Y237540D02*
G01X130919Y105460D01*
G01X130919Y105460D02*
G01X226677Y105460D01*
G01X612021Y237540D02*
G01X707779Y237540D01*
G01X707779Y237540D02*
G01X707779Y105460D01*
G01X707779Y105460D02*
G01X612021Y105460D01*
G01X526677Y237540D02*
G01X430919Y237540D01*
G01X430919Y237540D02*
G01X430919Y105460D01*
G01X430919Y105460D02*
G01X526677Y105460D01*
G01X1212021Y237540D02*
G01X1307779Y237540D01*
G01X1307779Y237540D02*
G01X1307779Y105460D01*
G01X1307779Y105460D02*
G01X1212021Y105460D01*
G01X1126677Y237540D02*
G01X1030919Y237540D01*
G01X1030919Y237540D02*
G01X1030919Y105460D01*
G01X1030919Y105460D02*
G01X1126677Y105460D01*
G01X1512021Y237540D02*
G01X1607779Y237540D01*
G01X1607779Y237540D02*
G01X1607779Y105460D01*
G01X1607779Y105460D02*
G01X1512021Y105460D01*
G01X1426677Y237540D02*
G01X1330919Y237540D01*
G01X1330919Y237540D02*
G01X1330919Y105460D01*
G01X1330919Y105460D02*
G01X1426677Y105460D01*
G54D11*
G01X-1838749Y-63665D02*
G01X-1838749Y836333D01*
G01X-630652Y160546D02*
G01X-630652Y-63665D01*
G01X-749409Y836333D02*
G01X-630652Y836333D01*
G01X-630652Y836333D02*
G01X-630652Y612122D01*
G01X-630652Y-63665D02*
G01X-2030649Y-63665D01*
G01X-2030649Y-63665D02*
G01X-2030649Y836333D01*
G01X-2030649Y836333D02*
G01X-1191944Y836333D01*
G01X-438651Y-1108502D02*
G01X577349Y-1108499D01*
G01X577349Y-1108499D02*
G01X577349Y-524500D01*
G01X-438651Y-1108499D02*
G01X-438651Y-524500D01*
G01X-438651Y-969000D02*
G01X577349Y-969000D01*
G01X577349Y-524500D02*
G01X17574Y-524500D01*
G01X-132876Y-524500D02*
G01X-438651Y-524500D01*
G01X861349Y-1108502D02*
G01X1877349Y-1108499D01*
G01X1877349Y-1108499D02*
G01X1877349Y-524500D01*
G01X861349Y-1108499D02*
G01X861349Y-524500D01*
G01X861349Y-969000D02*
G01X1877349Y-969000D01*
G01X1877349Y-524500D02*
G01X1317574Y-524500D01*
G01X1167124Y-524500D02*
G01X861349Y-524500D01*
G54D10*
G01X841970Y668879D02*
G01X696728Y668879D01*
G01X696728Y668879D02*
G01X696728Y772041D01*
G01X841970Y974121D02*
G01X696728Y974121D01*
G01X696728Y974121D02*
G01X696728Y870959D01*
G01X841970Y775960D02*
G01X841970Y867040D01*
G01X611970Y1237560D02*
G01X707858Y1237560D01*
G01X707858Y1237560D02*
G01X707858Y1105440D01*
G01X707858Y1105440D02*
G01X611970Y1105440D01*
G01X526728Y1237560D02*
G01X430840Y1237560D01*
G01X430840Y1237560D02*
G01X430840Y1105440D01*
G01X430840Y1105440D02*
G01X526728Y1105440D01*

M02*

