G04 Layer: BottomLayer*
G04 EasyEDA Pro v3.2.186, 2026-09-09 07:23:29*
G04 Gerber Generator version 0.3*
G04 Scale: 100 percent, Rotated: No, Reflected: No*
G04 Dimensions in millimeters*
G04 Leading zeros omitted, absolute positions, 4 integers and 5 decimals*
G04 Generated by one-click*
G04 Object Configs: Pad,Via,Track,Text,Image,Dimension,BoardOutline,BoardCutout,CopperFilled,SolidRegion,FPCStiffener,Line,PlaneZone,ComponentProperty,ComponentSilkscreen,TearDrop*
G04 Layer Configs: 1,2,3,4,5,6,7,8,9,10,11,13,14,71,72,56*
G04 Copper Areas: 36*
%FSLAX45Y45*%
%MOMM*%
%ADD10C,0.2032*%
%ADD11C,0.254*%
%ADD12R,1.6X1.6*%
%ADD13C,1.6*%
%ADD14R,3.49999X1.2*%
%ADD15R,0.8X0.9*%
%ADD16R,2.0X2.0*%
%ADD17R,1.19009X1.72799*%
%ADD18R,0.8153X0.8636*%
%ADD19R,0.80772X0.8636*%
%ADD20O,1.8X4.19999*%
%ADD21O,1.8X3.99999*%
%ADD22O,3.99999X1.8*%
%ADD23C,1.7*%
%ADD24R,1.0X0.65001*%
%ADD25R,0.80648X0.86401*%
%ADD26C,0.61*%
%ADD27C,1.0*%
%ADD28C,0.8*%
G75*


G04 Copper Start*
G36*
G01X1909189Y-1068340D02*
G01X-1920491Y-1068340D01*
G01X-1920491Y-455992D01*
G01X-1897948Y-476224D01*
G01X-1872946Y-493324D01*
G01X-1845917Y-506997D01*
G01X-1817328Y-517006D01*
G01X-1787673Y-523178D01*
G01X-1757465Y-525407D01*
G01X-1727225Y-523654D01*
G01X-1697477Y-517949D01*
G01X-1668734Y-508392D01*
G01X-1641493Y-495146D01*
G01X-1616225Y-478442D01*
G01X-1593366Y-458567D01*
G01X-1573312Y-435866D01*
G01X-1556410Y-410730D01*
G01X-1542950Y-383594D01*
G01X-1533167Y-354928D01*
G01X-1527228Y-325225D01*
G01X-1525237Y-295000D01*
G01X-1527228Y-264775D01*
G01X-1533167Y-235073D01*
G01X-1542950Y-206406D01*
G01X-1556410Y-179270D01*
G01X-1573312Y-154134D01*
G01X-1593366Y-131433D01*
G01X-1616225Y-111558D01*
G01X-1641493Y-94854D01*
G01X-1668734Y-81608D01*
G01X-1697477Y-72051D01*
G01X-1727225Y-66346D01*
G01X-1757465Y-64593D01*
G01X-1787673Y-66822D01*
G01X-1817328Y-72994D01*
G01X-1845917Y-83003D01*
G01X-1872946Y-96676D01*
G01X-1897948Y-113776D01*
G01X-1920491Y-134008D01*
G01X-1920491Y496334D01*
G01X-1396464Y496334D01*
G01X-1396464Y276334D01*
G01X-1394553Y254487D01*
G01X-1388877Y233303D01*
G01X-1379608Y213427D01*
G01X-1367029Y195463D01*
G01X-1351522Y179955D01*
G01X-1333557Y167376D01*
G01X-1313681Y158108D01*
G01X-1292498Y152432D01*
G01X-1270650Y150520D01*
G01X-1248803Y152432D01*
G01X-1227620Y158108D01*
G01X-1207744Y167376D01*
G01X-1189779Y179955D01*
G01X-1174272Y195463D01*
G01X-1161693Y213427D01*
G01X-1152424Y233303D01*
G01X-1146748Y254487D01*
G01X-1144837Y276334D01*
G01X-1144837Y496334D01*
G01X-1146748Y518181D01*
G01X-1152424Y539365D01*
G01X-1161693Y559241D01*
G01X-1174272Y577205D01*
G01X-1189779Y592713D01*
G01X-1207744Y605292D01*
G01X-1227620Y614560D01*
G01X-1248803Y620236D01*
G01X-1270650Y622148D01*
G01X-1292498Y620236D01*
G01X-1313681Y614560D01*
G01X-1333557Y605292D01*
G01X-1351522Y592713D01*
G01X-1367029Y577205D01*
G01X-1379608Y559241D01*
G01X-1388877Y539365D01*
G01X-1394553Y518181D01*
G01X-1396464Y496334D01*
G01X-1396464Y496334D01*
G01X-1920491Y496334D01*
G01X-1920491Y856666D01*
G01X-1206490Y856666D01*
G01X-1204579Y834818D01*
G01X-1198903Y813635D01*
G01X-1189634Y793759D01*
G01X-1177055Y775794D01*
G01X-1161548Y760287D01*
G01X-1143583Y747708D01*
G01X-1123707Y738439D01*
G01X-1102524Y732763D01*
G01X-1080676Y730852D01*
G01X-860677Y730852D01*
G01X-859673Y730856D01*
G01X-1058263Y532266D01*
G01X-1068935Y519262D01*
G01X-1076865Y504426D01*
G01X-1081748Y488328D01*
G01X-1083397Y471587D01*
G01X-1083397Y-328412D01*
G01X-1083397Y-328412D01*
G01X-1081748Y-345153D01*
G01X-1076865Y-361251D01*
G01X-1068935Y-376087D01*
G01X-1058263Y-389091D01*
G01X-408174Y-1039180D01*
G01X-395170Y-1049852D01*
G01X-380334Y-1057782D01*
G01X-364236Y-1062665D01*
G01X-347494Y-1064314D01*
G01X-3655Y-1064314D01*
G01X13086Y-1062665D01*
G01X29184Y-1057782D01*
G01X44021Y-1049852D01*
G01X57025Y-1039180D01*
G01X196345Y-899860D01*
G01X335665Y-1039180D01*
G01X348668Y-1049852D01*
G01X363505Y-1057782D01*
G01X379603Y-1062665D01*
G01X396344Y-1064314D01*
G01X1296352Y-1064314D01*
G01X1313094Y-1062665D01*
G01X1329192Y-1057782D01*
G01X1344028Y-1049852D01*
G01X1357032Y-1039180D01*
G01X1496899Y-899313D01*
G01X1518626Y-897242D01*
G01X1539626Y-891297D01*
G01X1559213Y-881670D01*
G01X1576749Y-868677D01*
G01X1591661Y-852740D01*
G01X1603463Y-834381D01*
G01X1611768Y-814198D01*
G01X1616308Y-792850D01*
G01X1616718Y-778500D01*
G01X1629535Y-778500D01*
G01X1631371Y-799479D01*
G01X1636821Y-819821D01*
G01X1645721Y-838907D01*
G01X1657800Y-856158D01*
G01X1672691Y-871049D01*
G01X1689942Y-883128D01*
G01X1709028Y-892028D01*
G01X1729370Y-897478D01*
G01X1750349Y-899314D01*
G01X1771328Y-897478D01*
G01X1791670Y-892028D01*
G01X1810756Y-883128D01*
G01X1828007Y-871049D01*
G01X1842898Y-856158D01*
G01X1854977Y-838907D01*
G01X1863877Y-819821D01*
G01X1869327Y-799479D01*
G01X1871163Y-778500D01*
G01X1871163Y-778500D01*
G01X1869327Y-757521D01*
G01X1863877Y-737179D01*
G01X1854977Y-718093D01*
G01X1842898Y-700842D01*
G01X1828007Y-685951D01*
G01X1810756Y-673872D01*
G01X1791670Y-664972D01*
G01X1771328Y-659522D01*
G01X1750349Y-657686D01*
G01X1729370Y-659522D01*
G01X1709028Y-664972D01*
G01X1689942Y-673872D01*
G01X1672691Y-685951D01*
G01X1657800Y-700842D01*
G01X1645721Y-718093D01*
G01X1636821Y-737179D01*
G01X1631371Y-757521D01*
G01X1629535Y-778500D01*
G01X1616718Y-778500D01*
G01X1616932Y-771034D01*
G01X1613621Y-749461D01*
G01X1606483Y-728837D01*
G01X1595751Y-709832D01*
G01X1581775Y-693069D01*
G01X1565011Y-679094D01*
G01X1546006Y-668363D01*
G01X1525381Y-661226D01*
G01X1503808Y-657917D01*
G01X1481992Y-658542D01*
G01X1460644Y-663083D01*
G01X1440462Y-671390D01*
G01X1422103Y-683193D01*
G01X1406168Y-698106D01*
G01X1393175Y-715642D01*
G01X1383550Y-735230D01*
G01X1377605Y-756230D01*
G01X1375536Y-777957D01*
G01X1362517Y-790977D01*
G01X1362948Y-771293D01*
G01X1360176Y-751801D01*
G01X1354275Y-733018D01*
G01X1345401Y-715443D01*
G01X1333791Y-699542D01*
G01X1319752Y-685738D01*
G01X1303658Y-674398D01*
G01X1285935Y-665823D01*
G01X1267055Y-660239D01*
G01X1284731Y-653972D01*
G01X1300941Y-644539D01*
G01X1315122Y-632268D01*
G01X1326786Y-617582D01*
G01X1335527Y-600989D01*
G01X1341044Y-583065D01*
G01X1343146Y-564429D01*
G01X1341759Y-545726D01*
G01X1336933Y-527604D01*
G01X1328833Y-510689D01*
G01X1317740Y-495567D01*
G01X1304039Y-482761D01*
G01X1288203Y-472715D01*
G01X1270780Y-465775D01*
G01X1252373Y-462183D01*
G01X1233619Y-462062D01*
G01X1215167Y-465417D01*
G01X1197656Y-472131D01*
G01X1181692Y-481973D01*
G01X1167827Y-494601D01*
G01X1167827Y-323811D01*
G01X1181512Y-339398D01*
G01X1197758Y-352294D01*
G01X1216044Y-362085D01*
G01X1235783Y-368457D01*
G01X1256342Y-371206D01*
G01X1277061Y-370243D01*
G01X1297277Y-365600D01*
G01X1316340Y-357426D01*
G01X1333640Y-345982D01*
G01X1348620Y-331635D01*
G01X1360802Y-314847D01*
G01X1369793Y-296155D01*
G01X1375305Y-276159D01*
G01X1377163Y-255500D01*
G01X1377163Y-255500D01*
G01X1399535Y-255500D01*
G01X1401507Y-276781D01*
G01X1407356Y-297337D01*
G01X1416882Y-316468D01*
G01X1429762Y-333523D01*
G01X1445556Y-347922D01*
G01X1463726Y-359172D01*
G01X1483655Y-366893D01*
G01X1504663Y-370820D01*
G01X1526035Y-370820D01*
G01X1547043Y-366893D01*
G01X1566972Y-359172D01*
G01X1585142Y-347922D01*
G01X1600936Y-333523D01*
G01X1613816Y-316468D01*
G01X1623342Y-297337D01*
G01X1629191Y-276781D01*
G01X1631163Y-255500D01*
G01X1631163Y-255500D01*
G01X1653535Y-255500D01*
G01X1655507Y-276781D01*
G01X1661356Y-297337D01*
G01X1670882Y-316468D01*
G01X1683762Y-333523D01*
G01X1699556Y-347922D01*
G01X1717726Y-359172D01*
G01X1737655Y-366893D01*
G01X1758663Y-370820D01*
G01X1780035Y-370820D01*
G01X1801043Y-366893D01*
G01X1820972Y-359172D01*
G01X1839142Y-347922D01*
G01X1854936Y-333523D01*
G01X1867816Y-316468D01*
G01X1877342Y-297337D01*
G01X1883191Y-276781D01*
G01X1885163Y-255500D01*
G01X1883191Y-234219D01*
G01X1877342Y-213663D01*
G01X1867816Y-194532D01*
G01X1854936Y-177477D01*
G01X1839142Y-163079D01*
G01X1820972Y-151828D01*
G01X1801043Y-144107D01*
G01X1780035Y-140180D01*
G01X1758663Y-140180D01*
G01X1737655Y-144107D01*
G01X1717726Y-151828D01*
G01X1699556Y-163079D01*
G01X1683762Y-177477D01*
G01X1670882Y-194532D01*
G01X1661356Y-213663D01*
G01X1655507Y-234219D01*
G01X1653535Y-255500D01*
G01X1653535Y-255500D01*
G01X1631163Y-255500D01*
G01X1629191Y-234219D01*
G01X1623342Y-213663D01*
G01X1613816Y-194532D01*
G01X1600936Y-177477D01*
G01X1585142Y-163079D01*
G01X1566972Y-151828D01*
G01X1547043Y-144107D01*
G01X1526035Y-140180D01*
G01X1504663Y-140180D01*
G01X1483655Y-144107D01*
G01X1463726Y-151828D01*
G01X1445556Y-163079D01*
G01X1429762Y-177477D01*
G01X1416882Y-194532D01*
G01X1407356Y-213663D01*
G01X1401507Y-234219D01*
G01X1399535Y-255500D01*
G01X1399535Y-255500D01*
G01X1377163Y-255500D01*
G01X1375305Y-234841D01*
G01X1369793Y-214845D01*
G01X1360802Y-196153D01*
G01X1348620Y-179365D01*
G01X1333640Y-165019D01*
G01X1316340Y-153575D01*
G01X1297277Y-145400D01*
G01X1277061Y-140757D01*
G01X1256342Y-139795D01*
G01X1235783Y-142543D01*
G01X1216044Y-148916D01*
G01X1197758Y-158706D01*
G01X1181512Y-171602D01*
G01X1167827Y-187189D01*
G01X1167827Y115734D01*
G01X1169349Y120972D01*
G01X1172626Y111798D01*
G01X1178253Y103847D01*
G01X1185814Y97707D01*
G01X1194751Y93831D01*
G01X1204401Y92506D01*
G01X1285173Y92506D01*
G01X1296330Y94288D01*
G01X1306377Y99457D01*
G01X1314313Y107499D01*
G01X1319349Y117613D01*
G01X1324385Y107499D01*
G01X1332322Y99457D01*
G01X1342368Y94288D01*
G01X1353525Y92506D01*
G01X1434297Y92506D01*
G01X1443947Y93831D01*
G01X1452884Y97707D01*
G01X1460445Y103847D01*
G01X1466073Y111798D01*
G01X1469349Y120972D01*
G01X1472626Y111798D01*
G01X1478253Y103847D01*
G01X1485814Y97707D01*
G01X1494751Y93831D01*
G01X1504401Y92506D01*
G01X1585173Y92506D01*
G01X1596240Y94259D01*
G01X1606224Y99346D01*
G01X1614147Y107269D01*
G01X1619234Y117253D01*
G01X1620987Y128320D01*
G01X1620987Y214680D01*
G01X1619234Y225747D01*
G01X1614147Y235731D01*
G01X1606224Y243654D01*
G01X1596240Y248741D01*
G01X1585173Y250494D01*
G01X1534847Y250494D01*
G01X1532372Y265855D01*
G01X1526385Y280216D01*
G01X1517217Y292788D01*
G01X1505372Y302876D01*
G01X1491502Y309928D01*
G01X1476372Y313553D01*
G01X1460812Y313553D01*
G01X1445682Y309928D01*
G01X1431812Y302876D01*
G01X1419967Y292788D01*
G01X1410799Y280216D01*
G01X1404812Y265855D01*
G01X1402337Y250494D01*
G01X1353525Y250494D01*
G01X1347433Y249972D01*
G01X1341518Y248421D01*
G01X1309866Y248421D01*
G01X1309866Y338612D01*
G01X1321057Y349802D01*
G01X1328767Y359850D01*
G01X1333613Y371550D01*
G01X1335266Y384107D01*
G01X1335266Y1355342D01*
G01X1350009Y1369987D01*
G01X1361898Y1387030D01*
G01X1370549Y1405924D01*
G01X1375685Y1426059D01*
G01X1376980Y1444500D01*
G01X1399535Y1444500D01*
G01X1401507Y1423219D01*
G01X1407356Y1402663D01*
G01X1416882Y1383532D01*
G01X1429762Y1366477D01*
G01X1445556Y1352079D01*
G01X1463726Y1340828D01*
G01X1483655Y1333107D01*
G01X1504663Y1329180D01*
G01X1526035Y1329180D01*
G01X1547043Y1333107D01*
G01X1566972Y1340828D01*
G01X1585142Y1352079D01*
G01X1600936Y1366477D01*
G01X1613816Y1383532D01*
G01X1623342Y1402663D01*
G01X1629191Y1423219D01*
G01X1631163Y1444500D01*
G01X1631163Y1444500D01*
G01X1653535Y1444500D01*
G01X1655507Y1423219D01*
G01X1661356Y1402663D01*
G01X1670882Y1383532D01*
G01X1683762Y1366477D01*
G01X1699556Y1352079D01*
G01X1717726Y1340828D01*
G01X1737655Y1333107D01*
G01X1758663Y1329180D01*
G01X1780035Y1329180D01*
G01X1801043Y1333107D01*
G01X1820972Y1340828D01*
G01X1839142Y1352079D01*
G01X1854936Y1366477D01*
G01X1867816Y1383532D01*
G01X1877342Y1402663D01*
G01X1883191Y1423219D01*
G01X1885163Y1444500D01*
G01X1883191Y1465781D01*
G01X1877342Y1486337D01*
G01X1867816Y1505468D01*
G01X1854936Y1522523D01*
G01X1839142Y1536921D01*
G01X1820972Y1548172D01*
G01X1801043Y1555893D01*
G01X1780035Y1559820D01*
G01X1758663Y1559820D01*
G01X1737655Y1555893D01*
G01X1717726Y1548172D01*
G01X1699556Y1536921D01*
G01X1683762Y1522523D01*
G01X1670882Y1505468D01*
G01X1661356Y1486337D01*
G01X1655507Y1465781D01*
G01X1653535Y1444500D01*
G01X1653535Y1444500D01*
G01X1631163Y1444500D01*
G01X1629191Y1465781D01*
G01X1623342Y1486337D01*
G01X1613816Y1505468D01*
G01X1600936Y1522523D01*
G01X1585142Y1536921D01*
G01X1566972Y1548172D01*
G01X1547043Y1555893D01*
G01X1526035Y1559820D01*
G01X1504663Y1559820D01*
G01X1483655Y1555893D01*
G01X1463726Y1548172D01*
G01X1445556Y1536921D01*
G01X1429762Y1522523D01*
G01X1416882Y1505468D01*
G01X1407356Y1486337D01*
G01X1401507Y1465781D01*
G01X1399535Y1444500D01*
G01X1399535Y1444500D01*
G01X1376980Y1444500D01*
G01X1377140Y1446789D01*
G01X1374867Y1467444D01*
G01X1368940Y1487361D01*
G01X1359548Y1505898D01*
G01X1346996Y1522458D01*
G01X1331686Y1536509D01*
G01X1314111Y1547597D01*
G01X1294838Y1555366D01*
G01X1274486Y1559566D01*
G01X1253712Y1560062D01*
G01X1233184Y1556837D01*
G01X1213562Y1549995D01*
G01X1195479Y1539757D01*
G01X1179516Y1526453D01*
G01X1166188Y1510510D01*
G01X1155924Y1492442D01*
G01X1149054Y1472830D01*
G01X1145799Y1452306D01*
G01X1146264Y1431531D01*
G01X1150434Y1411174D01*
G01X1158175Y1391889D01*
G01X1169237Y1374299D01*
G01X1183265Y1358968D01*
G01X1199807Y1346391D01*
G01X1218330Y1336972D01*
G01X1238238Y1331015D01*
G01X1238238Y900363D01*
G01X1235173Y900494D01*
G01X1154401Y900494D01*
G01X1144751Y899169D01*
G01X1135814Y895293D01*
G01X1128253Y889153D01*
G01X1122626Y881202D01*
G01X1119349Y872028D01*
G01X1116072Y881202D01*
G01X1110445Y889153D01*
G01X1102884Y895293D01*
G01X1093947Y899169D01*
G01X1084297Y900494D01*
G01X1033524Y900494D01*
G01X983218Y950800D01*
G01X973889Y958087D01*
G01X963074Y962897D01*
G01X951416Y964945D01*
G01X945824Y973115D01*
G01X938209Y979442D01*
G01X929154Y983442D01*
G01X919349Y984811D01*
G01X899987Y984811D01*
G01X720823Y1163975D01*
G01X720823Y1214700D01*
G01X719070Y1225768D01*
G01X713983Y1235751D01*
G01X706060Y1243675D01*
G01X696076Y1248762D01*
G01X685009Y1250514D01*
G01X604362Y1250514D01*
G01X594748Y1249200D01*
G01X585840Y1245353D01*
G01X578291Y1239256D01*
G01X572656Y1231356D01*
G01X569349Y1222234D01*
G01X565132Y1232983D01*
G01X557715Y1241831D01*
G01X547868Y1247860D01*
G01X547868Y1339339D01*
G01X565970Y1349766D01*
G01X581905Y1363275D01*
G01X595153Y1379427D01*
G01X605284Y1397697D01*
G01X611969Y1417489D01*
G01X614989Y1438160D01*
G01X614764Y1444500D01*
G01X637535Y1444500D01*
G01X639507Y1423219D01*
G01X645356Y1402663D01*
G01X654882Y1383532D01*
G01X667762Y1366477D01*
G01X683556Y1352079D01*
G01X701726Y1340828D01*
G01X721655Y1333107D01*
G01X742663Y1329180D01*
G01X764035Y1329180D01*
G01X785043Y1333107D01*
G01X804972Y1340828D01*
G01X823142Y1352079D01*
G01X838936Y1366477D01*
G01X851816Y1383532D01*
G01X861342Y1402663D01*
G01X867191Y1423219D01*
G01X869163Y1444500D01*
G01X869163Y1444500D01*
G01X891535Y1444500D01*
G01X893507Y1423219D01*
G01X899356Y1402663D01*
G01X908882Y1383532D01*
G01X921762Y1366477D01*
G01X937556Y1352079D01*
G01X955726Y1340828D01*
G01X975655Y1333107D01*
G01X996663Y1329180D01*
G01X1018035Y1329180D01*
G01X1039043Y1333107D01*
G01X1058972Y1340828D01*
G01X1077142Y1352079D01*
G01X1092936Y1366477D01*
G01X1105816Y1383532D01*
G01X1115342Y1402663D01*
G01X1121191Y1423219D01*
G01X1123163Y1444500D01*
G01X1121191Y1465781D01*
G01X1115342Y1486337D01*
G01X1105816Y1505468D01*
G01X1092936Y1522523D01*
G01X1077142Y1536921D01*
G01X1058972Y1548172D01*
G01X1039043Y1555893D01*
G01X1018035Y1559820D01*
G01X996663Y1559820D01*
G01X975655Y1555893D01*
G01X955726Y1548172D01*
G01X937556Y1536921D01*
G01X921762Y1522523D01*
G01X908882Y1505468D01*
G01X899356Y1486337D01*
G01X893507Y1465781D01*
G01X891535Y1444500D01*
G01X891535Y1444500D01*
G01X869163Y1444500D01*
G01X867191Y1465781D01*
G01X861342Y1486337D01*
G01X851816Y1505468D01*
G01X838936Y1522523D01*
G01X823142Y1536921D01*
G01X804972Y1548172D01*
G01X785043Y1555893D01*
G01X764035Y1559820D01*
G01X742663Y1559820D01*
G01X721655Y1555893D01*
G01X701726Y1548172D01*
G01X683556Y1536921D01*
G01X667762Y1522523D01*
G01X654882Y1505468D01*
G01X645356Y1486337D01*
G01X639507Y1465781D01*
G01X637535Y1444500D01*
G01X637535Y1444500D01*
G01X614764Y1444500D01*
G01X614247Y1459037D01*
G01X609766Y1479441D01*
G01X601693Y1498708D01*
G01X590290Y1516212D01*
G01X575928Y1531382D01*
G01X559074Y1543726D01*
G01X540277Y1552841D01*
G01X520149Y1558431D01*
G01X499344Y1560314D01*
G01X478538Y1558429D01*
G01X458410Y1552837D01*
G01X439614Y1543720D01*
G01X422762Y1531375D01*
G01X408401Y1516203D01*
G01X397000Y1498699D01*
G01X388928Y1479431D01*
G01X384450Y1459026D01*
G01X383709Y1438149D01*
G01X386732Y1417478D01*
G01X393418Y1397687D01*
G01X403551Y1379418D01*
G01X416801Y1363268D01*
G01X432737Y1349760D01*
G01X450840Y1339335D01*
G01X450840Y1250401D01*
G01X440476Y1247988D01*
G01X431278Y1242636D01*
G01X424059Y1234818D01*
G01X419456Y1225224D01*
G01X417875Y1214700D01*
G01X417875Y1128300D01*
G01X419628Y1117233D01*
G01X424715Y1107249D01*
G01X432638Y1099326D01*
G01X442622Y1094239D01*
G01X453689Y1092486D01*
G01X534336Y1092486D01*
G01X543950Y1093800D01*
G01X552858Y1097647D01*
G01X560407Y1103744D01*
G01X566041Y1111644D01*
G01X569349Y1120766D01*
G01X572656Y1111644D01*
G01X578291Y1103744D01*
G01X585840Y1097647D01*
G01X594748Y1093800D01*
G01X604362Y1092486D01*
G01X655094Y1092486D01*
G01X785868Y961712D01*
G01X784123Y955460D01*
G01X783535Y948997D01*
G01X783535Y883995D01*
G01X785288Y872928D01*
G01X790375Y862944D01*
G01X798298Y855021D01*
G01X808282Y849934D01*
G01X819349Y848181D01*
G01X919349Y848181D01*
G01X930883Y850090D01*
G01X941188Y855611D01*
G01X967711Y829089D01*
G01X967711Y778320D01*
G01X969464Y767253D01*
G01X974551Y757269D01*
G01X982474Y749346D01*
G01X992458Y744259D01*
G01X1003525Y742506D01*
G01X1084297Y742506D01*
G01X1093947Y743831D01*
G01X1102884Y747707D01*
G01X1110445Y753847D01*
G01X1116072Y761798D01*
G01X1119349Y770972D01*
G01X1122626Y761798D01*
G01X1128253Y753847D01*
G01X1135814Y747707D01*
G01X1144751Y743831D01*
G01X1154401Y742506D01*
G01X1235173Y742506D01*
G01X1238238Y742637D01*
G01X1238238Y404202D01*
G01X1227048Y393011D01*
G01X1219338Y382964D01*
G01X1214492Y371263D01*
G01X1212838Y358707D01*
G01X1212838Y250494D01*
G01X1204401Y250494D01*
G01X1194751Y249169D01*
G01X1185814Y245293D01*
G01X1178253Y239153D01*
G01X1172626Y231202D01*
G01X1169349Y222028D01*
G01X1166072Y231202D01*
G01X1160445Y239153D01*
G01X1152884Y245293D01*
G01X1143947Y249169D01*
G01X1134297Y250494D01*
G01X1053525Y250494D01*
G01X1042458Y248741D01*
G01X1032474Y243654D01*
G01X1024551Y235731D01*
G01X1019464Y225747D01*
G01X1017711Y214680D01*
G01X1017711Y128320D01*
G01X1019464Y117253D01*
G01X1024551Y107269D01*
G01X1032474Y99346D01*
G01X1042458Y94259D01*
G01X1053525Y92506D01*
G01X1070799Y92506D01*
G01X1070799Y-158614D01*
G01X1052165Y-148709D01*
G01X1032044Y-142350D01*
G01X1011103Y-139747D01*
G01X990037Y-140988D01*
G01X969545Y-146030D01*
G01X950309Y-154707D01*
G01X932967Y-166730D01*
G01X932967Y167497D01*
G01X931314Y180054D01*
G01X926467Y191754D01*
G01X918758Y201802D01*
G01X717868Y402692D01*
G01X717868Y694003D01*
G01X783535Y694003D01*
G01X785288Y682936D01*
G01X790375Y672952D01*
G01X798298Y665029D01*
G01X808282Y659942D01*
G01X819349Y658189D01*
G01X919349Y658189D01*
G01X930416Y659942D01*
G01X940400Y665029D01*
G01X948323Y672952D01*
G01X953410Y682936D01*
G01X955163Y694003D01*
G01X955163Y759005D01*
G01X953410Y770072D01*
G01X948323Y780056D01*
G01X940400Y787979D01*
G01X930416Y793066D01*
G01X919349Y794819D01*
G01X819349Y794819D01*
G01X808282Y793066D01*
G01X798298Y787979D01*
G01X790375Y780056D01*
G01X785288Y770072D01*
G01X783535Y759005D01*
G01X783535Y694003D01*
G01X783535Y694003D01*
G01X717868Y694003D01*
G01X717868Y753185D01*
G01X719349Y753185D01*
G01X730416Y754938D01*
G01X740400Y760025D01*
G01X748323Y767948D01*
G01X753410Y777932D01*
G01X755163Y788999D01*
G01X755163Y854001D01*
G01X753410Y865068D01*
G01X748323Y875052D01*
G01X740400Y882975D01*
G01X730416Y888062D01*
G01X719349Y889815D01*
G01X619349Y889815D01*
G01X608282Y888062D01*
G01X598298Y882975D01*
G01X590375Y875052D01*
G01X585288Y865068D01*
G01X583535Y854001D01*
G01X583535Y788999D01*
G01X585288Y777932D01*
G01X590375Y767948D01*
G01X598298Y760025D01*
G01X608282Y754938D01*
G01X619349Y753185D01*
G01X620840Y753185D01*
G01X620840Y382597D01*
G01X622493Y370040D01*
G01X627339Y358340D01*
G01X635049Y348292D01*
G01X835939Y147402D01*
G01X835939Y-174311D01*
G01X819889Y-160710D01*
G01X801644Y-150236D01*
G01X781804Y-143236D01*
G01X761026Y-139941D01*
G01X739995Y-140459D01*
G01X719404Y-144773D01*
G01X699933Y-152740D01*
G01X682225Y-164099D01*
G01X666864Y-178473D01*
G01X654356Y-195390D01*
G01X645115Y-214290D01*
G01X639446Y-234549D01*
G01X637535Y-255500D01*
G01X639446Y-276451D01*
G01X645115Y-296711D01*
G01X654356Y-315611D01*
G01X666864Y-332527D01*
G01X682225Y-346901D01*
G01X699933Y-358260D01*
G01X719404Y-366228D01*
G01X739995Y-370541D01*
G01X761026Y-371059D01*
G01X781804Y-367764D01*
G01X801644Y-360764D01*
G01X819889Y-350291D01*
G01X835939Y-336689D01*
G01X835939Y-674601D01*
G01X837592Y-687157D01*
G01X842439Y-698858D01*
G01X850149Y-708906D01*
G01X875807Y-734564D01*
G01X869785Y-755294D01*
G01X867548Y-776764D01*
G01X869167Y-798290D01*
G01X874591Y-819184D01*
G01X883647Y-838779D01*
G01X896046Y-856450D01*
G01X911391Y-871632D01*
G01X929194Y-883841D01*
G01X948885Y-892687D01*
G01X489813Y-892687D01*
G01X508820Y-884222D01*
G01X526092Y-872623D01*
G01X541118Y-858231D01*
G01X553451Y-841476D01*
G01X562727Y-822852D01*
G01X568671Y-802913D01*
G01X571105Y-782250D01*
G01X569958Y-761476D01*
G01X565263Y-741207D01*
G01X557161Y-722044D01*
G01X545890Y-704555D01*
G01X531786Y-689259D01*
G01X515267Y-676610D01*
G01X496823Y-666983D01*
G01X477000Y-660663D01*
G01X456387Y-657837D01*
G01X435595Y-658591D01*
G01X415241Y-662900D01*
G01X395927Y-670638D01*
G01X378228Y-681575D01*
G01X362668Y-695386D01*
G01X349708Y-711662D01*
G01X339732Y-729921D01*
G01X333038Y-749620D01*
G01X329822Y-770176D01*
G01X330181Y-790979D01*
G01X317162Y-777959D01*
G01X315243Y-757048D01*
G01X309733Y-736785D01*
G01X300797Y-717782D01*
G01X288706Y-700614D01*
G01X273824Y-685799D01*
G01X256602Y-673784D01*
G01X237560Y-664932D01*
G01X217273Y-659512D01*
G01X196354Y-657686D01*
G01X175434Y-659510D01*
G01X155147Y-664929D01*
G01X136104Y-673779D01*
G01X118881Y-685793D01*
G01X103999Y-700607D01*
G01X91906Y-717774D01*
G01X82969Y-736776D01*
G01X77457Y-757039D01*
G01X75537Y-777950D01*
G01X62518Y-790968D01*
G01X62947Y-771286D01*
G01X60174Y-751795D01*
G01X54273Y-733013D01*
G01X45399Y-715439D01*
G01X33789Y-699539D01*
G01X19750Y-685737D01*
G01X3656Y-674397D01*
G01X-14065Y-665822D01*
G01X-32945Y-660239D01*
G01X-14177Y-653458D01*
G01X2888Y-643113D01*
G01X17581Y-629610D01*
G01X29326Y-613477D01*
G01X37663Y-595347D01*
G01X42266Y-575929D01*
G01X42954Y-555986D01*
G01X39700Y-536297D01*
G01X32632Y-517636D01*
G01X22027Y-500731D01*
G01X8300Y-486248D01*
G01X-8011Y-474751D01*
G01X-26267Y-466693D01*
G01X-45753Y-462388D01*
G01X-65705Y-462006D01*
G01X-85341Y-465561D01*
G01X-85341Y-342284D01*
G01X-69998Y-353732D01*
G01X-52979Y-362495D01*
G01X-34749Y-368335D01*
G01X-15806Y-371093D01*
G01X3333Y-370692D01*
G01X22144Y-367145D01*
G01X40114Y-360547D01*
G01X56751Y-351079D01*
G01X71602Y-339000D01*
G01X84260Y-324640D01*
G01X94380Y-308391D01*
G01X101685Y-290697D01*
G01X105976Y-272041D01*
G01X106979Y-255500D01*
G01X129535Y-255500D01*
G01X131507Y-276781D01*
G01X137356Y-297337D01*
G01X146882Y-316468D01*
G01X159762Y-333523D01*
G01X175556Y-347922D01*
G01X193726Y-359172D01*
G01X213655Y-366893D01*
G01X234663Y-370820D01*
G01X256035Y-370820D01*
G01X277043Y-366893D01*
G01X296972Y-359172D01*
G01X315142Y-347922D01*
G01X330936Y-333523D01*
G01X343816Y-316468D01*
G01X353342Y-297337D01*
G01X359191Y-276781D01*
G01X361163Y-255500D01*
G01X361163Y-255500D01*
G01X383535Y-255500D01*
G01X385507Y-276781D01*
G01X391356Y-297337D01*
G01X400882Y-316468D01*
G01X413762Y-333523D01*
G01X429556Y-347922D01*
G01X447726Y-359172D01*
G01X467655Y-366893D01*
G01X488663Y-370820D01*
G01X510035Y-370820D01*
G01X531043Y-366893D01*
G01X550972Y-359172D01*
G01X569142Y-347922D01*
G01X584936Y-333523D01*
G01X597816Y-316468D01*
G01X607342Y-297337D01*
G01X613191Y-276781D01*
G01X615163Y-255500D01*
G01X613191Y-234219D01*
G01X607342Y-213663D01*
G01X597816Y-194532D01*
G01X584936Y-177477D01*
G01X569142Y-163079D01*
G01X550972Y-151828D01*
G01X531043Y-144107D01*
G01X510035Y-140180D01*
G01X488663Y-140180D01*
G01X467655Y-144107D01*
G01X447726Y-151828D01*
G01X429556Y-163079D01*
G01X413762Y-177477D01*
G01X400882Y-194532D01*
G01X391356Y-213663D01*
G01X385507Y-234219D01*
G01X383535Y-255500D01*
G01X383535Y-255500D01*
G01X361163Y-255500D01*
G01X359191Y-234219D01*
G01X353342Y-213663D01*
G01X343816Y-194532D01*
G01X330936Y-177477D01*
G01X315142Y-163079D01*
G01X296972Y-151828D01*
G01X277043Y-144107D01*
G01X256035Y-140180D01*
G01X234663Y-140180D01*
G01X213655Y-144107D01*
G01X193726Y-151828D01*
G01X175556Y-163079D01*
G01X159762Y-177477D01*
G01X146882Y-194532D01*
G01X137356Y-213663D01*
G01X131507Y-234219D01*
G01X129535Y-255500D01*
G01X129535Y-255500D01*
G01X106979Y-255500D01*
G01X107134Y-252934D01*
G01X105130Y-233896D01*
G01X100017Y-215449D01*
G01X367049Y51583D01*
G01X573394Y51583D01*
G01X585950Y53236D01*
G01X597651Y58083D01*
G01X607698Y65793D01*
G01X634412Y92506D01*
G01X685173Y92506D01*
G01X696240Y94259D01*
G01X706224Y99346D01*
G01X714147Y107269D01*
G01X719234Y117253D01*
G01X720987Y128320D01*
G01X720987Y214680D01*
G01X719234Y225747D01*
G01X714147Y235731D01*
G01X706224Y243654D01*
G01X696240Y248741D01*
G01X685173Y250494D01*
G01X604401Y250494D01*
G01X594751Y249169D01*
G01X585814Y245293D01*
G01X578253Y239153D01*
G01X572625Y231202D01*
G01X569349Y222028D01*
G01X565164Y232841D01*
G01X557745Y241751D01*
G01X547868Y247823D01*
G01X547868Y713496D01*
G01X557014Y725952D01*
G01X563029Y740186D01*
G01X565587Y755426D01*
G01X564548Y770844D01*
G01X559968Y785603D01*
G01X552097Y798902D01*
G01X559110Y806680D01*
G01X563572Y816154D01*
G01X565103Y826514D01*
G01X565103Y916514D01*
G01X563350Y927581D01*
G01X558263Y937565D01*
G01X550340Y945488D01*
G01X540356Y950575D01*
G01X529289Y952328D01*
G01X449289Y952328D01*
G01X437649Y950383D01*
G01X427273Y944761D01*
G01X419287Y936071D01*
G01X411301Y944761D01*
G01X400925Y950383D01*
G01X389284Y952328D01*
G01X309285Y952328D01*
G01X298217Y950575D01*
G01X288234Y945488D01*
G01X280310Y937565D01*
G01X275223Y927581D01*
G01X273471Y916514D01*
G01X273471Y902919D01*
G01X217951Y847400D01*
G01X-266181Y847400D01*
G01X-301456Y882674D01*
G01X-293574Y890593D01*
G01X-288515Y900554D01*
G01X-286773Y911590D01*
G01X-174416Y911590D01*
G01X-172663Y900523D01*
G01X-167576Y890539D01*
G01X-159653Y882616D01*
G01X-149669Y877529D01*
G01X-138602Y875776D01*
G01X211398Y875776D01*
G01X222465Y877529D01*
G01X232449Y882616D01*
G01X240372Y890539D01*
G01X245459Y900523D01*
G01X247212Y911590D01*
G01X247212Y1031590D01*
G01X245459Y1042657D01*
G01X240372Y1052641D01*
G01X232449Y1060564D01*
G01X222465Y1065651D01*
G01X211398Y1067404D01*
G01X-138602Y1067404D01*
G01X-149669Y1065651D01*
G01X-159653Y1060564D01*
G01X-167576Y1052641D01*
G01X-172663Y1042657D01*
G01X-174416Y1031590D01*
G01X-174416Y911590D01*
G01X-174416Y911590D01*
G01X-286773Y911590D01*
G01X-286773Y1031590D01*
G01X-288525Y1042657D01*
G01X-293612Y1052641D01*
G01X-301536Y1060564D01*
G01X-311519Y1065651D01*
G01X-322587Y1067404D01*
G01X-672586Y1067404D01*
G01X-683653Y1065651D01*
G01X-693637Y1060564D01*
G01X-701560Y1052641D01*
G01X-706647Y1042657D01*
G01X-708400Y1031590D01*
G01X-708400Y911590D01*
G01X-706647Y900523D01*
G01X-701560Y890539D01*
G01X-693637Y882616D01*
G01X-683653Y877529D01*
G01X-672586Y875776D01*
G01X-583398Y875776D01*
G01X-583398Y757400D01*
G01X-783376Y757400D01*
G01X-767093Y772575D01*
G01X-753740Y790382D01*
G01X-743733Y810263D01*
G01X-737386Y831596D01*
G01X-734898Y853714D01*
G01X-736346Y875925D01*
G01X-741685Y897532D01*
G01X-750748Y917861D01*
G01X-763252Y936274D01*
G01X-778805Y952196D01*
G01X-796920Y965128D01*
G01X-817030Y974666D01*
G01X-838506Y980511D01*
G01X-860677Y982480D01*
G01X-1080676Y982480D01*
G01X-1102524Y980568D01*
G01X-1123707Y974892D01*
G01X-1143583Y965624D01*
G01X-1161548Y953045D01*
G01X-1177055Y937537D01*
G01X-1189634Y919573D01*
G01X-1198903Y899697D01*
G01X-1204579Y878513D01*
G01X-1206490Y856666D01*
G01X-1920491Y856666D01*
G01X-1920491Y1322008D01*
G01X-1898805Y1302452D01*
G01X-1874820Y1285796D01*
G01X-1848922Y1272308D01*
G01X-1821525Y1262203D01*
G01X-1793070Y1255645D01*
G01X-1764014Y1252738D01*
G01X-1734824Y1253529D01*
G01X-1705968Y1258006D01*
G01X-1677910Y1266097D01*
G01X-1651101Y1277671D01*
G01X-1625971Y1292543D01*
G01X-1602924Y1310475D01*
G01X-1582330Y1331177D01*
G01X-1564519Y1354317D01*
G01X-1549779Y1379525D01*
G01X-1538345Y1406394D01*
G01X-1530401Y1434493D01*
G01X-1526075Y1463372D01*
G01X-1525436Y1492566D01*
G01X-1528494Y1521606D01*
G01X-1529177Y1524500D01*
G01X-886465Y1524500D01*
G01X-886465Y1364500D01*
G01X-884712Y1353433D01*
G01X-879625Y1343449D01*
G01X-871702Y1335526D01*
G01X-861718Y1330439D01*
G01X-850651Y1328686D01*
G01X-690651Y1328686D01*
G01X-690651Y1328686D01*
G01X-679584Y1330439D01*
G01X-669600Y1335526D01*
G01X-661677Y1343449D01*
G01X-656590Y1353433D01*
G01X-654837Y1364500D01*
G01X-654837Y1444500D01*
G01X-632465Y1444500D01*
G01X-630493Y1423219D01*
G01X-624644Y1402663D01*
G01X-615118Y1383532D01*
G01X-602238Y1366477D01*
G01X-586444Y1352079D01*
G01X-568274Y1340828D01*
G01X-548345Y1333107D01*
G01X-527337Y1329180D01*
G01X-505965Y1329180D01*
G01X-484957Y1333107D01*
G01X-465028Y1340828D01*
G01X-446858Y1352079D01*
G01X-431064Y1366477D01*
G01X-418184Y1383532D01*
G01X-408658Y1402663D01*
G01X-402809Y1423219D01*
G01X-400837Y1444500D01*
G01X-400837Y1444500D01*
G01X-378465Y1444500D01*
G01X-376493Y1423219D01*
G01X-370644Y1402663D01*
G01X-361118Y1383532D01*
G01X-348238Y1366477D01*
G01X-332444Y1352079D01*
G01X-314274Y1340828D01*
G01X-294345Y1333107D01*
G01X-273337Y1329180D01*
G01X-251965Y1329180D01*
G01X-230957Y1333107D01*
G01X-211028Y1340828D01*
G01X-192858Y1352079D01*
G01X-177064Y1366477D01*
G01X-164184Y1383532D01*
G01X-154658Y1402663D01*
G01X-148809Y1423219D01*
G01X-146837Y1444500D01*
G01X-146837Y1444500D01*
G01X-124465Y1444500D01*
G01X-122493Y1423219D01*
G01X-116644Y1402663D01*
G01X-107118Y1383532D01*
G01X-94238Y1366477D01*
G01X-78444Y1352079D01*
G01X-60274Y1340828D01*
G01X-40345Y1333107D01*
G01X-19337Y1329180D01*
G01X2035Y1329180D01*
G01X23043Y1333107D01*
G01X42972Y1340828D01*
G01X61142Y1352079D01*
G01X76936Y1366477D01*
G01X89816Y1383532D01*
G01X99342Y1402663D01*
G01X105191Y1423219D01*
G01X107163Y1444500D01*
G01X107163Y1444500D01*
G01X129535Y1444500D01*
G01X131507Y1423219D01*
G01X137356Y1402663D01*
G01X146882Y1383532D01*
G01X159762Y1366477D01*
G01X175556Y1352079D01*
G01X193726Y1340828D01*
G01X213655Y1333107D01*
G01X234663Y1329180D01*
G01X256035Y1329180D01*
G01X277043Y1333107D01*
G01X296972Y1340828D01*
G01X315142Y1352079D01*
G01X330936Y1366477D01*
G01X343816Y1383532D01*
G01X353342Y1402663D01*
G01X359191Y1423219D01*
G01X361163Y1444500D01*
G01X359191Y1465781D01*
G01X353342Y1486337D01*
G01X343816Y1505468D01*
G01X330936Y1522523D01*
G01X315142Y1536921D01*
G01X296972Y1548172D01*
G01X277043Y1555893D01*
G01X256035Y1559820D01*
G01X234663Y1559820D01*
G01X213655Y1555893D01*
G01X193726Y1548172D01*
G01X175556Y1536921D01*
G01X159762Y1522523D01*
G01X146882Y1505468D01*
G01X137356Y1486337D01*
G01X131507Y1465781D01*
G01X129535Y1444500D01*
G01X129535Y1444500D01*
G01X107163Y1444500D01*
G01X105191Y1465781D01*
G01X99342Y1486337D01*
G01X89816Y1505468D01*
G01X76936Y1522523D01*
G01X61142Y1536921D01*
G01X42972Y1548172D01*
G01X23043Y1555893D01*
G01X2035Y1559820D01*
G01X-19337Y1559820D01*
G01X-40345Y1555893D01*
G01X-60274Y1548172D01*
G01X-78444Y1536921D01*
G01X-94238Y1522523D01*
G01X-107118Y1505468D01*
G01X-116644Y1486337D01*
G01X-122493Y1465781D01*
G01X-124465Y1444500D01*
G01X-124465Y1444500D01*
G01X-146837Y1444500D01*
G01X-148809Y1465781D01*
G01X-154658Y1486337D01*
G01X-164184Y1505468D01*
G01X-177064Y1522523D01*
G01X-192858Y1536921D01*
G01X-211028Y1548172D01*
G01X-230957Y1555893D01*
G01X-251965Y1559820D01*
G01X-273337Y1559820D01*
G01X-294345Y1555893D01*
G01X-314274Y1548172D01*
G01X-332444Y1536921D01*
G01X-348238Y1522523D01*
G01X-361118Y1505468D01*
G01X-370644Y1486337D01*
G01X-376493Y1465781D01*
G01X-378465Y1444500D01*
G01X-378465Y1444500D01*
G01X-400837Y1444500D01*
G01X-402809Y1465781D01*
G01X-408658Y1486337D01*
G01X-418184Y1505468D01*
G01X-431064Y1522523D01*
G01X-446858Y1536921D01*
G01X-465028Y1548172D01*
G01X-484957Y1555893D01*
G01X-505965Y1559820D01*
G01X-527337Y1559820D01*
G01X-548345Y1555893D01*
G01X-568274Y1548172D01*
G01X-586444Y1536921D01*
G01X-602238Y1522523D01*
G01X-615118Y1505468D01*
G01X-624644Y1486337D01*
G01X-630493Y1465781D01*
G01X-632465Y1444500D01*
G01X-632465Y1444500D01*
G01X-654837Y1444500D01*
G01X-654837Y1524500D01*
G01X-656590Y1535567D01*
G01X-661677Y1545551D01*
G01X-669600Y1553474D01*
G01X-679584Y1558561D01*
G01X-690651Y1560314D01*
G01X-850651Y1560314D01*
G01X-861718Y1558561D01*
G01X-871702Y1553474D01*
G01X-879625Y1545551D01*
G01X-884712Y1535567D01*
G01X-886465Y1524500D01*
G01X-1529177Y1524500D01*
G01X-1535201Y1550027D01*
G01X-1545449Y1577370D01*
G01X-1559073Y1603199D01*
G01X-1575854Y1627096D01*
G01X-1595523Y1648679D01*
G01X-1617764Y1667601D01*
G01X-1642219Y1683559D01*
G01X-1668496Y1696295D01*
G01X-1696173Y1705605D01*
G01X-1724805Y1711340D01*
G01X1909189Y1711340D01*
G01X1909189Y-1068340D01*
G37*
G36*
G01X-780949Y566861D02*
G01X-789488Y547650D01*
G01X-794709Y527284D01*
G01X-796466Y506334D01*
G01X-796466Y266334D01*
G01X-795045Y247482D01*
G01X-790816Y229055D01*
G01X-783873Y211470D01*
G01X-774373Y195123D01*
G01X-762531Y180385D01*
G01X-766865Y173559D01*
G01X-769557Y165934D01*
G01X-770470Y157899D01*
G01X-770470Y-14899D01*
G01X-768717Y-25967D01*
G01X-763630Y-35950D01*
G01X-755707Y-43874D01*
G01X-745723Y-48961D01*
G01X-734656Y-50713D01*
G01X-615647Y-50713D01*
G01X-604580Y-48961D01*
G01X-594596Y-43874D01*
G01X-586673Y-35950D01*
G01X-581586Y-25967D01*
G01X-579833Y-14899D01*
G01X-481469Y-14899D01*
G01X-479716Y-25967D01*
G01X-474629Y-35950D01*
G01X-466706Y-43874D01*
G01X-456722Y-48961D01*
G01X-445655Y-50713D01*
G01X-326646Y-50713D01*
G01X-315579Y-48961D01*
G01X-305595Y-43874D01*
G01X-297672Y-35950D01*
G01X-292585Y-25967D01*
G01X-290832Y-14899D01*
G01X-290832Y45461D01*
G01X-50606Y285686D01*
G01X89338Y285686D01*
G01X100405Y287439D01*
G01X110389Y292526D01*
G01X118312Y300449D01*
G01X123399Y310433D01*
G01X125152Y321500D01*
G01X125152Y521500D01*
G01X123399Y532567D01*
G01X118312Y542551D01*
G01X110389Y550474D01*
G01X100405Y555561D01*
G01X89338Y557314D01*
G01X-110661Y557314D01*
G01X-121729Y555561D01*
G01X-131712Y550474D01*
G01X-139636Y542551D01*
G01X-144723Y532567D01*
G01X-146475Y521500D01*
G01X-146475Y432535D01*
G01X-385298Y193713D01*
G01X-385298Y193713D01*
G01X-445655Y193713D01*
G01X-456722Y191960D01*
G01X-466706Y186873D01*
G01X-474629Y178950D01*
G01X-479716Y168966D01*
G01X-481469Y157899D01*
G01X-481469Y-14899D01*
G01X-579833Y-14899D01*
G01X-579833Y157899D01*
G01X-580932Y166702D01*
G01X-584160Y174965D01*
G01X-570513Y190168D01*
G01X-559506Y207380D01*
G01X-551429Y226146D01*
G01X-546497Y245971D01*
G01X-544838Y266334D01*
G01X-544838Y285686D01*
G01X-350641Y285686D01*
G01X-339574Y287439D01*
G01X-329590Y292526D01*
G01X-321667Y300449D01*
G01X-316580Y310433D01*
G01X-314827Y321500D01*
G01X-314827Y521500D01*
G01X-316580Y532567D01*
G01X-321667Y542551D01*
G01X-329590Y550474D01*
G01X-339574Y555561D01*
G01X-350641Y557314D01*
G01X-411770Y557314D01*
G01X-411770Y778555D01*
G01X-351193Y717978D01*
G01X-339704Y708549D01*
G01X-326597Y701543D01*
G01X-312375Y697229D01*
G01X-297584Y695772D01*
G01X249354Y695772D01*
G01X264145Y697229D01*
G01X278367Y701543D01*
G01X291474Y708549D01*
G01X302963Y717978D01*
G01X375685Y790700D01*
G01X389284Y790700D01*
G01X400925Y792644D01*
G01X411301Y798267D01*
G01X419287Y806957D01*
G01X425325Y799899D01*
G01X432974Y794632D01*
G01X441721Y791509D01*
G01X436124Y778694D01*
G01X433338Y764990D01*
G01X433488Y751007D01*
G01X436567Y737366D01*
G01X442438Y724675D01*
G01X450840Y713496D01*
G01X450840Y250393D01*
G01X440471Y248030D01*
G01X431254Y242727D01*
G01X424000Y234951D01*
G01X419349Y225387D01*
G01X414313Y235501D01*
G01X406376Y243543D01*
G01X396330Y248712D01*
G01X385173Y250494D01*
G01X304401Y250494D01*
G01X294751Y249169D01*
G01X285814Y245293D01*
G01X278253Y239153D01*
G01X272626Y231202D01*
G01X269349Y222028D01*
G01X266072Y231202D01*
G01X260445Y239153D01*
G01X252884Y245293D01*
G01X243947Y249169D01*
G01X234297Y250494D01*
G01X153525Y250494D01*
G01X142458Y248741D01*
G01X132474Y243654D01*
G01X124551Y235731D01*
G01X119464Y225747D01*
G01X117711Y214680D01*
G01X117711Y163913D01*
G01X-168159Y-121958D01*
G01X-175869Y-132005D01*
G01X-180716Y-143706D01*
G01X-182369Y-156262D01*
G01X-182369Y-172028D01*
G01X-198585Y-159020D01*
G01X-216866Y-149120D01*
G01X-236623Y-142649D01*
G01X-257218Y-139814D01*
G01X-277988Y-140706D01*
G01X-298264Y-145298D01*
G01X-317392Y-153440D01*
G01X-334757Y-164871D01*
G01X-349798Y-179222D01*
G01X-362031Y-196031D01*
G01X-371061Y-214757D01*
G01X-376599Y-234795D01*
G01X-378465Y-255500D01*
G01X-376599Y-276205D01*
G01X-371061Y-296244D01*
G01X-362031Y-314969D01*
G01X-349798Y-331778D01*
G01X-334757Y-346129D01*
G01X-317392Y-357560D01*
G01X-298264Y-365703D01*
G01X-277988Y-370294D01*
G01X-257218Y-371186D01*
G01X-236623Y-368351D01*
G01X-216866Y-361880D01*
G01X-198585Y-351980D01*
G01X-182369Y-338972D01*
G01X-182369Y-453606D01*
G01X-218959Y-490197D01*
G01X-226669Y-500244D01*
G01X-231516Y-511945D01*
G01X-233169Y-524501D01*
G01X-233169Y-651501D01*
G01X-231516Y-664057D01*
G01X-226669Y-675758D01*
G01X-218959Y-685806D01*
G01X-170195Y-734570D01*
G01X-175782Y-753182D01*
G01X-178313Y-772448D01*
G01X-177722Y-791872D01*
G01X-174025Y-810949D01*
G01X-167318Y-829187D01*
G01X-157773Y-846113D01*
G01X-145638Y-861291D01*
G01X-131226Y-874326D01*
G01X-114911Y-884882D01*
G01X-97115Y-892687D01*
G01X-272187Y-892687D01*
G01X-252344Y-883755D01*
G01X-234425Y-871410D01*
G01X-219012Y-856050D01*
G01X-206604Y-838175D01*
G01X-197603Y-818364D01*
G01X-192302Y-797259D01*
G01X-190873Y-775546D01*
G01X-193362Y-753929D01*
G01X-199688Y-733109D01*
G01X-209646Y-713762D01*
G01X-222914Y-696514D01*
G01X-239059Y-681927D01*
G01X-257560Y-670472D01*
G01X-277815Y-662521D01*
G01X-299168Y-658333D01*
G01X-320926Y-658043D01*
G01X-342383Y-661660D01*
G01X-362844Y-669068D01*
G01X-381643Y-680026D01*
G01X-398172Y-694179D01*
G01X-411894Y-711066D01*
G01X-422364Y-730142D01*
G01X-429243Y-750786D01*
G01X-432307Y-772329D01*
G01X-833322Y-371314D01*
G01X-690651Y-371314D01*
G01X-679584Y-369561D01*
G01X-669600Y-364474D01*
G01X-661677Y-356551D01*
G01X-656590Y-346567D01*
G01X-654837Y-335500D01*
G01X-654837Y-255500D01*
G01X-632465Y-255500D01*
G01X-630493Y-276781D01*
G01X-624644Y-297337D01*
G01X-615118Y-316468D01*
G01X-602238Y-333523D01*
G01X-586444Y-347922D01*
G01X-568274Y-359172D01*
G01X-548345Y-366893D01*
G01X-527337Y-370820D01*
G01X-505965Y-370820D01*
G01X-484957Y-366893D01*
G01X-465028Y-359172D01*
G01X-446858Y-347922D01*
G01X-431064Y-333523D01*
G01X-418184Y-316468D01*
G01X-408658Y-297337D01*
G01X-402809Y-276781D01*
G01X-400837Y-255500D01*
G01X-402809Y-234219D01*
G01X-408658Y-213663D01*
G01X-418184Y-194532D01*
G01X-431064Y-177477D01*
G01X-446858Y-163079D01*
G01X-465028Y-151828D01*
G01X-484957Y-144107D01*
G01X-505965Y-140180D01*
G01X-527337Y-140180D01*
G01X-548345Y-144107D01*
G01X-568274Y-151828D01*
G01X-586444Y-163079D01*
G01X-602238Y-177477D01*
G01X-615118Y-194532D01*
G01X-624644Y-213663D01*
G01X-630493Y-234219D01*
G01X-632465Y-255500D01*
G01X-632465Y-255500D01*
G01X-654837Y-255500D01*
G01X-654837Y-175500D01*
G01X-656590Y-164433D01*
G01X-661677Y-154449D01*
G01X-669600Y-146526D01*
G01X-679584Y-141439D01*
G01X-690651Y-139686D01*
G01X-850651Y-139686D01*
G01X-861718Y-141439D01*
G01X-871702Y-146526D01*
G01X-879625Y-154449D01*
G01X-884712Y-164433D01*
G01X-886465Y-175500D01*
G01X-886465Y-318171D01*
G01X-911769Y-292866D01*
G01X-911769Y436041D01*
G01X-780949Y566861D01*
G37*
G54D10*
G01X1909189Y-1068340D02*
G01X-1920491Y-1068340D01*
G01X-1920491Y-455992D01*
G03X-1525237Y-295000I164840J160992D01*
G03X-1920491Y-134008I-230414J0D01*
G01X-1920491Y1322008D01*
G03X-1549779Y1379525I164840J160992D01*
G03X-1724805Y1711340I-205872J103475D01*
G01X1909189Y1711340D01*
G01X1909189Y-1068340D01*
G01X-1396464Y496334D02*
G01X-1396464Y276334D01*
G03X-1144837Y276334I125814J0D01*
G01X-1144837Y496334D01*
G03X-1396464Y496334I-125814J0D01*
G01X-1083397Y-328412D02*
G03X-1058263Y-389091I85814J0D01*
G01X-408174Y-1039180D01*
G03X-347494Y-1064314I60680J60680D01*
G01X-3655Y-1064314D01*
G03X57025Y-1039180I0J85814D01*
G01X196345Y-899860D01*
G01X335665Y-1039180D01*
G03X396344Y-1064314I60680J60680D01*
G01X1296352Y-1064314D01*
G03X1357032Y-1039180I0J85814D01*
G01X1496899Y-899313D01*
G03X1581775Y-693069I-550J120813D01*
G03X1375536Y-777957I-85426J-85431D01*
G01X1362517Y-790977D01*
G03X1267055Y-660239I-120168J12477D01*
G03X1328833Y-510689I-24706J97741D01*
G03X1167827Y-494601I-86484J-51810D01*
G01X1167827Y-323811D01*
G03X1377163Y-255500I93522J68311D01*
G03X1167827Y-187189I-115814J0D01*
G01X1167827Y115734D01*
G03X1169349Y120972I-33530J12586D01*
G03X1204401Y92506I35052J7348D01*
G01X1285173Y92506D01*
G03X1319349Y117613I0J35814D01*
G03X1353525Y92506I34176J10707D01*
G01X1434297Y92506D01*
G03X1469349Y120972I0J35814D01*
G03X1504401Y92506I35052J7348D01*
G01X1585173Y92506D01*
G03X1620987Y128320I0J35814D01*
G01X1620987Y214680D01*
G03X1585173Y250494I-35814J0D01*
G01X1534847Y250494D01*
G03X1402337Y250494I-66255J-2797D01*
G01X1353525Y250494D01*
G03X1341518Y248421I0J-35814D01*
G01X1309866Y248421D01*
G01X1309866Y338612D01*
G01X1321057Y349802D01*
G03X1335266Y384107I-34305J34305D01*
G01X1335266Y1355342D01*
G03X1233184Y1556837I-73917J89158D01*
G03X1238238Y1331015I28165J-112337D01*
G01X1238238Y900363D01*
G03X1235173Y900494I-3065J-35683D01*
G01X1154401Y900494D01*
G03X1119349Y872028I0J-35814D01*
G03X1084297Y900494I-35052J-7348D01*
G01X1033524Y900494D01*
G01X983218Y950800D01*
G03X951416Y964945I-34305J-34305D01*
G03X919349Y984811I-32067J-15949D01*
G01X899987Y984811D01*
G01X720823Y1163975D01*
G01X720823Y1214700D01*
G03X685009Y1250514I-35814J0D01*
G01X604362Y1250514D01*
G03X569349Y1222234I0J-35814D01*
G03X547868Y1247860I-35013J-7534D01*
G01X547868Y1339339D01*
G03X499344Y1560314I-48519J105161D01*
G03X450840Y1339335I5J-115814D01*
G01X450840Y1250401D01*
G03X417875Y1214700I2849J-35701D01*
G01X417875Y1128300D01*
G03X453689Y1092486I35814J0D01*
G01X534336Y1092486D01*
G03X569349Y1120766I0J35814D01*
G03X604362Y1092486I35013J7534D01*
G01X655094Y1092486D01*
G01X785868Y961712D01*
G03X783535Y948997I33481J-12715D01*
G01X783535Y883995D01*
G03X819349Y848181I35814J0D01*
G01X919349Y848181D01*
G03X941188Y855611I0J35814D01*
G01X967711Y829089D01*
G01X967711Y778320D01*
G03X1003525Y742506I35814J0D01*
G01X1084297Y742506D01*
G03X1119349Y770972I0J35814D01*
G03X1154401Y742506I35052J7348D01*
G01X1235173Y742506D01*
G03X1238238Y742637I0J35814D01*
G01X1238238Y404202D01*
G01X1227048Y393011D01*
G03X1212838Y358707I34305J-34305D01*
G01X1212838Y250494D01*
G01X1204401Y250494D01*
G03X1169349Y222028I0J-35814D01*
G03X1134297Y250494I-35052J-7348D01*
G01X1053525Y250494D01*
G03X1017711Y214680I0J-35814D01*
G01X1017711Y128320D01*
G03X1053525Y92506I35814J0D01*
G01X1070799Y92506D01*
G01X1070799Y-158614D01*
G03X932967Y-166730I-63450J-96886D01*
G01X932967Y167497D01*
G03X918758Y201802I-48514J0D01*
G01X717868Y402692D01*
G01X717868Y753185D01*
G01X719349Y753185D01*
G03X755163Y788999I0J35814D01*
G01X755163Y854001D01*
G03X719349Y889815I-35814J0D01*
G01X619349Y889815D01*
G03X583535Y854001I0J-35814D01*
G01X583535Y788999D01*
G03X619349Y753185I35814J0D01*
G01X620840Y753185D01*
G01X620840Y382597D01*
G03X635049Y348292I48514J0D01*
G01X835939Y147402D01*
G01X835939Y-174311D01*
G03X637535Y-255500I-82590J-81189D01*
G03X835939Y-336689I115814J0D01*
G01X835939Y-674601D01*
G03X850149Y-708906I48514J0D01*
G01X875807Y-734564D01*
G03X948885Y-892687I112542J-43936D01*
G01X489813Y-892687D01*
G03X515267Y-676610I-39464J114186D01*
G03X330181Y-790979I-64918J-101890D01*
G01X317162Y-777959D01*
G03X196354Y-657686I-120813J-541D01*
G03X75537Y-777950I-5J-120814D01*
G01X62518Y-790968D01*
G03X-32945Y-660239I-120169J12468D01*
G03X39700Y-536297I-24706J97741D01*
G03X-85341Y-465561I-97351J-26201D01*
G01X-85341Y-342284D01*
G03X56751Y-351079I76690J86784D01*
G03X100017Y-215449I-65402J95579D01*
G01X367049Y51583D01*
G01X573394Y51583D01*
G03X607698Y65793I0J48514D01*
G01X634412Y92506D01*
G01X685173Y92506D01*
G03X720987Y128320I0J35814D01*
G01X720987Y214680D01*
G03X685173Y250494I-35814J0D01*
G01X604401Y250494D01*
G03X569349Y222028I0J-35814D01*
G03X547868Y247823I-35052J-7348D01*
G01X547868Y713496D01*
G03X552097Y798902I-48514J45210D01*
G03X565103Y826514I-22808J27612D01*
G01X565103Y916514D01*
G03X529289Y952328I-35814J0D01*
G01X449289Y952328D01*
G03X419287Y936071I0J-35814D01*
G03X389284Y952328I-30002J-19557D01*
G01X309285Y952328D01*
G03X273471Y916514I0J-35814D01*
G01X273471Y902919D01*
G01X217951Y847400D01*
G01X-266181Y847400D01*
G01X-301456Y882674D01*
G03X-286773Y911590I-21131J28916D01*
G01X-286773Y1031590D01*
G03X-322587Y1067404I-35814J0D01*
G01X-672586Y1067404D01*
G03X-708400Y1031590I0J-35814D01*
G01X-708400Y911590D01*
G03X-672586Y875776I35814J0D01*
G01X-583398Y875776D01*
G01X-583398Y757400D01*
G01X-783376Y757400D01*
G03X-860677Y982480I-77301J99266D01*
G01X-1080676Y982480D01*
G03X-1080676Y730852I0J-125814D01*
G01X-860677Y730852D01*
G01X-859673Y730856D01*
G01X-1058263Y532266D01*
G03X-1083397Y471587I60680J-60680D01*
G01X-1083397Y-328412D01*
G01X-690651Y1328686D02*
G03X-654837Y1364500I0J35814D01*
G01X-654837Y1524500D01*
G03X-690651Y1560314I-35814J0D01*
G01X-850651Y1560314D01*
G03X-886465Y1524500I0J-35814D01*
G01X-886465Y1364500D01*
G03X-850651Y1328686I35814J0D01*
G01X-690651Y1328686D01*
G01X-632465Y1444500D02*
G03X-400837Y1444500I115814J0D01*
G03X-632465Y1444500I-115814J0D01*
G01X-378465Y1444500D02*
G03X-146837Y1444500I115814J0D01*
G03X-378465Y1444500I-115814J0D01*
G01X-174416Y911590D02*
G03X-138602Y875776I35814J0D01*
G01X211398Y875776D01*
G03X247212Y911590I0J35814D01*
G01X247212Y1031590D01*
G03X211398Y1067404I-35814J0D01*
G01X-138602Y1067404D01*
G03X-174416Y1031590I0J-35814D01*
G01X-174416Y911590D01*
G01X-124465Y1444500D02*
G03X107163Y1444500I115814J0D01*
G03X-124465Y1444500I-115814J0D01*
G01X129535Y-255500D02*
G03X361163Y-255500I115814J0D01*
G03X129535Y-255500I-115814J0D01*
G01X129535Y1444500D02*
G03X361163Y1444500I115814J0D01*
G03X129535Y1444500I-115814J0D01*
G01X383535Y-255500D02*
G03X615163Y-255500I115814J0D01*
G03X383535Y-255500I-115814J0D01*
G01X637535Y1444500D02*
G03X869163Y1444500I115814J0D01*
G03X637535Y1444500I-115814J0D01*
G01X783535Y694003D02*
G03X819349Y658189I35814J0D01*
G01X919349Y658189D01*
G03X955163Y694003I0J35814D01*
G01X955163Y759005D01*
G03X919349Y794819I-35814J0D01*
G01X819349Y794819D01*
G03X783535Y759005I0J-35814D01*
G01X783535Y694003D01*
G01X891535Y1444500D02*
G03X1123163Y1444500I115814J0D01*
G03X891535Y1444500I-115814J0D01*
G01X1399535Y-255500D02*
G03X1631163Y-255500I115814J0D01*
G03X1399535Y-255500I-115814J0D01*
G01X1399535Y1444500D02*
G03X1631163Y1444500I115814J0D01*
G03X1399535Y1444500I-115814J0D01*
G01X1871163Y-778500D02*
G03X1629535Y-778500I-120814J0D01*
G03X1871163Y-778500I120814J0D01*
G01X1653535Y-255500D02*
G03X1885163Y-255500I115814J0D01*
G03X1653535Y-255500I-115814J0D01*
G01X1653535Y1444500D02*
G03X1885163Y1444500I115814J0D01*
G03X1653535Y1444500I-115814J0D01*
G01X-780949Y566861D02*
G03X-796466Y506334I110297J-60528D01*
G01X-796466Y266334D01*
G03X-762531Y180385I125814J0D01*
G03X-770470Y157899I27875J-22486D01*
G01X-770470Y-14899D01*
G03X-734656Y-50713I35814J0D01*
G01X-615647Y-50713D01*
G03X-579833Y-14899I0J35814D01*
G01X-579833Y157899D01*
G03X-584160Y174965I-35814J0D01*
G03X-544838Y266334I-86491J91369D01*
G01X-544838Y285686D01*
G01X-350641Y285686D01*
G03X-314827Y321500I0J35814D01*
G01X-314827Y521500D01*
G03X-350641Y557314I-35814J0D01*
G01X-411770Y557314D01*
G01X-411770Y778555D01*
G01X-351193Y717978D01*
G03X-297584Y695772I53609J53609D01*
G01X249354Y695772D01*
G03X302963Y717978I0J75814D01*
G01X375685Y790700D01*
G01X389284Y790700D01*
G03X419287Y806957I0J35814D01*
G03X441721Y791509I30002J19557D01*
G03X450840Y713496I57633J-32803D01*
G01X450840Y250393D01*
G03X419349Y225387I2685J-35713D01*
G03X385173Y250494I-34176J-10707D01*
G01X304401Y250494D01*
G03X269349Y222028I0J-35814D01*
G03X234297Y250494I-35052J-7348D01*
G01X153525Y250494D01*
G03X117711Y214680I0J-35814D01*
G01X117711Y163913D01*
G01X-168159Y-121958D01*
G03X-182369Y-156262I34305J-34305D01*
G01X-182369Y-172028D01*
G03X-378465Y-255500I-80282J-83472D01*
G03X-182369Y-338972I115814J0D01*
G01X-182369Y-453606D01*
G01X-218959Y-490197D01*
G03X-233169Y-524501I34305J-34305D01*
G01X-233169Y-651501D01*
G03X-218959Y-685806I48514J0D01*
G01X-170195Y-734570D01*
G03X-167318Y-829187I112544J-43930D01*
G03X-97115Y-892687I109667J50687D01*
G01X-272187Y-892687D01*
G03X-239059Y-681927I-39464J114186D01*
G03X-432307Y-772329I-72592J-96574D01*
G01X-833322Y-371314D01*
G01X-690651Y-371314D01*
G03X-654837Y-335500I0J35814D01*
G01X-654837Y-175500D01*
G03X-690651Y-139686I-35814J0D01*
G01X-850651Y-139686D01*
G03X-886465Y-175500I0J-35814D01*
G01X-886465Y-318171D01*
G01X-911769Y-292866D01*
G01X-911769Y436041D01*
G01X-780949Y566861D01*
G01X-632465Y-255500D02*
G03X-400837Y-255500I115814J0D01*
G03X-632465Y-255500I-115814J0D01*
G01X-385298Y193713D02*
G01X-445655Y193713D01*
G03X-481469Y157899I0J-35814D01*
G01X-481469Y-14899D01*
G03X-445655Y-50713I35814J0D01*
G01X-326646Y-50713D01*
G03X-290832Y-14899I0J35814D01*
G01X-290832Y45461D01*
G01X-50606Y285686D01*
G01X89338Y285686D01*
G03X125152Y321500I0J35814D01*
G01X125152Y521500D01*
G03X89338Y557314I-35814J0D01*
G01X-110661Y557314D01*
G03X-146475Y521500I0J-35814D01*
G01X-146475Y432535D01*
G01X-385298Y193713D01*
G54D11*
G01X-1270650Y386334D02*
G01X-1270650Y160680D01*
G01X-1270650Y386334D02*
G01X-1270650Y611988D01*
G01X-1270650Y386334D02*
G01X-1386304Y386334D01*
G01X-1270650Y386334D02*
G01X-1154997Y386334D01*
G01X-516651Y-255500D02*
G01X-622305Y-255500D01*
G01X-516651Y-255500D02*
G01X-410997Y-255500D01*
G01X-516651Y-255500D02*
G01X-516651Y-149846D01*
G01X-516651Y-255500D02*
G01X-516651Y-361154D01*
G01X-516651Y1444500D02*
G01X-622305Y1444500D01*
G01X-516651Y1444500D02*
G01X-410997Y1444500D01*
G01X-516651Y1444500D02*
G01X-516651Y1550154D01*
G01X-516651Y1444500D02*
G01X-516651Y1338846D01*
G01X-262651Y-255500D02*
G01X-368305Y-255500D01*
G01X-262651Y-255500D02*
G01X-262651Y-149846D01*
G01X-262651Y-255500D02*
G01X-262651Y-361154D01*
G01X450349Y-778500D02*
G01X561003Y-778500D01*
G01X450349Y-778500D02*
G01X339695Y-778500D01*
G01X450349Y-778500D02*
G01X450349Y-667846D01*
G01X1750349Y-778500D02*
G01X1861003Y-778500D01*
G01X1750349Y-778500D02*
G01X1639695Y-778500D01*
G01X1750349Y-778500D02*
G01X1750349Y-889154D01*
G01X1750349Y-778500D02*
G01X1750349Y-667846D01*
G01X869349Y726504D02*
G01X793695Y726504D01*
G01X869349Y726504D02*
G01X945003Y726504D01*
G01X869349Y726504D02*
G01X869349Y784659D01*
G01X869349Y726504D02*
G01X869349Y668349D01*
G01X1194787Y821500D02*
G01X1194787Y890334D01*
G01X1194787Y821500D02*
G01X1194787Y752666D01*
G01X36398Y971590D02*
G01X-164256Y971590D01*
G01X36398Y971590D02*
G01X237052Y971590D01*
G01X36398Y971590D02*
G01X36398Y1057244D01*
G01X36398Y971590D02*
G01X36398Y885936D01*
G01X489289Y871514D02*
G01X554943Y871514D01*
G01X489289Y871514D02*
G01X489289Y942168D01*
G04 Copper End*

G04 Pad Start*
G54D12*
G01X-770651Y-255500D03*
G54D13*
G01X-516651Y-255500D03*
G01X-262651Y-255500D03*
G01X-8651Y-255500D03*
G01X245349Y-255500D03*
G01X499349Y-255500D03*
G01X753349Y-255500D03*
G01X1007349Y-255500D03*
G01X1261349Y-255500D03*
G01X1515349Y-255500D03*
G01X1769349Y-255500D03*
G54D12*
G01X-770651Y1444500D03*
G54D13*
G01X-516651Y1444500D03*
G01X-262651Y1444500D03*
G01X-8651Y1444500D03*
G01X245349Y1444500D03*
G01X499349Y1444500D03*
G01X753349Y1444500D03*
G01X1007349Y1444500D03*
G01X1261349Y1444500D03*
G01X1515349Y1444500D03*
G01X1769349Y1444500D03*
G54D14*
G01X36398Y971590D03*
G01X-497586Y971590D03*
G54D15*
G01X489289Y871514D03*
G01X349285Y871514D03*
G54D16*
G01X-10662Y421500D03*
G01X-450640Y421500D03*
G54D17*
G01X-675152Y71500D03*
G01X-386150Y71500D03*
G54D19*
G01X1194787Y821500D03*
G01X1043911Y821500D03*
G01X344787Y171500D03*
G01X193911Y171500D03*
G01X644787Y171500D03*
G01X493911Y171500D03*
G01X1244787Y171500D03*
G01X1093911Y171500D03*
G01X1544787Y171500D03*
G01X1393911Y171500D03*
G54D20*
G01X-670652Y386334D03*
G54D21*
G01X-1270650Y386334D03*
G54D22*
G01X-970676Y856666D03*
G54D23*
G01X450349Y-778500D03*
G01X196349Y-778500D03*
G01X-57651Y-778500D03*
G01X-311651Y-778500D03*
G01X1750349Y-778500D03*
G01X1496349Y-778500D03*
G01X1242349Y-778500D03*
G01X988349Y-778500D03*
G54D24*
G01X869349Y916496D03*
G01X869349Y726504D03*
G01X669349Y821500D03*
G54D25*
G01X644685Y1171500D03*
G01X494012Y1171500D03*
G04 Pad End*

G04 Via Start*
G54D26*
G01X499354Y758706D03*
G01X1468592Y247697D03*
G04 Via End*

G04 Track Start*
G54D11*
G01X499354Y1444505D02*
G01X499354Y1176835D01*
G01X494014Y1171495D01*
G54D27*
G01X-670654Y386327D02*
G01X-670654Y75997D01*
G01X-675154Y71497D01*
G54D11*
G01X1242352Y-778501D02*
G01X1119313Y-655461D01*
G01X1119313Y146097D01*
G01X1093913Y171497D01*
G01X869353Y916496D02*
G01X948913Y916496D01*
G01X1043913Y821496D01*
G01X869353Y916496D02*
G01X869353Y946836D01*
G01X644694Y1171495D01*
G54D27*
G01X-10665Y421497D02*
G01X-36155Y421497D01*
G01X-386154Y71497D01*
G54D11*
G01X1261352Y1444505D02*
G01X1286752Y1419105D01*
G01X1286752Y384107D01*
G01X1261352Y358707D01*
G01X1261352Y188057D02*
G01X1244792Y171497D01*
G01X1261352Y199907D02*
G01X1365502Y199907D01*
G01X1393912Y171497D01*
G01X499354Y758706D02*
G01X499354Y176937D01*
G01X493914Y171497D01*
G01X344784Y171497D01*
G01X-8645Y-255502D02*
G01X346954Y100097D01*
G01X573394Y100097D01*
G01X644794Y171497D01*
G01X1468592Y247697D02*
G01X1544792Y171497D01*
G01X-57655Y-778501D02*
G01X-184655Y-651501D01*
G01X-184655Y-524501D01*
G01X-133855Y-473701D01*
G01X-133855Y-156262D01*
G01X193905Y171497D01*
G54D27*
G01X-497584Y468437D02*
G01X-450644Y421497D01*
G54D28*
G01X-497584Y971586D02*
G01X-297584Y771586D01*
G01X249354Y771586D01*
G01X349284Y871516D01*
G54D27*
G01X-497584Y671586D02*
G01X-797583Y671586D01*
G01X-997583Y471587D01*
G01X-997583Y-328412D01*
G01X-347494Y-978500D01*
G01X-3655Y-978500D01*
G01X196345Y-778501D01*
G01X396344Y-978500D01*
G01X1296352Y-978500D01*
G01X1496352Y-778501D01*
G54D11*
G01X36395Y971586D02*
G01X389214Y971586D01*
G01X489284Y871516D01*
G01X514684Y896916D01*
G01X717883Y896916D01*
G01X869353Y745446D01*
G01X869353Y726496D01*
G01X1099793Y726496D01*
G01X1194793Y821496D01*
G01X36395Y971586D02*
G01X-151305Y971586D01*
G01X-506904Y1327185D01*
G01X-506904Y1434765D01*
G01X-516644Y1444505D01*
G01X-506904Y1327185D02*
G01X-786303Y1327185D01*
G01X-1268903Y844586D01*
G01X-1268903Y388077D01*
G01X-1270653Y386327D01*
G01X-516644Y-255502D02*
G01X-262645Y-255502D01*
G01X669354Y821496D02*
G01X669354Y382597D01*
G01X884453Y167497D01*
G01X884453Y-674601D01*
G01X988353Y-778501D01*
G01X1261352Y358707D02*
G01X1261352Y199907D01*
G01X1261352Y188057D01*
G54D27*
G01X-497584Y971586D02*
G01X-497584Y671586D01*
G01X-497584Y468437D01*
G04 Track End*

M02*

