G04 Layer: BottomPasteMaskLayer*
G04 EasyEDA Pro v3.2.186, 2026-09-09 09:36:43*
G04 Gerber Generator version 0.3*
G04 Scale: 100 percent, Rotated: No, Reflected: No*
G04 Dimensions in millimeters*
G04 Leading zeros omitted, absolute positions, 4 integers and 5 decimals*
G04 Generated by one-click*
G04 Object Configs: Pad,Via,Track,Text,Image,Dimension,BoardOutline,BoardCutout,CopperFilled,SolidRegion,FPCStiffener,Line,PlaneZone,ComponentProperty,ComponentSilkscreen,TearDrop*
G04 Layer Configs: 1,2,3,4,5,6,7,8,9,10,11,13,14,71,72,56*
G04 Copper Areas: 0*
%FSLAX45Y45*%
%MOMM*%
%ADD10R,3.49999X1.2*%
%ADD11R,0.8X0.9*%
%ADD12R,2.0X2.0*%
%ADD13R,1.19009X1.72799*%
%ADD14R,1.0X0.65001*%
%ADD15C,0.1831*%
G75*


G04 PolygonModel Start*
G36*
G01X1238729Y776542D02*
G01X1158973Y776542D01*
G01X1153893Y781622D01*
G01X1153893Y804228D01*
G01X1190977Y804228D01*
G01X1190977Y837248D01*
G01X1153893Y837248D01*
G01X1153893Y861378D01*
G01X1158973Y866458D01*
G01X1238729Y866458D01*
G01X1243809Y861378D01*
G01X1243809Y781622D01*
G01X1238729Y776542D01*
G37*
G36*
G01X1083789Y781622D02*
G01X1078963Y776542D01*
G01X999969Y776542D01*
G01X994889Y781622D01*
G01X994889Y861378D01*
G01X999969Y866458D01*
G01X1078963Y866458D01*
G01X1083789Y861378D01*
G01X1083789Y837248D01*
G01X1045943Y837248D01*
G01X1045943Y804228D01*
G01X1083789Y804228D01*
G01X1083789Y781622D01*
G37*
G36*
G01X388729Y126542D02*
G01X308973Y126542D01*
G01X303893Y131622D01*
G01X303893Y154228D01*
G01X340977Y154228D01*
G01X340977Y187248D01*
G01X303893Y187248D01*
G01X303893Y211378D01*
G01X308973Y216458D01*
G01X388729Y216458D01*
G01X393809Y211378D01*
G01X393809Y131622D01*
G01X388729Y126542D01*
G37*
G36*
G01X233789Y131622D02*
G01X228963Y126542D01*
G01X149969Y126542D01*
G01X144889Y131622D01*
G01X144889Y211378D01*
G01X149969Y216458D01*
G01X228963Y216458D01*
G01X233789Y211378D01*
G01X233789Y187248D01*
G01X195943Y187248D01*
G01X195943Y154228D01*
G01X233789Y154228D01*
G01X233789Y131622D01*
G37*
G36*
G01X688729Y126542D02*
G01X608973Y126542D01*
G01X603893Y131622D01*
G01X603893Y154228D01*
G01X640977Y154228D01*
G01X640977Y187248D01*
G01X603893Y187248D01*
G01X603893Y211378D01*
G01X608973Y216458D01*
G01X688729Y216458D01*
G01X693809Y211378D01*
G01X693809Y131622D01*
G01X688729Y126542D01*
G37*
G36*
G01X533789Y131622D02*
G01X528963Y126542D01*
G01X449969Y126542D01*
G01X444889Y131622D01*
G01X444889Y211378D01*
G01X449969Y216458D01*
G01X528963Y216458D01*
G01X533789Y211378D01*
G01X533789Y187248D01*
G01X495943Y187248D01*
G01X495943Y154228D01*
G01X533789Y154228D01*
G01X533789Y131622D01*
G37*
G36*
G01X1288729Y126542D02*
G01X1208973Y126542D01*
G01X1203893Y131622D01*
G01X1203893Y154228D01*
G01X1240977Y154228D01*
G01X1240977Y187248D01*
G01X1203893Y187248D01*
G01X1203893Y211378D01*
G01X1208973Y216458D01*
G01X1288729Y216458D01*
G01X1293809Y211378D01*
G01X1293809Y131622D01*
G01X1288729Y126542D01*
G37*
G36*
G01X1133789Y131622D02*
G01X1128963Y126542D01*
G01X1049969Y126542D01*
G01X1044889Y131622D01*
G01X1044889Y211378D01*
G01X1049969Y216458D01*
G01X1128963Y216458D01*
G01X1133789Y211378D01*
G01X1133789Y187248D01*
G01X1095943Y187248D01*
G01X1095943Y154228D01*
G01X1133789Y154228D01*
G01X1133789Y131622D01*
G37*
G36*
G01X1588729Y126542D02*
G01X1508973Y126542D01*
G01X1503893Y131622D01*
G01X1503893Y154228D01*
G01X1540977Y154228D01*
G01X1540977Y187248D01*
G01X1503893Y187248D01*
G01X1503893Y211378D01*
G01X1508973Y216458D01*
G01X1588729Y216458D01*
G01X1593809Y211378D01*
G01X1593809Y131622D01*
G01X1588729Y126542D01*
G37*
G36*
G01X1433789Y131622D02*
G01X1428963Y126542D01*
G01X1349969Y126542D01*
G01X1344889Y131622D01*
G01X1344889Y211378D01*
G01X1349969Y216458D01*
G01X1428963Y216458D01*
G01X1433789Y211378D01*
G01X1433789Y187248D01*
G01X1395943Y187248D01*
G01X1395943Y154228D01*
G01X1433789Y154228D01*
G01X1433789Y131622D01*
G37*
G36*
G01X688851Y1126501D02*
G01X608851Y1126501D01*
G01X603850Y1131503D01*
G01X603850Y1154299D01*
G01X640850Y1154299D01*
G01X640850Y1187299D01*
G01X603850Y1187299D01*
G01X603850Y1211503D01*
G01X608851Y1216501D01*
G01X688851Y1216501D01*
G01X693850Y1211503D01*
G01X693850Y1131503D01*
G01X688851Y1126501D01*
G37*
G36*
G01X449847Y1216499D02*
G01X529847Y1216499D01*
G01X534848Y1211497D01*
G01X534848Y1188701D01*
G01X497848Y1188701D01*
G01X497848Y1155701D01*
G01X534848Y1155701D01*
G01X534848Y1131498D01*
G01X529847Y1126499D01*
G01X449847Y1126499D01*
G01X444848Y1131498D01*
G01X444848Y1211497D01*
G01X449847Y1216499D01*
G37*

G04 Pad Start*
G54D10*
G01X36398Y971590D03*
G01X-497586Y971590D03*
G54D11*
G01X489289Y871514D03*
G01X349285Y871514D03*
G54D12*
G01X-10662Y421500D03*
G01X-450640Y421500D03*
G54D13*
G01X-675152Y71500D03*
G01X-386150Y71500D03*
G54D14*
G01X869349Y916496D03*
G01X869349Y726504D03*
G01X669349Y821500D03*
G04 Pad End*

M02*

