G04 Layer: DrillDrawingLayer*
G04 EasyEDA Pro v3.2.186, 2026-09-09 09:36:43*
G04 Gerber Generator version 0.3*
G04 Scale: 100 percent, Rotated: No, Reflected: No*
G04 Dimensions in millimeters*
G04 Leading zeros omitted, absolute positions, 4 integers and 5 decimals*
G04 Generated by one-click*
G04 Object Configs: Pad,Via,Track,Text,Image,Dimension,BoardOutline,BoardCutout,CopperFilled,SolidRegion,FPCStiffener,Line,PlaneZone,ComponentProperty,ComponentSilkscreen,TearDrop*
G04 Layer Configs: 1,2,3,4,5,6,7,8,9,10,11,13,14,71,72,56*
G04 Copper Areas: 0*
%FSLAX45Y45*%
%MOMM*%
%AMIconRect*4,1,4,0.28,-0.28,-0.28,-0.28,-0.28,0.28,0.28,0.28,0.28,-0.28,0*4,0,4,0.233333,-0.233333,0.233333,0.233333,-0.233333,0.233333,-0.233333,-0.233333,0.233333,-0.233333,0*%
%AMIconTriangle*4,1,3,-0.339593,0.240473,0.339593,0.240473,0,-0.37884,-0.339593,0.240473,0*4,0,3,-0.265673,0.19404,0,-0.27342,0.266233,0.19404,-0.265673,0.19404,0*%
%AMIconStar6*4,1,12,0.12068,0.20888,0.298527,0.172713,0.241313,0,0.298527,-0.17206,0.12068,-0.208227,0,-0.344073,-0.120073,-0.208227,-0.298573,-0.17206,-0.240707,0,-0.298573,0.17206,-0.120073,0.20888,0,0.344073,0.12068,0.20888,0*4,0,12,-0.000467,0.273467,-0.090067,0.171733,-0.237533,0.136733,-0.193667,-0.007467,-0.237533,-0.1372,-0.090067,-0.171733,-0.000467,-0.273933,0.090067,-0.171733,0.237533,-0.1372,0.194133,0.007,0.237533,0.1372,0.090067,0.171267,-0.000467,0.273467,0*%
%AMIconStar4*4,1,8,-0.311733,0.311733,0,0.202533,0.311733,0.311733,0.202533,0,0.311733,-0.311733,0,-0.202533,-0.304407,-0.311733,-0.202533,0,-0.311733,0.311733,0*4,0,8,0.233333,-0.233333,0.1512,0,0.233333,0.233333,0,0.1512,-0.233333,0.233333,-0.1512,0,-0.233333,-0.233333,0,-0.1512,0.233333,-0.233333,0*%
%AMIconPlus*4,1,12,0.1736,-0.28,-0.1736,-0.28,-0.1736,-0.1736,-0.28,-0.1736,-0.28,0.1736,-0.1736,0.1736,-0.1736,0.28,0.1736,0.28,0.1736,0.1736,0.28,0.1736,0.28,-0.1736,0.1736,-0.1736,0.1736,-0.28,0*4,0,12,0.126933,-0.233333,0.126933,-0.126933,0.233333,-0.126933,0.233333,0.126933,0.126933,0.126933,0.126933,0.233333,-0.126933,0.233333,-0.126933,0.126933,-0.233333,0.126933,-0.233333,-0.126933,-0.126933,-0.126933,-0.126933,-0.233333,0.126933,-0.233333,0*%
%AMIconX*4,1,16,0.28,-0.28,0.076347,-0.28,0,-0.203653,-0.076347,-0.28,-0.28,-0.28,-0.28,-0.076347,-0.203653,0,-0.28,0.076347,-0.28,0.28,-0.076347,0.28,0,0.203653,0.076347,0.28,0.28,0.28,0.28,0.076347,0.203653,0,0.28,-0.076347,0.28,-0.28,0*4,0,16,0.23352,-0.23296,0.23352,-0.095853,0.137107,0.000093,0.23352,0.095853,0.23352,0.2331,0.095853,0.2331,0,0.137107,-0.095853,0.2331,-0.23352,0.2331,-0.23352,0.095853,-0.137107,0.000093,-0.23352,-0.095853,-0.23352,-0.23296,-0.095853,-0.23296,0,-0.137107,0.095853,-0.23296,0.23352,-0.23296,0*%
%ADD10IconRect*%
%ADD11C,0.616X0.522667*%
%ADD12IconTriangle*%
%ADD13IconStar6*%
%ADD14IconStar4*%
%ADD15IconPlus*%
%ADD16IconX*%
%ADD17C,0.2032*%
%ADD18C,0.254*%
G75*


G04 Drill Drawing Start*
G54D10*
G01X-670657Y386334D03*
G54D11*
G01X499354Y758706D03*
G01X1468592Y268017D03*
G54D12*
G01X-1270650Y386334D03*
G01X-970676Y856666D03*
G54D13*
G01X-57651Y-562498D03*
G01X1242349Y-562498D03*
G54D14*
G01X-1755651Y-295000D03*
G01X-1755651Y1483000D03*
G01X2144349Y-295000D03*
G01X2144349Y1483000D03*
G54D15*
G01X-311651Y-778500D03*
G01X-57651Y-778500D03*
G01X196349Y-778500D03*
G01X450349Y-778500D03*
G01X988349Y-778500D03*
G01X1242349Y-778500D03*
G01X1496349Y-778500D03*
G01X1750349Y-778500D03*
G54D16*
G01X-770651Y-255500D03*
G01X-770651Y1444500D03*
G01X-516651Y-255500D03*
G01X-516651Y1444500D03*
G01X-262651Y-255500D03*
G01X-262651Y1444500D03*
G01X-8651Y-255500D03*
G01X-8651Y1444500D03*
G01X245349Y-255500D03*
G01X245349Y1444500D03*
G01X499349Y-255500D03*
G01X499349Y1444500D03*
G01X753349Y-255500D03*
G01X753349Y1444500D03*
G01X1007349Y-255500D03*
G01X1007349Y1444500D03*
G01X1261349Y-255500D03*
G01X1261349Y1444500D03*
G01X1515349Y-255500D03*
G01X1515349Y1444500D03*
G01X1769349Y-255500D03*
G01X1769349Y1444500D03*
G04 Drill Drawing End*

G04 Text Start*
G54D17*
G01X4769795Y1599794D02*
G01X4769795Y1479652D01*
G01X4769795Y1599794D02*
G01X4815515Y1479652D01*
G01X4861235Y1599794D02*
G01X4815515Y1479652D01*
G01X4861235Y1599794D02*
G01X4861235Y1479652D01*
G01X4977567Y1559662D02*
G01X4977567Y1479652D01*
G01X4977567Y1542644D02*
G01X4966137Y1554074D01*
G01X4954707Y1559662D01*
G01X4937689Y1559662D01*
G01X4926259Y1554074D01*
G01X4914829Y1542644D01*
G01X4908987Y1525372D01*
G01X4908987Y1513942D01*
G01X4914829Y1496924D01*
G01X4926259Y1485494D01*
G01X4937689Y1479652D01*
G01X4954707Y1479652D01*
G01X4966137Y1485494D01*
G01X4977567Y1496924D01*
G01X5025319Y1559662D02*
G01X5025319Y1479652D01*
G01X5025319Y1525372D02*
G01X5031161Y1542644D01*
G01X5042591Y1554074D01*
G01X5054021Y1559662D01*
G01X5071039Y1559662D01*
G01X5118791Y1599794D02*
G01X5118791Y1479652D01*
G01X5175941Y1559662D02*
G01X5118791Y1502512D01*
G01X5141651Y1525372D02*
G01X5181783Y1479652D01*
G01X6307075Y1571092D02*
G01X6301233Y1582522D01*
G01X6289803Y1593952D01*
G01X6278373Y1599794D01*
G01X6255513Y1599794D01*
G01X6244083Y1593952D01*
G01X6232653Y1582522D01*
G01X6227065Y1571092D01*
G01X6221223Y1554074D01*
G01X6221223Y1525372D01*
G01X6227065Y1508354D01*
G01X6232653Y1496924D01*
G01X6244083Y1485494D01*
G01X6255513Y1479652D01*
G01X6278373Y1479652D01*
G01X6289803Y1485494D01*
G01X6301233Y1496924D01*
G01X6307075Y1508354D01*
G01X6383529Y1559662D02*
G01X6372099Y1554074D01*
G01X6360669Y1542644D01*
G01X6354827Y1525372D01*
G01X6354827Y1513942D01*
G01X6360669Y1496924D01*
G01X6372099Y1485494D01*
G01X6383529Y1479652D01*
G01X6400547Y1479652D01*
G01X6411977Y1485494D01*
G01X6423407Y1496924D01*
G01X6429249Y1513942D01*
G01X6429249Y1525372D01*
G01X6423407Y1542644D01*
G01X6411977Y1554074D01*
G01X6400547Y1559662D01*
G01X6383529Y1559662D01*
G01X6477001Y1559662D02*
G01X6477001Y1502512D01*
G01X6482843Y1485494D01*
G01X6494273Y1479652D01*
G01X6511291Y1479652D01*
G01X6522721Y1485494D01*
G01X6539993Y1502512D01*
G01X6539993Y1559662D02*
G01X6539993Y1479652D01*
G01X6587745Y1559662D02*
G01X6587745Y1479652D01*
G01X6587745Y1536802D02*
G01X6605017Y1554074D01*
G01X6616447Y1559662D01*
G01X6633465Y1559662D01*
G01X6644895Y1554074D01*
G01X6650737Y1536802D01*
G01X6650737Y1479652D01*
G01X6715761Y1599794D02*
G01X6715761Y1502512D01*
G01X6721349Y1485494D01*
G01X6732779Y1479652D01*
G01X6744209Y1479652D01*
G01X6698489Y1559662D02*
G01X6738621Y1559662D01*
G01X7715396Y1582522D02*
G01X7703966Y1593952D01*
G01X7686948Y1599794D01*
G01X7664088Y1599794D01*
G01X7646816Y1593952D01*
G01X7635386Y1582522D01*
G01X7635386Y1571092D01*
G01X7641228Y1559662D01*
G01X7646816Y1554074D01*
G01X7658246Y1548232D01*
G01X7692536Y1536802D01*
G01X7703966Y1531214D01*
G01X7709808Y1525372D01*
G01X7715396Y1513942D01*
G01X7715396Y1496924D01*
G01X7703966Y1485494D01*
G01X7686948Y1479652D01*
G01X7664088Y1479652D01*
G01X7646816Y1485494D01*
G01X7635386Y1496924D01*
G01X7763148Y1599794D02*
G01X7768990Y1593952D01*
G01X7774578Y1599794D01*
G01X7768990Y1605382D01*
G01X7763148Y1599794D01*
G01X7768990Y1559662D02*
G01X7768990Y1479652D01*
G01X7885322Y1559662D02*
G01X7822330Y1479652D01*
G01X7822330Y1559662D02*
G01X7885322Y1559662D01*
G01X7822330Y1479652D02*
G01X7885322Y1479652D01*
G01X7933074Y1525372D02*
G01X8001654Y1525372D01*
G01X8001654Y1536802D01*
G01X7996066Y1548232D01*
G01X7990224Y1554074D01*
G01X7978794Y1559662D01*
G01X7961776Y1559662D01*
G01X7950346Y1554074D01*
G01X7938916Y1542644D01*
G01X7933074Y1525372D01*
G01X7933074Y1513942D01*
G01X7938916Y1496924D01*
G01X7950346Y1485494D01*
G01X7961776Y1479652D01*
G01X7978794Y1479652D01*
G01X7990224Y1485494D01*
G01X8001654Y1496924D01*
G01X11554243Y1599794D02*
G01X11554243Y1479652D01*
G01X11554243Y1599794D02*
G01X11605805Y1599794D01*
G01X11622823Y1593952D01*
G01X11628665Y1588364D01*
G01X11634253Y1576934D01*
G01X11634253Y1559662D01*
G01X11628665Y1548232D01*
G01X11622823Y1542644D01*
G01X11605805Y1536802D01*
G01X11554243Y1536802D01*
G01X11682005Y1599794D02*
G01X11682005Y1479652D01*
G01X11798337Y1559662D02*
G01X11798337Y1479652D01*
G01X11798337Y1542644D02*
G01X11786907Y1554074D01*
G01X11775477Y1559662D01*
G01X11758459Y1559662D01*
G01X11747029Y1554074D01*
G01X11735599Y1542644D01*
G01X11729757Y1525372D01*
G01X11729757Y1513942D01*
G01X11735599Y1496924D01*
G01X11747029Y1485494D01*
G01X11758459Y1479652D01*
G01X11775477Y1479652D01*
G01X11786907Y1485494D01*
G01X11798337Y1496924D01*
G01X11863361Y1599794D02*
G01X11863361Y1502512D01*
G01X11868949Y1485494D01*
G01X11880379Y1479652D01*
G01X11891809Y1479652D01*
G01X11846089Y1559662D02*
G01X11886221Y1559662D01*
G01X11939561Y1525372D02*
G01X12008141Y1525372D01*
G01X12008141Y1536802D01*
G01X12002553Y1548232D01*
G01X11996711Y1554074D01*
G01X11985281Y1559662D01*
G01X11968263Y1559662D01*
G01X11956833Y1554074D01*
G01X11945403Y1542644D01*
G01X11939561Y1525372D01*
G01X11939561Y1513942D01*
G01X11945403Y1496924D01*
G01X11956833Y1485494D01*
G01X11968263Y1479652D01*
G01X11985281Y1479652D01*
G01X11996711Y1485494D01*
G01X12008141Y1496924D01*
G01X12124473Y1599794D02*
G01X12124473Y1479652D01*
G01X12124473Y1542644D02*
G01X12113043Y1554074D01*
G01X12101613Y1559662D01*
G01X12084595Y1559662D01*
G01X12073165Y1554074D01*
G01X12061735Y1542644D01*
G01X12055893Y1525372D01*
G01X12055893Y1513942D01*
G01X12061735Y1496924D01*
G01X12073165Y1485494D01*
G01X12084595Y1479652D01*
G01X12101613Y1479652D01*
G01X12113043Y1485494D01*
G01X12124473Y1496924D01*
G01X13095661Y1582522D02*
G01X13084231Y1593952D01*
G01X13067213Y1599794D01*
G01X13044353Y1599794D01*
G01X13027081Y1593952D01*
G01X13015651Y1582522D01*
G01X13015651Y1571092D01*
G01X13021493Y1559662D01*
G01X13027081Y1554074D01*
G01X13038511Y1548232D01*
G01X13072801Y1536802D01*
G01X13084231Y1531214D01*
G01X13090073Y1525372D01*
G01X13095661Y1513942D01*
G01X13095661Y1496924D01*
G01X13084231Y1485494D01*
G01X13067213Y1479652D01*
G01X13044353Y1479652D01*
G01X13027081Y1485494D01*
G01X13015651Y1496924D01*
G01X13143413Y1599794D02*
G01X13143413Y1479652D01*
G01X13143413Y1536802D02*
G01X13160685Y1554074D01*
G01X13172115Y1559662D01*
G01X13189133Y1559662D01*
G01X13200563Y1554074D01*
G01X13206405Y1536802D01*
G01X13206405Y1479652D01*
G01X13322737Y1559662D02*
G01X13322737Y1479652D01*
G01X13322737Y1542644D02*
G01X13311307Y1554074D01*
G01X13299877Y1559662D01*
G01X13282859Y1559662D01*
G01X13271429Y1554074D01*
G01X13259999Y1542644D01*
G01X13254157Y1525372D01*
G01X13254157Y1513942D01*
G01X13259999Y1496924D01*
G01X13271429Y1485494D01*
G01X13282859Y1479652D01*
G01X13299877Y1479652D01*
G01X13311307Y1485494D01*
G01X13322737Y1496924D01*
G01X13370489Y1559662D02*
G01X13370489Y1439774D01*
G01X13370489Y1542644D02*
G01X13381919Y1554074D01*
G01X13393349Y1559662D01*
G01X13410621Y1559662D01*
G01X13422051Y1554074D01*
G01X13433481Y1542644D01*
G01X13439069Y1525372D01*
G01X13439069Y1513942D01*
G01X13433481Y1496924D01*
G01X13422051Y1485494D01*
G01X13410621Y1479652D01*
G01X13393349Y1479652D01*
G01X13381919Y1485494D01*
G01X13370489Y1496924D01*
G01X13486821Y1525372D02*
G01X13555401Y1525372D01*
G01X13555401Y1536802D01*
G01X13549813Y1548232D01*
G01X13543971Y1554074D01*
G01X13532541Y1559662D01*
G01X13515523Y1559662D01*
G01X13504093Y1554074D01*
G01X13492663Y1542644D01*
G01X13486821Y1525372D01*
G01X13486821Y1513942D01*
G01X13492663Y1496924D01*
G01X13504093Y1485494D01*
G01X13515523Y1479652D01*
G01X13532541Y1479652D01*
G01X13543971Y1485494D01*
G01X13555401Y1496924D01*
G01X14446832Y1599794D02*
G01X14492552Y1479652D01*
G01X14538272Y1599794D02*
G01X14492552Y1479652D01*
G01X14586024Y1599794D02*
G01X14591866Y1593952D01*
G01X14597454Y1599794D01*
G01X14591866Y1605382D01*
G01X14586024Y1599794D01*
G01X14591866Y1559662D02*
G01X14591866Y1479652D01*
G01X14713786Y1559662D02*
G01X14713786Y1479652D01*
G01X14713786Y1542644D02*
G01X14702356Y1554074D01*
G01X14690926Y1559662D01*
G01X14673908Y1559662D01*
G01X14662478Y1554074D01*
G01X14651048Y1542644D01*
G01X14645206Y1525372D01*
G01X14645206Y1513942D01*
G01X14651048Y1496924D01*
G01X14662478Y1485494D01*
G01X14673908Y1479652D01*
G01X14690926Y1479652D01*
G01X14702356Y1485494D01*
G01X14713786Y1496924D01*
G01X14864408Y1622654D02*
G01X14761538Y1439774D01*
G01X14912160Y1599794D02*
G01X14912160Y1479652D01*
G01X14912160Y1599794D02*
G01X14963722Y1599794D01*
G01X14980740Y1593952D01*
G01X14986582Y1588364D01*
G01X14992170Y1576934D01*
G01X14992170Y1559662D01*
G01X14986582Y1548232D01*
G01X14980740Y1542644D01*
G01X14963722Y1536802D01*
G01X14912160Y1536802D01*
G01X15108502Y1559662D02*
G01X15108502Y1479652D01*
G01X15108502Y1542644D02*
G01X15097072Y1554074D01*
G01X15085642Y1559662D01*
G01X15068624Y1559662D01*
G01X15057194Y1554074D01*
G01X15045764Y1542644D01*
G01X15039922Y1525372D01*
G01X15039922Y1513942D01*
G01X15045764Y1496924D01*
G01X15057194Y1485494D01*
G01X15068624Y1479652D01*
G01X15085642Y1479652D01*
G01X15097072Y1485494D01*
G01X15108502Y1496924D01*
G01X15224834Y1599794D02*
G01X15224834Y1479652D01*
G01X15224834Y1542644D02*
G01X15213404Y1554074D01*
G01X15201974Y1559662D01*
G01X15184956Y1559662D01*
G01X15173526Y1554074D01*
G01X15162096Y1542644D01*
G01X15156254Y1525372D01*
G01X15156254Y1513942D01*
G01X15162096Y1496924D01*
G01X15173526Y1485494D01*
G01X15184956Y1479652D01*
G01X15201974Y1479652D01*
G01X15213404Y1485494D01*
G01X15224834Y1496924D01*
G01X16116011Y1599794D02*
G01X16116011Y1479652D01*
G01X16116011Y1599794D02*
G01X16167573Y1599794D01*
G01X16184591Y1593952D01*
G01X16190433Y1588364D01*
G01X16196021Y1576934D01*
G01X16196021Y1559662D01*
G01X16190433Y1548232D01*
G01X16184591Y1542644D01*
G01X16167573Y1536802D01*
G01X16116011Y1536802D01*
G01X16312353Y1559662D02*
G01X16312353Y1479652D01*
G01X16312353Y1542644D02*
G01X16300923Y1554074D01*
G01X16289493Y1559662D01*
G01X16272475Y1559662D01*
G01X16261045Y1554074D01*
G01X16249615Y1542644D01*
G01X16243773Y1525372D01*
G01X16243773Y1513942D01*
G01X16249615Y1496924D01*
G01X16261045Y1485494D01*
G01X16272475Y1479652D01*
G01X16289493Y1479652D01*
G01X16300923Y1485494D01*
G01X16312353Y1496924D01*
G01X16428685Y1599794D02*
G01X16428685Y1479652D01*
G01X16428685Y1542644D02*
G01X16417255Y1554074D01*
G01X16405825Y1559662D01*
G01X16388807Y1559662D01*
G01X16377377Y1554074D01*
G01X16365947Y1542644D01*
G01X16360105Y1525372D01*
G01X16360105Y1513942D01*
G01X16365947Y1496924D01*
G01X16377377Y1485494D01*
G01X16388807Y1479652D01*
G01X16405825Y1479652D01*
G01X16417255Y1485494D01*
G01X16428685Y1496924D01*
G01X16684463Y1582522D02*
G01X16673033Y1593952D01*
G01X16656015Y1599794D01*
G01X16633155Y1599794D01*
G01X16615883Y1593952D01*
G01X16604453Y1582522D01*
G01X16604453Y1571092D01*
G01X16610295Y1559662D01*
G01X16615883Y1554074D01*
G01X16627313Y1548232D01*
G01X16661603Y1536802D01*
G01X16673033Y1531214D01*
G01X16678875Y1525372D01*
G01X16684463Y1513942D01*
G01X16684463Y1496924D01*
G01X16673033Y1485494D01*
G01X16656015Y1479652D01*
G01X16633155Y1479652D01*
G01X16615883Y1485494D01*
G01X16604453Y1496924D01*
G01X16732215Y1599794D02*
G01X16732215Y1479652D01*
G01X16732215Y1536802D02*
G01X16749487Y1554074D01*
G01X16760917Y1559662D01*
G01X16777935Y1559662D01*
G01X16789365Y1554074D01*
G01X16795207Y1536802D01*
G01X16795207Y1479652D01*
G01X16911539Y1559662D02*
G01X16911539Y1479652D01*
G01X16911539Y1542644D02*
G01X16900109Y1554074D01*
G01X16888679Y1559662D01*
G01X16871661Y1559662D01*
G01X16860231Y1554074D01*
G01X16848801Y1542644D01*
G01X16842959Y1525372D01*
G01X16842959Y1513942D01*
G01X16848801Y1496924D01*
G01X16860231Y1485494D01*
G01X16871661Y1479652D01*
G01X16888679Y1479652D01*
G01X16900109Y1485494D01*
G01X16911539Y1496924D01*
G01X16959291Y1559662D02*
G01X16959291Y1439774D01*
G01X16959291Y1542644D02*
G01X16970721Y1554074D01*
G01X16982151Y1559662D01*
G01X16999423Y1559662D01*
G01X17010853Y1554074D01*
G01X17022283Y1542644D01*
G01X17027871Y1525372D01*
G01X17027871Y1513942D01*
G01X17022283Y1496924D01*
G01X17010853Y1485494D01*
G01X16999423Y1479652D01*
G01X16982151Y1479652D01*
G01X16970721Y1485494D01*
G01X16959291Y1496924D01*
G01X17075623Y1525372D02*
G01X17144203Y1525372D01*
G01X17144203Y1536802D01*
G01X17138615Y1548232D01*
G01X17132773Y1554074D01*
G01X17121343Y1559662D01*
G01X17104325Y1559662D01*
G01X17092895Y1554074D01*
G01X17081465Y1542644D01*
G01X17075623Y1525372D01*
G01X17075623Y1513942D01*
G01X17081465Y1496924D01*
G01X17092895Y1485494D01*
G01X17104325Y1479652D01*
G01X17121343Y1479652D01*
G01X17132773Y1485494D01*
G01X17144203Y1496924D01*
G01X18035380Y1599794D02*
G01X18035380Y1479652D01*
G01X18035380Y1479652D02*
G01X18103960Y1479652D01*
G01X18220292Y1559662D02*
G01X18220292Y1479652D01*
G01X18220292Y1542644D02*
G01X18208862Y1554074D01*
G01X18197432Y1559662D01*
G01X18180414Y1559662D01*
G01X18168984Y1554074D01*
G01X18157554Y1542644D01*
G01X18151712Y1525372D01*
G01X18151712Y1513942D01*
G01X18157554Y1496924D01*
G01X18168984Y1485494D01*
G01X18180414Y1479652D01*
G01X18197432Y1479652D01*
G01X18208862Y1485494D01*
G01X18220292Y1496924D01*
G01X18273886Y1559662D02*
G01X18308176Y1479652D01*
G01X18342466Y1559662D02*
G01X18308176Y1479652D01*
G01X18296746Y1456792D01*
G01X18285316Y1445362D01*
G01X18273886Y1439774D01*
G01X18268044Y1439774D01*
G01X18390218Y1525372D02*
G01X18458798Y1525372D01*
G01X18458798Y1536802D01*
G01X18453210Y1548232D01*
G01X18447368Y1554074D01*
G01X18435938Y1559662D01*
G01X18418920Y1559662D01*
G01X18407490Y1554074D01*
G01X18396060Y1542644D01*
G01X18390218Y1525372D01*
G01X18390218Y1513942D01*
G01X18396060Y1496924D01*
G01X18407490Y1485494D01*
G01X18418920Y1479652D01*
G01X18435938Y1479652D01*
G01X18447368Y1485494D01*
G01X18458798Y1496924D01*
G01X18506550Y1559662D02*
G01X18506550Y1479652D01*
G01X18506550Y1525372D02*
G01X18512392Y1542644D01*
G01X18523822Y1554074D01*
G01X18535252Y1559662D01*
G01X18552270Y1559662D01*
G01X18728038Y1599794D02*
G01X18728038Y1479652D01*
G01X18728038Y1599794D02*
G01X18779600Y1599794D01*
G01X18796618Y1593952D01*
G01X18802460Y1588364D01*
G01X18808048Y1576934D01*
G01X18808048Y1559662D01*
G01X18802460Y1548232D01*
G01X18796618Y1542644D01*
G01X18779600Y1536802D01*
G01X18728038Y1536802D01*
G01X18924380Y1559662D02*
G01X18924380Y1479652D01*
G01X18924380Y1542644D02*
G01X18912950Y1554074D01*
G01X18901520Y1559662D01*
G01X18884502Y1559662D01*
G01X18873072Y1554074D01*
G01X18861642Y1542644D01*
G01X18855800Y1525372D01*
G01X18855800Y1513942D01*
G01X18861642Y1496924D01*
G01X18873072Y1485494D01*
G01X18884502Y1479652D01*
G01X18901520Y1479652D01*
G01X18912950Y1485494D01*
G01X18924380Y1496924D01*
G01X18972132Y1599794D02*
G01X18977974Y1593952D01*
G01X18983562Y1599794D01*
G01X18977974Y1605382D01*
G01X18972132Y1599794D01*
G01X18977974Y1559662D02*
G01X18977974Y1479652D01*
G01X19031314Y1559662D02*
G01X19031314Y1479652D01*
G01X19031314Y1525372D02*
G01X19037156Y1542644D01*
G01X19048586Y1554074D01*
G01X19060016Y1559662D01*
G01X19077034Y1559662D01*
G01X6221223Y996363D02*
G01X6232653Y1001951D01*
G01X6249925Y1019223D01*
G01X6249925Y899081D01*
G01X7646816Y1019223D02*
G01X7709808Y1019223D01*
G01X7675518Y973503D01*
G01X7692536Y973503D01*
G01X7703966Y967661D01*
G01X7709808Y962073D01*
G01X7715396Y944801D01*
G01X7715396Y933371D01*
G01X7709808Y916353D01*
G01X7698378Y904923D01*
G01X7681106Y899081D01*
G01X7664088Y899081D01*
G01X7646816Y904923D01*
G01X7641228Y910511D01*
G01X7635386Y921941D01*
G01X7837570Y979091D02*
G01X7831728Y962073D01*
G01X7820298Y950643D01*
G01X7803280Y944801D01*
G01X7797438Y944801D01*
G01X7780420Y950643D01*
G01X7768990Y962073D01*
G01X7763148Y979091D01*
G01X7763148Y984933D01*
G01X7768990Y1001951D01*
G01X7780420Y1013381D01*
G01X7797438Y1019223D01*
G01X7803280Y1019223D01*
G01X7820298Y1013381D01*
G01X7831728Y1001951D01*
G01X7837570Y979091D01*
G01X7837570Y950643D01*
G01X7831728Y921941D01*
G01X7820298Y904923D01*
G01X7803280Y899081D01*
G01X7791850Y899081D01*
G01X7774578Y904923D01*
G01X7768990Y916353D01*
G01X7891164Y927783D02*
G01X7885322Y921941D01*
G01X7891164Y916353D01*
G01X7896752Y921941D01*
G01X7891164Y927783D01*
G01X8001654Y1019223D02*
G01X7944504Y939213D01*
G01X8030356Y939213D01*
G01X8001654Y1019223D02*
G01X8001654Y899081D01*
G01X8078108Y979091D02*
G01X8141100Y899081D01*
G01X8141100Y979091D02*
G01X8078108Y899081D01*
G01X8188852Y996363D02*
G01X8200282Y1001951D01*
G01X8217554Y1019223D01*
G01X8217554Y899081D01*
G01X8276736Y1019223D02*
G01X8339728Y1019223D01*
G01X8305438Y973503D01*
G01X8322456Y973503D01*
G01X8333886Y967661D01*
G01X8339728Y962073D01*
G01X8345316Y944801D01*
G01X8345316Y933371D01*
G01X8339728Y916353D01*
G01X8328298Y904923D01*
G01X8311026Y899081D01*
G01X8294008Y899081D01*
G01X8276736Y904923D01*
G01X8271148Y910511D01*
G01X8265306Y921941D01*
G01X8473078Y1019223D02*
G01X8415928Y899081D01*
G01X8393068Y1019223D02*
G01X8473078Y1019223D01*
G01X8526672Y927783D02*
G01X8520830Y921941D01*
G01X8526672Y916353D01*
G01X8532260Y921941D01*
G01X8526672Y927783D01*
G01X8608714Y1019223D02*
G01X8591442Y1013381D01*
G01X8585854Y1001951D01*
G01X8585854Y990521D01*
G01X8591442Y979091D01*
G01X8602872Y973503D01*
G01X8625732Y967661D01*
G01X8643004Y962073D01*
G01X8654434Y950643D01*
G01X8660022Y939213D01*
G01X8660022Y921941D01*
G01X8654434Y910511D01*
G01X8648592Y904923D01*
G01X8631574Y899081D01*
G01X8608714Y899081D01*
G01X8591442Y904923D01*
G01X8585854Y910511D01*
G01X8580012Y921941D01*
G01X8580012Y939213D01*
G01X8585854Y950643D01*
G01X8597284Y962073D01*
G01X8614302Y967661D01*
G01X8637162Y973503D01*
G01X8648592Y979091D01*
G01X8654434Y990521D01*
G01X8654434Y1001951D01*
G01X8648592Y1013381D01*
G01X8631574Y1019223D01*
G01X8608714Y1019223D01*
G01X8707774Y979091D02*
G01X8707774Y899081D01*
G01X8707774Y956231D02*
G01X8725046Y973503D01*
G01X8736476Y979091D01*
G01X8753494Y979091D01*
G01X8764924Y973503D01*
G01X8770766Y956231D01*
G01X8770766Y899081D01*
G01X8770766Y956231D02*
G01X8787784Y973503D01*
G01X8799214Y979091D01*
G01X8816486Y979091D01*
G01X8827916Y973503D01*
G01X8833504Y956231D01*
G01X8833504Y899081D01*
G01X8881256Y1019223D02*
G01X8887098Y1013381D01*
G01X8892686Y1019223D01*
G01X8887098Y1024811D01*
G01X8881256Y1019223D01*
G01X8887098Y979091D02*
G01X8887098Y899081D01*
G01X8940438Y1019223D02*
G01X8940438Y899081D01*
G01X9028322Y1042083D02*
G01X9016892Y1030653D01*
G01X9005462Y1013381D01*
G01X8994032Y990521D01*
G01X8988190Y962073D01*
G01X8988190Y939213D01*
G01X8994032Y910511D01*
G01X9005462Y887651D01*
G01X9016892Y870633D01*
G01X9028322Y859203D01*
G01X9076074Y996363D02*
G01X9087504Y1001951D01*
G01X9104776Y1019223D01*
G01X9104776Y899081D01*
G01X9158370Y927783D02*
G01X9152528Y921941D01*
G01X9158370Y916353D01*
G01X9163958Y921941D01*
G01X9158370Y927783D01*
G01X9246000Y1019223D02*
G01X9228982Y1013381D01*
G01X9217552Y996363D01*
G01X9211710Y967661D01*
G01X9211710Y950643D01*
G01X9217552Y921941D01*
G01X9228982Y904923D01*
G01X9246000Y899081D01*
G01X9257430Y899081D01*
G01X9274702Y904923D01*
G01X9286132Y921941D01*
G01X9291720Y950643D01*
G01X9291720Y967661D01*
G01X9286132Y996363D01*
G01X9274702Y1013381D01*
G01X9257430Y1019223D01*
G01X9246000Y1019223D01*
G01X9373762Y1019223D02*
G01X9356744Y1013381D01*
G01X9345314Y996363D01*
G01X9339472Y967661D01*
G01X9339472Y950643D01*
G01X9345314Y921941D01*
G01X9356744Y904923D01*
G01X9373762Y899081D01*
G01X9385192Y899081D01*
G01X9402464Y904923D01*
G01X9413894Y921941D01*
G01X9419482Y950643D01*
G01X9419482Y967661D01*
G01X9413894Y996363D01*
G01X9402464Y1013381D01*
G01X9385192Y1019223D01*
G01X9373762Y1019223D01*
G01X9501524Y1019223D02*
G01X9484506Y1013381D01*
G01X9473076Y996363D01*
G01X9467234Y967661D01*
G01X9467234Y950643D01*
G01X9473076Y921941D01*
G01X9484506Y904923D01*
G01X9501524Y899081D01*
G01X9512954Y899081D01*
G01X9530226Y904923D01*
G01X9541656Y921941D01*
G01X9547244Y950643D01*
G01X9547244Y967661D01*
G01X9541656Y996363D01*
G01X9530226Y1013381D01*
G01X9512954Y1019223D01*
G01X9501524Y1019223D01*
G01X9594996Y979091D02*
G01X9657988Y899081D01*
G01X9657988Y979091D02*
G01X9594996Y899081D01*
G01X9717170Y1019223D02*
G01X9780162Y1019223D01*
G01X9745872Y973503D01*
G01X9762890Y973503D01*
G01X9774320Y967661D01*
G01X9780162Y962073D01*
G01X9785750Y944801D01*
G01X9785750Y933371D01*
G01X9780162Y916353D01*
G01X9768732Y904923D01*
G01X9751460Y899081D01*
G01X9734442Y899081D01*
G01X9717170Y904923D01*
G01X9711582Y910511D01*
G01X9705740Y921941D01*
G01X9839344Y927783D02*
G01X9833502Y921941D01*
G01X9839344Y916353D01*
G01X9844932Y921941D01*
G01X9839344Y927783D01*
G01X9961264Y1019223D02*
G01X9904114Y1019223D01*
G01X9898526Y967661D01*
G01X9904114Y973503D01*
G01X9921386Y979091D01*
G01X9938404Y979091D01*
G01X9955676Y973503D01*
G01X9967106Y962073D01*
G01X9972694Y944801D01*
G01X9972694Y933371D01*
G01X9967106Y916353D01*
G01X9955676Y904923D01*
G01X9938404Y899081D01*
G01X9921386Y899081D01*
G01X9904114Y904923D01*
G01X9898526Y910511D01*
G01X9892684Y921941D01*
G01X10054736Y1019223D02*
G01X10037718Y1013381D01*
G01X10026288Y996363D01*
G01X10020446Y967661D01*
G01X10020446Y950643D01*
G01X10026288Y921941D01*
G01X10037718Y904923D01*
G01X10054736Y899081D01*
G01X10066166Y899081D01*
G01X10083438Y904923D01*
G01X10094868Y921941D01*
G01X10100456Y950643D01*
G01X10100456Y967661D01*
G01X10094868Y996363D01*
G01X10083438Y1013381D01*
G01X10066166Y1019223D01*
G01X10054736Y1019223D01*
G01X10182498Y1019223D02*
G01X10165480Y1013381D01*
G01X10154050Y996363D01*
G01X10148208Y967661D01*
G01X10148208Y950643D01*
G01X10154050Y921941D01*
G01X10165480Y904923D01*
G01X10182498Y899081D01*
G01X10193928Y899081D01*
G01X10211200Y904923D01*
G01X10222630Y921941D01*
G01X10228218Y950643D01*
G01X10228218Y967661D01*
G01X10222630Y996363D01*
G01X10211200Y1013381D01*
G01X10193928Y1019223D01*
G01X10182498Y1019223D01*
G01X10275970Y979091D02*
G01X10275970Y899081D01*
G01X10275970Y956231D02*
G01X10293242Y973503D01*
G01X10304672Y979091D01*
G01X10321690Y979091D01*
G01X10333120Y973503D01*
G01X10338962Y956231D01*
G01X10338962Y899081D01*
G01X10338962Y956231D02*
G01X10355980Y973503D01*
G01X10367410Y979091D01*
G01X10384682Y979091D01*
G01X10396112Y973503D01*
G01X10401700Y956231D01*
G01X10401700Y899081D01*
G01X10449452Y979091D02*
G01X10449452Y899081D01*
G01X10449452Y956231D02*
G01X10466724Y973503D01*
G01X10478154Y979091D01*
G01X10495172Y979091D01*
G01X10506602Y973503D01*
G01X10512444Y956231D01*
G01X10512444Y899081D01*
G01X10512444Y956231D02*
G01X10529462Y973503D01*
G01X10540892Y979091D01*
G01X10558164Y979091D01*
G01X10569594Y973503D01*
G01X10575182Y956231D01*
G01X10575182Y899081D01*
G01X10622934Y1042083D02*
G01X10634364Y1030653D01*
G01X10645794Y1013381D01*
G01X10657224Y990521D01*
G01X10663066Y962073D01*
G01X10663066Y939213D01*
G01X10657224Y910511D01*
G01X10645794Y887651D01*
G01X10634364Y870633D01*
G01X10622934Y859203D01*
G01X11554243Y1019223D02*
G01X11554243Y899081D01*
G01X11554243Y1019223D02*
G01X11605805Y1019223D01*
G01X11622823Y1013381D01*
G01X11628665Y1007793D01*
G01X11634253Y996363D01*
G01X11634253Y979091D01*
G01X11628665Y967661D01*
G01X11622823Y962073D01*
G01X11605805Y956231D01*
G01X11554243Y956231D01*
G01X11722137Y1019223D02*
G01X11722137Y899081D01*
G01X11682005Y1019223D02*
G01X11762015Y1019223D01*
G01X11809767Y1019223D02*
G01X11809767Y899081D01*
G01X11889777Y1019223D02*
G01X11889777Y899081D01*
G01X11809767Y962073D02*
G01X11889777Y962073D01*
G01X13095661Y1001951D02*
G01X13084231Y1013381D01*
G01X13067213Y1019223D01*
G01X13044353Y1019223D01*
G01X13027081Y1013381D01*
G01X13015651Y1001951D01*
G01X13015651Y990521D01*
G01X13021493Y979091D01*
G01X13027081Y973503D01*
G01X13038511Y967661D01*
G01X13072801Y956231D01*
G01X13084231Y950643D01*
G01X13090073Y944801D01*
G01X13095661Y933371D01*
G01X13095661Y916353D01*
G01X13084231Y904923D01*
G01X13067213Y899081D01*
G01X13044353Y899081D01*
G01X13027081Y904923D01*
G01X13015651Y916353D01*
G01X13143413Y1019223D02*
G01X13143413Y899081D01*
G01X13219867Y979091D02*
G01X13208437Y973503D01*
G01X13197007Y962073D01*
G01X13191165Y944801D01*
G01X13191165Y933371D01*
G01X13197007Y916353D01*
G01X13208437Y904923D01*
G01X13219867Y899081D01*
G01X13236885Y899081D01*
G01X13248315Y904923D01*
G01X13259745Y916353D01*
G01X13265587Y933371D01*
G01X13265587Y944801D01*
G01X13259745Y962073D01*
G01X13248315Y973503D01*
G01X13236885Y979091D01*
G01X13219867Y979091D01*
G01X13330611Y1019223D02*
G01X13330611Y921941D01*
G01X13336199Y904923D01*
G01X13347629Y899081D01*
G01X13359059Y899081D01*
G01X13313339Y979091D02*
G01X13353471Y979091D01*
G01X14446832Y1019223D02*
G01X14446832Y899081D01*
G01X14446832Y1019223D02*
G01X14498394Y1019223D01*
G01X14515412Y1013381D01*
G01X14521254Y1007793D01*
G01X14526842Y996363D01*
G01X14526842Y979091D01*
G01X14521254Y967661D01*
G01X14515412Y962073D01*
G01X14498394Y956231D01*
G01X14446832Y956231D01*
G01X14643174Y979091D02*
G01X14643174Y899081D01*
G01X14643174Y962073D02*
G01X14631744Y973503D01*
G01X14620314Y979091D01*
G01X14603296Y979091D01*
G01X14591866Y973503D01*
G01X14580436Y962073D01*
G01X14574594Y944801D01*
G01X14574594Y933371D01*
G01X14580436Y916353D01*
G01X14591866Y904923D01*
G01X14603296Y899081D01*
G01X14620314Y899081D01*
G01X14631744Y904923D01*
G01X14643174Y916353D01*
G01X14759506Y1019223D02*
G01X14759506Y899081D01*
G01X14759506Y962073D02*
G01X14748076Y973503D01*
G01X14736646Y979091D01*
G01X14719628Y979091D01*
G01X14708198Y973503D01*
G01X14696768Y962073D01*
G01X14690926Y944801D01*
G01X14690926Y933371D01*
G01X14696768Y916353D01*
G01X14708198Y904923D01*
G01X14719628Y899081D01*
G01X14736646Y899081D01*
G01X14748076Y904923D01*
G01X14759506Y916353D01*
G01X16150301Y1019223D02*
G01X16138871Y1013381D01*
G01X16127441Y1001951D01*
G01X16121853Y990521D01*
G01X16116011Y973503D01*
G01X16116011Y944801D01*
G01X16121853Y927783D01*
G01X16127441Y916353D01*
G01X16138871Y904923D01*
G01X16150301Y899081D01*
G01X16173161Y899081D01*
G01X16184591Y904923D01*
G01X16196021Y916353D01*
G01X16201863Y927783D01*
G01X16207451Y944801D01*
G01X16207451Y973503D01*
G01X16201863Y990521D01*
G01X16196021Y1001951D01*
G01X16184591Y1013381D01*
G01X16173161Y1019223D01*
G01X16150301Y1019223D01*
G01X16255203Y979091D02*
G01X16289493Y899081D01*
G01X16323783Y979091D02*
G01X16289493Y899081D01*
G01X16440115Y979091D02*
G01X16440115Y899081D01*
G01X16440115Y962073D02*
G01X16428685Y973503D01*
G01X16417255Y979091D01*
G01X16400237Y979091D01*
G01X16388807Y973503D01*
G01X16377377Y962073D01*
G01X16371535Y944801D01*
G01X16371535Y933371D01*
G01X16377377Y916353D01*
G01X16388807Y904923D01*
G01X16400237Y899081D01*
G01X16417255Y899081D01*
G01X16428685Y904923D01*
G01X16440115Y916353D01*
G01X16487867Y1019223D02*
G01X16487867Y899081D01*
G01X18075512Y1019223D02*
G01X18075512Y899081D01*
G01X18035380Y1019223D02*
G01X18115390Y1019223D01*
G01X18191844Y979091D02*
G01X18180414Y973503D01*
G01X18168984Y962073D01*
G01X18163142Y944801D01*
G01X18163142Y933371D01*
G01X18168984Y916353D01*
G01X18180414Y904923D01*
G01X18191844Y899081D01*
G01X18208862Y899081D01*
G01X18220292Y904923D01*
G01X18231722Y916353D01*
G01X18237564Y933371D01*
G01X18237564Y944801D01*
G01X18231722Y962073D01*
G01X18220292Y973503D01*
G01X18208862Y979091D01*
G01X18191844Y979091D01*
G01X18285316Y979091D02*
G01X18285316Y859203D01*
G01X18285316Y962073D02*
G01X18296746Y973503D01*
G01X18308176Y979091D01*
G01X18325448Y979091D01*
G01X18336878Y973503D01*
G01X18348308Y962073D01*
G01X18353896Y944801D01*
G01X18353896Y933371D01*
G01X18348308Y916353D01*
G01X18336878Y904923D01*
G01X18325448Y899081D01*
G01X18308176Y899081D01*
G01X18296746Y904923D01*
G01X18285316Y916353D01*
G01X18529664Y1019223D02*
G01X18529664Y899081D01*
G01X18529664Y899081D02*
G01X18598244Y899081D01*
G01X18714576Y979091D02*
G01X18714576Y899081D01*
G01X18714576Y962073D02*
G01X18703146Y973503D01*
G01X18691716Y979091D01*
G01X18674698Y979091D01*
G01X18663268Y973503D01*
G01X18651838Y962073D01*
G01X18645996Y944801D01*
G01X18645996Y933371D01*
G01X18651838Y916353D01*
G01X18663268Y904923D01*
G01X18674698Y899081D01*
G01X18691716Y899081D01*
G01X18703146Y904923D01*
G01X18714576Y916353D01*
G01X18768170Y979091D02*
G01X18802460Y899081D01*
G01X18836750Y979091D02*
G01X18802460Y899081D01*
G01X18791030Y876221D01*
G01X18779600Y864791D01*
G01X18768170Y859203D01*
G01X18762328Y859203D01*
G01X18884502Y944801D02*
G01X18953082Y944801D01*
G01X18953082Y956231D01*
G01X18947494Y967661D01*
G01X18941652Y973503D01*
G01X18930222Y979091D01*
G01X18913204Y979091D01*
G01X18901774Y973503D01*
G01X18890344Y962073D01*
G01X18884502Y944801D01*
G01X18884502Y933371D01*
G01X18890344Y916353D01*
G01X18901774Y904923D01*
G01X18913204Y899081D01*
G01X18930222Y899081D01*
G01X18941652Y904923D01*
G01X18953082Y916353D01*
G01X19000834Y979091D02*
G01X19000834Y899081D01*
G01X19000834Y944801D02*
G01X19006676Y962073D01*
G01X19018106Y973503D01*
G01X19029536Y979091D01*
G01X19046554Y979091D01*
G01X19094306Y950643D02*
G01X19197176Y950643D01*
G01X19244928Y1019223D02*
G01X19244928Y899081D01*
G01X19244928Y1019223D02*
G01X19296490Y1019223D01*
G01X19313508Y1013381D01*
G01X19319350Y1007793D01*
G01X19324938Y996363D01*
G01X19324938Y984933D01*
G01X19319350Y973503D01*
G01X19313508Y967661D01*
G01X19296490Y962073D01*
G01X19244928Y962073D02*
G01X19296490Y962073D01*
G01X19313508Y956231D01*
G01X19319350Y950643D01*
G01X19324938Y939213D01*
G01X19324938Y921941D01*
G01X19319350Y910511D01*
G01X19313508Y904923D01*
G01X19296490Y899081D01*
G01X19244928Y899081D01*
G01X19401392Y979091D02*
G01X19389962Y973503D01*
G01X19378532Y962073D01*
G01X19372690Y944801D01*
G01X19372690Y933371D01*
G01X19378532Y916353D01*
G01X19389962Y904923D01*
G01X19401392Y899081D01*
G01X19418410Y899081D01*
G01X19429840Y904923D01*
G01X19441270Y916353D01*
G01X19447112Y933371D01*
G01X19447112Y944801D01*
G01X19441270Y962073D01*
G01X19429840Y973503D01*
G01X19418410Y979091D01*
G01X19401392Y979091D01*
G01X19512136Y1019223D02*
G01X19512136Y921941D01*
G01X19517724Y904923D01*
G01X19529154Y899081D01*
G01X19540584Y899081D01*
G01X19494864Y979091D02*
G01X19534996Y979091D01*
G01X19605608Y1019223D02*
G01X19605608Y921941D01*
G01X19611196Y904923D01*
G01X19622626Y899081D01*
G01X19634056Y899081D01*
G01X19588336Y979091D02*
G01X19628468Y979091D01*
G01X19710510Y979091D02*
G01X19699080Y973503D01*
G01X19687650Y962073D01*
G01X19681808Y944801D01*
G01X19681808Y933371D01*
G01X19687650Y916353D01*
G01X19699080Y904923D01*
G01X19710510Y899081D01*
G01X19727528Y899081D01*
G01X19738958Y904923D01*
G01X19750388Y916353D01*
G01X19756230Y933371D01*
G01X19756230Y944801D01*
G01X19750388Y962073D01*
G01X19738958Y973503D01*
G01X19727528Y979091D01*
G01X19710510Y979091D01*
G01X19803982Y979091D02*
G01X19803982Y899081D01*
G01X19803982Y956231D02*
G01X19821254Y973503D01*
G01X19832684Y979091D01*
G01X19849702Y979091D01*
G01X19861132Y973503D01*
G01X19866974Y956231D01*
G01X19866974Y899081D01*
G01X19866974Y956231D02*
G01X19883992Y973503D01*
G01X19895422Y979091D01*
G01X19912694Y979091D01*
G01X19924124Y973503D01*
G01X19929712Y956231D01*
G01X19929712Y899081D01*
G01X20105480Y1019223D02*
G01X20105480Y899081D01*
G01X20105480Y899081D02*
G01X20174060Y899081D01*
G01X20290392Y979091D02*
G01X20290392Y899081D01*
G01X20290392Y962073D02*
G01X20278962Y973503D01*
G01X20267532Y979091D01*
G01X20250514Y979091D01*
G01X20239084Y973503D01*
G01X20227654Y962073D01*
G01X20221812Y944801D01*
G01X20221812Y933371D01*
G01X20227654Y916353D01*
G01X20239084Y904923D01*
G01X20250514Y899081D01*
G01X20267532Y899081D01*
G01X20278962Y904923D01*
G01X20290392Y916353D01*
G01X20343986Y979091D02*
G01X20378276Y899081D01*
G01X20412566Y979091D02*
G01X20378276Y899081D01*
G01X20366846Y876221D01*
G01X20355416Y864791D01*
G01X20343986Y859203D01*
G01X20338144Y859203D01*
G01X20460318Y944801D02*
G01X20528898Y944801D01*
G01X20528898Y956231D01*
G01X20523310Y967661D01*
G01X20517468Y973503D01*
G01X20506038Y979091D01*
G01X20489020Y979091D01*
G01X20477590Y973503D01*
G01X20466160Y962073D01*
G01X20460318Y944801D01*
G01X20460318Y933371D01*
G01X20466160Y916353D01*
G01X20477590Y904923D01*
G01X20489020Y899081D01*
G01X20506038Y899081D01*
G01X20517468Y904923D01*
G01X20528898Y916353D01*
G01X20576650Y979091D02*
G01X20576650Y899081D01*
G01X20576650Y944801D02*
G01X20582492Y962073D01*
G01X20593922Y973503D01*
G01X20605352Y979091D01*
G01X20622370Y979091D01*
G01X6227065Y409949D02*
G01X6227065Y415791D01*
G01X6232653Y427221D01*
G01X6238495Y432809D01*
G01X6249925Y438651D01*
G01X6272785Y438651D01*
G01X6284215Y432809D01*
G01X6289803Y427221D01*
G01X6295645Y415791D01*
G01X6295645Y404361D01*
G01X6289803Y392931D01*
G01X6278373Y375659D01*
G01X6221223Y318509D01*
G01X6301233Y318509D01*
G01X7635386Y415791D02*
G01X7646816Y421379D01*
G01X7664088Y438651D01*
G01X7664088Y318509D01*
G01X7717682Y409949D02*
G01X7717682Y415791D01*
G01X7723270Y427221D01*
G01X7729112Y432809D01*
G01X7740542Y438651D01*
G01X7763402Y438651D01*
G01X7774832Y432809D01*
G01X7780420Y427221D01*
G01X7786262Y415791D01*
G01X7786262Y404361D01*
G01X7780420Y392931D01*
G01X7768990Y375659D01*
G01X7711840Y318509D01*
G01X7791850Y318509D01*
G01X7845444Y347211D02*
G01X7839602Y341369D01*
G01X7845444Y335781D01*
G01X7851032Y341369D01*
G01X7845444Y347211D01*
G01X7933074Y438651D02*
G01X7916056Y432809D01*
G01X7904626Y415791D01*
G01X7898784Y387089D01*
G01X7898784Y370071D01*
G01X7904626Y341369D01*
G01X7916056Y324351D01*
G01X7933074Y318509D01*
G01X7944504Y318509D01*
G01X7961776Y324351D01*
G01X7973206Y341369D01*
G01X7978794Y370071D01*
G01X7978794Y387089D01*
G01X7973206Y415791D01*
G01X7961776Y432809D01*
G01X7944504Y438651D01*
G01X7933074Y438651D01*
G01X8026546Y398519D02*
G01X8026546Y318509D01*
G01X8026546Y375659D02*
G01X8043818Y392931D01*
G01X8055248Y398519D01*
G01X8072266Y398519D01*
G01X8083696Y392931D01*
G01X8089538Y375659D01*
G01X8089538Y318509D01*
G01X8089538Y375659D02*
G01X8106556Y392931D01*
G01X8117986Y398519D01*
G01X8135258Y398519D01*
G01X8146688Y392931D01*
G01X8152276Y375659D01*
G01X8152276Y318509D01*
G01X8200028Y438651D02*
G01X8205870Y432809D01*
G01X8211458Y438651D01*
G01X8205870Y444239D01*
G01X8200028Y438651D01*
G01X8205870Y398519D02*
G01X8205870Y318509D01*
G01X8259210Y438651D02*
G01X8259210Y318509D01*
G01X8347094Y461511D02*
G01X8335664Y450081D01*
G01X8324234Y432809D01*
G01X8312804Y409949D01*
G01X8306962Y381501D01*
G01X8306962Y358641D01*
G01X8312804Y329939D01*
G01X8324234Y307079D01*
G01X8335664Y290061D01*
G01X8347094Y278631D01*
G01X8429136Y438651D02*
G01X8412118Y432809D01*
G01X8400688Y415791D01*
G01X8394846Y387089D01*
G01X8394846Y370071D01*
G01X8400688Y341369D01*
G01X8412118Y324351D01*
G01X8429136Y318509D01*
G01X8440566Y318509D01*
G01X8457838Y324351D01*
G01X8469268Y341369D01*
G01X8474856Y370071D01*
G01X8474856Y387089D01*
G01X8469268Y415791D01*
G01X8457838Y432809D01*
G01X8440566Y438651D01*
G01X8429136Y438651D01*
G01X8528450Y347211D02*
G01X8522608Y341369D01*
G01X8528450Y335781D01*
G01X8534038Y341369D01*
G01X8528450Y347211D01*
G01X8593220Y438651D02*
G01X8656212Y438651D01*
G01X8621922Y392931D01*
G01X8638940Y392931D01*
G01X8650370Y387089D01*
G01X8656212Y381501D01*
G01X8661800Y364229D01*
G01X8661800Y352799D01*
G01X8656212Y335781D01*
G01X8644782Y324351D01*
G01X8627510Y318509D01*
G01X8610492Y318509D01*
G01X8593220Y324351D01*
G01X8587632Y329939D01*
G01X8581790Y341369D01*
G01X8743842Y438651D02*
G01X8726824Y432809D01*
G01X8715394Y415791D01*
G01X8709552Y387089D01*
G01X8709552Y370071D01*
G01X8715394Y341369D01*
G01X8726824Y324351D01*
G01X8743842Y318509D01*
G01X8755272Y318509D01*
G01X8772544Y324351D01*
G01X8783974Y341369D01*
G01X8789562Y370071D01*
G01X8789562Y387089D01*
G01X8783974Y415791D01*
G01X8772544Y432809D01*
G01X8755272Y438651D01*
G01X8743842Y438651D01*
G01X8905894Y438651D02*
G01X8848744Y438651D01*
G01X8843156Y387089D01*
G01X8848744Y392931D01*
G01X8866016Y398519D01*
G01X8883034Y398519D01*
G01X8900306Y392931D01*
G01X8911736Y381501D01*
G01X8917324Y364229D01*
G01X8917324Y352799D01*
G01X8911736Y335781D01*
G01X8900306Y324351D01*
G01X8883034Y318509D01*
G01X8866016Y318509D01*
G01X8848744Y324351D01*
G01X8843156Y329939D01*
G01X8837314Y341369D01*
G01X8965076Y398519D02*
G01X8965076Y318509D01*
G01X8965076Y375659D02*
G01X8982348Y392931D01*
G01X8993778Y398519D01*
G01X9010796Y398519D01*
G01X9022226Y392931D01*
G01X9028068Y375659D01*
G01X9028068Y318509D01*
G01X9028068Y375659D02*
G01X9045086Y392931D01*
G01X9056516Y398519D01*
G01X9073788Y398519D01*
G01X9085218Y392931D01*
G01X9090806Y375659D01*
G01X9090806Y318509D01*
G01X9138558Y398519D02*
G01X9138558Y318509D01*
G01X9138558Y375659D02*
G01X9155830Y392931D01*
G01X9167260Y398519D01*
G01X9184278Y398519D01*
G01X9195708Y392931D01*
G01X9201550Y375659D01*
G01X9201550Y318509D01*
G01X9201550Y375659D02*
G01X9218568Y392931D01*
G01X9229998Y398519D01*
G01X9247270Y398519D01*
G01X9258700Y392931D01*
G01X9264288Y375659D01*
G01X9264288Y318509D01*
G01X9312040Y461511D02*
G01X9323470Y450081D01*
G01X9334900Y432809D01*
G01X9346330Y409949D01*
G01X9352172Y381501D01*
G01X9352172Y358641D01*
G01X9346330Y329939D01*
G01X9334900Y307079D01*
G01X9323470Y290061D01*
G01X9312040Y278631D01*
G01X11554243Y438651D02*
G01X11554243Y318509D01*
G01X11554243Y438651D02*
G01X11605805Y438651D01*
G01X11622823Y432809D01*
G01X11628665Y427221D01*
G01X11634253Y415791D01*
G01X11634253Y398519D01*
G01X11628665Y387089D01*
G01X11622823Y381501D01*
G01X11605805Y375659D01*
G01X11554243Y375659D01*
G01X11722137Y438651D02*
G01X11722137Y318509D01*
G01X11682005Y438651D02*
G01X11762015Y438651D01*
G01X11809767Y438651D02*
G01X11809767Y318509D01*
G01X11889777Y438651D02*
G01X11889777Y318509D01*
G01X11809767Y381501D02*
G01X11889777Y381501D01*
G01X13015651Y438651D02*
G01X13015651Y318509D01*
G01X13015651Y438651D02*
G01X13067213Y438651D01*
G01X13084231Y432809D01*
G01X13090073Y427221D01*
G01X13095661Y415791D01*
G01X13095661Y404361D01*
G01X13090073Y392931D01*
G01X13084231Y387089D01*
G01X13067213Y381501D01*
G01X13015651Y381501D01*
G01X13055783Y381501D02*
G01X13095661Y318509D01*
G01X13172115Y398519D02*
G01X13160685Y392931D01*
G01X13149255Y381501D01*
G01X13143413Y364229D01*
G01X13143413Y352799D01*
G01X13149255Y335781D01*
G01X13160685Y324351D01*
G01X13172115Y318509D01*
G01X13189133Y318509D01*
G01X13200563Y324351D01*
G01X13211993Y335781D01*
G01X13217835Y352799D01*
G01X13217835Y364229D01*
G01X13211993Y381501D01*
G01X13200563Y392931D01*
G01X13189133Y398519D01*
G01X13172115Y398519D01*
G01X13265587Y398519D02*
G01X13265587Y341369D01*
G01X13271429Y324351D01*
G01X13282859Y318509D01*
G01X13299877Y318509D01*
G01X13311307Y324351D01*
G01X13328579Y341369D01*
G01X13328579Y398519D02*
G01X13328579Y318509D01*
G01X13376331Y398519D02*
G01X13376331Y318509D01*
G01X13376331Y375659D02*
G01X13393603Y392931D01*
G01X13405033Y398519D01*
G01X13422051Y398519D01*
G01X13433481Y392931D01*
G01X13439323Y375659D01*
G01X13439323Y318509D01*
G01X13555655Y438651D02*
G01X13555655Y318509D01*
G01X13555655Y381501D02*
G01X13544225Y392931D01*
G01X13532795Y398519D01*
G01X13515777Y398519D01*
G01X13504347Y392931D01*
G01X13492917Y381501D01*
G01X13487075Y364229D01*
G01X13487075Y352799D01*
G01X13492917Y335781D01*
G01X13504347Y324351D01*
G01X13515777Y318509D01*
G01X13532795Y318509D01*
G01X13544225Y324351D01*
G01X13555655Y335781D01*
G01X14446832Y438651D02*
G01X14492552Y318509D01*
G01X14538272Y438651D02*
G01X14492552Y318509D01*
G01X14586024Y438651D02*
G01X14591866Y432809D01*
G01X14597454Y438651D01*
G01X14591866Y444239D01*
G01X14586024Y438651D01*
G01X14591866Y398519D02*
G01X14591866Y318509D01*
G01X14713786Y398519D02*
G01X14713786Y318509D01*
G01X14713786Y381501D02*
G01X14702356Y392931D01*
G01X14690926Y398519D01*
G01X14673908Y398519D01*
G01X14662478Y392931D01*
G01X14651048Y381501D01*
G01X14645206Y364229D01*
G01X14645206Y352799D01*
G01X14651048Y335781D01*
G01X14662478Y324351D01*
G01X14673908Y318509D01*
G01X14690926Y318509D01*
G01X14702356Y324351D01*
G01X14713786Y335781D01*
G01X18075512Y438651D02*
G01X18075512Y318509D01*
G01X18035380Y438651D02*
G01X18115390Y438651D01*
G01X18191844Y398519D02*
G01X18180414Y392931D01*
G01X18168984Y381501D01*
G01X18163142Y364229D01*
G01X18163142Y352799D01*
G01X18168984Y335781D01*
G01X18180414Y324351D01*
G01X18191844Y318509D01*
G01X18208862Y318509D01*
G01X18220292Y324351D01*
G01X18231722Y335781D01*
G01X18237564Y352799D01*
G01X18237564Y364229D01*
G01X18231722Y381501D01*
G01X18220292Y392931D01*
G01X18208862Y398519D01*
G01X18191844Y398519D01*
G01X18285316Y398519D02*
G01X18285316Y278631D01*
G01X18285316Y381501D02*
G01X18296746Y392931D01*
G01X18308176Y398519D01*
G01X18325448Y398519D01*
G01X18336878Y392931D01*
G01X18348308Y381501D01*
G01X18353896Y364229D01*
G01X18353896Y352799D01*
G01X18348308Y335781D01*
G01X18336878Y324351D01*
G01X18325448Y318509D01*
G01X18308176Y318509D01*
G01X18296746Y324351D01*
G01X18285316Y335781D01*
G01X18529664Y438651D02*
G01X18529664Y318509D01*
G01X18529664Y318509D02*
G01X18598244Y318509D01*
G01X18714576Y398519D02*
G01X18714576Y318509D01*
G01X18714576Y381501D02*
G01X18703146Y392931D01*
G01X18691716Y398519D01*
G01X18674698Y398519D01*
G01X18663268Y392931D01*
G01X18651838Y381501D01*
G01X18645996Y364229D01*
G01X18645996Y352799D01*
G01X18651838Y335781D01*
G01X18663268Y324351D01*
G01X18674698Y318509D01*
G01X18691716Y318509D01*
G01X18703146Y324351D01*
G01X18714576Y335781D01*
G01X18768170Y398519D02*
G01X18802460Y318509D01*
G01X18836750Y398519D02*
G01X18802460Y318509D01*
G01X18791030Y295649D01*
G01X18779600Y284219D01*
G01X18768170Y278631D01*
G01X18762328Y278631D01*
G01X18884502Y364229D02*
G01X18953082Y364229D01*
G01X18953082Y375659D01*
G01X18947494Y387089D01*
G01X18941652Y392931D01*
G01X18930222Y398519D01*
G01X18913204Y398519D01*
G01X18901774Y392931D01*
G01X18890344Y381501D01*
G01X18884502Y364229D01*
G01X18884502Y352799D01*
G01X18890344Y335781D01*
G01X18901774Y324351D01*
G01X18913204Y318509D01*
G01X18930222Y318509D01*
G01X18941652Y324351D01*
G01X18953082Y335781D01*
G01X19000834Y398519D02*
G01X19000834Y318509D01*
G01X19000834Y364229D02*
G01X19006676Y381501D01*
G01X19018106Y392931D01*
G01X19029536Y398519D01*
G01X19046554Y398519D01*
G01X19094306Y370071D02*
G01X19197176Y370071D01*
G01X19244928Y438651D02*
G01X19244928Y318509D01*
G01X19244928Y438651D02*
G01X19296490Y438651D01*
G01X19313508Y432809D01*
G01X19319350Y427221D01*
G01X19324938Y415791D01*
G01X19324938Y404361D01*
G01X19319350Y392931D01*
G01X19313508Y387089D01*
G01X19296490Y381501D01*
G01X19244928Y381501D02*
G01X19296490Y381501D01*
G01X19313508Y375659D01*
G01X19319350Y370071D01*
G01X19324938Y358641D01*
G01X19324938Y341369D01*
G01X19319350Y329939D01*
G01X19313508Y324351D01*
G01X19296490Y318509D01*
G01X19244928Y318509D01*
G01X19401392Y398519D02*
G01X19389962Y392931D01*
G01X19378532Y381501D01*
G01X19372690Y364229D01*
G01X19372690Y352799D01*
G01X19378532Y335781D01*
G01X19389962Y324351D01*
G01X19401392Y318509D01*
G01X19418410Y318509D01*
G01X19429840Y324351D01*
G01X19441270Y335781D01*
G01X19447112Y352799D01*
G01X19447112Y364229D01*
G01X19441270Y381501D01*
G01X19429840Y392931D01*
G01X19418410Y398519D01*
G01X19401392Y398519D01*
G01X19512136Y438651D02*
G01X19512136Y341369D01*
G01X19517724Y324351D01*
G01X19529154Y318509D01*
G01X19540584Y318509D01*
G01X19494864Y398519D02*
G01X19534996Y398519D01*
G01X19605608Y438651D02*
G01X19605608Y341369D01*
G01X19611196Y324351D01*
G01X19622626Y318509D01*
G01X19634056Y318509D01*
G01X19588336Y398519D02*
G01X19628468Y398519D01*
G01X19710510Y398519D02*
G01X19699080Y392931D01*
G01X19687650Y381501D01*
G01X19681808Y364229D01*
G01X19681808Y352799D01*
G01X19687650Y335781D01*
G01X19699080Y324351D01*
G01X19710510Y318509D01*
G01X19727528Y318509D01*
G01X19738958Y324351D01*
G01X19750388Y335781D01*
G01X19756230Y352799D01*
G01X19756230Y364229D01*
G01X19750388Y381501D01*
G01X19738958Y392931D01*
G01X19727528Y398519D01*
G01X19710510Y398519D01*
G01X19803982Y398519D02*
G01X19803982Y318509D01*
G01X19803982Y375659D02*
G01X19821254Y392931D01*
G01X19832684Y398519D01*
G01X19849702Y398519D01*
G01X19861132Y392931D01*
G01X19866974Y375659D01*
G01X19866974Y318509D01*
G01X19866974Y375659D02*
G01X19883992Y392931D01*
G01X19895422Y398519D01*
G01X19912694Y398519D01*
G01X19924124Y392931D01*
G01X19929712Y375659D01*
G01X19929712Y318509D01*
G01X20105480Y438651D02*
G01X20105480Y318509D01*
G01X20105480Y318509D02*
G01X20174060Y318509D01*
G01X20290392Y398519D02*
G01X20290392Y318509D01*
G01X20290392Y381501D02*
G01X20278962Y392931D01*
G01X20267532Y398519D01*
G01X20250514Y398519D01*
G01X20239084Y392931D01*
G01X20227654Y381501D01*
G01X20221812Y364229D01*
G01X20221812Y352799D01*
G01X20227654Y335781D01*
G01X20239084Y324351D01*
G01X20250514Y318509D01*
G01X20267532Y318509D01*
G01X20278962Y324351D01*
G01X20290392Y335781D01*
G01X20343986Y398519D02*
G01X20378276Y318509D01*
G01X20412566Y398519D02*
G01X20378276Y318509D01*
G01X20366846Y295649D01*
G01X20355416Y284219D01*
G01X20343986Y278631D01*
G01X20338144Y278631D01*
G01X20460318Y364229D02*
G01X20528898Y364229D01*
G01X20528898Y375659D01*
G01X20523310Y387089D01*
G01X20517468Y392931D01*
G01X20506038Y398519D01*
G01X20489020Y398519D01*
G01X20477590Y392931D01*
G01X20466160Y381501D01*
G01X20460318Y364229D01*
G01X20460318Y352799D01*
G01X20466160Y335781D01*
G01X20477590Y324351D01*
G01X20489020Y318509D01*
G01X20506038Y318509D01*
G01X20517468Y324351D01*
G01X20528898Y335781D01*
G01X20576650Y398519D02*
G01X20576650Y318509D01*
G01X20576650Y364229D02*
G01X20582492Y381501D01*
G01X20593922Y392931D01*
G01X20605352Y398519D01*
G01X20622370Y398519D01*
G01X6227065Y-170622D02*
G01X6227065Y-164780D01*
G01X6232653Y-153350D01*
G01X6238495Y-147762D01*
G01X6249925Y-141920D01*
G01X6272785Y-141920D01*
G01X6284215Y-147762D01*
G01X6289803Y-153350D01*
G01X6295645Y-164780D01*
G01X6295645Y-176210D01*
G01X6289803Y-187640D01*
G01X6278373Y-204912D01*
G01X6221223Y-262062D01*
G01X6301233Y-262062D01*
G01X7646816Y-141920D02*
G01X7709808Y-141920D01*
G01X7675518Y-187640D01*
G01X7692536Y-187640D01*
G01X7703966Y-193482D01*
G01X7709808Y-199070D01*
G01X7715396Y-216342D01*
G01X7715396Y-227772D01*
G01X7709808Y-244790D01*
G01X7698378Y-256220D01*
G01X7681106Y-262062D01*
G01X7664088Y-262062D01*
G01X7646816Y-256220D01*
G01X7641228Y-250632D01*
G01X7635386Y-239202D01*
G01X7837570Y-182052D02*
G01X7831728Y-199070D01*
G01X7820298Y-210500D01*
G01X7803280Y-216342D01*
G01X7797438Y-216342D01*
G01X7780420Y-210500D01*
G01X7768990Y-199070D01*
G01X7763148Y-182052D01*
G01X7763148Y-176210D01*
G01X7768990Y-159192D01*
G01X7780420Y-147762D01*
G01X7797438Y-141920D01*
G01X7803280Y-141920D01*
G01X7820298Y-147762D01*
G01X7831728Y-159192D01*
G01X7837570Y-182052D01*
G01X7837570Y-210500D01*
G01X7831728Y-239202D01*
G01X7820298Y-256220D01*
G01X7803280Y-262062D01*
G01X7791850Y-262062D01*
G01X7774578Y-256220D01*
G01X7768990Y-244790D01*
G01X7891164Y-233360D02*
G01X7885322Y-239202D01*
G01X7891164Y-244790D01*
G01X7896752Y-239202D01*
G01X7891164Y-233360D01*
G01X8001654Y-141920D02*
G01X7944504Y-221930D01*
G01X8030356Y-221930D01*
G01X8001654Y-141920D02*
G01X8001654Y-262062D01*
G01X8078108Y-182052D02*
G01X8141100Y-262062D01*
G01X8141100Y-182052D02*
G01X8078108Y-262062D01*
G01X8188852Y-164780D02*
G01X8200282Y-159192D01*
G01X8217554Y-141920D01*
G01X8217554Y-262062D01*
G01X8271148Y-170622D02*
G01X8271148Y-164780D01*
G01X8276736Y-153350D01*
G01X8282578Y-147762D01*
G01X8294008Y-141920D01*
G01X8316868Y-141920D01*
G01X8328298Y-147762D01*
G01X8333886Y-153350D01*
G01X8339728Y-164780D01*
G01X8339728Y-176210D01*
G01X8333886Y-187640D01*
G01X8322456Y-204912D01*
G01X8265306Y-262062D01*
G01X8345316Y-262062D01*
G01X8467490Y-182052D02*
G01X8461648Y-199070D01*
G01X8450218Y-210500D01*
G01X8433200Y-216342D01*
G01X8427358Y-216342D01*
G01X8410340Y-210500D01*
G01X8398910Y-199070D01*
G01X8393068Y-182052D01*
G01X8393068Y-176210D01*
G01X8398910Y-159192D01*
G01X8410340Y-147762D01*
G01X8427358Y-141920D01*
G01X8433200Y-141920D01*
G01X8450218Y-147762D01*
G01X8461648Y-159192D01*
G01X8467490Y-182052D01*
G01X8467490Y-210500D01*
G01X8461648Y-239202D01*
G01X8450218Y-256220D01*
G01X8433200Y-262062D01*
G01X8421770Y-262062D01*
G01X8404498Y-256220D01*
G01X8398910Y-244790D01*
G01X8521084Y-233360D02*
G01X8515242Y-239202D01*
G01X8521084Y-244790D01*
G01X8526672Y-239202D01*
G01X8521084Y-233360D01*
G01X8648846Y-182052D02*
G01X8643004Y-199070D01*
G01X8631574Y-210500D01*
G01X8614556Y-216342D01*
G01X8608714Y-216342D01*
G01X8591696Y-210500D01*
G01X8580266Y-199070D01*
G01X8574424Y-182052D01*
G01X8574424Y-176210D01*
G01X8580266Y-159192D01*
G01X8591696Y-147762D01*
G01X8608714Y-141920D01*
G01X8614556Y-141920D01*
G01X8631574Y-147762D01*
G01X8643004Y-159192D01*
G01X8648846Y-182052D01*
G01X8648846Y-210500D01*
G01X8643004Y-239202D01*
G01X8631574Y-256220D01*
G01X8614556Y-262062D01*
G01X8603126Y-262062D01*
G01X8585854Y-256220D01*
G01X8580266Y-244790D01*
G01X8696598Y-182052D02*
G01X8696598Y-262062D01*
G01X8696598Y-204912D02*
G01X8713870Y-187640D01*
G01X8725300Y-182052D01*
G01X8742318Y-182052D01*
G01X8753748Y-187640D01*
G01X8759590Y-204912D01*
G01X8759590Y-262062D01*
G01X8759590Y-204912D02*
G01X8776608Y-187640D01*
G01X8788038Y-182052D01*
G01X8805310Y-182052D01*
G01X8816740Y-187640D01*
G01X8822328Y-204912D01*
G01X8822328Y-262062D01*
G01X8870080Y-141920D02*
G01X8875922Y-147762D01*
G01X8881510Y-141920D01*
G01X8875922Y-136332D01*
G01X8870080Y-141920D01*
G01X8875922Y-182052D02*
G01X8875922Y-262062D01*
G01X8929262Y-141920D02*
G01X8929262Y-262062D01*
G01X9017146Y-119060D02*
G01X9005716Y-130490D01*
G01X8994286Y-147762D01*
G01X8982856Y-170622D01*
G01X8977014Y-199070D01*
G01X8977014Y-221930D01*
G01X8982856Y-250632D01*
G01X8994286Y-273492D01*
G01X9005716Y-290510D01*
G01X9017146Y-301940D01*
G01X9064898Y-164780D02*
G01X9076328Y-159192D01*
G01X9093600Y-141920D01*
G01X9093600Y-262062D01*
G01X9147194Y-233360D02*
G01X9141352Y-239202D01*
G01X9147194Y-244790D01*
G01X9152782Y-239202D01*
G01X9147194Y-233360D01*
G01X9234824Y-141920D02*
G01X9217806Y-147762D01*
G01X9206376Y-164780D01*
G01X9200534Y-193482D01*
G01X9200534Y-210500D01*
G01X9206376Y-239202D01*
G01X9217806Y-256220D01*
G01X9234824Y-262062D01*
G01X9246254Y-262062D01*
G01X9263526Y-256220D01*
G01X9274956Y-239202D01*
G01X9280544Y-210500D01*
G01X9280544Y-193482D01*
G01X9274956Y-164780D01*
G01X9263526Y-147762D01*
G01X9246254Y-141920D01*
G01X9234824Y-141920D01*
G01X9362586Y-141920D02*
G01X9345568Y-147762D01*
G01X9334138Y-164780D01*
G01X9328296Y-193482D01*
G01X9328296Y-210500D01*
G01X9334138Y-239202D01*
G01X9345568Y-256220D01*
G01X9362586Y-262062D01*
G01X9374016Y-262062D01*
G01X9391288Y-256220D01*
G01X9402718Y-239202D01*
G01X9408306Y-210500D01*
G01X9408306Y-193482D01*
G01X9402718Y-164780D01*
G01X9391288Y-147762D01*
G01X9374016Y-141920D01*
G01X9362586Y-141920D01*
G01X9490348Y-141920D02*
G01X9473330Y-147762D01*
G01X9461900Y-164780D01*
G01X9456058Y-193482D01*
G01X9456058Y-210500D01*
G01X9461900Y-239202D01*
G01X9473330Y-256220D01*
G01X9490348Y-262062D01*
G01X9501778Y-262062D01*
G01X9519050Y-256220D01*
G01X9530480Y-239202D01*
G01X9536068Y-210500D01*
G01X9536068Y-193482D01*
G01X9530480Y-164780D01*
G01X9519050Y-147762D01*
G01X9501778Y-141920D01*
G01X9490348Y-141920D01*
G01X9583820Y-182052D02*
G01X9646812Y-262062D01*
G01X9646812Y-182052D02*
G01X9583820Y-262062D01*
G01X9705994Y-141920D02*
G01X9768986Y-141920D01*
G01X9734696Y-187640D01*
G01X9751714Y-187640D01*
G01X9763144Y-193482D01*
G01X9768986Y-199070D01*
G01X9774574Y-216342D01*
G01X9774574Y-227772D01*
G01X9768986Y-244790D01*
G01X9757556Y-256220D01*
G01X9740284Y-262062D01*
G01X9723266Y-262062D01*
G01X9705994Y-256220D01*
G01X9700406Y-250632D01*
G01X9694564Y-239202D01*
G01X9828168Y-233360D02*
G01X9822326Y-239202D01*
G01X9828168Y-244790D01*
G01X9833756Y-239202D01*
G01X9828168Y-233360D01*
G01X9892938Y-141920D02*
G01X9955930Y-141920D01*
G01X9921640Y-187640D01*
G01X9938658Y-187640D01*
G01X9950088Y-193482D01*
G01X9955930Y-199070D01*
G01X9961518Y-216342D01*
G01X9961518Y-227772D01*
G01X9955930Y-244790D01*
G01X9944500Y-256220D01*
G01X9927228Y-262062D01*
G01X9910210Y-262062D01*
G01X9892938Y-256220D01*
G01X9887350Y-250632D01*
G01X9881508Y-239202D01*
G01X10043560Y-141920D02*
G01X10026542Y-147762D01*
G01X10015112Y-164780D01*
G01X10009270Y-193482D01*
G01X10009270Y-210500D01*
G01X10015112Y-239202D01*
G01X10026542Y-256220D01*
G01X10043560Y-262062D01*
G01X10054990Y-262062D01*
G01X10072262Y-256220D01*
G01X10083692Y-239202D01*
G01X10089280Y-210500D01*
G01X10089280Y-193482D01*
G01X10083692Y-164780D01*
G01X10072262Y-147762D01*
G01X10054990Y-141920D01*
G01X10043560Y-141920D01*
G01X10171322Y-141920D02*
G01X10154304Y-147762D01*
G01X10142874Y-164780D01*
G01X10137032Y-193482D01*
G01X10137032Y-210500D01*
G01X10142874Y-239202D01*
G01X10154304Y-256220D01*
G01X10171322Y-262062D01*
G01X10182752Y-262062D01*
G01X10200024Y-256220D01*
G01X10211454Y-239202D01*
G01X10217042Y-210500D01*
G01X10217042Y-193482D01*
G01X10211454Y-164780D01*
G01X10200024Y-147762D01*
G01X10182752Y-141920D01*
G01X10171322Y-141920D01*
G01X10264794Y-182052D02*
G01X10264794Y-262062D01*
G01X10264794Y-204912D02*
G01X10282066Y-187640D01*
G01X10293496Y-182052D01*
G01X10310514Y-182052D01*
G01X10321944Y-187640D01*
G01X10327786Y-204912D01*
G01X10327786Y-262062D01*
G01X10327786Y-204912D02*
G01X10344804Y-187640D01*
G01X10356234Y-182052D01*
G01X10373506Y-182052D01*
G01X10384936Y-187640D01*
G01X10390524Y-204912D01*
G01X10390524Y-262062D01*
G01X10438276Y-182052D02*
G01X10438276Y-262062D01*
G01X10438276Y-204912D02*
G01X10455548Y-187640D01*
G01X10466978Y-182052D01*
G01X10483996Y-182052D01*
G01X10495426Y-187640D01*
G01X10501268Y-204912D01*
G01X10501268Y-262062D01*
G01X10501268Y-204912D02*
G01X10518286Y-187640D01*
G01X10529716Y-182052D01*
G01X10546988Y-182052D01*
G01X10558418Y-187640D01*
G01X10564006Y-204912D01*
G01X10564006Y-262062D01*
G01X10611758Y-119060D02*
G01X10623188Y-130490D01*
G01X10634618Y-147762D01*
G01X10646048Y-170622D01*
G01X10651890Y-199070D01*
G01X10651890Y-221930D01*
G01X10646048Y-250632D01*
G01X10634618Y-273492D01*
G01X10623188Y-290510D01*
G01X10611758Y-301940D01*
G01X11554243Y-141920D02*
G01X11554243Y-262062D01*
G01X11554243Y-141920D02*
G01X11605805Y-141920D01*
G01X11622823Y-147762D01*
G01X11628665Y-153350D01*
G01X11634253Y-164780D01*
G01X11634253Y-182052D01*
G01X11628665Y-193482D01*
G01X11622823Y-199070D01*
G01X11605805Y-204912D01*
G01X11554243Y-204912D01*
G01X11722137Y-141920D02*
G01X11722137Y-262062D01*
G01X11682005Y-141920D02*
G01X11762015Y-141920D01*
G01X11809767Y-141920D02*
G01X11809767Y-262062D01*
G01X11889777Y-141920D02*
G01X11889777Y-262062D01*
G01X11809767Y-199070D02*
G01X11889777Y-199070D01*
G01X13095661Y-159192D02*
G01X13084231Y-147762D01*
G01X13067213Y-141920D01*
G01X13044353Y-141920D01*
G01X13027081Y-147762D01*
G01X13015651Y-159192D01*
G01X13015651Y-170622D01*
G01X13021493Y-182052D01*
G01X13027081Y-187640D01*
G01X13038511Y-193482D01*
G01X13072801Y-204912D01*
G01X13084231Y-210500D01*
G01X13090073Y-216342D01*
G01X13095661Y-227772D01*
G01X13095661Y-244790D01*
G01X13084231Y-256220D01*
G01X13067213Y-262062D01*
G01X13044353Y-262062D01*
G01X13027081Y-256220D01*
G01X13015651Y-244790D01*
G01X13143413Y-141920D02*
G01X13143413Y-262062D01*
G01X13219867Y-182052D02*
G01X13208437Y-187640D01*
G01X13197007Y-199070D01*
G01X13191165Y-216342D01*
G01X13191165Y-227772D01*
G01X13197007Y-244790D01*
G01X13208437Y-256220D01*
G01X13219867Y-262062D01*
G01X13236885Y-262062D01*
G01X13248315Y-256220D01*
G01X13259745Y-244790D01*
G01X13265587Y-227772D01*
G01X13265587Y-216342D01*
G01X13259745Y-199070D01*
G01X13248315Y-187640D01*
G01X13236885Y-182052D01*
G01X13219867Y-182052D01*
G01X13330611Y-141920D02*
G01X13330611Y-239202D01*
G01X13336199Y-256220D01*
G01X13347629Y-262062D01*
G01X13359059Y-262062D01*
G01X13313339Y-182052D02*
G01X13353471Y-182052D01*
G01X14446832Y-141920D02*
G01X14446832Y-262062D01*
G01X14446832Y-141920D02*
G01X14498394Y-141920D01*
G01X14515412Y-147762D01*
G01X14521254Y-153350D01*
G01X14526842Y-164780D01*
G01X14526842Y-182052D01*
G01X14521254Y-193482D01*
G01X14515412Y-199070D01*
G01X14498394Y-204912D01*
G01X14446832Y-204912D01*
G01X14643174Y-182052D02*
G01X14643174Y-262062D01*
G01X14643174Y-199070D02*
G01X14631744Y-187640D01*
G01X14620314Y-182052D01*
G01X14603296Y-182052D01*
G01X14591866Y-187640D01*
G01X14580436Y-199070D01*
G01X14574594Y-216342D01*
G01X14574594Y-227772D01*
G01X14580436Y-244790D01*
G01X14591866Y-256220D01*
G01X14603296Y-262062D01*
G01X14620314Y-262062D01*
G01X14631744Y-256220D01*
G01X14643174Y-244790D01*
G01X14759506Y-141920D02*
G01X14759506Y-262062D01*
G01X14759506Y-199070D02*
G01X14748076Y-187640D01*
G01X14736646Y-182052D01*
G01X14719628Y-182052D01*
G01X14708198Y-187640D01*
G01X14696768Y-199070D01*
G01X14690926Y-216342D01*
G01X14690926Y-227772D01*
G01X14696768Y-244790D01*
G01X14708198Y-256220D01*
G01X14719628Y-262062D01*
G01X14736646Y-262062D01*
G01X14748076Y-256220D01*
G01X14759506Y-244790D01*
G01X16150301Y-141920D02*
G01X16138871Y-147762D01*
G01X16127441Y-159192D01*
G01X16121853Y-170622D01*
G01X16116011Y-187640D01*
G01X16116011Y-216342D01*
G01X16121853Y-233360D01*
G01X16127441Y-244790D01*
G01X16138871Y-256220D01*
G01X16150301Y-262062D01*
G01X16173161Y-262062D01*
G01X16184591Y-256220D01*
G01X16196021Y-244790D01*
G01X16201863Y-233360D01*
G01X16207451Y-216342D01*
G01X16207451Y-187640D01*
G01X16201863Y-170622D01*
G01X16196021Y-159192D01*
G01X16184591Y-147762D01*
G01X16173161Y-141920D01*
G01X16150301Y-141920D01*
G01X16255203Y-182052D02*
G01X16289493Y-262062D01*
G01X16323783Y-182052D02*
G01X16289493Y-262062D01*
G01X16440115Y-182052D02*
G01X16440115Y-262062D01*
G01X16440115Y-199070D02*
G01X16428685Y-187640D01*
G01X16417255Y-182052D01*
G01X16400237Y-182052D01*
G01X16388807Y-187640D01*
G01X16377377Y-199070D01*
G01X16371535Y-216342D01*
G01X16371535Y-227772D01*
G01X16377377Y-244790D01*
G01X16388807Y-256220D01*
G01X16400237Y-262062D01*
G01X16417255Y-262062D01*
G01X16428685Y-256220D01*
G01X16440115Y-244790D01*
G01X16487867Y-141920D02*
G01X16487867Y-262062D01*
G01X18075512Y-141920D02*
G01X18075512Y-262062D01*
G01X18035380Y-141920D02*
G01X18115390Y-141920D01*
G01X18191844Y-182052D02*
G01X18180414Y-187640D01*
G01X18168984Y-199070D01*
G01X18163142Y-216342D01*
G01X18163142Y-227772D01*
G01X18168984Y-244790D01*
G01X18180414Y-256220D01*
G01X18191844Y-262062D01*
G01X18208862Y-262062D01*
G01X18220292Y-256220D01*
G01X18231722Y-244790D01*
G01X18237564Y-227772D01*
G01X18237564Y-216342D01*
G01X18231722Y-199070D01*
G01X18220292Y-187640D01*
G01X18208862Y-182052D01*
G01X18191844Y-182052D01*
G01X18285316Y-182052D02*
G01X18285316Y-301940D01*
G01X18285316Y-199070D02*
G01X18296746Y-187640D01*
G01X18308176Y-182052D01*
G01X18325448Y-182052D01*
G01X18336878Y-187640D01*
G01X18348308Y-199070D01*
G01X18353896Y-216342D01*
G01X18353896Y-227772D01*
G01X18348308Y-244790D01*
G01X18336878Y-256220D01*
G01X18325448Y-262062D01*
G01X18308176Y-262062D01*
G01X18296746Y-256220D01*
G01X18285316Y-244790D01*
G01X18529664Y-141920D02*
G01X18529664Y-262062D01*
G01X18529664Y-262062D02*
G01X18598244Y-262062D01*
G01X18714576Y-182052D02*
G01X18714576Y-262062D01*
G01X18714576Y-199070D02*
G01X18703146Y-187640D01*
G01X18691716Y-182052D01*
G01X18674698Y-182052D01*
G01X18663268Y-187640D01*
G01X18651838Y-199070D01*
G01X18645996Y-216342D01*
G01X18645996Y-227772D01*
G01X18651838Y-244790D01*
G01X18663268Y-256220D01*
G01X18674698Y-262062D01*
G01X18691716Y-262062D01*
G01X18703146Y-256220D01*
G01X18714576Y-244790D01*
G01X18768170Y-182052D02*
G01X18802460Y-262062D01*
G01X18836750Y-182052D02*
G01X18802460Y-262062D01*
G01X18791030Y-284922D01*
G01X18779600Y-296352D01*
G01X18768170Y-301940D01*
G01X18762328Y-301940D01*
G01X18884502Y-216342D02*
G01X18953082Y-216342D01*
G01X18953082Y-204912D01*
G01X18947494Y-193482D01*
G01X18941652Y-187640D01*
G01X18930222Y-182052D01*
G01X18913204Y-182052D01*
G01X18901774Y-187640D01*
G01X18890344Y-199070D01*
G01X18884502Y-216342D01*
G01X18884502Y-227772D01*
G01X18890344Y-244790D01*
G01X18901774Y-256220D01*
G01X18913204Y-262062D01*
G01X18930222Y-262062D01*
G01X18941652Y-256220D01*
G01X18953082Y-244790D01*
G01X19000834Y-182052D02*
G01X19000834Y-262062D01*
G01X19000834Y-216342D02*
G01X19006676Y-199070D01*
G01X19018106Y-187640D01*
G01X19029536Y-182052D01*
G01X19046554Y-182052D01*
G01X19094306Y-210500D02*
G01X19197176Y-210500D01*
G01X19244928Y-141920D02*
G01X19244928Y-262062D01*
G01X19244928Y-141920D02*
G01X19296490Y-141920D01*
G01X19313508Y-147762D01*
G01X19319350Y-153350D01*
G01X19324938Y-164780D01*
G01X19324938Y-176210D01*
G01X19319350Y-187640D01*
G01X19313508Y-193482D01*
G01X19296490Y-199070D01*
G01X19244928Y-199070D02*
G01X19296490Y-199070D01*
G01X19313508Y-204912D01*
G01X19319350Y-210500D01*
G01X19324938Y-221930D01*
G01X19324938Y-239202D01*
G01X19319350Y-250632D01*
G01X19313508Y-256220D01*
G01X19296490Y-262062D01*
G01X19244928Y-262062D01*
G01X19401392Y-182052D02*
G01X19389962Y-187640D01*
G01X19378532Y-199070D01*
G01X19372690Y-216342D01*
G01X19372690Y-227772D01*
G01X19378532Y-244790D01*
G01X19389962Y-256220D01*
G01X19401392Y-262062D01*
G01X19418410Y-262062D01*
G01X19429840Y-256220D01*
G01X19441270Y-244790D01*
G01X19447112Y-227772D01*
G01X19447112Y-216342D01*
G01X19441270Y-199070D01*
G01X19429840Y-187640D01*
G01X19418410Y-182052D01*
G01X19401392Y-182052D01*
G01X19512136Y-141920D02*
G01X19512136Y-239202D01*
G01X19517724Y-256220D01*
G01X19529154Y-262062D01*
G01X19540584Y-262062D01*
G01X19494864Y-182052D02*
G01X19534996Y-182052D01*
G01X19605608Y-141920D02*
G01X19605608Y-239202D01*
G01X19611196Y-256220D01*
G01X19622626Y-262062D01*
G01X19634056Y-262062D01*
G01X19588336Y-182052D02*
G01X19628468Y-182052D01*
G01X19710510Y-182052D02*
G01X19699080Y-187640D01*
G01X19687650Y-199070D01*
G01X19681808Y-216342D01*
G01X19681808Y-227772D01*
G01X19687650Y-244790D01*
G01X19699080Y-256220D01*
G01X19710510Y-262062D01*
G01X19727528Y-262062D01*
G01X19738958Y-256220D01*
G01X19750388Y-244790D01*
G01X19756230Y-227772D01*
G01X19756230Y-216342D01*
G01X19750388Y-199070D01*
G01X19738958Y-187640D01*
G01X19727528Y-182052D01*
G01X19710510Y-182052D01*
G01X19803982Y-182052D02*
G01X19803982Y-262062D01*
G01X19803982Y-204912D02*
G01X19821254Y-187640D01*
G01X19832684Y-182052D01*
G01X19849702Y-182052D01*
G01X19861132Y-187640D01*
G01X19866974Y-204912D01*
G01X19866974Y-262062D01*
G01X19866974Y-204912D02*
G01X19883992Y-187640D01*
G01X19895422Y-182052D01*
G01X19912694Y-182052D01*
G01X19924124Y-187640D01*
G01X19929712Y-204912D01*
G01X19929712Y-262062D01*
G01X20105480Y-141920D02*
G01X20105480Y-262062D01*
G01X20105480Y-262062D02*
G01X20174060Y-262062D01*
G01X20290392Y-182052D02*
G01X20290392Y-262062D01*
G01X20290392Y-199070D02*
G01X20278962Y-187640D01*
G01X20267532Y-182052D01*
G01X20250514Y-182052D01*
G01X20239084Y-187640D01*
G01X20227654Y-199070D01*
G01X20221812Y-216342D01*
G01X20221812Y-227772D01*
G01X20227654Y-244790D01*
G01X20239084Y-256220D01*
G01X20250514Y-262062D01*
G01X20267532Y-262062D01*
G01X20278962Y-256220D01*
G01X20290392Y-244790D01*
G01X20343986Y-182052D02*
G01X20378276Y-262062D01*
G01X20412566Y-182052D02*
G01X20378276Y-262062D01*
G01X20366846Y-284922D01*
G01X20355416Y-296352D01*
G01X20343986Y-301940D01*
G01X20338144Y-301940D01*
G01X20460318Y-216342D02*
G01X20528898Y-216342D01*
G01X20528898Y-204912D01*
G01X20523310Y-193482D01*
G01X20517468Y-187640D01*
G01X20506038Y-182052D01*
G01X20489020Y-182052D01*
G01X20477590Y-187640D01*
G01X20466160Y-199070D01*
G01X20460318Y-216342D01*
G01X20460318Y-227772D01*
G01X20466160Y-244790D01*
G01X20477590Y-256220D01*
G01X20489020Y-262062D01*
G01X20506038Y-262062D01*
G01X20517468Y-256220D01*
G01X20528898Y-244790D01*
G01X20576650Y-182052D02*
G01X20576650Y-262062D01*
G01X20576650Y-216342D02*
G01X20582492Y-199070D01*
G01X20593922Y-187640D01*
G01X20605352Y-182052D01*
G01X20622370Y-182052D01*
G01X6227065Y-751193D02*
G01X6227065Y-745351D01*
G01X6232653Y-733921D01*
G01X6238495Y-728333D01*
G01X6249925Y-722491D01*
G01X6272785Y-722491D01*
G01X6284215Y-728333D01*
G01X6289803Y-733921D01*
G01X6295645Y-745351D01*
G01X6295645Y-756781D01*
G01X6289803Y-768211D01*
G01X6278373Y-785483D01*
G01X6221223Y-842633D01*
G01X6301233Y-842633D01*
G01X7703966Y-722491D02*
G01X7646816Y-722491D01*
G01X7641228Y-774053D01*
G01X7646816Y-768211D01*
G01X7664088Y-762623D01*
G01X7681106Y-762623D01*
G01X7698378Y-768211D01*
G01X7709808Y-779641D01*
G01X7715396Y-796913D01*
G01X7715396Y-808343D01*
G01X7709808Y-825361D01*
G01X7698378Y-836791D01*
G01X7681106Y-842633D01*
G01X7664088Y-842633D01*
G01X7646816Y-836791D01*
G01X7641228Y-831203D01*
G01X7635386Y-819773D01*
G01X7763148Y-745351D02*
G01X7774578Y-739763D01*
G01X7791850Y-722491D01*
G01X7791850Y-842633D01*
G01X7845444Y-813931D02*
G01X7839602Y-819773D01*
G01X7845444Y-825361D01*
G01X7851032Y-819773D01*
G01X7845444Y-813931D01*
G01X7904626Y-751193D02*
G01X7904626Y-745351D01*
G01X7910214Y-733921D01*
G01X7916056Y-728333D01*
G01X7927486Y-722491D01*
G01X7950346Y-722491D01*
G01X7961776Y-728333D01*
G01X7967364Y-733921D01*
G01X7973206Y-745351D01*
G01X7973206Y-756781D01*
G01X7967364Y-768211D01*
G01X7955934Y-785483D01*
G01X7898784Y-842633D01*
G01X7978794Y-842633D01*
G01X8026546Y-762623D02*
G01X8026546Y-842633D01*
G01X8026546Y-785483D02*
G01X8043818Y-768211D01*
G01X8055248Y-762623D01*
G01X8072266Y-762623D01*
G01X8083696Y-768211D01*
G01X8089538Y-785483D01*
G01X8089538Y-842633D01*
G01X8089538Y-785483D02*
G01X8106556Y-768211D01*
G01X8117986Y-762623D01*
G01X8135258Y-762623D01*
G01X8146688Y-768211D01*
G01X8152276Y-785483D01*
G01X8152276Y-842633D01*
G01X8200028Y-722491D02*
G01X8205870Y-728333D01*
G01X8211458Y-722491D01*
G01X8205870Y-716903D01*
G01X8200028Y-722491D01*
G01X8205870Y-762623D02*
G01X8205870Y-842633D01*
G01X8259210Y-722491D02*
G01X8259210Y-842633D01*
G01X8347094Y-699631D02*
G01X8335664Y-711061D01*
G01X8324234Y-728333D01*
G01X8312804Y-751193D01*
G01X8306962Y-779641D01*
G01X8306962Y-802501D01*
G01X8312804Y-831203D01*
G01X8324234Y-854063D01*
G01X8335664Y-871081D01*
G01X8347094Y-882511D01*
G01X8394846Y-745351D02*
G01X8406276Y-739763D01*
G01X8423548Y-722491D01*
G01X8423548Y-842633D01*
G01X8477142Y-813931D02*
G01X8471300Y-819773D01*
G01X8477142Y-825361D01*
G01X8482730Y-819773D01*
G01X8477142Y-813931D01*
G01X8541912Y-722491D02*
G01X8604904Y-722491D01*
G01X8570614Y-768211D01*
G01X8587632Y-768211D01*
G01X8599062Y-774053D01*
G01X8604904Y-779641D01*
G01X8610492Y-796913D01*
G01X8610492Y-808343D01*
G01X8604904Y-825361D01*
G01X8593474Y-836791D01*
G01X8576202Y-842633D01*
G01X8559184Y-842633D01*
G01X8541912Y-836791D01*
G01X8536324Y-831203D01*
G01X8530482Y-819773D01*
G01X8692534Y-722491D02*
G01X8675516Y-728333D01*
G01X8664086Y-745351D01*
G01X8658244Y-774053D01*
G01X8658244Y-791071D01*
G01X8664086Y-819773D01*
G01X8675516Y-836791D01*
G01X8692534Y-842633D01*
G01X8703964Y-842633D01*
G01X8721236Y-836791D01*
G01X8732666Y-819773D01*
G01X8738254Y-791071D01*
G01X8738254Y-774053D01*
G01X8732666Y-745351D01*
G01X8721236Y-728333D01*
G01X8703964Y-722491D01*
G01X8692534Y-722491D01*
G01X8820296Y-722491D02*
G01X8803278Y-728333D01*
G01X8791848Y-745351D01*
G01X8786006Y-774053D01*
G01X8786006Y-791071D01*
G01X8791848Y-819773D01*
G01X8803278Y-836791D01*
G01X8820296Y-842633D01*
G01X8831726Y-842633D01*
G01X8848998Y-836791D01*
G01X8860428Y-819773D01*
G01X8866016Y-791071D01*
G01X8866016Y-774053D01*
G01X8860428Y-745351D01*
G01X8848998Y-728333D01*
G01X8831726Y-722491D01*
G01X8820296Y-722491D01*
G01X8913768Y-762623D02*
G01X8913768Y-842633D01*
G01X8913768Y-785483D02*
G01X8931040Y-768211D01*
G01X8942470Y-762623D01*
G01X8959488Y-762623D01*
G01X8970918Y-768211D01*
G01X8976760Y-785483D01*
G01X8976760Y-842633D01*
G01X8976760Y-785483D02*
G01X8993778Y-768211D01*
G01X9005208Y-762623D01*
G01X9022480Y-762623D01*
G01X9033910Y-768211D01*
G01X9039498Y-785483D01*
G01X9039498Y-842633D01*
G01X9087250Y-762623D02*
G01X9087250Y-842633D01*
G01X9087250Y-785483D02*
G01X9104522Y-768211D01*
G01X9115952Y-762623D01*
G01X9132970Y-762623D01*
G01X9144400Y-768211D01*
G01X9150242Y-785483D01*
G01X9150242Y-842633D01*
G01X9150242Y-785483D02*
G01X9167260Y-768211D01*
G01X9178690Y-762623D01*
G01X9195962Y-762623D01*
G01X9207392Y-768211D01*
G01X9212980Y-785483D01*
G01X9212980Y-842633D01*
G01X9260732Y-699631D02*
G01X9272162Y-711061D01*
G01X9283592Y-728333D01*
G01X9295022Y-751193D01*
G01X9300864Y-779641D01*
G01X9300864Y-802501D01*
G01X9295022Y-831203D01*
G01X9283592Y-854063D01*
G01X9272162Y-871081D01*
G01X9260732Y-882511D01*
G01X11554243Y-722491D02*
G01X11554243Y-842633D01*
G01X11554243Y-722491D02*
G01X11634253Y-842633D01*
G01X11634253Y-722491D02*
G01X11634253Y-842633D01*
G01X11682005Y-722491D02*
G01X11682005Y-842633D01*
G01X11682005Y-722491D02*
G01X11733567Y-722491D01*
G01X11750585Y-728333D01*
G01X11756427Y-733921D01*
G01X11762015Y-745351D01*
G01X11762015Y-762623D01*
G01X11756427Y-774053D01*
G01X11750585Y-779641D01*
G01X11733567Y-785483D01*
G01X11682005Y-785483D01*
G01X11849899Y-722491D02*
G01X11849899Y-842633D01*
G01X11809767Y-722491D02*
G01X11889777Y-722491D01*
G01X11937529Y-722491D02*
G01X11937529Y-842633D01*
G01X12017539Y-722491D02*
G01X12017539Y-842633D01*
G01X11937529Y-779641D02*
G01X12017539Y-779641D01*
G01X13015651Y-722491D02*
G01X13015651Y-842633D01*
G01X13015651Y-722491D02*
G01X13067213Y-722491D01*
G01X13084231Y-728333D01*
G01X13090073Y-733921D01*
G01X13095661Y-745351D01*
G01X13095661Y-756781D01*
G01X13090073Y-768211D01*
G01X13084231Y-774053D01*
G01X13067213Y-779641D01*
G01X13015651Y-779641D01*
G01X13055783Y-779641D02*
G01X13095661Y-842633D01*
G01X13172115Y-762623D02*
G01X13160685Y-768211D01*
G01X13149255Y-779641D01*
G01X13143413Y-796913D01*
G01X13143413Y-808343D01*
G01X13149255Y-825361D01*
G01X13160685Y-836791D01*
G01X13172115Y-842633D01*
G01X13189133Y-842633D01*
G01X13200563Y-836791D01*
G01X13211993Y-825361D01*
G01X13217835Y-808343D01*
G01X13217835Y-796913D01*
G01X13211993Y-779641D01*
G01X13200563Y-768211D01*
G01X13189133Y-762623D01*
G01X13172115Y-762623D01*
G01X13265587Y-762623D02*
G01X13265587Y-819773D01*
G01X13271429Y-836791D01*
G01X13282859Y-842633D01*
G01X13299877Y-842633D01*
G01X13311307Y-836791D01*
G01X13328579Y-819773D01*
G01X13328579Y-762623D02*
G01X13328579Y-842633D01*
G01X13376331Y-762623D02*
G01X13376331Y-842633D01*
G01X13376331Y-785483D02*
G01X13393603Y-768211D01*
G01X13405033Y-762623D01*
G01X13422051Y-762623D01*
G01X13433481Y-768211D01*
G01X13439323Y-785483D01*
G01X13439323Y-842633D01*
G01X13555655Y-722491D02*
G01X13555655Y-842633D01*
G01X13555655Y-779641D02*
G01X13544225Y-768211D01*
G01X13532795Y-762623D01*
G01X13515777Y-762623D01*
G01X13504347Y-768211D01*
G01X13492917Y-779641D01*
G01X13487075Y-796913D01*
G01X13487075Y-808343D01*
G01X13492917Y-825361D01*
G01X13504347Y-836791D01*
G01X13515777Y-842633D01*
G01X13532795Y-842633D01*
G01X13544225Y-836791D01*
G01X13555655Y-825361D01*
G01X14446832Y-722491D02*
G01X14492552Y-842633D01*
G01X14538272Y-722491D02*
G01X14492552Y-842633D01*
G01X14586024Y-722491D02*
G01X14591866Y-728333D01*
G01X14597454Y-722491D01*
G01X14591866Y-716903D01*
G01X14586024Y-722491D01*
G01X14591866Y-762623D02*
G01X14591866Y-842633D01*
G01X14713786Y-762623D02*
G01X14713786Y-842633D01*
G01X14713786Y-779641D02*
G01X14702356Y-768211D01*
G01X14690926Y-762623D01*
G01X14673908Y-762623D01*
G01X14662478Y-768211D01*
G01X14651048Y-779641D01*
G01X14645206Y-796913D01*
G01X14645206Y-808343D01*
G01X14651048Y-825361D01*
G01X14662478Y-836791D01*
G01X14673908Y-842633D01*
G01X14690926Y-842633D01*
G01X14702356Y-836791D01*
G01X14713786Y-825361D01*
G01X18075512Y-722491D02*
G01X18075512Y-842633D01*
G01X18035380Y-722491D02*
G01X18115390Y-722491D01*
G01X18191844Y-762623D02*
G01X18180414Y-768211D01*
G01X18168984Y-779641D01*
G01X18163142Y-796913D01*
G01X18163142Y-808343D01*
G01X18168984Y-825361D01*
G01X18180414Y-836791D01*
G01X18191844Y-842633D01*
G01X18208862Y-842633D01*
G01X18220292Y-836791D01*
G01X18231722Y-825361D01*
G01X18237564Y-808343D01*
G01X18237564Y-796913D01*
G01X18231722Y-779641D01*
G01X18220292Y-768211D01*
G01X18208862Y-762623D01*
G01X18191844Y-762623D01*
G01X18285316Y-762623D02*
G01X18285316Y-882511D01*
G01X18285316Y-779641D02*
G01X18296746Y-768211D01*
G01X18308176Y-762623D01*
G01X18325448Y-762623D01*
G01X18336878Y-768211D01*
G01X18348308Y-779641D01*
G01X18353896Y-796913D01*
G01X18353896Y-808343D01*
G01X18348308Y-825361D01*
G01X18336878Y-836791D01*
G01X18325448Y-842633D01*
G01X18308176Y-842633D01*
G01X18296746Y-836791D01*
G01X18285316Y-825361D01*
G01X18529664Y-722491D02*
G01X18529664Y-842633D01*
G01X18529664Y-842633D02*
G01X18598244Y-842633D01*
G01X18714576Y-762623D02*
G01X18714576Y-842633D01*
G01X18714576Y-779641D02*
G01X18703146Y-768211D01*
G01X18691716Y-762623D01*
G01X18674698Y-762623D01*
G01X18663268Y-768211D01*
G01X18651838Y-779641D01*
G01X18645996Y-796913D01*
G01X18645996Y-808343D01*
G01X18651838Y-825361D01*
G01X18663268Y-836791D01*
G01X18674698Y-842633D01*
G01X18691716Y-842633D01*
G01X18703146Y-836791D01*
G01X18714576Y-825361D01*
G01X18768170Y-762623D02*
G01X18802460Y-842633D01*
G01X18836750Y-762623D02*
G01X18802460Y-842633D01*
G01X18791030Y-865493D01*
G01X18779600Y-876923D01*
G01X18768170Y-882511D01*
G01X18762328Y-882511D01*
G01X18884502Y-796913D02*
G01X18953082Y-796913D01*
G01X18953082Y-785483D01*
G01X18947494Y-774053D01*
G01X18941652Y-768211D01*
G01X18930222Y-762623D01*
G01X18913204Y-762623D01*
G01X18901774Y-768211D01*
G01X18890344Y-779641D01*
G01X18884502Y-796913D01*
G01X18884502Y-808343D01*
G01X18890344Y-825361D01*
G01X18901774Y-836791D01*
G01X18913204Y-842633D01*
G01X18930222Y-842633D01*
G01X18941652Y-836791D01*
G01X18953082Y-825361D01*
G01X19000834Y-762623D02*
G01X19000834Y-842633D01*
G01X19000834Y-796913D02*
G01X19006676Y-779641D01*
G01X19018106Y-768211D01*
G01X19029536Y-762623D01*
G01X19046554Y-762623D01*
G01X19094306Y-791071D02*
G01X19197176Y-791071D01*
G01X19244928Y-722491D02*
G01X19244928Y-842633D01*
G01X19244928Y-722491D02*
G01X19296490Y-722491D01*
G01X19313508Y-728333D01*
G01X19319350Y-733921D01*
G01X19324938Y-745351D01*
G01X19324938Y-756781D01*
G01X19319350Y-768211D01*
G01X19313508Y-774053D01*
G01X19296490Y-779641D01*
G01X19244928Y-779641D02*
G01X19296490Y-779641D01*
G01X19313508Y-785483D01*
G01X19319350Y-791071D01*
G01X19324938Y-802501D01*
G01X19324938Y-819773D01*
G01X19319350Y-831203D01*
G01X19313508Y-836791D01*
G01X19296490Y-842633D01*
G01X19244928Y-842633D01*
G01X19401392Y-762623D02*
G01X19389962Y-768211D01*
G01X19378532Y-779641D01*
G01X19372690Y-796913D01*
G01X19372690Y-808343D01*
G01X19378532Y-825361D01*
G01X19389962Y-836791D01*
G01X19401392Y-842633D01*
G01X19418410Y-842633D01*
G01X19429840Y-836791D01*
G01X19441270Y-825361D01*
G01X19447112Y-808343D01*
G01X19447112Y-796913D01*
G01X19441270Y-779641D01*
G01X19429840Y-768211D01*
G01X19418410Y-762623D01*
G01X19401392Y-762623D01*
G01X19512136Y-722491D02*
G01X19512136Y-819773D01*
G01X19517724Y-836791D01*
G01X19529154Y-842633D01*
G01X19540584Y-842633D01*
G01X19494864Y-762623D02*
G01X19534996Y-762623D01*
G01X19605608Y-722491D02*
G01X19605608Y-819773D01*
G01X19611196Y-836791D01*
G01X19622626Y-842633D01*
G01X19634056Y-842633D01*
G01X19588336Y-762623D02*
G01X19628468Y-762623D01*
G01X19710510Y-762623D02*
G01X19699080Y-768211D01*
G01X19687650Y-779641D01*
G01X19681808Y-796913D01*
G01X19681808Y-808343D01*
G01X19687650Y-825361D01*
G01X19699080Y-836791D01*
G01X19710510Y-842633D01*
G01X19727528Y-842633D01*
G01X19738958Y-836791D01*
G01X19750388Y-825361D01*
G01X19756230Y-808343D01*
G01X19756230Y-796913D01*
G01X19750388Y-779641D01*
G01X19738958Y-768211D01*
G01X19727528Y-762623D01*
G01X19710510Y-762623D01*
G01X19803982Y-762623D02*
G01X19803982Y-842633D01*
G01X19803982Y-785483D02*
G01X19821254Y-768211D01*
G01X19832684Y-762623D01*
G01X19849702Y-762623D01*
G01X19861132Y-768211D01*
G01X19866974Y-785483D01*
G01X19866974Y-842633D01*
G01X19866974Y-785483D02*
G01X19883992Y-768211D01*
G01X19895422Y-762623D01*
G01X19912694Y-762623D01*
G01X19924124Y-768211D01*
G01X19929712Y-785483D01*
G01X19929712Y-842633D01*
G01X20105480Y-722491D02*
G01X20105480Y-842633D01*
G01X20105480Y-842633D02*
G01X20174060Y-842633D01*
G01X20290392Y-762623D02*
G01X20290392Y-842633D01*
G01X20290392Y-779641D02*
G01X20278962Y-768211D01*
G01X20267532Y-762623D01*
G01X20250514Y-762623D01*
G01X20239084Y-768211D01*
G01X20227654Y-779641D01*
G01X20221812Y-796913D01*
G01X20221812Y-808343D01*
G01X20227654Y-825361D01*
G01X20239084Y-836791D01*
G01X20250514Y-842633D01*
G01X20267532Y-842633D01*
G01X20278962Y-836791D01*
G01X20290392Y-825361D01*
G01X20343986Y-762623D02*
G01X20378276Y-842633D01*
G01X20412566Y-762623D02*
G01X20378276Y-842633D01*
G01X20366846Y-865493D01*
G01X20355416Y-876923D01*
G01X20343986Y-882511D01*
G01X20338144Y-882511D01*
G01X20460318Y-796913D02*
G01X20528898Y-796913D01*
G01X20528898Y-785483D01*
G01X20523310Y-774053D01*
G01X20517468Y-768211D01*
G01X20506038Y-762623D01*
G01X20489020Y-762623D01*
G01X20477590Y-768211D01*
G01X20466160Y-779641D01*
G01X20460318Y-796913D01*
G01X20460318Y-808343D01*
G01X20466160Y-825361D01*
G01X20477590Y-836791D01*
G01X20489020Y-842633D01*
G01X20506038Y-842633D01*
G01X20517468Y-836791D01*
G01X20528898Y-825361D01*
G01X20576650Y-762623D02*
G01X20576650Y-842633D01*
G01X20576650Y-796913D02*
G01X20582492Y-779641D01*
G01X20593922Y-768211D01*
G01X20605352Y-762623D01*
G01X20622370Y-762623D01*
G01X6278373Y-1303063D02*
G01X6221223Y-1383073D01*
G01X6307075Y-1383073D01*
G01X6278373Y-1303063D02*
G01X6278373Y-1423205D01*
G01X7664088Y-1303063D02*
G01X7646816Y-1308905D01*
G01X7641228Y-1320335D01*
G01X7641228Y-1331765D01*
G01X7646816Y-1343195D01*
G01X7658246Y-1348783D01*
G01X7681106Y-1354625D01*
G01X7698378Y-1360213D01*
G01X7709808Y-1371643D01*
G01X7715396Y-1383073D01*
G01X7715396Y-1400345D01*
G01X7709808Y-1411775D01*
G01X7703966Y-1417363D01*
G01X7686948Y-1423205D01*
G01X7664088Y-1423205D01*
G01X7646816Y-1417363D01*
G01X7641228Y-1411775D01*
G01X7635386Y-1400345D01*
G01X7635386Y-1383073D01*
G01X7641228Y-1371643D01*
G01X7652658Y-1360213D01*
G01X7669676Y-1354625D01*
G01X7692536Y-1348783D01*
G01X7703966Y-1343195D01*
G01X7709808Y-1331765D01*
G01X7709808Y-1320335D01*
G01X7703966Y-1308905D01*
G01X7686948Y-1303063D01*
G01X7664088Y-1303063D01*
G01X7831728Y-1320335D02*
G01X7826140Y-1308905D01*
G01X7808868Y-1303063D01*
G01X7797438Y-1303063D01*
G01X7780420Y-1308905D01*
G01X7768990Y-1325923D01*
G01X7763148Y-1354625D01*
G01X7763148Y-1383073D01*
G01X7768990Y-1405933D01*
G01X7780420Y-1417363D01*
G01X7797438Y-1423205D01*
G01X7803280Y-1423205D01*
G01X7820298Y-1417363D01*
G01X7831728Y-1405933D01*
G01X7837570Y-1388915D01*
G01X7837570Y-1383073D01*
G01X7831728Y-1366055D01*
G01X7820298Y-1354625D01*
G01X7803280Y-1348783D01*
G01X7797438Y-1348783D01*
G01X7780420Y-1354625D01*
G01X7768990Y-1366055D01*
G01X7763148Y-1383073D01*
G01X7891164Y-1394503D02*
G01X7885322Y-1400345D01*
G01X7891164Y-1405933D01*
G01X7896752Y-1400345D01*
G01X7891164Y-1394503D01*
G01X8013084Y-1320335D02*
G01X8007496Y-1308905D01*
G01X7990224Y-1303063D01*
G01X7978794Y-1303063D01*
G01X7961776Y-1308905D01*
G01X7950346Y-1325923D01*
G01X7944504Y-1354625D01*
G01X7944504Y-1383073D01*
G01X7950346Y-1405933D01*
G01X7961776Y-1417363D01*
G01X7978794Y-1423205D01*
G01X7984636Y-1423205D01*
G01X8001654Y-1417363D01*
G01X8013084Y-1405933D01*
G01X8018926Y-1388915D01*
G01X8018926Y-1383073D01*
G01X8013084Y-1366055D01*
G01X8001654Y-1354625D01*
G01X7984636Y-1348783D01*
G01X7978794Y-1348783D01*
G01X7961776Y-1354625D01*
G01X7950346Y-1366055D01*
G01X7944504Y-1383073D01*
G01X8066678Y-1343195D02*
G01X8066678Y-1423205D01*
G01X8066678Y-1366055D02*
G01X8083950Y-1348783D01*
G01X8095380Y-1343195D01*
G01X8112398Y-1343195D01*
G01X8123828Y-1348783D01*
G01X8129670Y-1366055D01*
G01X8129670Y-1423205D01*
G01X8129670Y-1366055D02*
G01X8146688Y-1348783D01*
G01X8158118Y-1343195D01*
G01X8175390Y-1343195D01*
G01X8186820Y-1348783D01*
G01X8192408Y-1366055D01*
G01X8192408Y-1423205D01*
G01X8240160Y-1303063D02*
G01X8246002Y-1308905D01*
G01X8251590Y-1303063D01*
G01X8246002Y-1297475D01*
G01X8240160Y-1303063D01*
G01X8246002Y-1343195D02*
G01X8246002Y-1423205D01*
G01X8299342Y-1303063D02*
G01X8299342Y-1423205D01*
G01X8387226Y-1280203D02*
G01X8375796Y-1291633D01*
G01X8364366Y-1308905D01*
G01X8352936Y-1331765D01*
G01X8347094Y-1360213D01*
G01X8347094Y-1383073D01*
G01X8352936Y-1411775D01*
G01X8364366Y-1434635D01*
G01X8375796Y-1451653D01*
G01X8387226Y-1463083D01*
G01X8440820Y-1331765D02*
G01X8440820Y-1325923D01*
G01X8446408Y-1314493D01*
G01X8452250Y-1308905D01*
G01X8463680Y-1303063D01*
G01X8486540Y-1303063D01*
G01X8497970Y-1308905D01*
G01X8503558Y-1314493D01*
G01X8509400Y-1325923D01*
G01X8509400Y-1337353D01*
G01X8503558Y-1348783D01*
G01X8492128Y-1366055D01*
G01X8434978Y-1423205D01*
G01X8514988Y-1423205D01*
G01X8568582Y-1394503D02*
G01X8562740Y-1400345D01*
G01X8568582Y-1405933D01*
G01X8574170Y-1400345D01*
G01X8568582Y-1394503D01*
G01X8627764Y-1331765D02*
G01X8627764Y-1325923D01*
G01X8633352Y-1314493D01*
G01X8639194Y-1308905D01*
G01X8650624Y-1303063D01*
G01X8673484Y-1303063D01*
G01X8684914Y-1308905D01*
G01X8690502Y-1314493D01*
G01X8696344Y-1325923D01*
G01X8696344Y-1337353D01*
G01X8690502Y-1348783D01*
G01X8679072Y-1366055D01*
G01X8621922Y-1423205D01*
G01X8701932Y-1423205D01*
G01X8783974Y-1303063D02*
G01X8766956Y-1308905D01*
G01X8755526Y-1325923D01*
G01X8749684Y-1354625D01*
G01X8749684Y-1371643D01*
G01X8755526Y-1400345D01*
G01X8766956Y-1417363D01*
G01X8783974Y-1423205D01*
G01X8795404Y-1423205D01*
G01X8812676Y-1417363D01*
G01X8824106Y-1400345D01*
G01X8829694Y-1371643D01*
G01X8829694Y-1354625D01*
G01X8824106Y-1325923D01*
G01X8812676Y-1308905D01*
G01X8795404Y-1303063D01*
G01X8783974Y-1303063D01*
G01X8911736Y-1303063D02*
G01X8894718Y-1308905D01*
G01X8883288Y-1325923D01*
G01X8877446Y-1354625D01*
G01X8877446Y-1371643D01*
G01X8883288Y-1400345D01*
G01X8894718Y-1417363D01*
G01X8911736Y-1423205D01*
G01X8923166Y-1423205D01*
G01X8940438Y-1417363D01*
G01X8951868Y-1400345D01*
G01X8957456Y-1371643D01*
G01X8957456Y-1354625D01*
G01X8951868Y-1325923D01*
G01X8940438Y-1308905D01*
G01X8923166Y-1303063D01*
G01X8911736Y-1303063D01*
G01X9005208Y-1343195D02*
G01X9005208Y-1423205D01*
G01X9005208Y-1366055D02*
G01X9022480Y-1348783D01*
G01X9033910Y-1343195D01*
G01X9050928Y-1343195D01*
G01X9062358Y-1348783D01*
G01X9068200Y-1366055D01*
G01X9068200Y-1423205D01*
G01X9068200Y-1366055D02*
G01X9085218Y-1348783D01*
G01X9096648Y-1343195D01*
G01X9113920Y-1343195D01*
G01X9125350Y-1348783D01*
G01X9130938Y-1366055D01*
G01X9130938Y-1423205D01*
G01X9178690Y-1343195D02*
G01X9178690Y-1423205D01*
G01X9178690Y-1366055D02*
G01X9195962Y-1348783D01*
G01X9207392Y-1343195D01*
G01X9224410Y-1343195D01*
G01X9235840Y-1348783D01*
G01X9241682Y-1366055D01*
G01X9241682Y-1423205D01*
G01X9241682Y-1366055D02*
G01X9258700Y-1348783D01*
G01X9270130Y-1343195D01*
G01X9287402Y-1343195D01*
G01X9298832Y-1348783D01*
G01X9304420Y-1366055D01*
G01X9304420Y-1423205D01*
G01X9352172Y-1280203D02*
G01X9363602Y-1291633D01*
G01X9375032Y-1308905D01*
G01X9386462Y-1331765D01*
G01X9392304Y-1360213D01*
G01X9392304Y-1383073D01*
G01X9386462Y-1411775D01*
G01X9375032Y-1434635D01*
G01X9363602Y-1451653D01*
G01X9352172Y-1463083D01*
G01X11554243Y-1303063D02*
G01X11554243Y-1423205D01*
G01X11554243Y-1303063D02*
G01X11634253Y-1423205D01*
G01X11634253Y-1303063D02*
G01X11634253Y-1423205D01*
G01X11682005Y-1303063D02*
G01X11682005Y-1423205D01*
G01X11682005Y-1303063D02*
G01X11733567Y-1303063D01*
G01X11750585Y-1308905D01*
G01X11756427Y-1314493D01*
G01X11762015Y-1325923D01*
G01X11762015Y-1343195D01*
G01X11756427Y-1354625D01*
G01X11750585Y-1360213D01*
G01X11733567Y-1366055D01*
G01X11682005Y-1366055D01*
G01X11849899Y-1303063D02*
G01X11849899Y-1423205D01*
G01X11809767Y-1303063D02*
G01X11889777Y-1303063D01*
G01X11937529Y-1303063D02*
G01X11937529Y-1423205D01*
G01X12017539Y-1303063D02*
G01X12017539Y-1423205D01*
G01X11937529Y-1360213D02*
G01X12017539Y-1360213D01*
G01X13015651Y-1303063D02*
G01X13015651Y-1423205D01*
G01X13015651Y-1303063D02*
G01X13067213Y-1303063D01*
G01X13084231Y-1308905D01*
G01X13090073Y-1314493D01*
G01X13095661Y-1325923D01*
G01X13095661Y-1337353D01*
G01X13090073Y-1348783D01*
G01X13084231Y-1354625D01*
G01X13067213Y-1360213D01*
G01X13015651Y-1360213D01*
G01X13055783Y-1360213D02*
G01X13095661Y-1423205D01*
G01X13172115Y-1343195D02*
G01X13160685Y-1348783D01*
G01X13149255Y-1360213D01*
G01X13143413Y-1377485D01*
G01X13143413Y-1388915D01*
G01X13149255Y-1405933D01*
G01X13160685Y-1417363D01*
G01X13172115Y-1423205D01*
G01X13189133Y-1423205D01*
G01X13200563Y-1417363D01*
G01X13211993Y-1405933D01*
G01X13217835Y-1388915D01*
G01X13217835Y-1377485D01*
G01X13211993Y-1360213D01*
G01X13200563Y-1348783D01*
G01X13189133Y-1343195D01*
G01X13172115Y-1343195D01*
G01X13265587Y-1343195D02*
G01X13265587Y-1400345D01*
G01X13271429Y-1417363D01*
G01X13282859Y-1423205D01*
G01X13299877Y-1423205D01*
G01X13311307Y-1417363D01*
G01X13328579Y-1400345D01*
G01X13328579Y-1343195D02*
G01X13328579Y-1423205D01*
G01X13376331Y-1343195D02*
G01X13376331Y-1423205D01*
G01X13376331Y-1366055D02*
G01X13393603Y-1348783D01*
G01X13405033Y-1343195D01*
G01X13422051Y-1343195D01*
G01X13433481Y-1348783D01*
G01X13439323Y-1366055D01*
G01X13439323Y-1423205D01*
G01X13555655Y-1303063D02*
G01X13555655Y-1423205D01*
G01X13555655Y-1360213D02*
G01X13544225Y-1348783D01*
G01X13532795Y-1343195D01*
G01X13515777Y-1343195D01*
G01X13504347Y-1348783D01*
G01X13492917Y-1360213D01*
G01X13487075Y-1377485D01*
G01X13487075Y-1388915D01*
G01X13492917Y-1405933D01*
G01X13504347Y-1417363D01*
G01X13515777Y-1423205D01*
G01X13532795Y-1423205D01*
G01X13544225Y-1417363D01*
G01X13555655Y-1405933D01*
G01X14446832Y-1303063D02*
G01X14492552Y-1423205D01*
G01X14538272Y-1303063D02*
G01X14492552Y-1423205D01*
G01X14586024Y-1303063D02*
G01X14591866Y-1308905D01*
G01X14597454Y-1303063D01*
G01X14591866Y-1297475D01*
G01X14586024Y-1303063D01*
G01X14591866Y-1343195D02*
G01X14591866Y-1423205D01*
G01X14713786Y-1343195D02*
G01X14713786Y-1423205D01*
G01X14713786Y-1360213D02*
G01X14702356Y-1348783D01*
G01X14690926Y-1343195D01*
G01X14673908Y-1343195D01*
G01X14662478Y-1348783D01*
G01X14651048Y-1360213D01*
G01X14645206Y-1377485D01*
G01X14645206Y-1388915D01*
G01X14651048Y-1405933D01*
G01X14662478Y-1417363D01*
G01X14673908Y-1423205D01*
G01X14690926Y-1423205D01*
G01X14702356Y-1417363D01*
G01X14713786Y-1405933D01*
G01X18075512Y-1303063D02*
G01X18075512Y-1423205D01*
G01X18035380Y-1303063D02*
G01X18115390Y-1303063D01*
G01X18191844Y-1343195D02*
G01X18180414Y-1348783D01*
G01X18168984Y-1360213D01*
G01X18163142Y-1377485D01*
G01X18163142Y-1388915D01*
G01X18168984Y-1405933D01*
G01X18180414Y-1417363D01*
G01X18191844Y-1423205D01*
G01X18208862Y-1423205D01*
G01X18220292Y-1417363D01*
G01X18231722Y-1405933D01*
G01X18237564Y-1388915D01*
G01X18237564Y-1377485D01*
G01X18231722Y-1360213D01*
G01X18220292Y-1348783D01*
G01X18208862Y-1343195D01*
G01X18191844Y-1343195D01*
G01X18285316Y-1343195D02*
G01X18285316Y-1463083D01*
G01X18285316Y-1360213D02*
G01X18296746Y-1348783D01*
G01X18308176Y-1343195D01*
G01X18325448Y-1343195D01*
G01X18336878Y-1348783D01*
G01X18348308Y-1360213D01*
G01X18353896Y-1377485D01*
G01X18353896Y-1388915D01*
G01X18348308Y-1405933D01*
G01X18336878Y-1417363D01*
G01X18325448Y-1423205D01*
G01X18308176Y-1423205D01*
G01X18296746Y-1417363D01*
G01X18285316Y-1405933D01*
G01X18529664Y-1303063D02*
G01X18529664Y-1423205D01*
G01X18529664Y-1423205D02*
G01X18598244Y-1423205D01*
G01X18714576Y-1343195D02*
G01X18714576Y-1423205D01*
G01X18714576Y-1360213D02*
G01X18703146Y-1348783D01*
G01X18691716Y-1343195D01*
G01X18674698Y-1343195D01*
G01X18663268Y-1348783D01*
G01X18651838Y-1360213D01*
G01X18645996Y-1377485D01*
G01X18645996Y-1388915D01*
G01X18651838Y-1405933D01*
G01X18663268Y-1417363D01*
G01X18674698Y-1423205D01*
G01X18691716Y-1423205D01*
G01X18703146Y-1417363D01*
G01X18714576Y-1405933D01*
G01X18768170Y-1343195D02*
G01X18802460Y-1423205D01*
G01X18836750Y-1343195D02*
G01X18802460Y-1423205D01*
G01X18791030Y-1446065D01*
G01X18779600Y-1457495D01*
G01X18768170Y-1463083D01*
G01X18762328Y-1463083D01*
G01X18884502Y-1377485D02*
G01X18953082Y-1377485D01*
G01X18953082Y-1366055D01*
G01X18947494Y-1354625D01*
G01X18941652Y-1348783D01*
G01X18930222Y-1343195D01*
G01X18913204Y-1343195D01*
G01X18901774Y-1348783D01*
G01X18890344Y-1360213D01*
G01X18884502Y-1377485D01*
G01X18884502Y-1388915D01*
G01X18890344Y-1405933D01*
G01X18901774Y-1417363D01*
G01X18913204Y-1423205D01*
G01X18930222Y-1423205D01*
G01X18941652Y-1417363D01*
G01X18953082Y-1405933D01*
G01X19000834Y-1343195D02*
G01X19000834Y-1423205D01*
G01X19000834Y-1377485D02*
G01X19006676Y-1360213D01*
G01X19018106Y-1348783D01*
G01X19029536Y-1343195D01*
G01X19046554Y-1343195D01*
G01X19094306Y-1371643D02*
G01X19197176Y-1371643D01*
G01X19244928Y-1303063D02*
G01X19244928Y-1423205D01*
G01X19244928Y-1303063D02*
G01X19296490Y-1303063D01*
G01X19313508Y-1308905D01*
G01X19319350Y-1314493D01*
G01X19324938Y-1325923D01*
G01X19324938Y-1337353D01*
G01X19319350Y-1348783D01*
G01X19313508Y-1354625D01*
G01X19296490Y-1360213D01*
G01X19244928Y-1360213D02*
G01X19296490Y-1360213D01*
G01X19313508Y-1366055D01*
G01X19319350Y-1371643D01*
G01X19324938Y-1383073D01*
G01X19324938Y-1400345D01*
G01X19319350Y-1411775D01*
G01X19313508Y-1417363D01*
G01X19296490Y-1423205D01*
G01X19244928Y-1423205D01*
G01X19401392Y-1343195D02*
G01X19389962Y-1348783D01*
G01X19378532Y-1360213D01*
G01X19372690Y-1377485D01*
G01X19372690Y-1388915D01*
G01X19378532Y-1405933D01*
G01X19389962Y-1417363D01*
G01X19401392Y-1423205D01*
G01X19418410Y-1423205D01*
G01X19429840Y-1417363D01*
G01X19441270Y-1405933D01*
G01X19447112Y-1388915D01*
G01X19447112Y-1377485D01*
G01X19441270Y-1360213D01*
G01X19429840Y-1348783D01*
G01X19418410Y-1343195D01*
G01X19401392Y-1343195D01*
G01X19512136Y-1303063D02*
G01X19512136Y-1400345D01*
G01X19517724Y-1417363D01*
G01X19529154Y-1423205D01*
G01X19540584Y-1423205D01*
G01X19494864Y-1343195D02*
G01X19534996Y-1343195D01*
G01X19605608Y-1303063D02*
G01X19605608Y-1400345D01*
G01X19611196Y-1417363D01*
G01X19622626Y-1423205D01*
G01X19634056Y-1423205D01*
G01X19588336Y-1343195D02*
G01X19628468Y-1343195D01*
G01X19710510Y-1343195D02*
G01X19699080Y-1348783D01*
G01X19687650Y-1360213D01*
G01X19681808Y-1377485D01*
G01X19681808Y-1388915D01*
G01X19687650Y-1405933D01*
G01X19699080Y-1417363D01*
G01X19710510Y-1423205D01*
G01X19727528Y-1423205D01*
G01X19738958Y-1417363D01*
G01X19750388Y-1405933D01*
G01X19756230Y-1388915D01*
G01X19756230Y-1377485D01*
G01X19750388Y-1360213D01*
G01X19738958Y-1348783D01*
G01X19727528Y-1343195D01*
G01X19710510Y-1343195D01*
G01X19803982Y-1343195D02*
G01X19803982Y-1423205D01*
G01X19803982Y-1366055D02*
G01X19821254Y-1348783D01*
G01X19832684Y-1343195D01*
G01X19849702Y-1343195D01*
G01X19861132Y-1348783D01*
G01X19866974Y-1366055D01*
G01X19866974Y-1423205D01*
G01X19866974Y-1366055D02*
G01X19883992Y-1348783D01*
G01X19895422Y-1343195D01*
G01X19912694Y-1343195D01*
G01X19924124Y-1348783D01*
G01X19929712Y-1366055D01*
G01X19929712Y-1423205D01*
G01X20105480Y-1303063D02*
G01X20105480Y-1423205D01*
G01X20105480Y-1423205D02*
G01X20174060Y-1423205D01*
G01X20290392Y-1343195D02*
G01X20290392Y-1423205D01*
G01X20290392Y-1360213D02*
G01X20278962Y-1348783D01*
G01X20267532Y-1343195D01*
G01X20250514Y-1343195D01*
G01X20239084Y-1348783D01*
G01X20227654Y-1360213D01*
G01X20221812Y-1377485D01*
G01X20221812Y-1388915D01*
G01X20227654Y-1405933D01*
G01X20239084Y-1417363D01*
G01X20250514Y-1423205D01*
G01X20267532Y-1423205D01*
G01X20278962Y-1417363D01*
G01X20290392Y-1405933D01*
G01X20343986Y-1343195D02*
G01X20378276Y-1423205D01*
G01X20412566Y-1343195D02*
G01X20378276Y-1423205D01*
G01X20366846Y-1446065D01*
G01X20355416Y-1457495D01*
G01X20343986Y-1463083D01*
G01X20338144Y-1463083D01*
G01X20460318Y-1377485D02*
G01X20528898Y-1377485D01*
G01X20528898Y-1366055D01*
G01X20523310Y-1354625D01*
G01X20517468Y-1348783D01*
G01X20506038Y-1343195D01*
G01X20489020Y-1343195D01*
G01X20477590Y-1348783D01*
G01X20466160Y-1360213D01*
G01X20460318Y-1377485D01*
G01X20460318Y-1388915D01*
G01X20466160Y-1405933D01*
G01X20477590Y-1417363D01*
G01X20489020Y-1423205D01*
G01X20506038Y-1423205D01*
G01X20517468Y-1417363D01*
G01X20528898Y-1405933D01*
G01X20576650Y-1343195D02*
G01X20576650Y-1423205D01*
G01X20576650Y-1377485D02*
G01X20582492Y-1360213D01*
G01X20593922Y-1348783D01*
G01X20605352Y-1343195D01*
G01X20622370Y-1343195D01*
G01X6249925Y-1883634D02*
G01X6232653Y-1889476D01*
G01X6227065Y-1900906D01*
G01X6227065Y-1912336D01*
G01X6232653Y-1923766D01*
G01X6244083Y-1929354D01*
G01X6266943Y-1935196D01*
G01X6284215Y-1940784D01*
G01X6295645Y-1952214D01*
G01X6301233Y-1963644D01*
G01X6301233Y-1980916D01*
G01X6295645Y-1992346D01*
G01X6289803Y-1997934D01*
G01X6272785Y-2003776D01*
G01X6249925Y-2003776D01*
G01X6232653Y-1997934D01*
G01X6227065Y-1992346D01*
G01X6221223Y-1980916D01*
G01X6221223Y-1963644D01*
G01X6227065Y-1952214D01*
G01X6238495Y-1940784D01*
G01X6255513Y-1935196D01*
G01X6278373Y-1929354D01*
G01X6289803Y-1923766D01*
G01X6295645Y-1912336D01*
G01X6295645Y-1900906D01*
G01X6289803Y-1889476D01*
G01X6272785Y-1883634D01*
G01X6249925Y-1883634D01*
G01X7692536Y-1883634D02*
G01X7635386Y-1963644D01*
G01X7721238Y-1963644D01*
G01X7692536Y-1883634D02*
G01X7692536Y-2003776D01*
G01X7849000Y-1883634D02*
G01X7791850Y-2003776D01*
G01X7768990Y-1883634D02*
G01X7849000Y-1883634D01*
G01X7902594Y-1975074D02*
G01X7896752Y-1980916D01*
G01X7902594Y-1986504D01*
G01X7908182Y-1980916D01*
G01X7902594Y-1975074D01*
G01X7961776Y-1912336D02*
G01X7961776Y-1906494D01*
G01X7967364Y-1895064D01*
G01X7973206Y-1889476D01*
G01X7984636Y-1883634D01*
G01X8007496Y-1883634D01*
G01X8018926Y-1889476D01*
G01X8024514Y-1895064D01*
G01X8030356Y-1906494D01*
G01X8030356Y-1917924D01*
G01X8024514Y-1929354D01*
G01X8013084Y-1946626D01*
G01X7955934Y-2003776D01*
G01X8035944Y-2003776D01*
G01X8083696Y-1923766D02*
G01X8146688Y-2003776D01*
G01X8146688Y-1923766D02*
G01X8083696Y-2003776D01*
G01X8251590Y-1883634D02*
G01X8194440Y-1963644D01*
G01X8280292Y-1963644D01*
G01X8251590Y-1883634D02*
G01X8251590Y-2003776D01*
G01X8408054Y-1883634D02*
G01X8350904Y-2003776D01*
G01X8328044Y-1883634D02*
G01X8408054Y-1883634D01*
G01X8461648Y-1975074D02*
G01X8455806Y-1980916D01*
G01X8461648Y-1986504D01*
G01X8467236Y-1980916D01*
G01X8461648Y-1975074D01*
G01X8520830Y-1912336D02*
G01X8520830Y-1906494D01*
G01X8526418Y-1895064D01*
G01X8532260Y-1889476D01*
G01X8543690Y-1883634D01*
G01X8566550Y-1883634D01*
G01X8577980Y-1889476D01*
G01X8583568Y-1895064D01*
G01X8589410Y-1906494D01*
G01X8589410Y-1917924D01*
G01X8583568Y-1929354D01*
G01X8572138Y-1946626D01*
G01X8514988Y-2003776D01*
G01X8594998Y-2003776D01*
G01X8642750Y-1923766D02*
G01X8642750Y-2003776D01*
G01X8642750Y-1946626D02*
G01X8660022Y-1929354D01*
G01X8671452Y-1923766D01*
G01X8688470Y-1923766D01*
G01X8699900Y-1929354D01*
G01X8705742Y-1946626D01*
G01X8705742Y-2003776D01*
G01X8705742Y-1946626D02*
G01X8722760Y-1929354D01*
G01X8734190Y-1923766D01*
G01X8751462Y-1923766D01*
G01X8762892Y-1929354D01*
G01X8768480Y-1946626D01*
G01X8768480Y-2003776D01*
G01X8816232Y-1883634D02*
G01X8822074Y-1889476D01*
G01X8827662Y-1883634D01*
G01X8822074Y-1878046D01*
G01X8816232Y-1883634D01*
G01X8822074Y-1923766D02*
G01X8822074Y-2003776D01*
G01X8875414Y-1883634D02*
G01X8875414Y-2003776D01*
G01X8963298Y-1860774D02*
G01X8951868Y-1872204D01*
G01X8940438Y-1889476D01*
G01X8929008Y-1912336D01*
G01X8923166Y-1940784D01*
G01X8923166Y-1963644D01*
G01X8929008Y-1992346D01*
G01X8940438Y-2015206D01*
G01X8951868Y-2032224D01*
G01X8963298Y-2043654D01*
G01X9011050Y-1906494D02*
G01X9022480Y-1900906D01*
G01X9039752Y-1883634D01*
G01X9039752Y-2003776D01*
G01X9093346Y-1975074D02*
G01X9087504Y-1980916D01*
G01X9093346Y-1986504D01*
G01X9098934Y-1980916D01*
G01X9093346Y-1975074D01*
G01X9152528Y-1912336D02*
G01X9152528Y-1906494D01*
G01X9158116Y-1895064D01*
G01X9163958Y-1889476D01*
G01X9175388Y-1883634D01*
G01X9198248Y-1883634D01*
G01X9209678Y-1889476D01*
G01X9215266Y-1895064D01*
G01X9221108Y-1906494D01*
G01X9221108Y-1917924D01*
G01X9215266Y-1929354D01*
G01X9203836Y-1946626D01*
G01X9146686Y-2003776D01*
G01X9226696Y-2003776D01*
G01X9308738Y-1883634D02*
G01X9291720Y-1889476D01*
G01X9280290Y-1906494D01*
G01X9274448Y-1935196D01*
G01X9274448Y-1952214D01*
G01X9280290Y-1980916D01*
G01X9291720Y-1997934D01*
G01X9308738Y-2003776D01*
G01X9320168Y-2003776D01*
G01X9337440Y-1997934D01*
G01X9348870Y-1980916D01*
G01X9354458Y-1952214D01*
G01X9354458Y-1935196D01*
G01X9348870Y-1906494D01*
G01X9337440Y-1889476D01*
G01X9320168Y-1883634D01*
G01X9308738Y-1883634D01*
G01X9436500Y-1883634D02*
G01X9419482Y-1889476D01*
G01X9408052Y-1906494D01*
G01X9402210Y-1935196D01*
G01X9402210Y-1952214D01*
G01X9408052Y-1980916D01*
G01X9419482Y-1997934D01*
G01X9436500Y-2003776D01*
G01X9447930Y-2003776D01*
G01X9465202Y-1997934D01*
G01X9476632Y-1980916D01*
G01X9482220Y-1952214D01*
G01X9482220Y-1935196D01*
G01X9476632Y-1906494D01*
G01X9465202Y-1889476D01*
G01X9447930Y-1883634D01*
G01X9436500Y-1883634D01*
G01X9529972Y-1923766D02*
G01X9592964Y-2003776D01*
G01X9592964Y-1923766D02*
G01X9529972Y-2003776D01*
G01X9640716Y-1906494D02*
G01X9652146Y-1900906D01*
G01X9669418Y-1883634D01*
G01X9669418Y-2003776D01*
G01X9723012Y-1975074D02*
G01X9717170Y-1980916D01*
G01X9723012Y-1986504D01*
G01X9728600Y-1980916D01*
G01X9723012Y-1975074D01*
G01X9782194Y-1912336D02*
G01X9782194Y-1906494D01*
G01X9787782Y-1895064D01*
G01X9793624Y-1889476D01*
G01X9805054Y-1883634D01*
G01X9827914Y-1883634D01*
G01X9839344Y-1889476D01*
G01X9844932Y-1895064D01*
G01X9850774Y-1906494D01*
G01X9850774Y-1917924D01*
G01X9844932Y-1929354D01*
G01X9833502Y-1946626D01*
G01X9776352Y-2003776D01*
G01X9856362Y-2003776D01*
G01X9938404Y-1883634D02*
G01X9921386Y-1889476D01*
G01X9909956Y-1906494D01*
G01X9904114Y-1935196D01*
G01X9904114Y-1952214D01*
G01X9909956Y-1980916D01*
G01X9921386Y-1997934D01*
G01X9938404Y-2003776D01*
G01X9949834Y-2003776D01*
G01X9967106Y-1997934D01*
G01X9978536Y-1980916D01*
G01X9984124Y-1952214D01*
G01X9984124Y-1935196D01*
G01X9978536Y-1906494D01*
G01X9967106Y-1889476D01*
G01X9949834Y-1883634D01*
G01X9938404Y-1883634D01*
G01X10066166Y-1883634D02*
G01X10049148Y-1889476D01*
G01X10037718Y-1906494D01*
G01X10031876Y-1935196D01*
G01X10031876Y-1952214D01*
G01X10037718Y-1980916D01*
G01X10049148Y-1997934D01*
G01X10066166Y-2003776D01*
G01X10077596Y-2003776D01*
G01X10094868Y-1997934D01*
G01X10106298Y-1980916D01*
G01X10111886Y-1952214D01*
G01X10111886Y-1935196D01*
G01X10106298Y-1906494D01*
G01X10094868Y-1889476D01*
G01X10077596Y-1883634D01*
G01X10066166Y-1883634D01*
G01X10159638Y-1923766D02*
G01X10159638Y-2003776D01*
G01X10159638Y-1946626D02*
G01X10176910Y-1929354D01*
G01X10188340Y-1923766D01*
G01X10205358Y-1923766D01*
G01X10216788Y-1929354D01*
G01X10222630Y-1946626D01*
G01X10222630Y-2003776D01*
G01X10222630Y-1946626D02*
G01X10239648Y-1929354D01*
G01X10251078Y-1923766D01*
G01X10268350Y-1923766D01*
G01X10279780Y-1929354D01*
G01X10285368Y-1946626D01*
G01X10285368Y-2003776D01*
G01X10333120Y-1923766D02*
G01X10333120Y-2003776D01*
G01X10333120Y-1946626D02*
G01X10350392Y-1929354D01*
G01X10361822Y-1923766D01*
G01X10378840Y-1923766D01*
G01X10390270Y-1929354D01*
G01X10396112Y-1946626D01*
G01X10396112Y-2003776D01*
G01X10396112Y-1946626D02*
G01X10413130Y-1929354D01*
G01X10424560Y-1923766D01*
G01X10441832Y-1923766D01*
G01X10453262Y-1929354D01*
G01X10458850Y-1946626D01*
G01X10458850Y-2003776D01*
G01X10506602Y-1860774D02*
G01X10518032Y-1872204D01*
G01X10529462Y-1889476D01*
G01X10540892Y-1912336D01*
G01X10546734Y-1940784D01*
G01X10546734Y-1963644D01*
G01X10540892Y-1992346D01*
G01X10529462Y-2015206D01*
G01X10518032Y-2032224D01*
G01X10506602Y-2043654D01*
G01X11554243Y-1883634D02*
G01X11554243Y-2003776D01*
G01X11554243Y-1883634D02*
G01X11605805Y-1883634D01*
G01X11622823Y-1889476D01*
G01X11628665Y-1895064D01*
G01X11634253Y-1906494D01*
G01X11634253Y-1923766D01*
G01X11628665Y-1935196D01*
G01X11622823Y-1940784D01*
G01X11605805Y-1946626D01*
G01X11554243Y-1946626D01*
G01X11722137Y-1883634D02*
G01X11722137Y-2003776D01*
G01X11682005Y-1883634D02*
G01X11762015Y-1883634D01*
G01X11809767Y-1883634D02*
G01X11809767Y-2003776D01*
G01X11889777Y-1883634D02*
G01X11889777Y-2003776D01*
G01X11809767Y-1940784D02*
G01X11889777Y-1940784D01*
G01X13015651Y-1883634D02*
G01X13015651Y-2003776D01*
G01X13015651Y-1883634D02*
G01X13067213Y-1883634D01*
G01X13084231Y-1889476D01*
G01X13090073Y-1895064D01*
G01X13095661Y-1906494D01*
G01X13095661Y-1917924D01*
G01X13090073Y-1929354D01*
G01X13084231Y-1935196D01*
G01X13067213Y-1940784D01*
G01X13015651Y-1940784D01*
G01X13055783Y-1940784D02*
G01X13095661Y-2003776D01*
G01X13172115Y-1923766D02*
G01X13160685Y-1929354D01*
G01X13149255Y-1940784D01*
G01X13143413Y-1958056D01*
G01X13143413Y-1969486D01*
G01X13149255Y-1986504D01*
G01X13160685Y-1997934D01*
G01X13172115Y-2003776D01*
G01X13189133Y-2003776D01*
G01X13200563Y-1997934D01*
G01X13211993Y-1986504D01*
G01X13217835Y-1969486D01*
G01X13217835Y-1958056D01*
G01X13211993Y-1940784D01*
G01X13200563Y-1929354D01*
G01X13189133Y-1923766D01*
G01X13172115Y-1923766D01*
G01X13265587Y-1923766D02*
G01X13265587Y-1980916D01*
G01X13271429Y-1997934D01*
G01X13282859Y-2003776D01*
G01X13299877Y-2003776D01*
G01X13311307Y-1997934D01*
G01X13328579Y-1980916D01*
G01X13328579Y-1923766D02*
G01X13328579Y-2003776D01*
G01X13376331Y-1923766D02*
G01X13376331Y-2003776D01*
G01X13376331Y-1946626D02*
G01X13393603Y-1929354D01*
G01X13405033Y-1923766D01*
G01X13422051Y-1923766D01*
G01X13433481Y-1929354D01*
G01X13439323Y-1946626D01*
G01X13439323Y-2003776D01*
G01X13555655Y-1883634D02*
G01X13555655Y-2003776D01*
G01X13555655Y-1940784D02*
G01X13544225Y-1929354D01*
G01X13532795Y-1923766D01*
G01X13515777Y-1923766D01*
G01X13504347Y-1929354D01*
G01X13492917Y-1940784D01*
G01X13487075Y-1958056D01*
G01X13487075Y-1969486D01*
G01X13492917Y-1986504D01*
G01X13504347Y-1997934D01*
G01X13515777Y-2003776D01*
G01X13532795Y-2003776D01*
G01X13544225Y-1997934D01*
G01X13555655Y-1986504D01*
G01X14446832Y-1883634D02*
G01X14446832Y-2003776D01*
G01X14446832Y-1883634D02*
G01X14498394Y-1883634D01*
G01X14515412Y-1889476D01*
G01X14521254Y-1895064D01*
G01X14526842Y-1906494D01*
G01X14526842Y-1923766D01*
G01X14521254Y-1935196D01*
G01X14515412Y-1940784D01*
G01X14498394Y-1946626D01*
G01X14446832Y-1946626D01*
G01X14643174Y-1923766D02*
G01X14643174Y-2003776D01*
G01X14643174Y-1940784D02*
G01X14631744Y-1929354D01*
G01X14620314Y-1923766D01*
G01X14603296Y-1923766D01*
G01X14591866Y-1929354D01*
G01X14580436Y-1940784D01*
G01X14574594Y-1958056D01*
G01X14574594Y-1969486D01*
G01X14580436Y-1986504D01*
G01X14591866Y-1997934D01*
G01X14603296Y-2003776D01*
G01X14620314Y-2003776D01*
G01X14631744Y-1997934D01*
G01X14643174Y-1986504D01*
G01X14759506Y-1883634D02*
G01X14759506Y-2003776D01*
G01X14759506Y-1940784D02*
G01X14748076Y-1929354D01*
G01X14736646Y-1923766D01*
G01X14719628Y-1923766D01*
G01X14708198Y-1929354D01*
G01X14696768Y-1940784D01*
G01X14690926Y-1958056D01*
G01X14690926Y-1969486D01*
G01X14696768Y-1986504D01*
G01X14708198Y-1997934D01*
G01X14719628Y-2003776D01*
G01X14736646Y-2003776D01*
G01X14748076Y-1997934D01*
G01X14759506Y-1986504D01*
G01X16116011Y-1883634D02*
G01X16116011Y-2003776D01*
G01X16116011Y-1883634D02*
G01X16167573Y-1883634D01*
G01X16184591Y-1889476D01*
G01X16190433Y-1895064D01*
G01X16196021Y-1906494D01*
G01X16196021Y-1917924D01*
G01X16190433Y-1929354D01*
G01X16184591Y-1935196D01*
G01X16167573Y-1940784D01*
G01X16116011Y-1940784D01*
G01X16156143Y-1940784D02*
G01X16196021Y-2003776D01*
G01X16272475Y-1923766D02*
G01X16261045Y-1929354D01*
G01X16249615Y-1940784D01*
G01X16243773Y-1958056D01*
G01X16243773Y-1969486D01*
G01X16249615Y-1986504D01*
G01X16261045Y-1997934D01*
G01X16272475Y-2003776D01*
G01X16289493Y-2003776D01*
G01X16300923Y-1997934D01*
G01X16312353Y-1986504D01*
G01X16318195Y-1969486D01*
G01X16318195Y-1958056D01*
G01X16312353Y-1940784D01*
G01X16300923Y-1929354D01*
G01X16289493Y-1923766D01*
G01X16272475Y-1923766D01*
G01X16365947Y-1923766D02*
G01X16365947Y-1980916D01*
G01X16371789Y-1997934D01*
G01X16383219Y-2003776D01*
G01X16400237Y-2003776D01*
G01X16411667Y-1997934D01*
G01X16428939Y-1980916D01*
G01X16428939Y-1923766D02*
G01X16428939Y-2003776D01*
G01X16476691Y-1923766D02*
G01X16476691Y-2003776D01*
G01X16476691Y-1946626D02*
G01X16493963Y-1929354D01*
G01X16505393Y-1923766D01*
G01X16522411Y-1923766D01*
G01X16533841Y-1929354D01*
G01X16539683Y-1946626D01*
G01X16539683Y-2003776D01*
G01X16656015Y-1883634D02*
G01X16656015Y-2003776D01*
G01X16656015Y-1940784D02*
G01X16644585Y-1929354D01*
G01X16633155Y-1923766D01*
G01X16616137Y-1923766D01*
G01X16604707Y-1929354D01*
G01X16593277Y-1940784D01*
G01X16587435Y-1958056D01*
G01X16587435Y-1969486D01*
G01X16593277Y-1986504D01*
G01X16604707Y-1997934D01*
G01X16616137Y-2003776D01*
G01X16633155Y-2003776D01*
G01X16644585Y-1997934D01*
G01X16656015Y-1986504D01*
G01X18075512Y-1883634D02*
G01X18075512Y-2003776D01*
G01X18035380Y-1883634D02*
G01X18115390Y-1883634D01*
G01X18191844Y-1923766D02*
G01X18180414Y-1929354D01*
G01X18168984Y-1940784D01*
G01X18163142Y-1958056D01*
G01X18163142Y-1969486D01*
G01X18168984Y-1986504D01*
G01X18180414Y-1997934D01*
G01X18191844Y-2003776D01*
G01X18208862Y-2003776D01*
G01X18220292Y-1997934D01*
G01X18231722Y-1986504D01*
G01X18237564Y-1969486D01*
G01X18237564Y-1958056D01*
G01X18231722Y-1940784D01*
G01X18220292Y-1929354D01*
G01X18208862Y-1923766D01*
G01X18191844Y-1923766D01*
G01X18285316Y-1923766D02*
G01X18285316Y-2043654D01*
G01X18285316Y-1940784D02*
G01X18296746Y-1929354D01*
G01X18308176Y-1923766D01*
G01X18325448Y-1923766D01*
G01X18336878Y-1929354D01*
G01X18348308Y-1940784D01*
G01X18353896Y-1958056D01*
G01X18353896Y-1969486D01*
G01X18348308Y-1986504D01*
G01X18336878Y-1997934D01*
G01X18325448Y-2003776D01*
G01X18308176Y-2003776D01*
G01X18296746Y-1997934D01*
G01X18285316Y-1986504D01*
G01X18529664Y-1883634D02*
G01X18529664Y-2003776D01*
G01X18529664Y-2003776D02*
G01X18598244Y-2003776D01*
G01X18714576Y-1923766D02*
G01X18714576Y-2003776D01*
G01X18714576Y-1940784D02*
G01X18703146Y-1929354D01*
G01X18691716Y-1923766D01*
G01X18674698Y-1923766D01*
G01X18663268Y-1929354D01*
G01X18651838Y-1940784D01*
G01X18645996Y-1958056D01*
G01X18645996Y-1969486D01*
G01X18651838Y-1986504D01*
G01X18663268Y-1997934D01*
G01X18674698Y-2003776D01*
G01X18691716Y-2003776D01*
G01X18703146Y-1997934D01*
G01X18714576Y-1986504D01*
G01X18768170Y-1923766D02*
G01X18802460Y-2003776D01*
G01X18836750Y-1923766D02*
G01X18802460Y-2003776D01*
G01X18791030Y-2026636D01*
G01X18779600Y-2038066D01*
G01X18768170Y-2043654D01*
G01X18762328Y-2043654D01*
G01X18884502Y-1958056D02*
G01X18953082Y-1958056D01*
G01X18953082Y-1946626D01*
G01X18947494Y-1935196D01*
G01X18941652Y-1929354D01*
G01X18930222Y-1923766D01*
G01X18913204Y-1923766D01*
G01X18901774Y-1929354D01*
G01X18890344Y-1940784D01*
G01X18884502Y-1958056D01*
G01X18884502Y-1969486D01*
G01X18890344Y-1986504D01*
G01X18901774Y-1997934D01*
G01X18913204Y-2003776D01*
G01X18930222Y-2003776D01*
G01X18941652Y-1997934D01*
G01X18953082Y-1986504D01*
G01X19000834Y-1923766D02*
G01X19000834Y-2003776D01*
G01X19000834Y-1958056D02*
G01X19006676Y-1940784D01*
G01X19018106Y-1929354D01*
G01X19029536Y-1923766D01*
G01X19046554Y-1923766D01*
G01X19094306Y-1952214D02*
G01X19197176Y-1952214D01*
G01X19244928Y-1883634D02*
G01X19244928Y-2003776D01*
G01X19244928Y-1883634D02*
G01X19296490Y-1883634D01*
G01X19313508Y-1889476D01*
G01X19319350Y-1895064D01*
G01X19324938Y-1906494D01*
G01X19324938Y-1917924D01*
G01X19319350Y-1929354D01*
G01X19313508Y-1935196D01*
G01X19296490Y-1940784D01*
G01X19244928Y-1940784D02*
G01X19296490Y-1940784D01*
G01X19313508Y-1946626D01*
G01X19319350Y-1952214D01*
G01X19324938Y-1963644D01*
G01X19324938Y-1980916D01*
G01X19319350Y-1992346D01*
G01X19313508Y-1997934D01*
G01X19296490Y-2003776D01*
G01X19244928Y-2003776D01*
G01X19401392Y-1923766D02*
G01X19389962Y-1929354D01*
G01X19378532Y-1940784D01*
G01X19372690Y-1958056D01*
G01X19372690Y-1969486D01*
G01X19378532Y-1986504D01*
G01X19389962Y-1997934D01*
G01X19401392Y-2003776D01*
G01X19418410Y-2003776D01*
G01X19429840Y-1997934D01*
G01X19441270Y-1986504D01*
G01X19447112Y-1969486D01*
G01X19447112Y-1958056D01*
G01X19441270Y-1940784D01*
G01X19429840Y-1929354D01*
G01X19418410Y-1923766D01*
G01X19401392Y-1923766D01*
G01X19512136Y-1883634D02*
G01X19512136Y-1980916D01*
G01X19517724Y-1997934D01*
G01X19529154Y-2003776D01*
G01X19540584Y-2003776D01*
G01X19494864Y-1923766D02*
G01X19534996Y-1923766D01*
G01X19605608Y-1883634D02*
G01X19605608Y-1980916D01*
G01X19611196Y-1997934D01*
G01X19622626Y-2003776D01*
G01X19634056Y-2003776D01*
G01X19588336Y-1923766D02*
G01X19628468Y-1923766D01*
G01X19710510Y-1923766D02*
G01X19699080Y-1929354D01*
G01X19687650Y-1940784D01*
G01X19681808Y-1958056D01*
G01X19681808Y-1969486D01*
G01X19687650Y-1986504D01*
G01X19699080Y-1997934D01*
G01X19710510Y-2003776D01*
G01X19727528Y-2003776D01*
G01X19738958Y-1997934D01*
G01X19750388Y-1986504D01*
G01X19756230Y-1969486D01*
G01X19756230Y-1958056D01*
G01X19750388Y-1940784D01*
G01X19738958Y-1929354D01*
G01X19727528Y-1923766D01*
G01X19710510Y-1923766D01*
G01X19803982Y-1923766D02*
G01X19803982Y-2003776D01*
G01X19803982Y-1946626D02*
G01X19821254Y-1929354D01*
G01X19832684Y-1923766D01*
G01X19849702Y-1923766D01*
G01X19861132Y-1929354D01*
G01X19866974Y-1946626D01*
G01X19866974Y-2003776D01*
G01X19866974Y-1946626D02*
G01X19883992Y-1929354D01*
G01X19895422Y-1923766D01*
G01X19912694Y-1923766D01*
G01X19924124Y-1929354D01*
G01X19929712Y-1946626D01*
G01X19929712Y-2003776D01*
G01X20105480Y-1883634D02*
G01X20105480Y-2003776D01*
G01X20105480Y-2003776D02*
G01X20174060Y-2003776D01*
G01X20290392Y-1923766D02*
G01X20290392Y-2003776D01*
G01X20290392Y-1940784D02*
G01X20278962Y-1929354D01*
G01X20267532Y-1923766D01*
G01X20250514Y-1923766D01*
G01X20239084Y-1929354D01*
G01X20227654Y-1940784D01*
G01X20221812Y-1958056D01*
G01X20221812Y-1969486D01*
G01X20227654Y-1986504D01*
G01X20239084Y-1997934D01*
G01X20250514Y-2003776D01*
G01X20267532Y-2003776D01*
G01X20278962Y-1997934D01*
G01X20290392Y-1986504D01*
G01X20343986Y-1923766D02*
G01X20378276Y-2003776D01*
G01X20412566Y-1923766D02*
G01X20378276Y-2003776D01*
G01X20366846Y-2026636D01*
G01X20355416Y-2038066D01*
G01X20343986Y-2043654D01*
G01X20338144Y-2043654D01*
G01X20460318Y-1958056D02*
G01X20528898Y-1958056D01*
G01X20528898Y-1946626D01*
G01X20523310Y-1935196D01*
G01X20517468Y-1929354D01*
G01X20506038Y-1923766D01*
G01X20489020Y-1923766D01*
G01X20477590Y-1929354D01*
G01X20466160Y-1940784D01*
G01X20460318Y-1958056D01*
G01X20460318Y-1969486D01*
G01X20466160Y-1986504D01*
G01X20477590Y-1997934D01*
G01X20489020Y-2003776D01*
G01X20506038Y-2003776D01*
G01X20517468Y-1997934D01*
G01X20528898Y-1986504D01*
G01X20576650Y-1923766D02*
G01X20576650Y-2003776D01*
G01X20576650Y-1958056D02*
G01X20582492Y-1940784D01*
G01X20593922Y-1929354D01*
G01X20605352Y-1923766D01*
G01X20622370Y-1923766D01*
G01X6227065Y-2492908D02*
G01X6227065Y-2487066D01*
G01X6232653Y-2475636D01*
G01X6238495Y-2470048D01*
G01X6249925Y-2464206D01*
G01X6272785Y-2464206D01*
G01X6284215Y-2470048D01*
G01X6289803Y-2475636D01*
G01X6295645Y-2487066D01*
G01X6295645Y-2498496D01*
G01X6289803Y-2509926D01*
G01X6278373Y-2527198D01*
G01X6221223Y-2584348D01*
G01X6301233Y-2584348D01*
G01X6354827Y-2492908D02*
G01X6354827Y-2487066D01*
G01X6360415Y-2475636D01*
G01X6366257Y-2470048D01*
G01X6377687Y-2464206D01*
G01X6400547Y-2464206D01*
G01X6411977Y-2470048D01*
G01X6417565Y-2475636D01*
G01X6423407Y-2487066D01*
G01X6423407Y-2498496D01*
G01X6417565Y-2509926D01*
G01X6406135Y-2527198D01*
G01X6348985Y-2584348D01*
G01X6428995Y-2584348D01*
G01X7646816Y-2464206D02*
G01X7709808Y-2464206D01*
G01X7675518Y-2509926D01*
G01X7692536Y-2509926D01*
G01X7703966Y-2515768D01*
G01X7709808Y-2521356D01*
G01X7715396Y-2538628D01*
G01X7715396Y-2550058D01*
G01X7709808Y-2567076D01*
G01X7698378Y-2578506D01*
G01X7681106Y-2584348D01*
G01X7664088Y-2584348D01*
G01X7646816Y-2578506D01*
G01X7641228Y-2572918D01*
G01X7635386Y-2561488D01*
G01X7837570Y-2504338D02*
G01X7831728Y-2521356D01*
G01X7820298Y-2532786D01*
G01X7803280Y-2538628D01*
G01X7797438Y-2538628D01*
G01X7780420Y-2532786D01*
G01X7768990Y-2521356D01*
G01X7763148Y-2504338D01*
G01X7763148Y-2498496D01*
G01X7768990Y-2481478D01*
G01X7780420Y-2470048D01*
G01X7797438Y-2464206D01*
G01X7803280Y-2464206D01*
G01X7820298Y-2470048D01*
G01X7831728Y-2481478D01*
G01X7837570Y-2504338D01*
G01X7837570Y-2532786D01*
G01X7831728Y-2561488D01*
G01X7820298Y-2578506D01*
G01X7803280Y-2584348D01*
G01X7791850Y-2584348D01*
G01X7774578Y-2578506D01*
G01X7768990Y-2567076D01*
G01X7891164Y-2555646D02*
G01X7885322Y-2561488D01*
G01X7891164Y-2567076D01*
G01X7896752Y-2561488D01*
G01X7891164Y-2555646D01*
G01X8001654Y-2464206D02*
G01X7944504Y-2544216D01*
G01X8030356Y-2544216D01*
G01X8001654Y-2464206D02*
G01X8001654Y-2584348D01*
G01X8078108Y-2504338D02*
G01X8141100Y-2584348D01*
G01X8141100Y-2504338D02*
G01X8078108Y-2584348D01*
G01X8200282Y-2464206D02*
G01X8263274Y-2464206D01*
G01X8228984Y-2509926D01*
G01X8246002Y-2509926D01*
G01X8257432Y-2515768D01*
G01X8263274Y-2521356D01*
G01X8268862Y-2538628D01*
G01X8268862Y-2550058D01*
G01X8263274Y-2567076D01*
G01X8251844Y-2578506D01*
G01X8234572Y-2584348D01*
G01X8217554Y-2584348D01*
G01X8200282Y-2578506D01*
G01X8194694Y-2572918D01*
G01X8188852Y-2561488D01*
G01X8391036Y-2504338D02*
G01X8385194Y-2521356D01*
G01X8373764Y-2532786D01*
G01X8356746Y-2538628D01*
G01X8350904Y-2538628D01*
G01X8333886Y-2532786D01*
G01X8322456Y-2521356D01*
G01X8316614Y-2504338D01*
G01X8316614Y-2498496D01*
G01X8322456Y-2481478D01*
G01X8333886Y-2470048D01*
G01X8350904Y-2464206D01*
G01X8356746Y-2464206D01*
G01X8373764Y-2470048D01*
G01X8385194Y-2481478D01*
G01X8391036Y-2504338D01*
G01X8391036Y-2532786D01*
G01X8385194Y-2561488D01*
G01X8373764Y-2578506D01*
G01X8356746Y-2584348D01*
G01X8345316Y-2584348D01*
G01X8328044Y-2578506D01*
G01X8322456Y-2567076D01*
G01X8444630Y-2555646D02*
G01X8438788Y-2561488D01*
G01X8444630Y-2567076D01*
G01X8450218Y-2561488D01*
G01X8444630Y-2555646D01*
G01X8555120Y-2464206D02*
G01X8497970Y-2544216D01*
G01X8583822Y-2544216D01*
G01X8555120Y-2464206D02*
G01X8555120Y-2584348D01*
G01X8631574Y-2504338D02*
G01X8631574Y-2584348D01*
G01X8631574Y-2527198D02*
G01X8648846Y-2509926D01*
G01X8660276Y-2504338D01*
G01X8677294Y-2504338D01*
G01X8688724Y-2509926D01*
G01X8694566Y-2527198D01*
G01X8694566Y-2584348D01*
G01X8694566Y-2527198D02*
G01X8711584Y-2509926D01*
G01X8723014Y-2504338D01*
G01X8740286Y-2504338D01*
G01X8751716Y-2509926D01*
G01X8757304Y-2527198D01*
G01X8757304Y-2584348D01*
G01X8805056Y-2464206D02*
G01X8810898Y-2470048D01*
G01X8816486Y-2464206D01*
G01X8810898Y-2458618D01*
G01X8805056Y-2464206D01*
G01X8810898Y-2504338D02*
G01X8810898Y-2584348D01*
G01X8864238Y-2464206D02*
G01X8864238Y-2584348D01*
G01X8952122Y-2441346D02*
G01X8940692Y-2452776D01*
G01X8929262Y-2470048D01*
G01X8917832Y-2492908D01*
G01X8911990Y-2521356D01*
G01X8911990Y-2544216D01*
G01X8917832Y-2572918D01*
G01X8929262Y-2595778D01*
G01X8940692Y-2612796D01*
G01X8952122Y-2624226D01*
G01X8999874Y-2487066D02*
G01X9011304Y-2481478D01*
G01X9028576Y-2464206D01*
G01X9028576Y-2584348D01*
G01X9082170Y-2555646D02*
G01X9076328Y-2561488D01*
G01X9082170Y-2567076D01*
G01X9087758Y-2561488D01*
G01X9082170Y-2555646D01*
G01X9169800Y-2464206D02*
G01X9152782Y-2470048D01*
G01X9141352Y-2487066D01*
G01X9135510Y-2515768D01*
G01X9135510Y-2532786D01*
G01X9141352Y-2561488D01*
G01X9152782Y-2578506D01*
G01X9169800Y-2584348D01*
G01X9181230Y-2584348D01*
G01X9198502Y-2578506D01*
G01X9209932Y-2561488D01*
G01X9215520Y-2532786D01*
G01X9215520Y-2515768D01*
G01X9209932Y-2487066D01*
G01X9198502Y-2470048D01*
G01X9181230Y-2464206D01*
G01X9169800Y-2464206D01*
G01X9297562Y-2464206D02*
G01X9280544Y-2470048D01*
G01X9269114Y-2487066D01*
G01X9263272Y-2515768D01*
G01X9263272Y-2532786D01*
G01X9269114Y-2561488D01*
G01X9280544Y-2578506D01*
G01X9297562Y-2584348D01*
G01X9308992Y-2584348D01*
G01X9326264Y-2578506D01*
G01X9337694Y-2561488D01*
G01X9343282Y-2532786D01*
G01X9343282Y-2515768D01*
G01X9337694Y-2487066D01*
G01X9326264Y-2470048D01*
G01X9308992Y-2464206D01*
G01X9297562Y-2464206D01*
G01X9425324Y-2464206D02*
G01X9408306Y-2470048D01*
G01X9396876Y-2487066D01*
G01X9391034Y-2515768D01*
G01X9391034Y-2532786D01*
G01X9396876Y-2561488D01*
G01X9408306Y-2578506D01*
G01X9425324Y-2584348D01*
G01X9436754Y-2584348D01*
G01X9454026Y-2578506D01*
G01X9465456Y-2561488D01*
G01X9471044Y-2532786D01*
G01X9471044Y-2515768D01*
G01X9465456Y-2487066D01*
G01X9454026Y-2470048D01*
G01X9436754Y-2464206D01*
G01X9425324Y-2464206D01*
G01X9518796Y-2504338D02*
G01X9581788Y-2584348D01*
G01X9581788Y-2504338D02*
G01X9518796Y-2584348D01*
G01X9629540Y-2487066D02*
G01X9640970Y-2481478D01*
G01X9658242Y-2464206D01*
G01X9658242Y-2584348D01*
G01X9711836Y-2555646D02*
G01X9705994Y-2561488D01*
G01X9711836Y-2567076D01*
G01X9717424Y-2561488D01*
G01X9711836Y-2555646D01*
G01X9799466Y-2464206D02*
G01X9782448Y-2470048D01*
G01X9771018Y-2487066D01*
G01X9765176Y-2515768D01*
G01X9765176Y-2532786D01*
G01X9771018Y-2561488D01*
G01X9782448Y-2578506D01*
G01X9799466Y-2584348D01*
G01X9810896Y-2584348D01*
G01X9828168Y-2578506D01*
G01X9839598Y-2561488D01*
G01X9845186Y-2532786D01*
G01X9845186Y-2515768D01*
G01X9839598Y-2487066D01*
G01X9828168Y-2470048D01*
G01X9810896Y-2464206D01*
G01X9799466Y-2464206D01*
G01X9927228Y-2464206D02*
G01X9910210Y-2470048D01*
G01X9898780Y-2487066D01*
G01X9892938Y-2515768D01*
G01X9892938Y-2532786D01*
G01X9898780Y-2561488D01*
G01X9910210Y-2578506D01*
G01X9927228Y-2584348D01*
G01X9938658Y-2584348D01*
G01X9955930Y-2578506D01*
G01X9967360Y-2561488D01*
G01X9972948Y-2532786D01*
G01X9972948Y-2515768D01*
G01X9967360Y-2487066D01*
G01X9955930Y-2470048D01*
G01X9938658Y-2464206D01*
G01X9927228Y-2464206D01*
G01X10054990Y-2464206D02*
G01X10037972Y-2470048D01*
G01X10026542Y-2487066D01*
G01X10020700Y-2515768D01*
G01X10020700Y-2532786D01*
G01X10026542Y-2561488D01*
G01X10037972Y-2578506D01*
G01X10054990Y-2584348D01*
G01X10066420Y-2584348D01*
G01X10083692Y-2578506D01*
G01X10095122Y-2561488D01*
G01X10100710Y-2532786D01*
G01X10100710Y-2515768D01*
G01X10095122Y-2487066D01*
G01X10083692Y-2470048D01*
G01X10066420Y-2464206D01*
G01X10054990Y-2464206D01*
G01X10148462Y-2504338D02*
G01X10148462Y-2584348D01*
G01X10148462Y-2527198D02*
G01X10165734Y-2509926D01*
G01X10177164Y-2504338D01*
G01X10194182Y-2504338D01*
G01X10205612Y-2509926D01*
G01X10211454Y-2527198D01*
G01X10211454Y-2584348D01*
G01X10211454Y-2527198D02*
G01X10228472Y-2509926D01*
G01X10239902Y-2504338D01*
G01X10257174Y-2504338D01*
G01X10268604Y-2509926D01*
G01X10274192Y-2527198D01*
G01X10274192Y-2584348D01*
G01X10321944Y-2504338D02*
G01X10321944Y-2584348D01*
G01X10321944Y-2527198D02*
G01X10339216Y-2509926D01*
G01X10350646Y-2504338D01*
G01X10367664Y-2504338D01*
G01X10379094Y-2509926D01*
G01X10384936Y-2527198D01*
G01X10384936Y-2584348D01*
G01X10384936Y-2527198D02*
G01X10401954Y-2509926D01*
G01X10413384Y-2504338D01*
G01X10430656Y-2504338D01*
G01X10442086Y-2509926D01*
G01X10447674Y-2527198D01*
G01X10447674Y-2584348D01*
G01X10495426Y-2441346D02*
G01X10506856Y-2452776D01*
G01X10518286Y-2470048D01*
G01X10529716Y-2492908D01*
G01X10535558Y-2521356D01*
G01X10535558Y-2544216D01*
G01X10529716Y-2572918D01*
G01X10518286Y-2595778D01*
G01X10506856Y-2612796D01*
G01X10495426Y-2624226D01*
G01X11554243Y-2464206D02*
G01X11554243Y-2584348D01*
G01X11554243Y-2464206D02*
G01X11605805Y-2464206D01*
G01X11622823Y-2470048D01*
G01X11628665Y-2475636D01*
G01X11634253Y-2487066D01*
G01X11634253Y-2504338D01*
G01X11628665Y-2515768D01*
G01X11622823Y-2521356D01*
G01X11605805Y-2527198D01*
G01X11554243Y-2527198D01*
G01X11722137Y-2464206D02*
G01X11722137Y-2584348D01*
G01X11682005Y-2464206D02*
G01X11762015Y-2464206D01*
G01X11809767Y-2464206D02*
G01X11809767Y-2584348D01*
G01X11889777Y-2464206D02*
G01X11889777Y-2584348D01*
G01X11809767Y-2521356D02*
G01X11889777Y-2521356D01*
G01X13015651Y-2464206D02*
G01X13015651Y-2584348D01*
G01X13015651Y-2464206D02*
G01X13067213Y-2464206D01*
G01X13084231Y-2470048D01*
G01X13090073Y-2475636D01*
G01X13095661Y-2487066D01*
G01X13095661Y-2498496D01*
G01X13090073Y-2509926D01*
G01X13084231Y-2515768D01*
G01X13067213Y-2521356D01*
G01X13015651Y-2521356D01*
G01X13055783Y-2521356D02*
G01X13095661Y-2584348D01*
G01X13172115Y-2504338D02*
G01X13160685Y-2509926D01*
G01X13149255Y-2521356D01*
G01X13143413Y-2538628D01*
G01X13143413Y-2550058D01*
G01X13149255Y-2567076D01*
G01X13160685Y-2578506D01*
G01X13172115Y-2584348D01*
G01X13189133Y-2584348D01*
G01X13200563Y-2578506D01*
G01X13211993Y-2567076D01*
G01X13217835Y-2550058D01*
G01X13217835Y-2538628D01*
G01X13211993Y-2521356D01*
G01X13200563Y-2509926D01*
G01X13189133Y-2504338D01*
G01X13172115Y-2504338D01*
G01X13265587Y-2504338D02*
G01X13265587Y-2561488D01*
G01X13271429Y-2578506D01*
G01X13282859Y-2584348D01*
G01X13299877Y-2584348D01*
G01X13311307Y-2578506D01*
G01X13328579Y-2561488D01*
G01X13328579Y-2504338D02*
G01X13328579Y-2584348D01*
G01X13376331Y-2504338D02*
G01X13376331Y-2584348D01*
G01X13376331Y-2527198D02*
G01X13393603Y-2509926D01*
G01X13405033Y-2504338D01*
G01X13422051Y-2504338D01*
G01X13433481Y-2509926D01*
G01X13439323Y-2527198D01*
G01X13439323Y-2584348D01*
G01X13555655Y-2464206D02*
G01X13555655Y-2584348D01*
G01X13555655Y-2521356D02*
G01X13544225Y-2509926D01*
G01X13532795Y-2504338D01*
G01X13515777Y-2504338D01*
G01X13504347Y-2509926D01*
G01X13492917Y-2521356D01*
G01X13487075Y-2538628D01*
G01X13487075Y-2550058D01*
G01X13492917Y-2567076D01*
G01X13504347Y-2578506D01*
G01X13515777Y-2584348D01*
G01X13532795Y-2584348D01*
G01X13544225Y-2578506D01*
G01X13555655Y-2567076D01*
G01X14446832Y-2464206D02*
G01X14446832Y-2584348D01*
G01X14446832Y-2464206D02*
G01X14498394Y-2464206D01*
G01X14515412Y-2470048D01*
G01X14521254Y-2475636D01*
G01X14526842Y-2487066D01*
G01X14526842Y-2504338D01*
G01X14521254Y-2515768D01*
G01X14515412Y-2521356D01*
G01X14498394Y-2527198D01*
G01X14446832Y-2527198D01*
G01X14643174Y-2504338D02*
G01X14643174Y-2584348D01*
G01X14643174Y-2521356D02*
G01X14631744Y-2509926D01*
G01X14620314Y-2504338D01*
G01X14603296Y-2504338D01*
G01X14591866Y-2509926D01*
G01X14580436Y-2521356D01*
G01X14574594Y-2538628D01*
G01X14574594Y-2550058D01*
G01X14580436Y-2567076D01*
G01X14591866Y-2578506D01*
G01X14603296Y-2584348D01*
G01X14620314Y-2584348D01*
G01X14631744Y-2578506D01*
G01X14643174Y-2567076D01*
G01X14759506Y-2464206D02*
G01X14759506Y-2584348D01*
G01X14759506Y-2521356D02*
G01X14748076Y-2509926D01*
G01X14736646Y-2504338D01*
G01X14719628Y-2504338D01*
G01X14708198Y-2509926D01*
G01X14696768Y-2521356D01*
G01X14690926Y-2538628D01*
G01X14690926Y-2550058D01*
G01X14696768Y-2567076D01*
G01X14708198Y-2578506D01*
G01X14719628Y-2584348D01*
G01X14736646Y-2584348D01*
G01X14748076Y-2578506D01*
G01X14759506Y-2567076D01*
G01X16156143Y-2441346D02*
G01X16144713Y-2452776D01*
G01X16133283Y-2470048D01*
G01X16121853Y-2492908D01*
G01X16116011Y-2521356D01*
G01X16116011Y-2544216D01*
G01X16121853Y-2572918D01*
G01X16133283Y-2595778D01*
G01X16144713Y-2612796D01*
G01X16156143Y-2624226D01*
G01X16203895Y-2464206D02*
G01X16203895Y-2584348D01*
G01X16203895Y-2464206D02*
G01X16249615Y-2584348D01*
G01X16295335Y-2464206D02*
G01X16249615Y-2584348D01*
G01X16295335Y-2464206D02*
G01X16295335Y-2584348D01*
G01X16343087Y-2464206D02*
G01X16348929Y-2470048D01*
G01X16354517Y-2464206D01*
G01X16348929Y-2458618D01*
G01X16343087Y-2464206D01*
G01X16348929Y-2504338D02*
G01X16348929Y-2584348D01*
G01X16402269Y-2504338D02*
G01X16465261Y-2584348D01*
G01X16465261Y-2504338D02*
G01X16402269Y-2584348D01*
G01X16513013Y-2538628D02*
G01X16581593Y-2538628D01*
G01X16581593Y-2527198D01*
G01X16576005Y-2515768D01*
G01X16570163Y-2509926D01*
G01X16558733Y-2504338D01*
G01X16541715Y-2504338D01*
G01X16530285Y-2509926D01*
G01X16518855Y-2521356D01*
G01X16513013Y-2538628D01*
G01X16513013Y-2550058D01*
G01X16518855Y-2567076D01*
G01X16530285Y-2578506D01*
G01X16541715Y-2584348D01*
G01X16558733Y-2584348D01*
G01X16570163Y-2578506D01*
G01X16581593Y-2567076D01*
G01X16697925Y-2464206D02*
G01X16697925Y-2584348D01*
G01X16697925Y-2521356D02*
G01X16686495Y-2509926D01*
G01X16675065Y-2504338D01*
G01X16658047Y-2504338D01*
G01X16646617Y-2509926D01*
G01X16635187Y-2521356D01*
G01X16629345Y-2538628D01*
G01X16629345Y-2550058D01*
G01X16635187Y-2567076D01*
G01X16646617Y-2578506D01*
G01X16658047Y-2584348D01*
G01X16675065Y-2584348D01*
G01X16686495Y-2578506D01*
G01X16697925Y-2567076D01*
G01X16745677Y-2441346D02*
G01X16757107Y-2452776D01*
G01X16768537Y-2470048D01*
G01X16779967Y-2492908D01*
G01X16785809Y-2521356D01*
G01X16785809Y-2544216D01*
G01X16779967Y-2572918D01*
G01X16768537Y-2595778D01*
G01X16757107Y-2612796D01*
G01X16745677Y-2624226D01*
G01X18075512Y-2464206D02*
G01X18075512Y-2584348D01*
G01X18035380Y-2464206D02*
G01X18115390Y-2464206D01*
G01X18191844Y-2504338D02*
G01X18180414Y-2509926D01*
G01X18168984Y-2521356D01*
G01X18163142Y-2538628D01*
G01X18163142Y-2550058D01*
G01X18168984Y-2567076D01*
G01X18180414Y-2578506D01*
G01X18191844Y-2584348D01*
G01X18208862Y-2584348D01*
G01X18220292Y-2578506D01*
G01X18231722Y-2567076D01*
G01X18237564Y-2550058D01*
G01X18237564Y-2538628D01*
G01X18231722Y-2521356D01*
G01X18220292Y-2509926D01*
G01X18208862Y-2504338D01*
G01X18191844Y-2504338D01*
G01X18285316Y-2504338D02*
G01X18285316Y-2624226D01*
G01X18285316Y-2521356D02*
G01X18296746Y-2509926D01*
G01X18308176Y-2504338D01*
G01X18325448Y-2504338D01*
G01X18336878Y-2509926D01*
G01X18348308Y-2521356D01*
G01X18353896Y-2538628D01*
G01X18353896Y-2550058D01*
G01X18348308Y-2567076D01*
G01X18336878Y-2578506D01*
G01X18325448Y-2584348D01*
G01X18308176Y-2584348D01*
G01X18296746Y-2578506D01*
G01X18285316Y-2567076D01*
G01X18529664Y-2464206D02*
G01X18529664Y-2584348D01*
G01X18529664Y-2584348D02*
G01X18598244Y-2584348D01*
G01X18714576Y-2504338D02*
G01X18714576Y-2584348D01*
G01X18714576Y-2521356D02*
G01X18703146Y-2509926D01*
G01X18691716Y-2504338D01*
G01X18674698Y-2504338D01*
G01X18663268Y-2509926D01*
G01X18651838Y-2521356D01*
G01X18645996Y-2538628D01*
G01X18645996Y-2550058D01*
G01X18651838Y-2567076D01*
G01X18663268Y-2578506D01*
G01X18674698Y-2584348D01*
G01X18691716Y-2584348D01*
G01X18703146Y-2578506D01*
G01X18714576Y-2567076D01*
G01X18768170Y-2504338D02*
G01X18802460Y-2584348D01*
G01X18836750Y-2504338D02*
G01X18802460Y-2584348D01*
G01X18791030Y-2607208D01*
G01X18779600Y-2618638D01*
G01X18768170Y-2624226D01*
G01X18762328Y-2624226D01*
G01X18884502Y-2538628D02*
G01X18953082Y-2538628D01*
G01X18953082Y-2527198D01*
G01X18947494Y-2515768D01*
G01X18941652Y-2509926D01*
G01X18930222Y-2504338D01*
G01X18913204Y-2504338D01*
G01X18901774Y-2509926D01*
G01X18890344Y-2521356D01*
G01X18884502Y-2538628D01*
G01X18884502Y-2550058D01*
G01X18890344Y-2567076D01*
G01X18901774Y-2578506D01*
G01X18913204Y-2584348D01*
G01X18930222Y-2584348D01*
G01X18941652Y-2578506D01*
G01X18953082Y-2567076D01*
G01X19000834Y-2504338D02*
G01X19000834Y-2584348D01*
G01X19000834Y-2538628D02*
G01X19006676Y-2521356D01*
G01X19018106Y-2509926D01*
G01X19029536Y-2504338D01*
G01X19046554Y-2504338D01*
G01X19094306Y-2532786D02*
G01X19197176Y-2532786D01*
G01X19244928Y-2464206D02*
G01X19244928Y-2584348D01*
G01X19244928Y-2464206D02*
G01X19296490Y-2464206D01*
G01X19313508Y-2470048D01*
G01X19319350Y-2475636D01*
G01X19324938Y-2487066D01*
G01X19324938Y-2498496D01*
G01X19319350Y-2509926D01*
G01X19313508Y-2515768D01*
G01X19296490Y-2521356D01*
G01X19244928Y-2521356D02*
G01X19296490Y-2521356D01*
G01X19313508Y-2527198D01*
G01X19319350Y-2532786D01*
G01X19324938Y-2544216D01*
G01X19324938Y-2561488D01*
G01X19319350Y-2572918D01*
G01X19313508Y-2578506D01*
G01X19296490Y-2584348D01*
G01X19244928Y-2584348D01*
G01X19401392Y-2504338D02*
G01X19389962Y-2509926D01*
G01X19378532Y-2521356D01*
G01X19372690Y-2538628D01*
G01X19372690Y-2550058D01*
G01X19378532Y-2567076D01*
G01X19389962Y-2578506D01*
G01X19401392Y-2584348D01*
G01X19418410Y-2584348D01*
G01X19429840Y-2578506D01*
G01X19441270Y-2567076D01*
G01X19447112Y-2550058D01*
G01X19447112Y-2538628D01*
G01X19441270Y-2521356D01*
G01X19429840Y-2509926D01*
G01X19418410Y-2504338D01*
G01X19401392Y-2504338D01*
G01X19512136Y-2464206D02*
G01X19512136Y-2561488D01*
G01X19517724Y-2578506D01*
G01X19529154Y-2584348D01*
G01X19540584Y-2584348D01*
G01X19494864Y-2504338D02*
G01X19534996Y-2504338D01*
G01X19605608Y-2464206D02*
G01X19605608Y-2561488D01*
G01X19611196Y-2578506D01*
G01X19622626Y-2584348D01*
G01X19634056Y-2584348D01*
G01X19588336Y-2504338D02*
G01X19628468Y-2504338D01*
G01X19710510Y-2504338D02*
G01X19699080Y-2509926D01*
G01X19687650Y-2521356D01*
G01X19681808Y-2538628D01*
G01X19681808Y-2550058D01*
G01X19687650Y-2567076D01*
G01X19699080Y-2578506D01*
G01X19710510Y-2584348D01*
G01X19727528Y-2584348D01*
G01X19738958Y-2578506D01*
G01X19750388Y-2567076D01*
G01X19756230Y-2550058D01*
G01X19756230Y-2538628D01*
G01X19750388Y-2521356D01*
G01X19738958Y-2509926D01*
G01X19727528Y-2504338D01*
G01X19710510Y-2504338D01*
G01X19803982Y-2504338D02*
G01X19803982Y-2584348D01*
G01X19803982Y-2527198D02*
G01X19821254Y-2509926D01*
G01X19832684Y-2504338D01*
G01X19849702Y-2504338D01*
G01X19861132Y-2509926D01*
G01X19866974Y-2527198D01*
G01X19866974Y-2584348D01*
G01X19866974Y-2527198D02*
G01X19883992Y-2509926D01*
G01X19895422Y-2504338D01*
G01X19912694Y-2504338D01*
G01X19924124Y-2509926D01*
G01X19929712Y-2527198D01*
G01X19929712Y-2584348D01*
G01X20105480Y-2464206D02*
G01X20105480Y-2584348D01*
G01X20105480Y-2584348D02*
G01X20174060Y-2584348D01*
G01X20290392Y-2504338D02*
G01X20290392Y-2584348D01*
G01X20290392Y-2521356D02*
G01X20278962Y-2509926D01*
G01X20267532Y-2504338D01*
G01X20250514Y-2504338D01*
G01X20239084Y-2509926D01*
G01X20227654Y-2521356D01*
G01X20221812Y-2538628D01*
G01X20221812Y-2550058D01*
G01X20227654Y-2567076D01*
G01X20239084Y-2578506D01*
G01X20250514Y-2584348D01*
G01X20267532Y-2584348D01*
G01X20278962Y-2578506D01*
G01X20290392Y-2567076D01*
G01X20343986Y-2504338D02*
G01X20378276Y-2584348D01*
G01X20412566Y-2504338D02*
G01X20378276Y-2584348D01*
G01X20366846Y-2607208D01*
G01X20355416Y-2618638D01*
G01X20343986Y-2624226D01*
G01X20338144Y-2624226D01*
G01X20460318Y-2538628D02*
G01X20528898Y-2538628D01*
G01X20528898Y-2527198D01*
G01X20523310Y-2515768D01*
G01X20517468Y-2509926D01*
G01X20506038Y-2504338D01*
G01X20489020Y-2504338D01*
G01X20477590Y-2509926D01*
G01X20466160Y-2521356D01*
G01X20460318Y-2538628D01*
G01X20460318Y-2550058D01*
G01X20466160Y-2567076D01*
G01X20477590Y-2578506D01*
G01X20489020Y-2584348D01*
G01X20506038Y-2584348D01*
G01X20517468Y-2578506D01*
G01X20528898Y-2567076D01*
G01X20576650Y-2504338D02*
G01X20576650Y-2584348D01*
G01X20576650Y-2538628D02*
G01X20582492Y-2521356D01*
G01X20593922Y-2509926D01*
G01X20605352Y-2504338D01*
G01X20622370Y-2504338D01*

G04 Image Start*
G36*
G01X5056611Y-903104D02*
G01X4950998Y-891623D01*
G01X4908123Y-988829D01*
G01X4865248Y-891623D01*
G01X4759635Y-903104D01*
G01X4822398Y-817379D01*
G01X4782676Y-763124D01*
G01X4814168Y-763124D01*
G01X4853869Y-817379D01*
G01X4814168Y-871633D01*
G01X4880996Y-864369D01*
G01X4880996Y-864369D01*
G01X4908123Y-925862D01*
G01X4935250Y-864369D01*
G01X5002078Y-871633D01*
G01X4962377Y-817379D01*
G01X5002052Y-763150D01*
G01X4935225Y-770414D01*
G01X4908123Y-708895D01*
G01X4880996Y-770389D01*
G01X4814168Y-763124D01*
G01X4782676Y-763124D01*
G01X4759635Y-731654D01*
G01X4865273Y-743134D01*
G01X4908123Y-645929D01*
G01X4950998Y-743134D01*
G01X5056611Y-731654D01*
G01X4993848Y-817379D01*
G01X5056611Y-903104D01*
G37*
G36*
G01X4927618Y211201D02*
G01X4919878Y210613D01*
G01X4912035Y210414D01*
G01X4904191Y210613D01*
G01X4896451Y211201D01*
G01X4888824Y212170D01*
G01X4881319Y213510D01*
G01X4866713Y217265D01*
G01X4852711Y222390D01*
G01X4839388Y228807D01*
G01X4826823Y236440D01*
G01X4815091Y245213D01*
G01X4804269Y255048D01*
G01X4794433Y265871D01*
G01X4785660Y277603D01*
G01X4778027Y290168D01*
G01X4771610Y303490D01*
G01X4766486Y317492D01*
G01X4762731Y332098D01*
G01X4761390Y339604D01*
G01X4760421Y347231D01*
G01X4759833Y354971D01*
G01X4759635Y362814D01*
G01X4785035Y362814D01*
G01X4785692Y349848D01*
G01X4787619Y337252D01*
G01X4790754Y325090D01*
G01X4795031Y313428D01*
G01X4800385Y302328D01*
G01X4806754Y291857D01*
G01X4814072Y282077D01*
G01X4822274Y273054D01*
G01X4831297Y264851D01*
G01X4841077Y257534D01*
G01X4851549Y251165D01*
G01X4862648Y245810D01*
G01X4874310Y241534D01*
G01X4886472Y238399D01*
G01X4886472Y238399D01*
G01X4899068Y236471D01*
G01X4912035Y235814D01*
G01X4925001Y236471D01*
G01X4937597Y238399D01*
G01X4949759Y241534D01*
G01X4961421Y245810D01*
G01X4972521Y251165D01*
G01X4982992Y257534D01*
G01X4992772Y264851D01*
G01X5001795Y273054D01*
G01X5009998Y282077D01*
G01X5017315Y291857D01*
G01X5023684Y302328D01*
G01X5029038Y313428D01*
G01X5033315Y325090D01*
G01X5036450Y337252D01*
G01X5038378Y349848D01*
G01X5039035Y362814D01*
G01X5038378Y375781D01*
G01X5036450Y388377D01*
G01X5033315Y400539D01*
G01X5029038Y412201D01*
G01X5023684Y423300D01*
G01X5017315Y433772D01*
G01X5009998Y443551D01*
G01X5001795Y452575D01*
G01X4992772Y460777D01*
G01X4982992Y468095D01*
G01X4972521Y474463D01*
G01X4961421Y479818D01*
G01X4949759Y484095D01*
G01X4937597Y487230D01*
G01X4925001Y489157D01*
G01X4912035Y489814D01*
G01X4899068Y489157D01*
G01X4886472Y487230D01*
G01X4874310Y484095D01*
G01X4862648Y479818D01*
G01X4851549Y474463D01*
G01X4841077Y468095D01*
G01X4831297Y460777D01*
G01X4822274Y452575D01*
G01X4814072Y443551D01*
G01X4806754Y433772D01*
G01X4800385Y423300D01*
G01X4795031Y412201D01*
G01X4790754Y400539D01*
G01X4787619Y388377D01*
G01X4785692Y375781D01*
G01X4785035Y362814D01*
G01X4759635Y362814D01*
G01X4759833Y370657D01*
G01X4760421Y378398D01*
G01X4761390Y386025D01*
G01X4762731Y393530D01*
G01X4766486Y408136D01*
G01X4771610Y422138D01*
G01X4778027Y435460D01*
G01X4785660Y448026D01*
G01X4794433Y459758D01*
G01X4804269Y470580D01*
G01X4815091Y480416D01*
G01X4826823Y489189D01*
G01X4839388Y496822D01*
G01X4852711Y503239D01*
G01X4866713Y508363D01*
G01X4881319Y512118D01*
G01X4888824Y513459D01*
G01X4896451Y514428D01*
G01X4904191Y515016D01*
G01X4912035Y515214D01*
G01X4919878Y515016D01*
G01X4927618Y514428D01*
G01X4935245Y513459D01*
G01X4942751Y512118D01*
G01X4957356Y508363D01*
G01X4971359Y503239D01*
G01X4984681Y496822D01*
G01X4997246Y489189D01*
G01X5008978Y480416D01*
G01X5019800Y470580D01*
G01X5029636Y459758D01*
G01X5038409Y448026D01*
G01X5046042Y435460D01*
G01X5052459Y422138D01*
G01X5057584Y408136D01*
G01X5061339Y393530D01*
G01X5062679Y386025D01*
G01X5063648Y378398D01*
G01X5064236Y370657D01*
G01X5064435Y362814D01*
G01X5064236Y354971D01*
G01X5063648Y347231D01*
G01X5062679Y339604D01*
G01X5061339Y332098D01*
G01X5057584Y317492D01*
G01X5052459Y303490D01*
G01X5046042Y290168D01*
G01X5038409Y277603D01*
G01X5029636Y265871D01*
G01X5019800Y255048D01*
G01X5008978Y245213D01*
G01X4997246Y236440D01*
G01X4984681Y228807D01*
G01X4971359Y222390D01*
G01X4957356Y217265D01*
G01X4942751Y213510D01*
G01X4935245Y212170D01*
G01X4927618Y211201D01*
G37*
G36*
G01X5064435Y-2028737D02*
G01X4981326Y-2028737D01*
G01X4981326Y-2111871D01*
G01X4842769Y-2111871D01*
G01X4842769Y-2028763D01*
G01X4759635Y-2028763D01*
G01X4759635Y-1915606D01*
G01X4785035Y-1915606D01*
G01X4785035Y-2003337D01*
G01X4868169Y-2003337D01*
G01X4868169Y-2086471D01*
G01X4868169Y-2086471D01*
G01X4955900Y-2086471D01*
G01X4955900Y-2003363D01*
G01X5039035Y-2003363D01*
G01X5039035Y-1915606D01*
G01X4955900Y-1915606D01*
G01X4955900Y-1832471D01*
G01X4868169Y-1832471D01*
G01X4868169Y-1915606D01*
G01X4785035Y-1915606D01*
G01X4759635Y-1915606D01*
G01X4759635Y-1890206D01*
G01X4842769Y-1890206D01*
G01X4842769Y-1807071D01*
G01X4981300Y-1807071D01*
G01X4981300Y-1890206D01*
G01X5064435Y-1890206D01*
G01X5064435Y-2028737D01*
G37*
G36*
G01X5064435Y-1226500D02*
G01X4994407Y-1378900D01*
G01X5064435Y-1531300D01*
G01X4912035Y-1461272D01*
G01X4759635Y-1531300D01*
G01X4783397Y-1479586D01*
G01X4811349Y-1479586D01*
G01X4901417Y-1438184D01*
G01X4912035Y-1433307D01*
G01X4922652Y-1438184D01*
G01X5012720Y-1479586D01*
G01X4971318Y-1389517D01*
G01X4966441Y-1378900D01*
G01X4971318Y-1368283D01*
G01X5012720Y-1278214D01*
G01X4922652Y-1319616D01*
G01X4912035Y-1324493D01*
G01X4901417Y-1319616D01*
G01X4811349Y-1278214D01*
G01X4852751Y-1368283D01*
G01X4857628Y-1378900D01*
G01X4857628Y-1378900D01*
G01X4852751Y-1389517D01*
G01X4811349Y-1479586D01*
G01X4783397Y-1479586D01*
G01X4829662Y-1378900D01*
G01X4759635Y-1226500D01*
G01X4912035Y-1296528D01*
G01X5064435Y-1226500D01*
G37*
G36*
G01X4759635Y-65357D02*
G01X5064435Y-65357D01*
G01X4912035Y-329314D01*
G01X4774300Y-90757D01*
G01X4803627Y-90757D01*
G01X4912035Y-278514D01*
G01X5020442Y-90757D01*
G01X5020442Y-90757D01*
G01X4803627Y-90757D01*
G01X4774300Y-90757D01*
G01X4759635Y-65357D01*
G37*
G36*
G01X4759635Y1095786D02*
G01X5039035Y1095786D01*
G01X5039035Y816386D01*
G01X4759635Y816386D01*
G01X4759635Y1070386D01*
G01X4785035Y1070386D01*
G01X4785035Y841786D01*
G01X5013635Y841786D01*
G01X5013635Y1070386D01*
G01X5013635Y1070386D01*
G01X4785035Y1070386D01*
G01X4759635Y1070386D01*
G01X4759635Y1095786D01*
G37*
G36*
G01X5039035Y-2667043D02*
G01X4937435Y-2667043D01*
G01X4899335Y-2590843D01*
G01X4861235Y-2667043D01*
G01X4759635Y-2667043D01*
G01X4759635Y-2641643D01*
G01X4785035Y-2641643D01*
G01X4845537Y-2641643D01*
G01X4876602Y-2579489D01*
G01X4899335Y-2534048D01*
G01X4922068Y-2579489D01*
G01X4953132Y-2641643D01*
G01X5013635Y-2641643D01*
G01X5013635Y-2581140D01*
G01X4951481Y-2550050D01*
G01X4906040Y-2527343D01*
G01X4951481Y-2504635D01*
G01X5013635Y-2473546D01*
G01X5013635Y-2413043D01*
G01X4953132Y-2413043D01*
G01X4922068Y-2475197D01*
G01X4899335Y-2520637D01*
G01X4876602Y-2475197D01*
G01X4845537Y-2413043D01*
G01X4785035Y-2413043D01*
G01X4785035Y-2473546D01*
G01X4847188Y-2504635D01*
G01X4892629Y-2527343D01*
G01X4847188Y-2550050D01*
G01X4785035Y-2581140D01*
G01X4785035Y-2641643D01*
G01X4785035Y-2641643D01*
G01X4759635Y-2641643D01*
G01X4759635Y-2565443D01*
G01X4835835Y-2527343D01*
G01X4759635Y-2489243D01*
G01X4759635Y-2387643D01*
G01X4861235Y-2387643D01*
G01X4899335Y-2463843D01*
G01X4937435Y-2387643D01*
G01X5039035Y-2387643D01*
G01X5039035Y-2489243D01*
G01X4962835Y-2527343D01*
G01X5039035Y-2565443D01*
G01X5039035Y-2667043D01*
G37*

G04 PolygonModel Start*
G54D18*
G01X4469349Y-2823071D02*
G01X21213101Y-2823071D01*
G01X4469349Y-2242500D02*
G01X21213101Y-2242500D01*
G01X4469349Y-1661929D02*
G01X21213101Y-1661929D01*
G01X4469349Y-1081357D02*
G01X21213101Y-1081357D01*
G01X4469349Y-500786D02*
G01X21213101Y-500786D01*
G01X4469349Y79786D02*
G01X21213101Y79786D01*
G01X4469349Y660357D02*
G01X21213101Y660357D01*
G01X4469349Y1240929D02*
G01X21213101Y1240929D01*
G01X4469349Y1821500D02*
G01X21213101Y1821500D01*
G01X4469349Y1821500D02*
G01X4469349Y-2797671D01*
G01X5920777Y1821500D02*
G01X5920777Y-2797671D01*
G01X7334941Y1821500D02*
G01X7334941Y-2797671D01*
G01X11253798Y1821500D02*
G01X11253798Y-2797671D01*
G01X12715205Y1821500D02*
G01X12715205Y-2797671D01*
G01X14146386Y1821500D02*
G01X14146386Y-2797671D01*
G01X15815565Y1821500D02*
G01X15815565Y-2797671D01*
G01X17734934Y1821500D02*
G01X17734934Y-2797671D01*
G01X21213101Y1821500D02*
G01X21213101Y-2797671D01*

M02*

