G04 Layer: BottomSolderMaskLayer*
G04 EasyEDA Pro v3.2.186, 2026-09-09 09:36:43*
G04 Gerber Generator version 0.3*
G04 Scale: 100 percent, Rotated: No, Reflected: No*
G04 Dimensions in millimeters*
G04 Leading zeros omitted, absolute positions, 4 integers and 5 decimals*
G04 Generated by one-click*
G04 Object Configs: Pad,Via,Track,Text,Image,Dimension,BoardOutline,BoardCutout,CopperFilled,SolidRegion,FPCStiffener,Line,PlaneZone,ComponentProperty,ComponentSilkscreen,TearDrop*
G04 Layer Configs: 1,2,3,4,5,6,7,8,9,10,11,13,14,71,72,56*
G04 Copper Areas: 0*
%FSLAX45Y45*%
%MOMM*%
%AMRoundRect*1,1,$1,$2,$3*1,1,$1,$4,$5*1,1,$1,0-$2,0-$3*1,1,$1,0-$4,0-$5*20,1,$1,$2,$3,$4,$5,0*20,1,$1,$4,$5,0-$2,0-$3,0*20,1,$1,0-$2,0-$3,0-$4,0-$5,0*20,1,$1,0-$4,0-$5,$2,$3,0*4,1,4,$2,$3,$4,$5,0-$2,0-$3,0-$4,0-$5,$2,$3,0*%
%ADD10RoundRect,0.1016X-0.8X0.8X0.8X0.8*%
%ADD11C,1.7016*%
%ADD12RoundRect,0.1016X-1.75X0.6X1.75X0.6*%
%ADD13RoundRect,0.1016X-0.4X0.45X0.4X0.45*%
%ADD14RoundRect,0.1016X-1.0X1.0X1.0X1.0*%
%ADD15RoundRect,0.1016X-0.59505X0.86399X0.59505X0.86399*%
%ADD16RoundRect,0.1016X-0.40386X0.4318X0.40386X0.4318*%
%ADD17O,1.9047X4.30159*%
%ADD18O,1.9016X4.30159*%
%ADD19O,1.9016X4.10159*%
%ADD20O,4.10159X1.9016*%
%ADD21C,1.8016*%
%ADD22RoundRect,0.1016X-0.5X0.32501X0.5X0.32501*%
%ADD23RoundRect,0.1016X-0.40324X0.432X0.40324X0.432*%
G75*


G04 Pad Start*
G54D10*
G01X-770651Y-255500D03*
G54D11*
G01X-516651Y-255500D03*
G01X-262651Y-255500D03*
G01X-8651Y-255500D03*
G01X245349Y-255500D03*
G01X499349Y-255500D03*
G01X753349Y-255500D03*
G01X1007349Y-255500D03*
G01X1261349Y-255500D03*
G01X1515349Y-255500D03*
G01X1769349Y-255500D03*
G54D10*
G01X-770651Y1444500D03*
G54D11*
G01X-516651Y1444500D03*
G01X-262651Y1444500D03*
G01X-8651Y1444500D03*
G01X245349Y1444500D03*
G01X499349Y1444500D03*
G01X753349Y1444500D03*
G01X1007349Y1444500D03*
G01X1261349Y1444500D03*
G01X1515349Y1444500D03*
G01X1769349Y1444500D03*
G54D12*
G01X36398Y971590D03*
G01X-497586Y971590D03*
G54D13*
G01X489289Y871514D03*
G01X349285Y871514D03*
G54D14*
G01X-10662Y421500D03*
G01X-450640Y421500D03*
G54D15*
G01X-675152Y71500D03*
G01X-386150Y71500D03*
G54D16*
G01X1194787Y821500D03*
G01X1043911Y821500D03*
G01X344787Y171500D03*
G01X193911Y171500D03*
G01X644787Y171500D03*
G01X493911Y171500D03*
G01X1244787Y171500D03*
G01X1093911Y171500D03*
G01X1544787Y171500D03*
G01X1393911Y171500D03*
G54D18*
G01X-670652Y386334D03*
G54D19*
G01X-1270650Y386334D03*
G54D20*
G01X-970676Y856666D03*
G54D21*
G01X450349Y-778500D03*
G01X196349Y-778500D03*
G01X-57651Y-778500D03*
G01X-311651Y-778500D03*
G01X1750349Y-778500D03*
G01X1496349Y-778500D03*
G01X1242349Y-778500D03*
G01X988349Y-778500D03*
G54D22*
G01X869349Y916496D03*
G01X869349Y726504D03*
G01X669349Y821500D03*
G54D23*
G01X644685Y1171500D03*
G01X494012Y1171500D03*
G04 Pad End*

M02*

